<svg width="40" height="40" viewBox="0 0 40 40" fill="none" xmlns="http://www.w3.org/2000/svg">
<path d="M40 4C40 1.79086 38.2091 0 36 0H4C1.79086 0 0 1.79086 0 4V36C0 38.2091 1.79086 40 4 40H36C38.2091 40 40 38.2091 40 36V4Z" fill="white"/>
<path fill-rule="evenodd" clip-rule="evenodd" d="M29.7874 20.2273C29.7874 19.5183 29.7238 18.8364 29.6056 18.1819H20.1874V22.0501H25.5692C25.3374 23.3001 24.6328 24.3592 23.5737 25.0683V27.5774H26.8056C28.6965 25.8364 29.7874 23.2728 29.7874 20.2273Z" fill="#4285F4"/>
<path fill-rule="evenodd" clip-rule="evenodd" d="M20.1872 29.9999C22.8872 29.9999 25.1509 29.1045 26.8054 27.5772L23.5736 25.0681C22.6782 25.6681 21.5327 26.0226 20.1872 26.0226C17.5827 26.0226 15.3781 24.2635 14.5918 21.8999H11.2509V24.4908C12.8963 27.759 16.2781 29.9999 20.1872 29.9999Z" fill="#34A853"/>
<path fill-rule="evenodd" clip-rule="evenodd" d="M14.5919 21.9C14.3919 21.3 14.2783 20.659 14.2783 20C14.2783 19.3409 14.3919 18.6999 14.5919 18.0999V15.509H11.251C10.5737 16.859 10.1874 18.3863 10.1874 20C10.1874 21.6136 10.5737 23.1409 11.251 24.4909L14.5919 21.9Z" fill="#FBBC05"/>
<path fill-rule="evenodd" clip-rule="evenodd" d="M20.1872 13.9773C21.6554 13.9773 22.9736 14.4818 24.01 15.4727L26.8782 12.6046C25.1463 10.9909 22.8827 10 20.1872 10C16.2781 10 12.8963 12.2409 11.2509 15.5091L14.5918 18.1C15.3781 15.7364 17.5827 13.9773 20.1872 13.9773Z" fill="#EA4335"/>
</svg>
