<svg width="42" height="42" viewBox="0 0 42 42" fill="none" xmlns="http://www.w3.org/2000/svg">
<path d="M29.5312 6.5625H34.125C34.4731 6.5625 34.8069 6.70078 35.0531 6.94692C35.2992 7.19306 35.4375 7.5269 35.4375 7.875V12.4688" stroke="white" stroke-width="1.5" stroke-linecap="round" stroke-linejoin="round"/>
<path d="M29.5312 35.4375H34.125C34.4731 35.4375 34.8069 35.2992 35.0531 35.0531C35.2992 34.8069 35.4375 34.4731 35.4375 34.125V29.5312" stroke="white" stroke-width="1.5" stroke-linecap="round" stroke-linejoin="round"/>
<path d="M12.4688 35.4375H7.875C7.5269 35.4375 7.19306 35.2992 6.94692 35.0531C6.70078 34.8069 6.5625 34.4731 6.5625 34.125V29.5312" stroke="white" stroke-width="1.5" stroke-linecap="round" stroke-linejoin="round"/>
<path d="M12.4688 6.5625H7.875C7.5269 6.5625 7.19306 6.70078 6.94692 6.94692C6.70078 7.19306 6.5625 7.5269 6.5625 7.875V12.4688" stroke="white" stroke-width="1.5" stroke-linecap="round" stroke-linejoin="round"/>
<path d="M21 23.625C23.8995 23.625 26.25 21.2745 26.25 18.375C26.25 15.4755 23.8995 13.125 21 13.125C18.1005 13.125 15.75 15.4755 15.75 18.375C15.75 21.2745 18.1005 23.625 21 23.625Z" stroke="white" stroke-width="1.5" stroke-linecap="round" stroke-linejoin="round"/>
<path d="M12.2883 28.8749C13.1273 27.2923 14.3816 25.9681 15.9165 25.0446C17.4513 24.121 19.2088 23.6331 21 23.6331C22.7913 23.6331 24.5488 24.121 26.0836 25.0446C27.6185 25.9681 28.8728 27.2923 29.7118 28.8749" stroke="white" stroke-width="1.5" stroke-linecap="round" stroke-linejoin="round"/>
</svg>
