<svg width="800" height="800" viewBox="0 0 800 800" fill="none" xmlns="http://www.w3.org/2000/svg">
    <path d="M400 733.333C584.095 733.333 733.333 584.095 733.333 400C733.333 215.905 584.095 66.6667 400 66.6667C215.905 66.6667 66.6667 215.905 66.6667 400C66.6667 584.095 215.905 733.333 400 733.333Z" stroke="white" stroke-width="45" stroke-linecap="round" stroke-linejoin="round"/>
    <path d="M303 300C310.837 277.722 326.305 258.937 346.665 246.971C367.025 235.005 390.963 230.631 414.239 234.624C437.515 238.616 458.627 250.717 473.836 268.784C489.045 286.851 497.369 309.717 497.333 333.333C497.333 400 397.333 433.333 397.333 433.333" stroke="white" stroke-width="45" stroke-linecap="round" stroke-linejoin="round"/>
    <path d="M400 566.667H400.333" stroke="white" stroke-width="66.6667" stroke-linecap="round" stroke-linejoin="round"/>
    </svg>
    