<svg width="28" height="29" viewBox="0 0 28 29" fill="none" xmlns="http://www.w3.org/2000/svg">
<path d="M18.375 16.9279C22.241 16.9279 25.375 13.7938 25.375 9.92786C25.375 6.06186 22.241 2.92786 18.375 2.92786C14.509 2.92786 11.375 6.06186 11.375 9.92786C11.375 13.7938 14.509 16.9279 18.375 16.9279Z" stroke="white" stroke-width="1.5" stroke-linecap="round" stroke-linejoin="round"/>
<path d="M23.3298 14.8826L13.4204 4.97318" stroke="white" stroke-width="1.5" stroke-linecap="round" stroke-linejoin="round"/>
<path d="M10.9375 17.3654L9.625 18.6779" stroke="white" stroke-width="1.5" stroke-linecap="round" stroke-linejoin="round"/>
<path d="M11.4624 11.0107L3.07336 22.4513C2.94726 22.6191 2.88659 22.8272 2.90269 23.0365C2.9188 23.2459 3.01057 23.4422 3.16086 23.5888L4.71399 25.1419C4.86059 25.2922 5.05691 25.384 5.26624 25.4001C5.47558 25.4162 5.68362 25.3555 5.85149 25.2294L17.2921 16.8403" stroke="white" stroke-width="1.5" stroke-linecap="round" stroke-linejoin="round"/>
</svg>
