<svg width="28" height="29" viewBox="0 0 28 29" fill="none" xmlns="http://www.w3.org/2000/svg">
<path d="M19.25 3.80286V14.3029L15.75 11.6779L12.25 14.3029V3.80286" stroke="white" stroke-width="1.5" stroke-linecap="round" stroke-linejoin="round"/>
<path d="M5.25002 23.9279C5.24858 23.5828 5.31549 23.2408 5.44689 22.9216C5.5783 22.6025 5.7716 22.3125 6.01564 22.0685C6.25968 21.8245 6.54964 21.6312 6.86877 21.4997C7.1879 21.3683 7.5299 21.3014 7.87502 21.3029H22.75V3.80288H7.87502C7.5299 3.80143 7.1879 3.86834 6.86877 3.99975C6.54964 4.13115 6.25968 4.32446 6.01564 4.5685C5.7716 4.81254 5.5783 5.10249 5.44689 5.42163C5.31549 5.74076 5.24858 6.08275 5.25002 6.42788V23.9279Z" stroke="white" stroke-width="1.5" stroke-linecap="round" stroke-linejoin="round"/>
<path d="M5.25 23.9279V24.8029H21" stroke="white" stroke-width="1.5" stroke-linecap="round" stroke-linejoin="round"/>
</svg>
