<svg id="Layer_1" data-name="Layer 1" xmlns="http://www.w3.org/2000/svg" viewBox="0 0 130.16604 36.4595"><defs><style>.cls-1{fill:#fff;}.cls-2{fill:#f5cc1a;}.cls-3{fill:#0f6bc1;}</style></defs><path class="cls-1" d="M307.78407,239.54318a6.72579,6.72579,0,0,0-2.2752-1.4272,7.90107,7.90107,0,0,0-2.8554-.5046,7.82105,7.82105,0,0,0-2.875.5135,6.94288,6.94288,0,0,0-2.2844,1.4379,6.46819,6.46819,0,0,0-1.504,2.1699,7.21474,7.21474,0,0,0,0,5.4446,6.578,6.578,0,0,0,1.504,2.1801,6.8423,6.8423,0,0,0,2.2943,1.4467,8.28029,8.28029,0,0,0,5.72049.0096,6.60961,6.60961,0,0,0,3.7696-3.6174,6.88225,6.88225,0,0,0,.5325-2.732,6.95884,6.95884,0,0,0-.5325-2.7415A6.53169,6.53169,0,0,0,307.78407,239.54318Zm-.8186,6.8059a4.49426,4.49426,0,0,1-.9807,1.4849,4.39317,4.39317,0,0,1-1.4754.9711,4.91329,4.91329,0,0,1-1.8559.3426,5.05886,5.05886,0,0,1-1.8755-.3426,4.27346,4.27346,0,0,1-1.49419-.9806,4.803,4.803,0,0,1,0-6.72,4.28457,4.28457,0,0,1,1.49419-.9806,5.061,5.061,0,0,1,1.8755-.3428,4.91529,4.91529,0,0,1,1.8559.3428,4.51468,4.51468,0,0,1,1.4852.9706,4.30748,4.30748,0,0,1,.9798,1.4855,5.01546,5.01546,0,0,1,.34281,1.8843A4.91081,4.91081,0,0,1,306.96547,246.34908Zm-22.35979-5.2546a4.51462,4.51462,0,0,1,1.5327-.9706,5.36909,5.36909,0,0,1,1.9515-.3428,4.93254,4.93254,0,0,1,3.674,1.523l1.5614-1.523a5.997,5.997,0,0,0-2.2942-1.6178,8.61662,8.61662,0,0,0-5.9396-.0473,6.86942,6.86942,0,0,0-2.2844,1.437,6.525,6.525,0,0,0-1.514,2.1698,7.315,7.315,0,0,0,0,5.4832,6.59783,6.59783,0,0,0,1.5042,2.1701,6.75681,6.75681,0,0,0,2.2745,1.4376,7.8806,7.8806,0,0,0,2.8652.5049,9.32862,9.32862,0,0,0,2.7988-.4287,7.111,7.111,0,0,0,2.399-1.2663v-5.2924H290.812v4.1157a4.69964,4.69964,0,0,1-.8278.3869,5.90539,5.90539,0,0,1-1.914.3139,5.2946,5.2946,0,0,1-1.9416-.3426,4.52255,4.52255,0,0,1-1.5229-.9711,4.42153,4.42153,0,0,1-1.0085-1.4941,5.05859,5.05859,0,0,1,0-3.7599A4.45337,4.45337,0,0,1,284.60568,241.09448Zm72.87429-3.2927h-2.7981l-6.5678,6.8367v-6.8367h-2.475v13.3261h2.475v-3.4322l2.1123-2.1444,4.7025,5.5766h2.91331l-5.96621-7.373Zm4.5123,11.2314V245.378h6.4343v-2.0364h-6.4343v-3.4457h7.2531v-2.0941h-9.7281v13.3261h9.9948v-2.0947Zm-22.426,2.0947h2.4748v-13.3261h-2.4748Zm-8.9283-13.3261h-2.475v13.3261h9.4427v-2.0947H330.638Zm-8.5765.8277a8.30064,8.30064,0,0,0-3.7787-.8277h-5.8447v13.3261h5.8447a8.297,8.297,0,0,0,3.7787-.8286,6.163,6.163,0,0,0,2.5608-2.3318,7.17293,7.17293,0,0,0,0-7.0062A6.16889,6.16889,0,0,0,322.06147,238.62948Zm.3812,8.2339a4.25382,4.25382,0,0,1-1.7136,1.599,5.54791,5.54791,0,0,1-2.5985.5708H314.913v-9.1373h3.2176a5.55157,5.55157,0,0,1,2.5985.5708,4.30337,4.30337,0,0,1,1.7136,1.58,5.0002,5.0002,0,0,1,0,4.8167Zm-58.23949-7.6978a2.6196,2.6196,0,1,0,5.2392,0v-.1135h-5.2392Zm-6.481,10.2507-6.9876-7.9987,4.3821-11.6977,2.232,5.6575,12.5305.0167-1.0294-2.7513-9.6426.0015-4.1543-10.5407-7.4522,19.8788,6.5685,7.5251c-2.6237,3.0793-4.9287,3.3526-8.6821,3.3708h-.5011c-2.0772,0-2.6146-.3006-2.7513-.4829-.5831-.7925.5102-4.382,1.7765-8.5453,1.1114-3.708,2.6147-5.7487,4.2181-6.8966l1.3665-3.635c-3.9539,1.2207-6.5776,4.373-8.1992,9.7389-1.895,6.2315-2.7605,9.0739-1.3575,10.9597,1.0386,1.403,2.9973,1.5943,4.9469,1.5943h.6104c4.0905-.0365,7.1972-.4738,10.3858-4.0267.2459-.2642.4828-.5467.7197-.8564l.3371-.4282Zm21.1038-8.8625a9.2527,9.2527,0,0,1,1.69-2.5426,10.70087,10.70087,0,0,0-5.9761-4.7018l1.3665,3.6623A9.57611,9.57611,0,0,1,278.826,240.55378Zm3.153,11.6684a.64225.64225,0,0,1-.0871.1732c-.1367.1823-.6742.492-2.7513.492-3.635,0-5.9399-.1365-8.3633-2.5053l-1.8038,2.0589c3.0702,2.9153,6.1403,3.1795,10.1671,3.1795,1.9587,0,3.9083-.2004,4.9469-1.5943a3.28151,3.28151,0,0,0,.3266-.5554c-.1086-.0376-.221-.0671-.3278-.1085A9.58866,9.58866,0,0,1,281.979,252.22218Zm-27.0549-13.0566a2.6197,2.6197,0,0,0,5.2394,0v-.1135h-5.2394Zm21.6018,2.8168-7.4431-19.8788-3.6988,9.3563h2.9426l.6833-1.74,4.3821,11.6977-11.3241,12.9822-1.7128-1.9588,1.8494-2.1228h-3.6897v.0092l-1.7127,2.2047,5.2658,6.031Z" transform="translate(-239.34603 -222.10358)"/><path class="cls-2" d="M281.77581,236.48155c-.02033-.01741.94961-.948,1.04073-1.02825a13.93913,13.93913,0,0,1,1.17955-.92923,16.27707,16.27707,0,0,1,2.63443-1.501,18.99862,18.99862,0,0,1,2.84412-1.02147,13.85232,13.85232,0,0,1,3.065-.58728,8.53311,8.53311,0,0,1,3.94847.79041.1937.1937,0,0,1,.006.34615,17.34449,17.34449,0,0,1-6.48043,1.53229c-.499.04851-.99762.10281-1.49291.181a16.52623,16.52623,0,0,0-6.2337,2.15776q-.06909.04373-.13753.0885A.3043.3043,0,0,1,281.77581,236.48155Z" transform="translate(-239.34603 -222.10358)"/><path class="cls-3" d="M281.77581,236.48167a14.658,14.658,0,0,1,3.75568-4.62139,20.00119,20.00119,0,0,1,3.63807-2.40369,8.8573,8.8573,0,0,1,5.65117-1.01057.19377.19377,0,0,1,.09788.33217c-1.94425,1.80315-4.31083,2.65561-6.72448,3.52921a17.9514,17.9514,0,0,0-6.05047,4.10275A.30419.30419,0,0,1,281.77581,236.48167Z" transform="translate(-239.34603 -222.10358)"/></svg>