<svg width="186" height="64" viewBox="0 0 186 64" fill="none" xmlns="http://www.w3.org/2000/svg">
<path d="M93.7251 20.1209V21.4396C93.7251 23.7399 93.0146 25.5788 91.5936 26.956C90.1871 28.3187 88.3964 29 86.2214 29C83.8579 29 81.8932 28.2308 80.3272 26.6923C78.7757 25.1538 78 23.2637 78 21.022C78 18.7802 78.7685 16.8828 80.3055 15.3297C81.857 13.7766 83.7492 13 85.9822 13C87.4032 13 88.7009 13.3223 89.8754 13.967C91.0644 14.6117 91.9851 15.4615 92.6376 16.5165L89.6796 18.2308C89.3461 17.7033 88.8459 17.2711 88.1789 16.9341C87.5264 16.5971 86.7869 16.4286 85.9604 16.4286C84.6699 16.4286 83.5969 16.8608 82.7415 17.7253C81.9005 18.5897 81.48 19.696 81.48 21.044C81.48 22.3773 81.915 23.4689 82.785 24.3187C83.6549 25.1538 84.8149 25.5714 86.2649 25.5714C88.2804 25.5714 89.5781 24.7802 90.1581 23.1978H86.0909V20.1209H93.7251Z" fill="white"/>
<path d="M108.563 26.6923C107.026 28.2308 105.155 29 102.951 29C100.747 29 98.877 28.2308 97.34 26.6923C95.803 25.1538 95.0345 23.2564 95.0345 21C95.0345 18.7436 95.803 16.8462 97.34 15.3077C98.877 13.7692 100.747 13 102.951 13C105.155 13 107.026 13.7692 108.563 15.3077C110.1 16.8462 110.868 18.7436 110.868 21C110.868 23.2564 110.1 25.1538 108.563 26.6923ZM99.776 24.2967C100.631 25.1465 101.69 25.5714 102.951 25.5714C104.213 25.5714 105.264 25.1465 106.105 24.2967C106.961 23.4469 107.388 22.348 107.388 21C107.388 19.652 106.961 18.5531 106.105 17.7033C105.264 16.8535 104.213 16.4286 102.951 16.4286C101.69 16.4286 100.631 16.8535 99.776 17.7033C98.935 18.5531 98.5145 19.652 98.5145 21C98.5145 22.348 98.935 23.4469 99.776 24.2967Z" fill="white"/>
<path d="M118.918 13.3077C121.02 13.3077 122.775 14.0476 124.181 15.5275C125.602 16.9927 126.313 18.8168 126.313 21C126.313 23.1831 125.602 25.0147 124.181 26.4945C122.775 27.9597 121.02 28.6923 118.918 28.6923H112.828V13.3077H118.918ZM118.918 25.3077C120.121 25.3077 121.093 24.9194 121.832 24.1429C122.586 23.3516 122.963 22.304 122.963 21C122.963 19.696 122.586 18.6557 121.832 17.8791C121.093 17.0879 120.121 16.6923 118.918 16.6923H116.308V25.3077H118.918Z" fill="white"/>
<path d="M131.749 25.3077H137.187V28.6923H128.269V13.3077H131.749V25.3077Z" fill="white"/>
<path d="M138.719 13.3077H142.199V28.6923H138.719V13.3077Z" fill="white"/>
<path d="M157.126 28.6923H153.167L148.295 21.5714V28.6923H144.815V13.3077H148.295V19.989L152.95 13.3077H156.908L151.775 20.8022L157.126 28.6923Z" fill="white"/>
<path d="M161.91 25.3077H168V28.6923H158.43V13.3077H167.891V16.6923H161.91V19.2418H167.348V22.5824H161.91V25.3077Z" fill="white"/>
<rect x="174" y="7" width="12" height="4" fill="#0058B5"/>
<rect x="174" y="11" width="12" height="4" fill="#F7CE00"/>
<path d="M82.532 36.3029H83.804V42.0269C83.804 42.9389 83.504 43.6389 82.904 44.1269C82.304 44.6149 81.576 44.8589 80.72 44.8589C79.336 44.8589 78.388 44.3749 77.876 43.4069L78.992 42.7589C79.304 43.3749 79.888 43.6829 80.744 43.6829C81.304 43.6829 81.74 43.5349 82.052 43.2389C82.372 42.9509 82.532 42.5469 82.532 42.0269V41.2949C82.044 41.9909 81.348 42.3389 80.444 42.3389C79.596 42.3389 78.88 42.0389 78.296 41.4389C77.712 40.8309 77.42 40.0989 77.42 39.2429C77.42 38.3869 77.712 37.6589 78.296 37.0589C78.88 36.4509 79.596 36.1469 80.444 36.1469C81.348 36.1469 82.044 36.4949 82.532 37.1909V36.3029ZM79.256 40.5869C79.624 40.9469 80.08 41.1269 80.624 41.1269C81.168 41.1269 81.62 40.9469 81.98 40.5869C82.348 40.2269 82.532 39.7789 82.532 39.2429C82.532 38.7069 82.348 38.2589 81.98 37.8989C81.62 37.5389 81.168 37.3589 80.624 37.3589C80.08 37.3589 79.624 37.5389 79.256 37.8989C78.896 38.2589 78.716 38.7069 78.716 39.2429C78.716 39.7789 78.896 40.2269 79.256 40.5869ZM90.0666 36.3029H91.3626V42.3029H90.0666V41.4389C89.5786 42.1189 88.8786 42.4589 87.9666 42.4589C87.1426 42.4589 86.4386 42.1549 85.8546 41.5469C85.2706 40.9309 84.9786 40.1829 84.9786 39.3029C84.9786 38.4149 85.2706 37.6669 85.8546 37.0589C86.4386 36.4509 87.1426 36.1469 87.9666 36.1469C88.8786 36.1469 89.5786 36.4829 90.0666 37.1549V36.3029ZM86.8146 40.6829C87.1746 41.0429 87.6266 41.2229 88.1706 41.2229C88.7146 41.2229 89.1666 41.0429 89.5266 40.6829C89.8866 40.3149 90.0666 39.8549 90.0666 39.3029C90.0666 38.7509 89.8866 38.2949 89.5266 37.9349C89.1666 37.5669 88.7146 37.3829 88.1706 37.3829C87.6266 37.3829 87.1746 37.5669 86.8146 37.9349C86.4546 38.2949 86.2746 38.7509 86.2746 39.3029C86.2746 39.8549 86.4546 40.3149 86.8146 40.6829ZM99.4252 36.1469C100.105 36.1469 100.653 36.3669 101.069 36.8069C101.485 37.2469 101.693 37.8389 101.693 38.5829V42.3029H100.397V38.6669C100.397 38.2509 100.293 37.9309 100.085 37.7069C99.8772 37.4749 99.5932 37.3589 99.2332 37.3589C98.8332 37.3589 98.5132 37.4909 98.2732 37.7549C98.0412 38.0189 97.9252 38.4149 97.9252 38.9429V42.3029H96.6292V38.6669C96.6292 38.2509 96.5292 37.9309 96.3292 37.7069C96.1372 37.4749 95.8612 37.3589 95.5012 37.3589C95.1092 37.3589 94.7892 37.4949 94.5412 37.7669C94.2932 38.0309 94.1692 38.4229 94.1692 38.9429V42.3029H92.8732V36.3029H94.1692V37.0229C94.5532 36.4389 95.1252 36.1469 95.8852 36.1469C96.6532 36.1469 97.2212 36.4629 97.5892 37.0949C97.9892 36.4629 98.6012 36.1469 99.4252 36.1469ZM104.1 39.8549C104.196 40.3109 104.416 40.6629 104.76 40.9109C105.104 41.1509 105.524 41.2709 106.02 41.2709C106.708 41.2709 107.224 41.0229 107.568 40.5269L108.636 41.1509C108.044 42.0229 107.168 42.4589 106.008 42.4589C105.032 42.4589 104.244 42.1629 103.644 41.5709C103.044 40.9709 102.744 40.2149 102.744 39.3029C102.744 38.4069 103.04 37.6589 103.632 37.0589C104.224 36.4509 104.984 36.1469 105.912 36.1469C106.792 36.1469 107.512 36.4549 108.072 37.0709C108.64 37.6869 108.924 38.4349 108.924 39.3149C108.924 39.4509 108.908 39.6309 108.876 39.8549H104.1ZM104.088 38.7989H107.616C107.528 38.3109 107.324 37.9429 107.004 37.6949C106.692 37.4469 106.324 37.3229 105.9 37.3229C105.42 37.3229 105.02 37.4549 104.7 37.7189C104.38 37.9829 104.176 38.3429 104.088 38.7989ZM114.229 37.9589C114.229 38.1589 114.337 38.3189 114.553 38.4389C114.777 38.5509 115.045 38.6509 115.357 38.7389C115.677 38.8189 115.997 38.9149 116.317 39.0269C116.637 39.1389 116.905 39.3309 117.121 39.6029C117.345 39.8669 117.457 40.2029 117.457 40.6109C117.457 41.1869 117.233 41.6389 116.785 41.9669C116.345 42.2949 115.789 42.4589 115.117 42.4589C114.525 42.4589 114.017 42.3349 113.593 42.0869C113.169 41.8389 112.861 41.4949 112.669 41.0549L113.785 40.4069C113.993 40.9829 114.437 41.2709 115.117 41.2709C115.797 41.2709 116.137 41.0469 116.137 40.5989C116.137 40.4069 116.025 40.2509 115.801 40.1309C115.585 40.0109 115.317 39.9109 114.997 39.8309C114.685 39.7429 114.369 39.6429 114.049 39.5309C113.729 39.4189 113.457 39.2349 113.233 38.9789C113.017 38.7149 112.909 38.3829 112.909 37.9829C112.909 37.4309 113.117 36.9869 113.533 36.6509C113.957 36.3149 114.481 36.1469 115.105 36.1469C115.601 36.1469 116.041 36.2589 116.425 36.4829C116.817 36.6989 117.117 37.0029 117.325 37.3949L116.233 38.0069C116.025 37.5509 115.649 37.3229 115.105 37.3229C114.857 37.3229 114.649 37.3789 114.481 37.4909C114.313 37.5949 114.229 37.7509 114.229 37.9589ZM119.464 39.8549C119.56 40.3109 119.78 40.6629 120.124 40.9109C120.468 41.1509 120.888 41.2709 121.384 41.2709C122.072 41.2709 122.588 41.0229 122.932 40.5269L124 41.1509C123.408 42.0229 122.532 42.4589 121.372 42.4589C120.396 42.4589 119.608 42.1629 119.008 41.5709C118.408 40.9709 118.108 40.2149 118.108 39.3029C118.108 38.4069 118.404 37.6589 118.996 37.0589C119.588 36.4509 120.348 36.1469 121.276 36.1469C122.156 36.1469 122.876 36.4549 123.436 37.0709C124.004 37.6869 124.288 38.4349 124.288 39.3149C124.288 39.4509 124.272 39.6309 124.24 39.8549H119.464ZM119.451 38.7989H122.98C122.892 38.3109 122.688 37.9429 122.368 37.6949C122.056 37.4469 121.688 37.3229 121.264 37.3229C120.784 37.3229 120.384 37.4549 120.064 37.7189C119.744 37.9829 119.54 38.3429 119.451 38.7989ZM126.724 37.3109C127.052 36.5669 127.668 36.1949 128.572 36.1949V37.5989C128.076 37.5669 127.644 37.6869 127.276 37.9589C126.908 38.2229 126.724 38.6629 126.724 39.2789V42.3029H125.428V36.3029H126.724V37.3109ZM133.597 36.3029H135.013L132.673 42.3029H131.173L128.833 36.3029H130.249L131.929 40.8629L133.597 36.3029ZM136.62 39.8549C136.716 40.3109 136.936 40.6629 137.28 40.9109C137.624 41.1509 138.044 41.2709 138.54 41.2709C139.228 41.2709 139.744 41.0229 140.088 40.5269L141.156 41.1509C140.564 42.0229 139.688 42.4589 138.528 42.4589C137.552 42.4589 136.764 42.1629 136.164 41.5709C135.564 40.9709 135.264 40.2149 135.264 39.3029C135.264 38.4069 135.56 37.6589 136.152 37.0589C136.744 36.4509 137.504 36.1469 138.432 36.1469C139.312 36.1469 140.032 36.4549 140.592 37.0709C141.16 37.6869 141.444 38.4349 141.444 39.3149C141.444 39.4509 141.428 39.6309 141.396 39.8549H136.62ZM136.608 38.7989H140.136C140.048 38.3109 139.844 37.9429 139.524 37.6949C139.212 37.4469 138.844 37.3229 138.42 37.3229C137.94 37.3229 137.54 37.4549 137.22 37.7189C136.9 37.9829 136.696 38.3429 136.608 38.7989ZM143.88 37.3109C144.208 36.5669 144.824 36.1949 145.728 36.1949V37.5989C145.232 37.5669 144.8 37.6869 144.432 37.9589C144.064 38.2229 143.88 38.6629 143.88 39.2789V42.3029H142.584V36.3029H143.88V37.3109ZM80.912 48.1469C81.6 48.1469 82.156 48.3669 82.58 48.8069C83.004 49.2469 83.216 49.8509 83.216 50.6189V54.3029H81.92V50.7509C81.92 50.3029 81.8 49.9589 81.56 49.7189C81.32 49.4789 80.992 49.3589 80.576 49.3589C80.12 49.3589 79.752 49.5029 79.472 49.7909C79.192 50.0709 79.052 50.5029 79.052 51.0869V54.3029H77.756V45.9029H79.052V49.0709C79.444 48.4549 80.064 48.1469 80.912 48.1469ZM87.4435 54.4589C86.5635 54.4589 85.8155 54.1549 85.1995 53.5469C84.5835 52.9389 84.2755 52.1909 84.2755 51.3029C84.2755 50.4149 84.5835 49.6669 85.1995 49.0589C85.8155 48.4509 86.5635 48.1469 87.4435 48.1469C88.3315 48.1469 89.0795 48.4509 89.6875 49.0589C90.3035 49.6669 90.6115 50.4149 90.6115 51.3029C90.6115 52.1909 90.3035 52.9389 89.6875 53.5469C89.0795 54.1549 88.3315 54.4589 87.4435 54.4589ZM86.1115 52.6589C86.4715 53.0189 86.9155 53.1989 87.4435 53.1989C87.9715 53.1989 88.4155 53.0189 88.7755 52.6589C89.1355 52.2989 89.3155 51.8469 89.3155 51.3029C89.3155 50.7589 89.1355 50.3069 88.7755 49.9469C88.4155 49.5869 87.9715 49.4069 87.4435 49.4069C86.9155 49.4069 86.4715 49.5869 86.1115 49.9469C85.7515 50.3069 85.5715 50.7589 85.5715 51.3029C85.5715 51.8469 85.7515 52.2989 86.1115 52.6589ZM92.8302 49.9589C92.8302 50.1589 92.9382 50.3189 93.1542 50.4389C93.3782 50.5509 93.6462 50.6509 93.9582 50.7389C94.2782 50.8189 94.5982 50.9149 94.9182 51.0269C95.2382 51.1389 95.5062 51.3309 95.7222 51.6029C95.9462 51.8669 96.0582 52.2029 96.0582 52.6109C96.0582 53.1869 95.8342 53.6389 95.3862 53.9669C94.9462 54.2949 94.3902 54.4589 93.7182 54.4589C93.1262 54.4589 92.6182 54.3349 92.1942 54.0869C91.7702 53.8389 91.4622 53.4949 91.2702 53.0549L92.3862 52.4069C92.5942 52.9829 93.0382 53.2709 93.7182 53.2709C94.3982 53.2709 94.7382 53.0469 94.7382 52.5989C94.7382 52.4069 94.6262 52.2509 94.4022 52.1309C94.1862 52.0109 93.9182 51.9109 93.5982 51.8309C93.2862 51.7429 92.9702 51.6429 92.6502 51.5309C92.3302 51.4189 92.0582 51.2349 91.8342 50.9789C91.6182 50.7149 91.5102 50.3829 91.5102 49.9829C91.5102 49.4309 91.7182 48.9869 92.1342 48.6509C92.5582 48.3149 93.0822 48.1469 93.7062 48.1469C94.2022 48.1469 94.6422 48.2589 95.0262 48.4829C95.4182 48.6989 95.7182 49.0029 95.9262 49.3949L94.8342 50.0069C94.6262 49.5509 94.2502 49.3229 93.7062 49.3229C93.4582 49.3229 93.2502 49.3789 93.0822 49.4909C92.9142 49.5949 92.8302 49.7509 92.8302 49.9589ZM100.311 49.5509H98.823V52.4309C98.823 52.6789 98.879 52.8589 98.991 52.9709C99.103 53.0749 99.267 53.1349 99.483 53.1509C99.707 53.1589 99.983 53.1549 100.311 53.1389V54.3029C99.319 54.4229 98.607 54.3389 98.175 54.0509C97.743 53.7549 97.527 53.2149 97.527 52.4309V49.5509H96.423V48.3029H97.527V47.0069L98.823 46.6229V48.3029H100.311V49.5509ZM102.71 47.1629C102.55 47.3229 102.358 47.4029 102.134 47.4029C101.91 47.4029 101.714 47.3229 101.546 47.1629C101.386 46.9949 101.306 46.7989 101.306 46.5749C101.306 46.3509 101.386 46.1589 101.546 45.9989C101.706 45.8309 101.902 45.7469 102.134 45.7469C102.366 45.7469 102.562 45.8309 102.722 45.9989C102.882 46.1589 102.962 46.3509 102.962 46.5749C102.962 46.7989 102.878 46.9949 102.71 47.1629ZM101.486 54.3029V48.3029H102.782V54.3029H101.486ZM107.443 48.1469C108.131 48.1469 108.687 48.3669 109.111 48.8069C109.535 49.2469 109.747 49.8509 109.747 50.6189V54.3029H108.451V50.7509C108.451 50.3029 108.331 49.9589 108.091 49.7189C107.851 49.4789 107.523 49.3589 107.107 49.3589C106.651 49.3589 106.283 49.5029 106.003 49.7909C105.723 50.0709 105.583 50.5029 105.583 51.0869V54.3029H104.287V48.3029H105.583V49.0709C105.975 48.4549 106.595 48.1469 107.443 48.1469ZM115.919 48.3029H117.191V54.0269C117.191 54.9389 116.891 55.6389 116.291 56.1269C115.691 56.6149 114.963 56.8589 114.107 56.8589C112.723 56.8589 111.775 56.3749 111.263 55.4069L112.379 54.7589C112.691 55.3749 113.275 55.6829 114.131 55.6829C114.691 55.6829 115.127 55.5349 115.439 55.2389C115.759 54.9509 115.919 54.5469 115.919 54.0269V53.2949C115.431 53.9909 114.735 54.3389 113.831 54.3389C112.983 54.3389 112.267 54.0389 111.683 53.4389C111.099 52.8309 110.807 52.0989 110.807 51.2429C110.807 50.3869 111.099 49.6589 111.683 49.0589C112.267 48.4509 112.983 48.1469 113.831 48.1469C114.735 48.1469 115.431 48.4949 115.919 49.1909V48.3029ZM112.643 52.5869C113.011 52.9469 113.467 53.1269 114.011 53.1269C114.555 53.1269 115.007 52.9469 115.367 52.5869C115.735 52.2269 115.919 51.7789 115.919 51.2429C115.919 50.7069 115.735 50.2589 115.367 49.8989C115.007 49.5389 114.555 49.3589 114.011 49.3589C113.467 49.3589 113.011 49.5389 112.643 49.8989C112.283 50.2589 112.103 50.7069 112.103 51.2429C112.103 51.7789 112.283 52.2269 112.643 52.5869Z" fill="white" fill-opacity="0.86"/>
<path d="M5.47397 7.90034C3.90931 22.1012 21.8772 54.0295 34.5507 63.4606H35.1946C35.1946 63.4606 41.1709 60.1215 46.1704 54.4125C49.9201 51.5431 51.9837 49.327 53.0638 47.7741C54.5031 45.35 55.3595 42.3356 56.359 38.9112C62.3976 23.6844 62.0485 20.2833 62.0485 19.5627C59.6244 15.3217 27.8089 2.06537 5.47397 7.90034Z" fill="#2697FF"/>
<path d="M15.8863 0.32939C15.6375 0.331592 15.3961 0.337933 15.1683 0.351744C14.9265 0.365645 14.6952 0.383216 14.4801 0.407938C14.1551 0.445544 13.8093 0.519752 13.4637 0.594678L13.4472 0.598254C13.2391 0.642901 13.0313 0.687461 12.849 0.720775L12.778 0.73402L12.7442 0.72753L11.1843 1.10898L12.2173 3.51268C12.5655 4.32054 13.1341 5.18752 13.7942 5.99066C14.5087 6.8614 15.3277 7.65571 16.0919 8.2272L16.6281 8.62701L16.6563 8.64648C16.8576 8.78717 17.0527 8.92193 17.2175 9.03303L17.909 9.50014L44.769 11.0416L41.2331 7.75361C40.839 7.44225 40.3304 7.14365 39.8675 6.87227L39.6983 6.77229C39.6142 6.7225 39.5266 6.67172 39.4377 6.62021L39.4329 6.61743C39.3689 6.5803 39.3042 6.54276 39.2397 6.5049C38.9189 6.3203 38.598 6.1339 38.2824 5.93541L35.3673 4.24132L35.5486 4.92669L34.8279 4.62073C34.4876 4.47639 34.1508 4.34141 33.8279 4.21628C33.6478 4.14654 33.463 4.07643 33.2754 4.00609C33.1266 3.95033 32.9761 3.89454 32.8247 3.83879C32.0679 3.56129 31.2876 3.31057 30.4934 3.08182C29.691 2.8499 28.896 2.64816 28.1142 2.47014C27.9027 2.42158 27.709 2.36899 27.5173 2.31695L27.5141 2.31609C27.3214 2.26375 27.1274 2.21111 26.9492 2.16926C26.3508 2.03268 25.7695 1.87823 25.1889 1.72394L25.1453 1.71236L25.1112 1.70325C24.5554 1.55482 23.9995 1.40635 23.4237 1.27297C23.188 1.21928 23.0105 1.1745 22.8319 1.12875L22.7387 1.1051C22.5591 1.05954 22.3847 1.01532 22.2489 0.98529C21.8576 0.894701 21.4467 0.787449 21.0359 0.677858L20.5393 0.547846C20.4361 0.521435 20.334 0.495702 20.231 0.469543C20.1349 0.445078 20.0381 0.420458 19.9394 0.394796C19.735 0.341669 19.5344 0.290509 19.343 0.243783L19.2008 0.207549C18.9879 0.153143 18.7318 0.0877254 18.5553 0.0810749L16.4746 0L16.7874 0.320131L15.8863 0.32939Z" fill="#2697FF"/>
<path d="M15.962 41.5461C15.5852 41.9576 15.4271 42.3213 15.4271 42.3213L15.0251 42.9835C14.978 43.0611 14.9271 43.1469 14.8826 43.2306C14.8381 43.3142 14.798 43.3912 14.7647 43.4616L14.7556 43.4806C14.7452 43.4992 14.7312 43.5238 14.7162 43.5501L14.6939 43.5892L14.6838 43.6067C14.651 43.6632 14.6192 43.718 14.5976 43.7673C14.5678 43.8328 14.55 43.8727 14.5386 43.8982L14.5311 43.915C14.5229 43.9332 14.5194 43.941 14.5157 43.9483L14.4944 43.9947C14.4273 44.1399 14.3606 44.2843 14.3039 44.4324C14.2103 44.6697 14.1297 44.9076 14.0592 45.1475C13.9865 45.3963 13.9233 45.6433 13.8715 45.8863C13.75 46.4733 13.6909 47.0715 13.695 47.6709C13.6952 48.283 13.7535 48.8902 13.8734 49.4106C13.9652 49.805 14.0828 50.1928 14.2256 50.5717C14.3686 50.9546 14.5277 51.3215 14.7012 51.7079C14.7701 51.8606 14.8408 52.0195 14.9095 52.1849C14.9781 52.3502 15.0436 52.515 15.1011 52.6819L15.4553 53.6994L16.3496 53.0949C16.5272 52.9747 16.6908 52.7696 16.8458 52.5739C16.9036 52.5008 16.9607 52.429 17.0095 52.3707C17.1531 52.201 17.2601 52.0709 17.3675 51.9414C17.4836 51.8018 17.5993 51.6606 17.6629 51.5854C17.7363 51.4974 17.7551 51.4753 17.7754 51.4506C17.9673 51.2174 18.1832 50.9566 18.4003 50.7551C19.1126 50.0949 20.0288 49.606 20.9813 49.4413C21.8501 49.2908 22.7499 49.4054 23.5633 49.8931C23.9784 50.1428 24.4438 50.5508 24.8536 50.9101L24.8543 50.9107L24.8953 50.9466C24.9934 51.0325 25.0899 51.1171 25.1878 51.2002L25.3832 51.3669L25.3844 51.5431C25.3834 51.7557 25.4156 51.9671 25.4798 52.1699C25.5551 52.3974 25.6603 52.6139 25.7927 52.8138C25.9375 53.0318 26.1097 53.2303 26.3052 53.4045C26.5169 53.595 26.7498 53.7607 26.9991 53.8984C27.3937 54.1085 27.8074 54.2807 28.2345 54.4125C28.6715 54.5492 29.1159 54.661 29.5655 54.7474C29.7494 54.7847 29.8975 54.8094 30.0463 54.8338L30.0589 54.8359C30.0551 54.8353 30.0423 54.8335 30.2186 54.8633C30.229 54.8663 30.2636 54.8713 30.3105 54.8779L30.4083 54.8912L30.5125 54.9027L15.962 41.5461Z" fill="#2697FF"/>
<path d="M56.8689 25.2659C57.8489 25.1123 63.4397 24.2459 64.2697 24.3437C65.18 24.4511 66.1256 25.1466 66.1256 25.1466C66.1256 25.1466 65.0366 32.5162 64.3054 34.0147C63.5742 35.5131 62.6812 35.6389 62.6812 35.6389L51.7468 37.2446L11.5269 42.9732L5.92377 44.7212L6.28018 43.8823L1.58852 45.6122L3.06856 34.9595L0 31.9974C0 31.9974 4.43474 31.4032 6.84976 31.0844C6.89574 31.0783 6.94097 31.0724 6.98543 31.0665L56.8689 25.2659Z" fill="#2697FF"/>
<path d="M6.43896 8.62578C5.92507 23.6208 22.7832 53.4379 35.1151 62.6224C35.1151 62.6224 49.5931 53.39 55.4689 38.5615C61.3448 23.7329 61.415 19.678 61.415 19.678C47.211 9.46508 23.5231 5.15324 6.43896 8.62578Z" fill="#151630"/>
<path d="M56.5447 26.072L62.1305 25.2432C62.8927 25.1296 63.6199 25.1408 64.2206 25.3152C64.9666 25.5315 65.3821 25.9671 65.2574 26.5607L63.8765 33.1576C63.7579 33.7213 63.1918 34.2456 62.4065 34.6521C61.7478 34.9923 61.0151 35.2128 60.2634 35.3242L55.447 36.0392C55.1131 36.0901 54.7758 36.1154 54.438 36.1148L54.4225 36.1916L46.8788 37.3109C46.1167 37.4244 45.3873 37.419 44.7836 37.2424C44.2114 37.0781 43.8344 36.7819 43.7447 36.3855L36.7665 38.7524L36.7542 38.8147L36.4501 38.8598L34.1693 39.6342L34.2644 39.1848L29.2142 39.9344C28.4574 40.0468 27.7309 40.0396 27.1291 39.8692C27.1107 39.8793 27.093 39.8886 27.0728 39.8987C26.4141 40.2389 25.6807 40.4587 24.9297 40.5708L20.1134 41.2862C19.2971 41.4076 18.5277 41.3831 17.9385 41.1453C17.483 40.9622 17.1507 40.6966 17.0142 40.3485L7.39729 43.6102L7.60378 42.6203L2.57985 44.3259L4.68514 34.2679L2.12109 32.8765L21.486 30.0001L21.201 31.3626C21.4569 31.2968 21.7161 31.2444 21.9776 31.2055L26.7939 30.4902C26.7967 30.4896 26.7995 30.4896 26.8022 30.4902L56.5447 26.072Z" fill="#151630"/>
<path d="M10.6343 33.6035L13.2284 33.2619L12.9541 35.6219L11.9165 35.7585C11.3942 35.8272 11.0067 35.7469 10.7541 35.5174C10.5477 35.3296 10.4633 35.0745 10.5007 34.7522L10.6343 33.6035ZM8.50451 40.8502C7.94418 40.9239 7.47027 40.7816 7.08278 40.4231C6.74155 40.1063 6.49742 39.6573 6.3504 39.0761C6.21504 38.5411 6.17938 37.9981 6.24343 37.4471C6.3397 36.6189 6.62937 35.8557 7.11243 35.1574C7.45615 34.6617 7.87581 34.2891 8.37143 34.0396C8.62442 33.9141 8.89965 33.8318 9.19712 33.7927L9.59661 33.7401L8.7743 40.8146L8.50451 40.8502ZM9.92644 37.4076L12.7904 37.0305L12.643 38.2989C12.5568 39.0405 12.304 39.589 11.8846 39.9445C11.4609 40.3074 10.8029 40.5476 9.91054 40.6651L9.54217 40.7135L9.92644 37.4076Z" fill="white"/>
<path d="M19.0516 32.4953L19.4563 32.442C20.7395 32.2731 21.5203 32.735 21.7985 33.8279C21.9098 34.2773 21.9298 34.8087 21.8585 35.4221C21.7384 36.4548 21.4407 37.3317 20.9651 38.0529C20.4037 38.898 19.6266 39.3859 18.6339 39.5166L18.2293 39.5699L19.0516 32.4953ZM16.9789 39.7345C15.7026 39.9025 14.9322 39.3658 14.6678 38.1244C14.5595 37.62 14.5438 37.0368 14.6208 36.375C14.7775 35.0269 15.2616 34.0265 16.0732 33.3737C16.5507 32.9866 17.1267 32.7487 17.8012 32.6599L18.2059 32.6066L17.3836 39.6812L16.9789 39.7345Z" fill="white"/>
<path d="M27.5674 31.3742L28.0033 31.3168C29.4698 31.1237 30.2663 31.6552 30.3928 32.9114C30.4337 33.2916 30.4238 33.7433 30.363 34.2666C30.3022 34.7899 30.1888 35.2962 30.023 35.7855C29.8606 36.2744 29.6474 36.7017 29.3835 37.0674C28.8352 37.8289 28.101 38.2702 27.1809 38.3914L26.7451 38.4487L27.5674 31.3742ZM23.9149 31.855L26.7062 31.4875L25.8851 38.5517L23.0938 38.9192L23.9149 31.855Z" fill="white"/>
<path d="M32.7524 30.6915L35.5437 30.3241L34.7226 37.3882L31.9313 37.7557L32.7524 30.6915ZM35.6724 36.7769C35.7558 36.0596 36.2274 35.5181 37.0874 35.1523C37.4169 35.0134 37.8324 34.9109 38.3339 34.8449L38.7438 34.791L38.4985 36.9014L35.6138 37.2812L35.6724 36.7769Z" fill="white"/>
<path d="M41.5848 29.5287L44.3761 29.1613L43.5538 36.2358L40.7625 36.6033L41.5848 29.5287Z" fill="white"/>
<path d="M46.5103 28.8803L49.3016 28.5128L48.4805 35.577L45.6892 35.9445L46.5103 28.8803ZM49.9394 30.3227C50.0284 29.5568 50.2819 29.0167 50.6999 28.7024C51.0951 28.4081 51.7995 28.1942 52.8129 28.0608L53.3369 27.9918L53.2227 28.9742C53.1317 29.7574 52.868 30.3415 52.4315 30.7265C51.9882 31.1125 51.2719 31.3706 50.2827 31.5008L49.795 31.565L49.9394 30.3227ZM49.7321 32.1056L50.2198 32.0414C51.1952 31.913 51.8696 32.0153 52.243 32.3483C52.5977 32.6668 52.7285 33.2262 52.6355 34.0267L52.5158 35.056L51.9918 35.1249C50.9991 35.2556 50.3264 35.1975 49.9736 34.9505C49.6213 34.7 49.4904 34.1849 49.5811 33.4052L49.7321 32.1056Z" fill="white"/>
<path d="M59.0316 27.2318L61.9111 26.8527L61.6827 28.8176L61.1431 28.8886C60.2058 29.012 59.583 28.949 59.2748 28.6995C59.0228 28.4938 58.9283 28.1207 58.9911 27.5801L59.0316 27.2318ZM55.3427 27.7175L58.134 27.35L57.8029 30.1985L59.8834 29.9246L59.7257 31.2813L57.6452 31.5552L57.3129 34.4142L54.5216 34.7817L55.3427 27.7175ZM58.2627 33.8029C58.3461 33.0855 58.8177 32.544 59.6777 32.1783C60.0072 32.0394 60.4227 31.9369 60.9242 31.8709L61.3341 31.8169L61.0888 33.9273L58.2041 34.3071L58.2627 33.8029Z" fill="white"/>
<mask id="mask0_24_1671" style="mask-type:alpha" maskUnits="userSpaceOnUse" x="3" y="30" width="60" height="18">
<path d="M3.2998 37.9048L61.2167 30.8415L62.3553 40.178L4.43845 47.2413L3.2998 37.9048Z" fill="#C4C4C4"/>
</mask>
<g mask="url(#mask0_24_1671)">
<path d="M10.5298 33.5083L13.0594 33.1753L12.7919 35.4765L11.7801 35.6097C11.2708 35.6768 10.893 35.5984 10.6466 35.3746C10.4454 35.1915 10.363 34.9428 10.3996 34.6285L10.5298 33.5083ZM8.45298 40.5748C7.90658 40.6467 7.44446 40.5079 7.06661 40.1584C6.73386 39.8495 6.49581 39.4116 6.35245 38.8449C6.22045 38.3232 6.18568 37.7937 6.24813 37.2564C6.34201 36.4488 6.62447 35.7045 7.09552 35.0236C7.43069 34.5402 7.83992 34.1769 8.3232 33.9336C8.56991 33.8113 8.83829 33.731 9.12836 33.6928L9.51792 33.6415L8.71606 40.5402L8.45298 40.5748ZM9.83954 37.2178L12.6323 36.8502L12.4885 38.0869C12.4044 38.8101 12.1579 39.345 11.749 39.6917C11.3359 40.0455 10.6942 40.2797 9.82404 40.3943L9.46483 40.4416L9.83954 37.2178Z" fill="#C1C1E8"/>
<path d="M18.9449 32.4004L19.3396 32.3485C20.5909 32.1838 21.3522 32.6342 21.6236 33.6999C21.7321 34.1381 21.7515 34.6563 21.682 35.2544C21.565 36.2614 21.2746 37.1166 20.8109 37.8198C20.2634 38.6439 19.5057 39.1197 18.5377 39.2471L18.1431 39.2991L18.9449 32.4004ZM16.9238 39.4596C15.6792 39.6234 14.928 39.1001 14.6702 37.8896C14.5646 37.3977 14.5493 36.829 14.6243 36.1836C14.7771 34.8691 15.2492 33.8936 16.0406 33.257C16.5063 32.8796 17.0679 32.6476 17.7257 32.561L18.1203 32.509L17.3184 39.4076L16.9238 39.4596Z" fill="#C1C1E8"/>
<path d="M27.4562 31.2799L27.8812 31.224C29.3113 31.0357 30.088 31.554 30.2113 32.7789C30.2512 33.1497 30.2416 33.5902 30.1822 34.1004C30.1229 34.6107 30.0124 35.1044 29.8507 35.5816C29.6923 36.0583 29.4844 36.475 29.2271 36.8316C28.6924 37.5741 27.9765 38.0045 27.0793 38.1226L26.6544 38.1785L27.4562 31.2799ZM23.8945 31.7488L26.6164 31.3905L25.8157 38.279L23.0938 38.6373L23.8945 31.7488Z" fill="#C1C1E8"/>
<path d="M32.7195 30.587L35.4413 30.2286L34.6407 37.1171L31.9188 37.4755L32.7195 30.587ZM35.5668 36.521C35.6481 35.8215 36.1081 35.2935 36.9466 34.9368C37.2679 34.8014 37.6731 34.7015 38.1621 34.6371L38.5618 34.5844L38.3226 36.6424L35.5097 37.0127L35.5668 36.521Z" fill="#C1C1E8"/>
<path d="M41.5394 29.4258L44.2613 29.0675L43.4594 35.9661L40.7375 36.3244L41.5394 29.4258Z" fill="#C1C1E8"/>
<path d="M46.5497 28.7662L49.2715 28.4079L48.4709 35.2964L45.749 35.6547L46.5497 28.7662ZM49.8934 30.1728C49.9802 29.426 50.2274 28.8993 50.635 28.5927C51.0204 28.3057 51.7072 28.0972 52.6955 27.9671L53.2065 27.8998L53.0951 28.8578C53.0063 29.6215 52.7492 30.1911 52.3236 30.5666C51.8912 30.9429 51.1928 31.1946 50.2281 31.3216L49.7526 31.3842L49.8934 30.1728ZM49.6913 31.9113L50.1669 31.8487C51.118 31.7235 51.7756 31.8233 52.1398 32.148C52.4856 32.4585 52.6132 33.0041 52.5224 33.7847L52.4058 34.7883L51.8948 34.8556C50.9268 34.983 50.2708 34.9263 49.9268 34.6854C49.5832 34.4412 49.4556 33.9389 49.544 33.1785L49.6913 31.9113Z" fill="#C1C1E8"/>
<path d="M58.9667 27.1315L61.7746 26.7618L61.5519 28.6778L61.0257 28.7471C60.1117 28.8674 59.5044 28.806 59.2039 28.5627C58.9582 28.3621 58.8659 27.9982 58.9272 27.4711L58.9667 27.1315ZM55.3696 27.6051L58.0914 27.2467L57.7686 30.0244L59.7973 29.7573L59.6436 31.0803L57.6148 31.3474L57.2908 34.1352L54.5689 34.4935L55.3696 27.6051ZM58.2169 33.5391C58.2982 32.8396 58.7582 32.3115 59.5967 31.9549C59.918 31.8194 60.3232 31.7195 60.8122 31.6551L61.2119 31.6025L60.9727 33.6604L58.1598 34.0308L58.2169 33.5391Z" fill="#C1C1E8"/>
</g>
<path d="M26.6377 13.7307C36.0646 12.9799 45.7503 13.8392 53.7072 16.5549C53.7065 17.1402 53.691 17.7256 53.6701 18.3054C53.6198 19.6429 53.5371 20.9904 53.4267 22.3416C52.8678 22.2671 52.2509 22.2133 51.69 22.2216C50.1356 22.2451 49.3969 22.0058 49.3969 22.0058L29.1846 14.98L26.6377 13.7307ZM46.0907 49.1425C45.7216 49.7674 45.3415 50.3837 44.9503 50.9911C43.7559 52.8542 42.4595 54.65 41.0671 56.3702C38.2775 54.8177 35.5496 52.8029 33.1855 50.9013C32.8003 50.5904 32.4163 50.2762 32.0335 49.9588C36.8769 49.4598 43.85 48.83 44.5466 49.2569C44.7092 49.3554 45.2659 49.3033 46.0907 49.1425Z" fill="#414196"/>
<path d="M39.1765 43.05C38.3819 43.005 37.6569 42.7624 37.0209 42.3085C35.9929 41.5748 35.0092 40.7891 33.9626 40.0763C32.4781 39.0673 30.9871 38.3497 29.2256 37.7528C27.6729 37.2263 25.9712 36.9657 24.2813 37.1646C22.2435 37.4057 20.4607 38.5941 18.6761 39.5149L19.3425 40.1391C18.682 40.5836 18.058 41.08 17.4764 41.6235C15.6944 43.2844 14.6811 45.3169 14.5951 47.5549C14.5608 48.4654 14.6926 49.6259 15.0489 50.4807L15.9271 52.592L17.4951 50.7228C17.8064 50.3518 18.3614 49.9225 18.7798 49.6567C19.7754 49.0248 20.8982 48.6737 22.1095 48.7661C23.069 48.838 23.7588 49.1698 24.467 49.7027C25.1233 50.1967 25.6951 50.7553 26.3348 51.2651C26.0581 52.0254 26.5074 52.7845 27.1762 53.244C28.4209 54.0984 30.805 54.395 32.3486 54.5383C34.1048 54.6994 35.873 54.6749 37.6241 54.4651L38.9606 54.9151C39.9033 55.2326 41.249 55.1327 42.2209 54.9234C44.967 54.3289 47.4783 52.5459 49.4118 50.7719C50.1147 50.1234 50.7585 49.4136 51.3355 48.6509C53.2243 46.1702 54.443 43.2126 55.2072 40.3468C55.4441 39.4571 55.6652 38.4989 55.8237 37.5512L52.0663 37.8142C51.1259 39.0636 49.866 40.0912 48.2607 40.6341C46.5953 41.1908 44.8477 41.4612 43.092 41.4337C42.4055 41.4235 41.5339 41.3706 40.8681 41.2224L40.1001 41.0469L39.5095 41.5455C39.0459 41.9381 38.9431 42.4964 39.1531 42.9975C39.1604 43.0139 39.1688 43.0319 39.1765 43.05Z" fill="#151630"/>
<path d="M53.7577 37.6943C52.8973 39.0671 51.3203 40.9047 48.7201 41.7837C44.2741 43.2862 40.4643 42.4178 40.4643 42.4178C40.4643 42.4178 40.3691 42.4984 40.8503 43.0377C41.1269 43.3525 41.4402 43.633 41.7837 43.8732C41.7837 43.8732 38.7038 45.1324 36.1082 43.2804C33.5126 41.4284 32.2428 40.1179 28.6732 38.9093C25.1037 37.7007 22.8154 38.7885 22.8154 38.7885C22.8154 38.7885 24.0453 38.7482 24.916 39.0326C25.7867 39.3169 25.8775 39.3463 25.8775 39.3463C25.8775 39.3463 22.2706 38.9211 18.4828 42.4531C14.695 45.985 16.3734 50.0157 16.3734 50.0157C16.3734 50.0157 18.6837 47.2619 22.2865 47.5339C27.6105 47.9355 25.5128 52.9019 33.1972 50.4265C33.1972 50.4265 32.8155 50.2793 32.2159 49.6784C31.6162 49.0775 31.6115 48.3924 30.6045 47.248C29.5976 46.1036 29.4415 45.2953 29.4415 45.2953C29.4415 45.2953 30.9369 45.7977 33.0656 45.52C35.1943 45.2423 35.5415 44.4455 35.5415 44.4455C35.5415 44.4455 34.9154 45.6037 33.0687 45.985C31.222 46.3664 30.4584 46.0586 30.4584 46.0586C30.4584 46.0586 31.2533 46.6813 32.397 48.7246C33.5406 50.7679 34.8616 50.4505 34.8616 50.4505C34.8616 50.4505 33.468 51.3904 31.1215 51.7673C31.1215 51.7673 30.4867 51.9497 29.2338 51.8987C28.2112 51.8571 27.8275 51.6662 27.7193 51.5965L27.6845 51.5734C27.6611 51.6305 27.2337 52.8156 32.5511 53.3074C38.0002 53.8103 41.9234 52.2121 41.9234 52.2121C41.9234 52.2121 41.1622 52.9687 40.4921 53.3026C39.8221 53.6365 39.5097 53.7572 39.5097 53.7572C39.5097 53.7572 42.9759 54.9242 48.4124 49.9348C52.3984 46.2757 53.8749 40.4835 54.3796 37.6513L53.7577 37.6943Z" fill="#414196"/>
<path d="M53.7539 37.6991C52.8937 39.0712 51.318 40.9051 48.7196 41.7837C44.2736 43.2862 40.4638 42.4178 40.4638 42.4178C40.4638 42.4178 40.3686 42.4984 40.8498 43.0376C40.8612 43.0497 40.8718 43.0631 40.8828 43.0749C42.0832 43.2489 44.4521 43.4128 47.5143 42.73C52.0074 41.7276 53.9445 37.6812 53.9445 37.6812L53.7539 37.6991ZM41.7832 43.8732C41.7832 43.8732 38.7033 45.1324 36.1077 43.2804C33.5121 41.4284 32.2423 40.1179 28.6727 38.9093C25.1032 37.7007 22.8149 38.7884 22.8149 38.7884C28.644 37.8949 30.4803 40.6116 35.2089 43.3662C39.9842 46.1471 41.7832 43.8732 41.7832 43.8732ZM25.8765 39.3442C25.8765 39.3442 22.2696 38.919 18.4818 42.4509C17.0543 43.7799 16.4035 45.1815 16.1465 46.4111C16.5084 45.544 17.1894 44.3827 18.4677 43.0235C21.32 39.9935 25.8765 39.3442 25.8765 39.3442Z" fill="#30BDEF"/>
<path d="M16.373 50.014C16.373 50.014 18.6833 47.2601 22.2862 47.5321C27.6101 47.9338 25.5124 52.9002 33.1968 50.4248C33.1968 50.4248 32.8151 50.2775 32.2155 49.6767C31.6158 49.0758 31.6111 48.3906 30.6041 47.2462C29.5972 46.1018 29.4411 45.2936 29.4411 45.2936C29.4411 45.2936 30.9365 45.7959 33.0652 45.5182C34.1596 45.3763 34.7836 45.0964 35.1305 44.8581C35.2554 44.7608 35.3396 44.6913 35.3485 44.6851C35.3383 44.6905 34.21 45.2653 32.0335 45.2161C29.8465 45.1683 29.0666 44.644 29.0666 44.644C29.0666 44.644 28.6239 45.0316 29.2189 46.5959C29.814 48.1602 30.7106 49.1117 30.7106 49.1117L30.1726 48.8644C30.1726 48.8644 30.2161 49.5428 30.8984 50.2999C31.0964 50.5201 31.276 50.7009 31.4306 50.8465C30.2677 50.495 29.5941 49.986 28.3892 48.5581C26.5784 46.4118 24.8668 46.1305 24.8668 46.1305C24.8668 46.1305 25.5577 46.0629 26.6182 46.3908C27.6786 46.7186 28.224 47.1839 28.224 47.1839C28.224 47.1839 27.1718 45.6942 24.4227 45.4038C21.6737 45.1134 20.1862 46.0339 20.1862 46.0339C20.1862 46.0339 20.427 45.9688 21.3896 45.8736C22.3521 45.7784 23.2657 46.0284 23.2657 46.0284C23.2657 46.0284 21.4682 45.8478 19.0673 46.9758C16.6665 48.1039 16.373 50.014 16.373 50.014ZM45.0573 47.8604C45.0573 47.8604 44.662 48.2848 43.9067 48.4719C43.1515 48.659 42.463 48.2595 42.463 48.2595C42.463 48.2595 43.25 48.3305 43.9738 48.1994C44.6976 48.0684 45.0573 47.8604 45.0573 47.8604ZM45.3134 48.449C45.3134 48.449 45.0384 49.2333 43.5273 49.7319C42.0162 50.2304 40.7681 49.6603 40.7681 49.6603C40.7681 49.6603 42.0917 49.8536 43.2443 49.5265C44.397 49.1994 45.3134 48.449 45.3134 48.449ZM33.1583 51.2481C32.4962 51.482 31.8143 51.6554 31.1209 51.7663C31.1209 51.7663 30.4861 51.9487 29.2333 51.8977C28.2106 51.8562 27.8269 51.6653 27.7187 51.5956L27.6839 51.5724C27.6605 51.6295 27.2332 52.8146 32.5506 53.3064C37.9996 53.8093 41.9228 52.2112 41.9228 52.2112C41.9228 52.2112 41.1616 52.9678 40.4916 53.3016C39.8215 53.6355 39.5091 53.7562 39.5091 53.7562C39.5091 53.7562 42.9753 54.9232 48.4118 49.9338C52.3984 46.2757 53.8749 40.4835 54.3796 37.6513L54.1854 37.6652C53.5736 39.9217 52.3801 43.8652 51.0577 45.7959C49.1424 48.5927 47.6855 49.3377 47.6855 49.3377C47.6855 49.3377 48.5704 48.3443 48.9173 47.6573C49.2641 46.9702 49.2195 46.8393 49.2195 46.8393C49.2195 46.8393 47.4868 49.0699 46.6024 49.683C45.7179 50.2961 44.2815 50.63 44.2815 50.63C44.2815 50.63 44.3045 50.7786 45.2566 50.6137C46.2087 50.4487 46.3102 50.4036 46.3102 50.4036C46.3102 50.4036 45.5841 51.0155 44.3327 51.6282C43.0813 52.241 42.6616 52.3392 42.6616 52.3392C42.6616 52.3392 42.9694 52.2782 43.4343 51.654C43.8992 51.0298 43.8985 50.9726 43.8985 50.9726C43.8985 50.9726 41.0802 51.7704 38.5955 52.0144C36.1108 52.2583 35.252 52.0964 35.252 52.0964C35.252 52.0964 36.1802 51.9416 37.2289 51.6972C38.2776 51.4527 38.472 51.305 38.472 51.305C38.472 51.305 36.5649 51.9432 33.6875 51.3582C33.5023 51.3181 33.3262 51.2824 33.1583 51.2481Z" fill="#24247A"/>
<path d="M36.437 43.4973C36.3262 43.4294 36.2183 43.3577 36.1077 43.2797C33.5107 41.4266 32.2423 40.1172 28.6727 38.9086C25.1032 37.7 22.8149 38.7878 22.8149 38.7878C22.8149 38.7878 24.0448 38.7475 24.9155 39.0319C25.7862 39.3163 25.877 39.3457 25.877 39.3457C25.877 39.3457 22.2701 38.9205 18.4823 42.4524C14.6945 45.9843 16.3729 50.0151 16.3729 50.0151C16.3729 50.0151 18.6832 47.2612 22.2861 47.5332C27.61 47.9349 25.5123 52.9013 33.1967 50.4259C33.1967 50.4259 32.815 50.2786 32.2154 49.6777C31.6157 49.0769 31.611 48.3917 30.604 47.2473C29.5971 46.1029 29.441 45.2947 29.441 45.2947C29.441 45.2947 30.9364 45.797 33.0651 45.5193C35.1938 45.2416 35.541 44.4448 35.541 44.4448C35.4728 44.5596 35.3933 44.6672 35.3038 44.7662C35.7468 44.4064 36.1294 43.9781 36.437 43.4973Z" fill="white"/>
<path d="M36.4371 43.4982C36.3264 43.4302 36.2184 43.3586 36.1079 43.2806C33.5109 41.4275 32.2424 40.1181 28.6729 38.9095C25.1033 37.7009 22.8151 38.7887 22.8151 38.7887C28.6442 37.8951 30.4804 40.6119 35.2091 43.3665C35.5436 43.5613 35.8638 43.7315 36.1705 43.8796C36.2887 43.725 36.3778 43.5925 36.4371 43.4982ZM25.8768 39.3452C25.8768 39.3452 22.2699 38.92 18.4822 42.4519C17.0547 43.7808 16.4038 45.1825 16.1468 46.412C16.5088 45.545 17.1897 44.3836 18.4681 43.0244C21.3202 39.9941 25.8768 39.3452 25.8768 39.3452Z" fill="#30BDEF"/>
<path d="M16.3729 50.0142C16.3729 50.0142 18.6832 47.2603 22.286 47.5323C27.61 47.934 25.5123 52.9004 33.1967 50.425C33.1967 50.425 32.815 50.2777 32.2153 49.6769C31.6157 49.076 31.611 48.3908 30.604 47.2464C29.597 46.102 29.4409 45.2938 29.4409 45.2938C29.4409 45.2938 30.9364 45.7962 33.0651 45.5185C34.1594 45.3765 34.7835 45.0966 35.1303 44.8583C35.2553 44.761 35.3394 44.6915 35.3483 44.6853C35.3381 44.6907 34.2099 45.2655 32.0333 45.2163C29.8464 45.1685 29.0664 44.6442 29.0664 44.6442C29.0664 44.6442 28.6238 45.0318 29.2188 46.5961C29.8138 48.1604 30.7105 49.1119 30.7105 49.1119L30.1725 48.8646C30.1725 48.8646 30.216 49.543 30.8983 50.3001C31.0962 50.5203 31.2759 50.7011 31.4305 50.8468C30.2676 50.4952 29.594 49.9862 28.3891 48.5583C26.5782 46.412 24.8667 46.1307 24.8667 46.1307C24.8667 46.1307 25.5576 46.0631 26.618 46.391C27.6785 46.7188 28.2238 47.1841 28.2238 47.1841C28.2238 47.1841 27.1716 45.6945 24.4226 45.404C21.6736 45.1136 20.1861 46.0341 20.1861 46.0341C20.1861 46.0341 20.4269 45.969 21.3894 45.8738C22.3519 45.7786 23.2656 46.0286 23.2656 46.0286C23.2656 46.0286 21.4681 45.848 19.0672 46.976C16.6663 48.1041 16.3729 50.0142 16.3729 50.0142ZM24.7719 44.5552C22.6465 44.2741 19.8093 44.8211 18.3375 46.3426C18.2778 46.4028 18.8155 45.0316 21.1083 44.4597C23.4011 43.8877 24.4371 44.0006 24.6136 44.2285C24.7901 44.4564 24.7719 44.5552 24.7719 44.5552ZM25.8319 44.4463C25.8319 44.4463 25.7701 44.922 25.4521 44.7514C25.1341 44.5808 25.0494 44.2364 25.3122 44.1672C25.5751 44.0979 25.8318 44.4459 25.8318 44.4459L25.8319 44.4463Z" fill="#C1C1E8"/>
<path d="M44.3382 27.3458L48.3542 27.2803C48.989 27.1861 49.6803 26.8839 50.1764 26.5476C50.8714 26.0766 51.3456 25.2497 51.3823 24.4061L51.4201 23.538L51.1383 21.742L46.5529 17.27C46.8467 16.6105 46.8371 15.7765 46.6717 15.0286C46.6554 14.8855 46.6203 14.7451 46.5673 14.6112C46.4707 14.3623 46.3173 14.1363 46.1494 13.9182C45.5607 13.1476 44.7884 12.3565 44.1106 11.6491C43.1307 10.6238 41.4976 8.9849 40.241 8.23229L36.934 6.25528L37.0918 6.82334C36.6686 6.58155 36.2511 6.36394 35.8563 6.1761C33.9564 5.2718 31.68 4.43131 29.6521 3.90745L23.9127 2.42836C23.6107 2.3433 23.3079 2.26499 23.0042 2.19343L18.7648 1.09816L19.6556 1.59819C18.5879 1.4542 17.5125 1.37534 16.4353 1.36206C15.7575 1.35722 14.9194 1.37631 14.2665 1.51262L12.6096 1.8556L13.2879 3.42556C13.9242 4.89921 15.3951 6.54988 16.6654 7.60383C17.6458 8.4174 19.0244 9.30164 20.3492 9.83449C19.3479 10.1406 18.3549 10.4676 17.3725 10.8003C15.4022 11.4684 13.4798 12.4238 11.9662 13.7367C11.4143 14.2175 10.7433 14.8969 10.392 15.5409L8.36182 19.2572L12.5946 17.7957C12.8902 17.6934 13.2511 17.6081 13.5638 17.5322C14.4365 17.3203 15.3286 17.1411 16.2236 16.9794C15.4485 17.6468 14.6247 18.4621 14.1703 19.2094L10.882 24.6198L11.0853 24.5047L10.6812 26.8041L13.4925 26.6564C13.7515 26.5944 14.0488 26.5547 14.3104 26.5128C15.4301 26.3329 16.5607 26.1767 17.6877 26.0225C18.4954 25.9121 19.3574 25.8317 20.2431 25.7812L14.1713 31.1259L14.7379 31.0702L20.0451 29.0492C20.0356 29.206 20.0318 29.3621 20.0267 29.5127C20.0152 29.8545 20.0117 30.1988 20.0143 30.544L29.0948 29.6356C30.9008 29.0439 32.778 28.5177 34.6799 28.1609C35.252 28.0543 35.9318 27.9282 36.5258 27.8953L37.7246 27.8306L38.3678 28.1954C39.2881 28.7136 40.5851 28.7895 41.5488 28.6744C42.5741 28.549 43.6247 28.0414 44.3382 27.3458Z" fill="#151630"/>
<path d="M49.6671 22.0197C49.6671 22.0197 46.5048 21.8683 45.9972 21.5496C45.6793 21.3471 45.3872 21.1067 45.1273 20.8337C45.1273 20.8337 45.4988 21.4118 45.7117 21.8229C45.9247 22.234 46.5559 23.3086 47.3015 23.7593C48.0471 24.21 48.563 24.3355 48.563 24.3355C48.563 24.3355 47.7987 26.0648 45.7969 25.856C43.7952 25.6471 40.9109 22.7474 39.0789 21.6316C37.2469 20.5157 33.8536 19.6054 33.8536 19.6054C33.8536 19.6054 34.3171 19.1858 35.3105 19.0569C36.3039 18.928 36.5339 18.9774 36.5339 18.9774C36.5339 18.9774 35.1127 18.7137 32.8536 18.8166C30.5945 18.9195 28.1068 20.6338 28.1068 20.6338C28.1068 20.6338 28.6638 19.4466 29.8872 18.4322C31.1106 17.4178 31.5261 17.3098 31.5261 17.3098C31.5261 17.3098 27.2832 17.4182 22.2089 18.3178C17.1346 19.2174 15.619 20.0731 15.619 20.0731C15.619 20.0731 16.2533 19.0297 18.149 17.5453C20.0447 16.0609 23.2006 14.8094 23.2006 14.8094C23.2006 14.8094 20.2955 14.7046 16.7402 15.3028C13.1849 15.9009 11.8701 16.3543 11.8701 16.3543C11.8701 16.3543 13.2128 13.8943 18.087 12.2408C22.9611 10.5872 24.8071 10.2927 24.8071 10.2927L23.2443 9.05089C23.7928 8.97828 24.3478 8.96798 24.8986 9.02019C25.8142 9.10667 26.8944 9.47206 26.8944 9.47206C26.8944 9.47206 25.099 7.3347 22.1798 5.82884C19.2605 4.32298 17.5298 4.25861 17.5298 4.25861C17.5298 4.25861 17.5421 4.94269 19.1031 6.5225C20.6642 8.10231 21.6936 8.72146 21.6936 8.72146C21.6936 8.72146 19.7845 8.27106 17.6713 6.51775C15.558 4.76444 14.7977 3.00513 14.7977 3.00513C14.7977 3.00513 17.1374 2.51905 22.2454 3.55385C27.3534 4.58865 31.8848 7.91738 31.8848 7.91738C31.8848 7.91738 31.575 7.54098 30.6137 6.53162C29.6524 5.52227 29.3927 5.37546 29.3927 5.37546C29.3927 5.37546 32.3632 6.1435 35.2543 7.51823C38.1455 8.89296 39.8117 10.6981 39.8117 10.6981L39.4758 9.48862C39.4758 9.48862 40.6589 10.197 42.9461 12.5856C45.2333 14.9743 45.0372 15.0264 45.0372 15.0264C45.0372 15.0264 45.464 16.6544 44.6462 16.8943C43.8284 17.1342 43.6329 16.7063 43.4532 16.1368C43.2735 15.5673 43.1732 15.1904 43.1732 15.1904C43.1732 15.1904 43.0646 16.8602 41.7141 17.059C40.3636 17.2578 39.807 16.6263 39.807 16.6263C39.807 16.6263 40.1748 15.6707 39.2234 14.619C38.272 13.5673 36.939 12.6462 36.939 12.6462C36.939 12.6462 38.8845 14.3704 39.1312 15.1191C39.3779 15.8678 38.8632 16.2797 38.8632 16.2797C38.8632 16.2797 36.032 13.0971 33.4305 11.4663C30.8289 9.83549 28.7938 9.24591 28.7938 9.24591C28.7938 9.24591 29.338 9.46951 31.1255 10.782C32.9131 12.0945 33.4925 12.648 33.4925 12.648C33.4925 12.648 33.2483 14.2202 33.6397 15.5579C34.0312 16.8957 34.531 17.3489 34.531 17.3489C34.531 17.3489 34.4351 17.1943 34.2913 16.7255C34.1476 16.2567 34.1933 15.9571 34.1933 15.9571C34.1933 15.9571 34.547 17.1138 35.9519 17.6112C37.3568 18.1086 39.8437 17.7392 39.8437 17.7392C39.8437 17.7392 40.1542 17.9401 41.1759 18.8769C42.1976 19.8136 42.6691 20.3618 42.6691 20.3618C42.6691 20.3618 42.6521 20.0634 41.9004 19.0954C41.1488 18.1274 41.1329 18.0564 41.1329 18.0564C41.1329 18.0564 42.0981 18.0636 42.6389 17.8711C42.9579 17.7606 43.2233 17.5337 43.3821 17.2358C43.3821 17.2358 43.5699 17.4462 44.0073 17.5705C44.4447 17.6948 44.7525 17.6199 44.7525 17.6199L49.6671 22.0197ZM49.0262 24.3665L49.9384 24.2593C49.9384 24.2593 49.9075 24.963 49.3081 25.3692C48.9453 25.6141 48.5365 25.7827 48.1065 25.8648C48.1065 25.8648 48.7295 25.2987 48.9093 24.8922C49.0892 24.4856 49.0262 24.3665 49.0262 24.3665ZM36.2402 26.371C36.2402 26.371 33.4479 26.5238 28.2426 28.2366C25.5465 29.1237 23.8767 29.8041 22.8927 30.2539L21.6537 30.3782C21.6569 29.7293 21.6841 28.6882 21.8229 28.6087C22.0271 28.4927 23.5925 27.3327 27.7766 26.6044C31.9607 25.876 36.2388 26.3714 36.2388 26.3714L36.2402 26.371ZM43.2978 26.0012C43.2978 26.0012 42.4983 26.9952 41.1551 27.1549C39.8119 27.3146 39.0877 26.9088 39.0877 26.9088C39.0877 26.9088 39.985 26.8166 40.4482 26.5967C40.9114 26.3769 41.0544 26.1774 41.0544 26.1774C41.0544 26.1774 40.8894 26.2943 40.4449 26.4252C40.1749 26.5048 39.8962 26.5506 39.6149 26.5617C39.6149 26.5617 37.4453 25.5478 31.742 25.297C26.0387 25.0461 21.7335 26.6861 21.7335 26.6861C21.7335 26.6861 22.2957 26.1913 23.6097 25.3787C24.9237 24.5661 25.7378 24.3093 25.7378 24.3093C25.7378 24.3093 21.3101 23.9568 17.2682 24.5096C13.2262 25.0623 12.8332 25.1931 12.8332 25.1931C12.8332 25.1931 15.137 23.2078 19.6382 21.1511C24.1394 19.0943 27.1952 18.9185 27.1952 18.9185C27.1952 18.9185 25.8814 19.8234 24.7277 21.1164C23.5739 22.4095 23.5233 22.5309 23.5233 22.5309C23.5233 22.5309 26.1864 21.9529 28.7281 21.7027C31.2699 21.4525 32.4801 21.5744 32.4801 21.5744C32.4801 21.5744 31.4283 22.1916 30.6881 22.8342C29.9478 23.4769 29.8504 23.5514 29.8504 23.5514C29.8504 23.5514 32.2588 23.5628 36.2338 24.3012C40.2087 25.0396 43.2978 26.0012 43.2978 26.0012Z" fill="#414196"/>
<path d="M49.6671 22.0197C49.6671 22.0197 49.4525 22.0101 49.126 21.9885C47.942 20.8383 44.383 17.6399 44.383 17.6399C44.5065 17.6517 44.6311 17.6456 44.7529 17.6218L49.6671 22.0197ZM14.8821 3.18103C14.824 3.06673 14.7963 3.00405 14.7963 3.00405C14.7963 3.00405 17.136 2.51797 22.244 3.55277C27.352 4.58757 31.8848 7.91738 31.8848 7.91738C31.8848 7.91738 25.9498 4.61091 21.1292 3.66962C18.4901 3.15425 16.3134 3.11401 14.8831 3.18078L14.8821 3.18103ZM30.0765 5.98293C29.5515 5.46461 29.3927 5.37546 29.3927 5.37546C29.3927 5.37546 32.3632 6.1435 35.2543 7.51823C38.1455 8.89296 39.8117 10.6981 39.8117 10.6981C39.8117 10.6981 36.7708 8.60705 33.5181 7.2344C31.8738 6.54015 30.7687 6.17478 30.0765 5.98293ZM39.5948 9.91634L39.4758 9.48862C39.4758 9.48862 40.6589 10.197 42.9461 12.5856C45.2333 14.9743 45.0372 15.0264 45.0372 15.0264C45.0372 15.0264 45.464 16.6544 44.6462 16.8943L44.6364 16.8967C44.7128 16.4311 44.698 15.761 44.3358 14.9402C43.753 13.622 40.7868 10.9542 39.5948 9.91634Z" fill="#30BDEF"/>
<path d="M21.8149 21.4207C21.8149 21.4207 21.2816 21.5799 20.3476 22.0744C19.4137 22.5689 18.8998 23.1744 18.8998 23.1744C18.8998 23.1744 19.4712 23.0846 20.6076 22.9945C21.744 22.9043 21.9515 22.895 21.9515 22.895C21.9515 22.895 21.7077 22.8052 21.0104 22.7161C20.3132 22.627 20.1907 22.6307 20.1907 22.6307C20.1907 22.6307 20.403 22.2794 21.2232 21.8573C22.0433 21.4353 22.1647 21.3988 22.1647 21.3988L21.8149 21.4207ZM45.1273 20.8337C45.1273 20.8337 45.4988 21.4118 45.7117 21.8229C45.9247 22.234 46.5456 23.2907 47.285 23.7477L47.2875 23.749L47.2936 23.7527L47.3264 23.7723L47.3285 23.7718L47.3601 23.7905L47.3933 23.81L47.4091 23.8188L47.4256 23.8275L47.4282 23.8291L47.4572 23.8451L47.4578 23.8472L47.4874 23.8642L47.4907 23.8656L47.5197 23.8816L47.5234 23.883L47.5355 23.8904L47.5514 23.8993L47.5549 23.9017L47.5824 23.9159L47.5874 23.9181L47.5983 23.9251C47.6139 23.9328 47.6297 23.9416 47.6456 23.9508L47.6491 23.9529L47.6601 23.9588L47.6757 23.9666L47.6803 23.9688L47.6902 23.9746L47.7056 23.9816L47.7104 23.9846L47.7201 23.9897L47.7344 23.9966L47.7403 23.9996L47.7496 24.0045L47.764 24.0118L47.7701 24.0144L47.7782 24.0187L47.7929 24.026L47.7988 24.0286L47.8072 24.0329L47.8202 24.0391L47.8274 24.0429L47.8485 24.0523L47.8546 24.056L47.8618 24.0599L47.8758 24.0658L47.883 24.0692L47.8889 24.0723L47.9029 24.0782L47.91 24.0817L47.9159 24.0847L47.9289 24.0909L47.936 24.0943L47.9423 24.0973L47.955 24.1024L47.9622 24.1062L47.968 24.1089L47.9808 24.1144L47.988 24.1178L47.9929 24.1196L48.0056 24.1251L48.0138 24.1283L48.0174 24.1308L48.0301 24.1359L48.0383 24.1391L48.0422 24.1415L48.0539 24.1473L48.0653 24.1516L48.0774 24.1572L48.0853 24.1605L48.0889 24.1619L48.1004 24.1665L48.1089 24.1708L48.112 24.17L48.1224 24.1746L48.1342 24.1792L48.1446 24.1841L48.1539 24.1871L48.1561 24.1887L48.1667 24.1925L48.1771 24.1974L48.1877 24.2012C48.3047 24.2498 48.4247 24.2908 48.5469 24.3242C48.5469 24.3242 47.0168 25.5173 45.0166 25.3069C43.0164 25.0966 40.8949 22.7364 39.0611 21.6192C37.2272 20.5019 33.8358 19.5931 33.8358 19.5931C33.8358 19.5931 34.2993 19.1734 35.2927 19.0445C36.0302 18.9491 36.3469 18.9518 36.461 18.9593L34.9398 19.5577C34.9398 19.5577 37.6591 20.4656 38.4799 20.8897C39.3007 21.3139 39.3337 21.4238 39.3337 21.4238C39.3337 21.4238 39.1893 21.1053 38.7231 20.8252C38.257 20.5451 38.06 20.4252 38.06 20.4252C38.06 20.4252 38.759 20.5013 39.8404 21.3611C40.9219 22.2208 41.031 22.4163 41.031 22.4163L40.0983 21.771C40.0983 21.771 40.5398 22.4961 41.9277 23.4004C43.3155 24.3046 44.3012 25.0183 45.4955 24.9918C46.6897 24.9652 47.8842 24.4691 47.8842 24.4691C47.8842 24.4691 47.4515 24.2763 46.9267 23.9706L46.9852 23.9303C46.7379 23.7648 46.5022 23.5825 46.2798 23.3848C45.6333 22.7985 45.2065 21.5422 45.2065 21.5422L43.7215 19.5606L45.1273 20.8337ZM36.4492 18.964C36.1162 18.9103 34.7931 18.7284 32.8511 18.8172C30.5913 18.9203 28.1068 20.6338 28.1068 20.6338C28.1068 20.6338 28.462 19.8762 29.2293 19.0541C29.9601 18.842 31.2702 18.5317 32.6841 18.5096C34.6731 18.4795 36.2273 18.9008 36.4492 18.964ZM30.8786 17.675C31.2176 17.4456 31.4042 17.3568 31.482 17.3256L30.8786 17.675ZM31.5204 17.3112C31.3628 17.3152 27.1862 17.4374 22.2087 18.3201C18.0876 19.0518 16.3134 19.7527 15.7927 19.9908C16.4355 19.6794 18.7551 18.5893 20.8876 17.9749C23.3953 17.2526 24.8968 17.1799 24.8968 17.1799L22.7041 17.1532C22.7041 17.1532 23.618 16.7917 26.3895 16.4931C29.1609 16.1945 32.3449 16.983 32.3449 16.983L31.5204 17.3112ZM23.2014 14.8115C23.2014 14.8115 20.2963 14.7067 16.741 15.3048C13.1857 15.903 11.8709 16.3563 11.8709 16.3563C11.8709 16.3563 12.7287 15.9768 14.9228 15.2603C17.1168 14.5437 18.4459 14.2044 18.4459 14.2044L16.7238 14.4036C16.7238 14.4036 17.3481 14.1553 19.1707 13.5773C20.9933 12.9994 21.4147 13.003 21.4147 13.003C21.4147 13.003 20.5609 13.3415 20.0061 13.6478C19.4513 13.954 19.3937 13.9949 19.3937 13.9949C19.3937 13.9949 19.4382 13.8468 21.2606 13.7121C23.083 13.5774 24.8677 13.7989 24.8677 13.7989L23.2014 14.8115ZM24.7177 10.2241L23.2443 9.05089L23.2908 9.04386C23.3831 9.04697 23.6562 9.08754 24.4674 9.30724C25.6837 9.63596 26.1974 10.0758 26.1974 10.0758L24.7177 10.2241ZM26.8936 9.4719C26.8936 9.4719 25.0982 7.33455 22.179 5.82869C19.2597 4.32283 17.529 4.25846 17.529 4.25846C17.529 4.25846 17.5412 4.94254 19.1023 6.52235C20.6634 8.10216 21.6928 8.7213 21.6928 8.7213C21.6928 8.7213 19.7837 8.27091 17.6704 6.5176C16.2473 5.33722 15.4371 4.15421 15.0598 3.50713C15.0598 3.50713 17.1609 3.51357 19.425 4.09538C21.6891 4.6772 23.9674 6.08751 23.9674 6.08751C23.9674 6.08751 24.2377 6.10244 23.3682 5.51985C22.4988 4.93727 22.2228 4.75952 22.2228 4.75952C22.2228 4.75952 23.7238 5.17534 25.1717 6.36611C26.6196 7.55688 26.6916 7.62079 26.6916 7.62079L25.3849 7.04617C25.3849 7.04617 26.6552 8.0308 27.0387 8.70679C27.4221 9.38278 27.4803 9.46779 27.4803 9.46779L26.8936 9.4719ZM45.0767 16.4299C45.0063 16.6495 44.8753 16.8268 44.6447 16.8946C43.8281 17.1332 43.6315 16.7067 43.4518 16.1372C43.2721 15.5677 43.1718 15.1907 43.1718 15.1907C43.1718 15.1907 42.2615 16.8194 41.1127 16.629C40.4775 16.5247 40.0909 16.3664 39.8724 16.2464C39.8677 16.3752 39.8448 16.5027 39.8045 16.6251C39.8045 16.6251 40.36 17.2569 41.7116 17.0578C43.0631 16.8587 43.1707 15.1891 43.1707 15.1891C43.1707 15.1891 43.6513 16.4551 44.3441 16.572C44.6029 16.6178 44.8587 16.5422 45.0767 16.4299ZM36.9704 12.6735C37.2294 12.9057 38.9015 14.4263 39.1298 15.1165C39.3761 15.8653 38.8643 16.281 38.8643 16.281C38.8643 16.281 36.0331 13.0984 33.4315 11.4676C30.9808 9.93143 29.0329 9.31912 28.8137 9.25191C28.9848 9.26987 31.7852 9.56614 35.1261 12.1257C38.5748 14.7673 38.2987 15.1232 38.2313 14.6309C38.1638 14.1387 36.9701 12.6725 36.9701 12.6725L36.9704 12.6735ZM28.8047 9.25147C28.8942 9.29231 29.4886 9.58167 31.1255 10.782C32.9153 12.0929 33.4925 12.648 33.4925 12.648C33.4925 12.648 33.2483 14.2202 33.6397 15.5579C34.0312 16.8957 34.531 17.3489 34.531 17.3489C34.531 17.3489 34.4351 17.1943 34.2913 16.7255C34.1476 16.2567 34.1933 15.9571 34.1933 15.9571C34.1933 15.9571 34.547 17.1138 35.9519 17.6112C37.3568 18.1086 39.8437 17.7392 39.8437 17.7392C39.8437 17.7392 40.1542 17.9401 41.1759 18.8769C42.1344 19.7568 42.6087 20.2925 42.6639 20.356L42.6691 20.3618L39.6907 18.0289C39.6907 18.0289 39.3769 18.2982 37.3997 18.314C35.4224 18.3298 34.7895 17.4938 34.7895 17.4938C34.7895 17.4938 34.8784 17.6578 35.1198 17.965C35.3612 18.2722 35.8032 18.5688 35.8032 18.5688C35.8032 18.5688 34.1279 18.4111 33.0369 17.1493C31.9459 15.8875 32.0482 13.8787 32.0482 13.8787C32.0482 13.8787 32.0491 14.1505 32.3118 14.9273C32.5745 15.7041 32.8537 15.8532 32.8537 15.8532C32.8537 15.8532 32.7906 15.6949 32.6127 14.7322C32.4348 13.7695 32.5188 12.6036 32.5188 12.6036L28.8047 9.25147ZM49.8658 24.6139C49.6455 24.6844 49.5315 24.7266 49.3869 24.7589C49.2424 24.7913 49.1808 24.802 49.1808 24.802C49.1397 25.1143 49.0083 25.4079 48.8027 25.6466C48.5801 25.7479 48.3457 25.8213 48.1051 25.8651C48.1051 25.8651 48.7281 25.2991 48.9079 24.8925C49.0877 24.486 49.0245 24.3658 49.0245 24.3658L49.9367 24.2586C49.9278 24.3795 49.904 24.4988 49.8658 24.6139ZM26.1406 19.7484C24.5105 20.1261 21.5428 20.9281 18.4483 22.3394C15.4969 23.6834 13.8859 24.6279 13.1046 25.1381C13.0134 25.1528 12.9231 25.1723 12.834 25.1966C12.834 25.1966 15.1378 23.2113 19.639 21.1546C24.1402 19.0979 27.196 18.9221 27.196 18.9221C27.196 18.9221 26.7455 19.2308 26.1403 19.7473L26.1406 19.7484ZM18.7476 24.3495C19.4397 24.1649 20.7832 23.8748 22.7222 23.757C25.6619 23.5793 28.5576 23.9124 28.5576 23.9124L26.3488 24.7377C26.3488 24.7377 29.6712 24.4747 31.9109 24.6422C34.1506 24.8096 35.8036 25.1683 35.8036 25.1683L34.4892 24.693C34.4892 24.693 34.1414 24.5391 36.59 25.0975C39.0386 25.6559 39.9907 26.1412 39.9907 26.1412C39.9907 26.1412 40.624 26.0266 41.0579 25.912C41.4918 25.7974 41.5051 25.7679 41.5051 25.7679C41.5051 25.7679 41.4956 25.9046 41.1761 26.3732C40.8566 26.8417 40.5818 26.8905 40.5818 26.8905C40.5818 26.8905 41.771 26.9448 42.5343 26.4741C42.8839 26.2582 43.1198 26.1198 43.2724 26.0328C43.1269 26.1989 42.3608 27.0126 41.1547 27.1565C39.8098 27.3169 39.0873 26.9104 39.0873 26.9104C39.0873 26.9104 39.9846 26.8182 40.4478 26.5983C40.911 26.3785 41.054 26.179 41.054 26.179C41.054 26.179 40.889 26.2959 40.4445 26.4268C40.1745 26.5064 39.8958 26.5522 39.6145 26.5633C39.6145 26.5633 37.4449 25.5494 31.7416 25.2986C26.0384 25.0477 21.7331 26.6877 21.7331 26.6877C21.7331 26.6877 22.2953 26.1929 23.6093 25.3803C24.9233 24.5677 25.7374 24.3109 25.7374 24.3109C25.7374 24.3109 22.3193 24.0395 18.7474 24.3485L18.7476 24.3495ZM32.0985 27.1189C30.0734 27.2162 27.0663 27.4592 24.7074 28.0692C23.6784 28.3409 22.6724 28.6932 21.6988 29.1231C21.7239 28.8469 21.7628 28.6412 21.8221 28.607C22.0263 28.4911 23.5917 27.3311 27.7758 26.6027C31.9599 25.8744 36.2387 26.3696 36.2387 26.3696C36.2387 26.3696 34.8121 26.4503 32.0985 27.1189Z" fill="#24247A"/>
<path d="M47.3015 23.7593C47.7165 24.0098 48.562 24.3358 48.562 24.3358C48.562 24.3358 47.7976 26.0651 45.7959 25.8563C43.7942 25.6474 40.2003 22.3158 39.0779 21.6318C37.9555 20.9479 38.1711 21.1378 37.6542 20.9151C36.5213 20.4256 35.28 20.0266 34.5343 19.8016L34.4813 19.7861L34.3309 19.7413L34.288 19.7294L34.2843 19.728L34.2406 19.7155L34.2313 19.7125L34.1988 19.7036L34.1783 19.6967L34.1593 19.692L34.1567 19.6904L34.1208 19.6812L34.0857 19.6707L34.0824 19.6693L34.0519 19.661L34.0409 19.6585L34.0216 19.6523L34.0027 19.6476L33.9935 19.6446L33.9689 19.6379L33.9453 19.6321L33.9396 19.6301L33.9236 19.6254L33.9137 19.6226L33.906 19.6214L33.8924 19.6173L33.8903 19.6178L33.878 19.6144L33.8694 19.6124L33.8658 19.6111L33.8619 19.612L33.8582 19.6107C33.8582 19.6107 34.3217 19.191 35.3151 19.0621C36.2459 18.9412 36.5067 18.9765 36.5362 18.9821C36.4672 18.9693 35.0613 18.7219 32.8582 18.8218C30.5914 18.9202 28.1068 20.6338 28.1068 20.6338L28.109 20.6333L28.108 20.6291L28.1093 20.6255L28.1088 20.6234L28.1179 20.6086L28.1192 20.6049L28.1222 20.6001L28.1261 20.5888L28.13 20.5834L28.1321 20.5796L28.1348 20.5727L28.1378 20.5679L28.1447 20.5536L28.1485 20.5475L28.1523 20.5403L28.1552 20.5355L28.1566 20.5319L28.1611 20.5245L28.1649 20.5173L28.1692 20.5088L28.1743 20.5006L28.1756 20.4969L28.1794 20.4908L28.1844 20.4811L28.1898 20.4724L28.1949 20.463L28.2007 20.4531L28.2059 20.4437L28.2149 20.429L28.2179 20.4227L28.2299 20.4032L28.2294 20.4011L28.243 20.3789L28.2451 20.3784L28.2498 20.3687L28.2613 20.3501L28.2631 20.3455L28.271 20.3333L28.2783 20.3208L28.2858 20.3086L28.2934 20.2953L28.3008 20.2832L28.309 20.2693L28.3152 20.2597L28.3173 20.2559L28.3259 20.2423L28.3507 20.2019L28.3554 20.1952L28.3589 20.1881L28.3679 20.1733L28.3764 20.1609L28.3797 20.1561L28.3956 20.1311C28.8004 19.5015 29.2984 18.9371 29.8728 18.4572C31.0955 17.4429 31.5117 17.3348 31.5117 17.3348C31.5117 17.3348 27.2688 17.4431 22.1945 18.3427C17.1202 19.2423 15.6046 20.0981 15.6046 20.0981C15.6046 20.0981 19.7986 16.8387 23.4835 16.132C27.1685 15.4254 29.29 16.0851 29.29 16.0851L27.5831 15.2302C27.5831 15.2302 28.799 15.0265 33.1469 16.0765C33.3891 16.1354 33.6263 16.1977 33.8587 16.2633C34.19 17.0778 34.514 17.3722 34.514 17.3722C34.514 17.3722 34.4181 17.2177 34.2743 16.7489C34.2351 16.6215 34.2063 16.491 34.1884 16.3589C34.2563 16.3797 34.3243 16.4005 34.3923 16.4212C34.6285 16.8027 35.0933 17.3373 35.9352 17.6359C36.5173 17.8431 37.286 17.8995 37.9858 17.8957C39.6084 18.7278 40.5805 19.4637 40.5805 19.4637C40.6732 19.5297 40.762 19.5978 40.8469 19.6679C42.2873 20.866 43.6379 22.0897 43.6379 22.0897C43.562 21.8122 43.5076 21.5292 43.4753 21.2434C43.4189 20.7588 43.1992 20.3145 43.1992 20.3145C43.1992 20.3145 44.126 20.9819 44.891 21.611C45.656 22.2401 46.5648 23.315 47.3015 23.7593ZM32.4805 21.5762C32.4805 21.5762 29.4865 21.9525 28.1183 22.6036C26.75 23.2547 26.6802 23.4581 26.6802 23.4581L28.1971 23.411C27.3337 23.6612 26.4849 23.9594 25.6548 24.3043L25.7382 24.3107C25.7382 24.3107 24.9246 24.5666 23.6101 25.3801C22.2956 26.1936 21.7339 26.6875 21.7339 26.6875C21.7339 26.6875 26.0396 25.0463 31.7424 25.2984C37.4452 25.5504 39.6153 26.5631 39.6153 26.5631C39.8965 26.552 40.1753 26.5062 40.4453 26.4266C40.8897 26.2958 41.0548 26.1788 41.0548 26.1788C41.0548 26.1788 40.9113 26.378 40.4485 26.5982C39.9858 26.8183 39.0881 26.9102 39.0881 26.9102C39.0881 26.9102 39.8104 27.316 41.1554 27.1563C42.5005 26.9966 43.2978 26.0012 43.2978 26.0012C43.2978 26.0012 40.2087 25.0396 36.2338 24.3012C32.2588 23.5628 29.8504 23.5514 29.8504 23.5514C29.8504 23.5514 29.9478 23.4769 30.6881 22.8342C31.428 22.1917 32.4805 21.5762 32.4805 21.5762ZM49.0262 24.3665L49.9384 24.2593C49.9384 24.2593 49.9075 24.963 49.3081 25.3692C48.9453 25.6141 48.5365 25.7827 48.1065 25.8648C48.1065 25.8648 48.7295 25.2987 48.9093 24.8922C49.0892 24.4856 49.0262 24.3665 49.0262 24.3665ZM36.2402 26.371C36.2402 26.371 33.4479 26.5238 28.2426 28.2366C25.5465 29.1237 23.8767 29.8041 22.8927 30.2539L21.6537 30.3782C21.6569 29.7293 21.6841 28.6882 21.8229 28.6087C22.0271 28.4927 23.5925 27.3327 27.7766 26.6044C31.9607 25.876 36.2388 26.3714 36.2388 26.3714L36.2402 26.371Z" fill="white"/>
<path d="M47.3015 23.7593L47.3202 23.7697L47.3363 23.7796L47.3408 23.7815L47.3434 23.7831L47.3607 23.7934L47.3802 23.8035L47.3825 23.8052L47.3846 23.8047L47.403 23.8151L47.4101 23.8186C47.4224 23.8249 47.4344 23.8317 47.4476 23.8389L47.4502 23.8405L47.4645 23.8475L47.4717 23.8513L47.4778 23.855L47.492 23.862L47.4959 23.8644L47.5196 23.8765L47.5352 23.8843L47.5436 23.8886L47.5494 23.8912L47.5638 23.8986L47.576 23.9049L47.5765 23.907L47.5919 23.9137L47.6061 23.9207L47.6172 23.9265L47.6218 23.9288L47.636 23.9357L47.6429 23.9382L47.6516 23.9435L47.667 23.9505L47.6811 23.9568L47.693 23.9632L47.6963 23.9646L47.7189 23.9752L47.7273 23.9795L47.7426 23.9862L47.7452 23.9878L47.7579 23.9929L47.771 23.9994L47.7735 24.0006L47.7886 24.0078L47.798 24.0118L47.8039 24.0145L47.8193 24.0215L47.8241 24.0233L47.8348 24.0293L47.8502 24.036L47.8665 24.0425L47.8759 24.0476L47.8816 24.0496L47.8969 24.0563L47.9027 24.059L47.9122 24.063L47.9276 24.0701L47.9416 24.076L47.9534 24.0817L47.9565 24.081L47.9719 24.088L47.9788 24.0904L47.9869 24.0948L48.002 24.1008L48.0276 24.1117L48.0297 24.1112L48.0449 24.1172L48.0591 24.1242L48.0743 24.1302L48.0771 24.1295L48.0879 24.1344L48.1007 24.1398L48.1157 24.1455L48.1242 24.1498L48.1298 24.1517L48.1439 24.1576L48.1485 24.1599L48.158 24.1639L48.172 24.1698L48.1848 24.1753L48.1942 24.1793L48.1988 24.1812L48.2116 24.1866C48.4074 24.268 48.55 24.3231 48.55 24.3231C48.55 24.3231 47.7856 26.0525 45.7839 25.8436C43.7822 25.6348 40.1883 22.3032 39.0659 21.6192C37.9435 20.9352 38.1591 21.1252 37.6422 20.9025C36.5093 20.413 35.268 20.0139 34.5223 19.7889L34.4693 19.7735L34.3189 19.7287L34.276 19.7167L34.2723 19.7154L34.2286 19.7029L34.2193 19.6999L34.1868 19.691L34.1663 19.6841L34.1473 19.6793L34.1447 19.6777L34.1088 19.6685L34.0737 19.6581L34.0704 19.6566L34.0399 19.6484L34.0289 19.6458L34.0096 19.6397L33.9907 19.6349L33.9815 19.632L33.9569 19.6253L33.9333 19.6194L33.9276 19.6174L33.9117 19.6127L33.9017 19.6099L33.894 19.6088L33.8804 19.6047L33.8783 19.6052L33.866 19.6018L33.8574 19.5998L33.8538 19.5984L33.8499 19.5994L33.8462 19.598C33.8462 19.598 34.3098 19.1784 35.3031 19.0495C36.0406 18.954 36.3574 18.9568 36.4715 18.9643L34.9502 19.5627C34.9502 19.5627 37.6696 20.4705 38.4904 20.8947C39.3112 21.3188 39.3442 21.4288 39.3442 21.4288C39.3442 21.4288 39.1997 21.1102 38.7336 20.8302C38.2674 20.5501 38.0705 20.4301 38.0705 20.4301C38.0705 20.4301 38.7694 20.5062 39.8509 21.366C40.9324 22.2258 41.0414 22.4213 41.0414 22.4213L40.1088 21.776C40.1088 21.776 40.5503 22.5011 41.9381 23.4053C43.3259 24.3096 45.0763 25.558 46.269 25.5341C47.4616 25.5101 47.8935 24.474 47.8935 24.474L47.8279 24.4415C47.5358 24.2921 47.2519 24.1271 46.9774 23.9474L46.9947 23.9362C46.7474 23.7707 46.5118 23.5884 46.2894 23.3907C45.9073 23.0453 45.6029 22.466 45.4165 22.0481C46.0547 22.6643 46.7255 23.4122 47.3015 23.7593ZM38.3669 19.7044C38.1326 19.58 37.4731 19.6034 37.229 19.6722C37.5417 19.2972 37.9606 19.4233 38.3669 19.7044ZM40.0106 21.0272C39.8727 20.9154 39.5232 20.5811 38.7964 20.3264C38.0695 20.0717 37.5579 20.0937 37.5579 20.0937C37.5579 20.0937 37.6346 19.8075 38.4361 20.0473C39.2376 20.2871 40.0106 21.0272 40.0106 21.0272ZM36.4492 18.964C36.1164 18.9114 34.7946 18.7302 32.8511 18.8172C30.5913 18.9203 28.1068 20.6338 28.1068 20.6338L28.109 20.6333L28.108 20.6291L28.1093 20.6255L28.1088 20.6234L28.1179 20.6086L28.1192 20.6049L28.1222 20.6001L28.1261 20.5888L28.13 20.5834L28.1321 20.5796L28.1348 20.5727L28.1378 20.5679L28.1447 20.5536L28.1485 20.5475L28.1523 20.5403L28.1552 20.5355L28.1566 20.5319L28.1611 20.5245L28.1649 20.5173L28.1692 20.5088L28.1743 20.5006L28.1756 20.4969L28.1794 20.4908L28.1844 20.4811L28.1898 20.4724L28.1949 20.463L28.2007 20.4531L28.2059 20.4437L28.2149 20.429L28.2179 20.4227L28.2299 20.4032L28.2294 20.4011L28.243 20.3789L28.2451 20.3784L28.2498 20.3687L28.2613 20.3501L28.2631 20.3455L28.271 20.3333L28.2783 20.3208L28.2858 20.3086L28.2934 20.2953L28.3008 20.2832L28.309 20.2693L28.3152 20.2597L28.3173 20.2559L28.3259 20.2423L28.3507 20.2019L28.3554 20.1952L28.3589 20.1881L28.3679 20.1733L28.3764 20.1609L28.3797 20.1561L28.3956 20.1311C28.6369 19.7568 28.911 19.4047 29.2149 19.079C29.9456 18.867 31.2557 18.5567 32.6697 18.5346C34.6731 18.4796 36.2273 18.9008 36.4492 18.964ZM30.8786 17.675C31.2176 17.4456 31.4042 17.3568 31.482 17.3256L30.8786 17.675ZM31.5204 17.3112C31.3628 17.3152 27.1862 17.4374 22.2087 18.3201C18.0876 19.0518 16.3134 19.7527 15.7927 19.9908C16.4355 19.6794 18.7551 18.5893 20.8876 17.9749C23.3953 17.2526 24.8968 17.1799 24.8968 17.1799L22.7041 17.1532C22.7041 17.1532 23.618 16.7917 26.3895 16.4931C29.1609 16.1945 32.3449 16.983 32.3449 16.983L31.5204 17.3112ZM32.3323 15.8595C32.5954 15.9185 32.8715 15.9835 33.1625 16.0536C33.4046 16.1124 33.6418 16.1747 33.8742 16.2404C34.2056 17.0548 34.5296 17.3493 34.5296 17.3493C34.5296 17.3493 34.4336 17.1948 34.2899 16.726C34.2506 16.5985 34.2219 16.4681 34.2039 16.336C34.2719 16.3567 34.3399 16.3775 34.4078 16.3983C34.6441 16.7797 35.1089 17.3143 35.9508 17.613C36.5329 17.8201 37.3016 17.8766 38.0014 17.8728C38.255 18.0033 38.4915 18.1305 38.7121 18.2533C38.3867 18.2871 37.9604 18.3113 37.3982 18.3159C35.4209 18.3313 34.788 17.4956 34.788 17.4956C34.788 17.4956 34.877 17.6596 35.1184 17.9668C35.3598 18.274 35.8032 18.5688 35.8032 18.5688C35.8032 18.5688 34.1279 18.4111 33.0369 17.1493C32.7016 16.7627 32.4793 16.3064 32.3323 15.8595ZM49.8658 24.6139C49.6455 24.6844 49.5315 24.7266 49.3869 24.7589C49.2424 24.7913 49.1808 24.802 49.1808 24.802C49.1397 25.1143 49.0083 25.4079 48.8027 25.6466C48.5801 25.7479 48.3457 25.8213 48.1051 25.8651C48.1051 25.8651 48.7281 25.2991 48.9079 24.8925C49.0877 24.486 49.0245 24.3658 49.0245 24.3658L49.9367 24.2586C49.9278 24.3795 49.904 24.4988 49.8658 24.6139ZM27.0264 23.7855C27.9571 23.8439 28.5576 23.9124 28.5576 23.9124L26.3488 24.7377C26.3488 24.7377 29.6712 24.4747 31.9109 24.6422C34.1506 24.8096 35.8036 25.1683 35.8036 25.1683L34.4892 24.693C34.4892 24.693 34.1414 24.5391 36.59 25.0975C39.0386 25.6559 39.9907 26.1412 39.9907 26.1412C39.9907 26.1412 40.624 26.0266 41.0579 25.912C41.4918 25.7974 41.5051 25.7679 41.5051 25.7679C41.5051 25.7679 41.4956 25.9046 41.1761 26.3732C40.8566 26.8417 40.5818 26.8905 40.5818 26.8905C40.5818 26.8905 41.771 26.9448 42.5343 26.4741C42.8839 26.2582 43.1198 26.1198 43.2724 26.0328C43.1269 26.1989 42.3608 27.0126 41.1547 27.1565C39.8098 27.3169 39.0873 26.9104 39.0873 26.9104C39.0873 26.9104 39.9846 26.8182 40.4478 26.5983C40.911 26.3785 41.054 26.179 41.054 26.179C41.054 26.179 40.889 26.2959 40.4445 26.4268C40.1745 26.5064 39.8958 26.5522 39.6145 26.5633C39.6145 26.5633 37.4449 25.5494 31.7416 25.2986C26.0384 25.0477 21.7331 26.6877 21.7331 26.6877C21.7331 26.6877 22.2953 26.1929 23.6093 25.3803C24.9233 24.5677 25.7374 24.3109 25.7374 24.3109L25.654 24.3046C26.1574 24.0962 26.6293 23.9224 27.0258 23.7831L27.0264 23.7855ZM32.0985 27.1189C30.0734 27.2162 27.0663 27.4592 24.7074 28.0692C23.6784 28.3409 22.6724 28.6932 21.6988 29.1231C21.7239 28.8469 21.7628 28.6412 21.8221 28.607C22.0263 28.4911 23.5917 27.3311 27.7758 26.6027C31.9599 25.8744 36.2387 26.3696 36.2387 26.3696C36.2387 26.3696 34.8121 26.4503 32.0985 27.1189Z" fill="#C1C1E8"/>
<path d="M42.1851 24.9507C42.1851 24.9507 39.6297 22.7404 37.25 21.5674C34.8704 20.3945 34.0102 20.2625 34.0102 20.2625C33.8762 20.598 33.8248 20.9608 33.8603 21.3204C33.9155 21.933 34.2174 22.759 34.2174 22.759L34.674 21.2612L35.1147 22.2028L35.7242 21.6207L36.0182 22.3656C36.0182 22.3656 36.4861 22.4626 37.5974 22.9254C38.7087 23.3882 39.2702 23.6951 39.2702 23.6951C39.2702 23.6951 38.7596 23.4938 37.4326 23.1394C36.1056 22.7849 35.7673 22.7599 35.7673 22.7599L35.5749 22.2661L34.944 22.8425L34.6658 22.1632L34.2466 23.0918L33.947 22.4594C33.947 22.4594 33.8011 23.0217 33.8968 23.2897C33.9925 23.5576 34.3802 23.5445 34.3802 23.5445C34.3802 23.5445 34.9641 23.5485 37.883 23.9357C40.802 24.3229 42.1851 24.9507 42.1851 24.9507Z" fill="white"/>
<path d="M42.1851 24.9507C42.1851 24.9507 39.6297 22.7404 37.25 21.5674C34.8704 20.3945 34.0102 20.2625 34.0102 20.2625C33.8762 20.598 33.8248 20.9608 33.8603 21.3204C33.9155 21.933 34.2174 22.759 34.2174 22.759L34.6753 21.2282L35.3854 21.9435L35.1147 22.2028L34.6722 21.2616L34.2156 22.7594C34.1938 22.5557 34.1597 22.3535 34.1136 22.1539C34.0259 21.7443 34.1539 20.9292 34.1539 20.9292C34.1539 20.9292 35.9549 21.3569 38.4729 22.688C40.3611 23.6855 41.6215 24.5591 42.1358 24.9336L42.1851 24.9507ZM35.7164 21.6282L35.7242 21.6207L36.0182 22.3656C36.1755 22.4024 36.3305 22.4469 36.4829 22.5004L35.7287 21.596L35.7164 21.6282ZM39.1388 23.6461C38.9127 23.5669 38.3812 23.3914 37.4342 23.1382C36.1076 22.7837 35.7688 22.7588 35.7688 22.7588L35.5765 22.265L35.3248 22.4953L35.5761 22.9257L39.14 23.6451L39.1388 23.6461ZM34.9398 22.8235L34.6658 22.1632L34.4763 22.5836L34.8457 22.9769L34.9398 22.8235ZM34.2466 23.0918L33.947 22.4594C33.947 22.4594 33.8011 23.0217 33.8968 23.2897C33.9566 23.4606 34.1335 23.5153 34.256 23.5346L34.2466 23.0918Z" fill="#C1C1E8"/>
<path d="M37.5919 16.41L34.9047 13.7624C34.9047 13.7624 35.0858 15.6297 35.6943 16.0169C36.3028 16.404 37.5919 16.41 37.5919 16.41Z" fill="white"/>
<path d="M35.9213 11.7355C35.9213 11.7355 35.0405 10.8826 33.3629 10.0003C31.6854 9.11794 30.2135 8.80074 30.2135 8.80074C30.2135 8.80074 30.7257 8.16341 32.9794 9.27909C35.2331 10.3948 35.9213 11.7355 35.9213 11.7355ZM30.0127 8.35192C29.9238 8.42584 29.8181 8.47661 29.7048 8.49972C29.5916 8.52283 29.4744 8.51754 29.3637 8.48433C28.9814 8.37021 28.5929 8.18715 28.7763 8.12806C28.9596 8.06896 29.0948 7.94471 29.3802 8.04868C29.5977 8.13508 29.8091 8.2364 30.0127 8.35192Z" fill="#24247A"/>
<path d="M30.9631 12.2424C30.9631 12.2424 30.6927 12.5384 30.7892 13.3902C30.8488 13.9034 31.0359 14.3937 31.3333 14.8162C31.3333 14.8162 30.4255 13.9653 30.3524 13.0871C30.2792 12.209 30.9631 12.2424 30.9631 12.2424Z" fill="#24247A"/>
<path d="M29.8905 12.1891C29.8905 12.1891 29.5583 12.3769 29.5459 12.8516C29.5336 13.3262 29.9933 13.8254 29.9933 13.8254C29.9933 13.8254 29.1968 13.4517 29.2538 12.8248C29.3108 12.1979 29.8905 12.1891 29.8905 12.1891Z" fill="#24247A"/>
<path d="M18.9076 9.7414L20.1481 9.7501L21.1874 10.1568C21.1874 10.1568 16.1267 11.3066 13.1731 13.6101C10.2196 15.9136 9.68329 16.845 9.68329 16.845C9.68329 16.845 10.7462 14.7052 12.9585 12.9674C15.1708 11.2297 18.9076 9.7414 18.9076 9.7414Z" fill="#30BDEF"/>
<path d="M29.4298 54.8057L29.1379 54.0385C32.4333 54.8218 34.8556 54.8125 38.1445 54.0765C35.4393 55.4038 32.5113 55.5112 29.5856 55.0015L29.4298 54.8057Z" fill="#30BDEF"/>
<path d="M29.1379 54.0385L29.4298 54.8057L29.5856 55.0015C27.226 53.9666 24.8369 52.1501 23.9373 51.3713L22.8389 48.9093C23.354 50.0607 27.2529 52.8085 29.1379 54.0385Z" fill="#30BDEF"/>
<path d="M14.1984 31.4757L15.5307 31.4161L15.9759 31.8979C16.153 32.0894 16.3878 32.2179 16.6446 32.264C16.6882 32.3202 16.7272 32.3797 16.7613 32.4421C16.7654 32.4496 16.7674 32.4581 16.7672 32.4666C16.7468 32.726 16.8113 32.985 16.9509 33.2046C17.0904 33.4242 17.2975 33.5925 17.541 33.6842C17.7845 33.7759 18.0512 33.7861 18.3009 33.7131C18.5507 33.6402 18.77 33.4881 18.9258 33.2797C19.0752 33.4036 19.2528 33.4888 19.4429 33.528C19.6567 33.5724 19.8787 33.5575 20.0847 33.4851C20.2908 33.4126 20.4731 33.2853 20.6121 33.1168L20.6147 33.1184C20.6168 33.1179 20.8121 32.8811 21.0408 32.5425C21.158 32.6807 21.3049 32.7907 21.4705 32.8642C21.6362 32.9376 21.8163 32.9727 21.9974 32.9667C22.1785 32.9607 22.3559 32.9139 22.5164 32.8296C22.6768 32.7454 22.8161 32.626 22.9239 32.4803L22.9335 32.4676C22.9516 32.4411 22.9973 32.3782 23.0585 32.2873C23.235 32.3612 23.4267 32.3916 23.6174 32.3758C23.8911 32.3531 24.1488 32.2376 24.348 32.0486C24.4896 31.9202 25.0016 31.4307 25.2431 30.873C25.3699 30.5688 25.4458 30.2458 25.4677 29.9169C25.4812 29.8989 25.4942 29.8821 25.5067 29.8646L25.5188 29.8458C25.5391 29.8157 25.558 29.7849 25.5746 29.7539C25.7794 29.3939 26.3241 28.19 25.5011 26.6918C24.4987 24.8655 22.2294 25.0821 22.2221 25.0827C22.0469 25.0977 21.8772 25.151 21.7248 25.2388C20.7474 24.9111 19.7976 25.2267 19.4759 25.3563C19.3002 25.4181 19.1411 25.5196 19.0111 25.6529C17.6686 25.4333 16.4984 25.9921 16.495 25.9937C16.3044 26.0825 16.1406 26.22 16.0202 26.3923C15.179 26.5515 14.6562 26.8027 14.2741 27.1476C13.8514 27.5271 13.6851 27.9019 13.4957 28.3537C13.2001 29.0612 12.9809 29.9937 12.9797 29.9966C12.9059 30.3064 12.9581 30.6328 13.1248 30.9041C13.2916 31.1754 13.5593 31.3694 13.869 31.4434C13.9767 31.4695 14.0876 31.4804 14.1984 31.4757Z" fill="#151630"/>
<path d="M14.1448 30.2747L15.6067 30.2071L15.851 29.4074L15.9446 30.0921L16.8563 31.0785C16.8563 31.0785 16.9419 29.9752 17.2082 29.7021C17.4744 29.429 17.8396 29.6017 17.8396 29.6017C17.8396 29.6017 17.4534 27.3433 16.2528 27.5678C15.0523 27.7922 14.8627 28.1971 14.6016 28.818C14.3404 29.439 14.1448 30.2747 14.1448 30.2747ZM23.2299 29.7014C23.2299 29.7014 23.8554 28.6723 23.9952 28.7189C24.1349 28.7655 24.5168 29.1735 24.5168 29.1735C24.5168 29.1735 25.0676 28.4032 24.444 27.2689C23.8203 26.1346 22.3254 26.278 22.3254 26.278C22.3254 26.278 22.8705 26.9049 23.1109 27.6907C23.3513 28.4765 23.2301 29.7021 23.2301 29.7021L23.2299 29.7014ZM24.2745 29.5836L24.0064 29.1835C24.0064 29.1835 23.3127 29.8276 23.383 30.1394C23.4532 30.4513 23.5158 31.1726 23.5158 31.1726C23.5158 31.1726 23.9729 30.7786 24.1411 30.393C24.3092 30.0073 24.2746 29.5843 24.2746 29.5843L24.2745 29.5836ZM22.5038 30.0379C22.5038 30.0379 22.4709 29.6497 22.0827 29.7311C21.6946 29.8126 21.4717 30.1705 21.4717 30.1705C21.4717 30.1705 21.8518 30.9689 21.9134 31.3002C21.9749 31.6316 21.9568 31.7634 21.9568 31.7634C21.9568 31.7634 22.5785 30.9149 22.6242 30.632C22.6698 30.3491 22.504 30.0386 22.504 30.0386L22.5038 30.0379ZM22.5239 29.362C22.5239 29.362 22.4092 29.0238 22.1014 29.1156C21.7936 29.2075 21.1915 29.9586 21.1915 29.9586C21.1915 29.9586 21.3342 28.3396 21.0025 27.6816C20.6708 27.0236 19.8759 26.4913 19.8759 26.4913C19.8759 26.4913 21.1089 25.8882 21.9654 26.7862C22.8218 27.6843 22.8754 28.4715 22.8092 28.8046C22.7645 29.0123 22.6662 29.2048 22.5241 29.3627L22.5239 29.362ZM20.3175 29.9574C20.3175 29.9574 20.1638 29.6607 19.7808 29.9043C19.6714 29.9696 19.5799 30.061 19.5145 30.1703C19.449 30.2796 19.4117 30.4034 19.4057 30.5307C19.4057 30.5307 19.6814 31.1128 19.7171 31.5822C19.7528 32.0517 19.6847 32.3504 19.6847 32.3504C19.6847 32.3504 20.4998 31.3674 20.5478 30.8698C20.5958 30.3721 20.3177 29.9581 20.3177 29.9581L20.3175 29.9574ZM17.0055 27.0819C17.0055 27.0819 17.8659 27.4687 18.0848 27.8351C18.3037 28.2014 18.416 28.6473 18.416 28.6473C18.416 28.6473 18.6489 28.2692 18.8961 28.1763C19.0373 28.1214 19.187 28.0919 19.3385 28.0893C19.3385 28.0893 18.7376 28.497 18.6081 28.9963C18.4787 29.4957 18.8447 30.5416 18.8447 30.5416C18.8447 30.5416 19.1848 29.5401 19.5544 29.3423C19.9239 29.1445 20.3374 29.4709 20.3374 29.4709C20.3374 29.4709 21.2872 28.5735 20.0092 27.4162C18.7312 26.2588 17.0055 27.0822 17.0055 27.0822L17.0055 27.0819ZM17.6417 29.8706L17.302 31.1681C17.302 31.1681 17.6863 31.5971 17.8381 31.9076C17.9309 32.1107 17.9738 32.3331 17.963 32.5562C17.963 32.5562 18.4205 31.3824 18.262 30.8301C18.1034 30.2778 17.6418 29.871 17.6418 29.871L17.6417 29.8706Z" fill="#414196"/>
<path d="M14.1456 30.275L15.6076 30.2074L15.8519 29.4077L15.9454 30.0924L16.8571 31.0788C16.8571 31.0788 16.9427 29.9755 17.209 29.7024C17.4753 29.4293 17.8405 29.602 17.8405 29.602C17.8405 29.602 17.8273 29.5251 17.7986 29.4008C17.7326 29.2213 17.5675 29.0192 17.1514 29.2374C16.493 29.5829 16.3815 30.0458 16.3815 30.0458L16.1211 29.6393L16.0305 28.7873C16.0305 28.7873 15.3996 29.1703 15.2105 29.2315C15.0828 29.2725 14.7251 29.1513 14.5041 29.0671C14.364 29.4634 14.2444 29.8665 14.1456 30.275ZM17.9641 32.449C17.9633 32.4458 18.12 31.7969 17.8416 31.2892C17.6609 30.9597 17.5282 30.7076 17.4576 30.5704L17.3014 31.1684C17.3014 31.1684 17.6857 31.5974 17.8375 31.9079C17.9165 32.0778 17.9601 32.262 17.9656 32.4494L17.9641 32.449ZM23.5167 31.1729C23.5167 31.1729 23.8478 30.4729 23.8748 29.9929C23.8901 29.7024 23.9013 29.4411 23.9089 29.2807C23.7204 29.4718 23.3296 29.9011 23.384 30.1404C23.4556 30.452 23.5182 31.1733 23.5182 31.1733L23.5167 31.1729ZM24.713 28.6631C24.5606 28.5143 24.3543 28.3321 24.1637 28.2388C23.8053 28.0619 23.7559 28.2764 23.7559 28.2764C23.7559 28.2764 23.4515 27.2202 23.0498 26.815C22.6482 26.4098 22.3246 26.2776 22.3246 26.2776C22.3246 26.2776 22.8697 26.9045 23.1101 27.6903C23.3505 28.4761 23.2295 29.7027 23.2295 29.7027C23.2295 29.7027 23.855 28.6736 23.9948 28.7202C24.1345 28.7668 24.5164 29.1749 24.5164 29.1749C24.5164 29.1749 24.6526 28.9881 24.7144 28.6631L24.713 28.6631ZM21.971 31.7453L21.9492 31.5456C21.9592 31.6181 21.9616 31.6914 21.9563 31.7644L21.971 31.7453ZM21.9484 31.5425C21.9484 31.5425 22.2366 30.855 22.1645 30.4487C22.111 30.1414 22.0412 29.8672 22.01 29.7505C21.6652 29.8583 21.4712 30.1715 21.4712 30.1715C21.4712 30.1715 21.8513 30.9698 21.9129 31.3012C21.9325 31.3988 21.9441 31.4779 21.9499 31.5425L21.9484 31.5425ZM22.6764 29.1507C22.6525 28.9412 22.5779 28.7007 22.3708 28.6158C21.9767 28.4538 21.8113 28.5786 21.8113 28.5786C21.8113 28.5786 21.8248 27.8613 21.2973 27.2909C20.7698 26.7206 19.8755 26.4908 19.8755 26.4908C19.8755 26.4908 20.6699 27.0232 21.002 27.6811C21.3341 28.339 21.1924 29.9589 21.1924 29.9589C21.1924 29.9589 21.7933 29.2091 22.1026 29.1173C22.4118 29.0255 22.5251 29.3637 22.5251 29.3637C22.5837 29.2986 22.635 29.2272 22.6779 29.1507L22.6764 29.1507ZM19.6948 32.2984C19.6948 32.2984 20.0936 31.2506 20.0443 30.8267C20.0091 30.5249 19.8708 30.1097 19.7934 29.8962L19.7816 29.9042C19.6722 29.9696 19.5807 30.061 19.5152 30.1703C19.4498 30.2796 19.4124 30.4034 19.4065 30.5306C19.4065 30.5306 19.6822 31.1127 19.7179 31.5822C19.7383 31.821 19.731 32.0613 19.6963 32.2984L19.6948 32.2984ZM20.52 29.2261L20.5152 29.2061C20.5152 29.2061 20.0926 28.6173 19.5298 28.9021C18.9669 29.187 18.9433 29.2045 18.9433 29.2045C18.9433 29.2045 18.7731 28.9796 19.1378 28.5728C19.5025 28.1661 19.8493 28.1397 19.8493 28.1397C19.8493 28.1397 19.4671 27.6977 19.1694 27.7096C18.8717 27.7216 18.85 27.7391 18.85 27.7391C18.85 27.7391 18.2915 27.1617 17.7801 26.8502C17.5132 26.8959 17.2529 26.9738 17.0048 27.0821C17.0048 27.0821 17.8652 27.469 18.0841 27.8353C18.303 28.2017 18.4153 28.6476 18.4153 28.6476C18.4153 28.6476 18.6483 28.2694 18.8954 28.1765C19.0366 28.1217 19.1864 28.0922 19.3378 28.0895C19.3378 28.0895 18.7369 28.4972 18.6075 28.9966C18.478 29.496 18.8441 30.5419 18.8441 30.5419C18.8441 30.5419 19.1842 29.5404 19.5537 29.3426C19.9232 29.1448 20.3367 29.4712 20.3367 29.4712C20.4092 29.3983 20.4714 29.3158 20.5215 29.2261L20.52 29.2261Z" fill="#24247A"/>
<path d="M48.4737 26.9524L48.2418 26.8967L48.2213 26.9784L47.7437 26.9834L47.6287 26.8586L47.492 26.9858L46.924 26.9907L48.5894 28.7912L48.6152 28.4515C48.755 28.6144 48.9156 28.8242 48.9979 28.9931C49.0316 29.0645 49.0556 29.14 49.0695 29.2176C49.0796 29.2721 49.0855 29.3273 49.0871 29.3827L49.0885 29.4195C49.088 29.4311 49.0875 29.4416 49.0868 29.4525L49.3118 30.1027L49.6201 29.722L49.6728 29.5879C49.8586 29.1135 50.107 28.2518 49.9656 27.7572C49.8682 27.42 49.6666 27.104 49.4307 26.8478L49.2913 26.6959L49.0988 26.7694C49.0468 26.7892 48.9936 26.8083 48.9401 26.8263L48.8692 26.8506L48.8185 26.7516L48.7796 26.8988L48.4737 26.9524ZM50.4963 27.7139C50.6104 27.963 50.7303 28.3093 50.7507 28.5753C50.7506 28.5761 50.7508 28.5768 50.7512 28.5774C50.7556 28.6297 50.759 28.689 50.7604 28.7505C50.7643 28.8943 50.7551 29.0382 50.7328 29.1803L50.7298 29.2032C50.7287 29.2065 50.7284 29.2099 50.727 29.2132L50.8727 29.6281L51.2576 29.473C51.5591 29.1088 52.0983 28.3724 52.1423 27.906C52.1432 27.8973 52.1434 27.8891 52.1447 27.8803L52.4906 27.4477C52.5606 27.5991 52.6268 27.7534 52.6899 27.9072C52.7414 28.0357 52.8118 28.206 52.8366 28.3405C52.8485 28.4069 52.859 28.4741 52.8667 28.5404L52.8684 28.5474C52.8749 28.5937 52.8773 28.6405 52.8756 28.6873L53.22 29.1817L53.4236 28.9007C53.4418 28.8763 53.4615 28.8486 53.4835 28.8181L53.505 28.7889C53.6692 28.5584 53.9087 28.2027 54.033 27.928L54.2811 27.5218C54.2863 27.5624 54.2918 27.6022 54.296 27.6413C54.3185 27.8237 54.3385 28.0079 54.3536 28.1914L54.3857 28.5639L54.9033 28.3518C55.1403 28.1387 55.4048 27.8275 55.5257 27.5462C55.6367 27.2746 55.6885 26.9825 55.6777 26.6894L55.8508 26.4463C55.972 26.2776 56.0557 26.0223 56.0918 25.8217C56.0941 25.8052 56.0975 25.7884 56.1 25.7723L56.1157 25.6833L56.1104 25.6783C56.1584 25.2036 56.0301 24.7374 55.8003 24.3177C55.4969 23.7656 54.9839 23.4386 54.3799 23.2945C54.1155 23.2321 53.8439 23.2057 53.5725 23.2159L52.4572 22.7611L53.1973 23.6051C52.7877 23.2874 52.2837 23.1802 51.7541 23.2544L51.5334 23.2843L51.5007 23.4774L51.3738 24.2366L51.409 24.2705L51.2559 24.7147C51.1134 25.1247 50.8882 25.501 50.5942 25.8203L50.5751 25.8408C50.4188 26.0088 50.2429 26.1574 50.0511 26.2834C49.9858 26.3265 49.9189 26.3672 49.8503 26.4056L49.6723 26.509L49.7031 26.7118C49.7523 27.0354 49.8317 27.3537 49.9403 27.6625L50.2328 28.4911L50.4959 27.7125L50.4963 27.7139ZM53.9401 26.65C54.0027 26.5826 54.0578 26.5085 54.1043 26.4291C54.0989 26.5382 54.0918 26.643 54.0819 26.738L54.0423 27.1265C54.0262 27.0811 54.008 27.0362 53.9888 26.9944C53.9703 26.906 53.936 26.8217 53.8874 26.7456C53.882 26.7373 53.8761 26.7294 53.8707 26.7211L53.9324 26.6581L53.9401 26.65Z" fill="#151630"/>
<path d="M45.7684 27.3125L45.9489 27.3038L45.7684 27.3125ZM47.6112 27.2882L48.3395 28.075C48.3627 27.8017 48.4044 27.5302 48.4644 27.2625L47.6112 27.2882ZM45.7701 27.3058L45.7684 27.3125L45.7701 27.3058ZM54.3826 26.7689C54.3826 26.7689 54.9767 25.7926 55.1107 25.8372C55.2448 25.8818 55.6045 26.2681 55.6045 26.2681C55.6045 26.2681 56.1269 25.5372 55.5356 24.4622C54.9444 23.3872 53.5247 23.5215 53.5247 23.5215C53.5247 23.5215 54.0418 24.1151 54.27 24.8623C54.4982 25.6096 54.3826 26.7689 54.3826 26.7689ZM55.3736 26.6565L55.1203 26.2781C55.1203 26.2781 54.4625 26.8873 54.5295 27.1844C54.5966 27.4814 54.6557 28.1635 54.6557 28.1635C54.6557 28.1635 55.0894 27.7896 55.2487 27.4239C55.4079 27.0582 55.3736 26.6565 55.3736 26.6565ZM53.6956 27.0876C53.6956 27.0876 53.6632 26.7203 53.2958 26.7968C52.9283 26.8733 52.716 27.2139 52.716 27.2139C52.716 27.2139 53.0759 27.9711 53.1344 28.2851C53.1929 28.599 53.1764 28.7234 53.1764 28.7234C53.1764 28.7234 53.7655 27.9198 53.8089 27.6507C53.8523 27.3817 53.6956 27.0876 53.6956 27.0876ZM53.714 26.4466C53.714 26.4466 53.6051 26.1262 53.3127 26.2128C53.0203 26.2995 52.4506 27.0121 52.4506 27.0121C52.4506 27.0121 52.5866 25.4755 52.2707 24.8526C52.1307 24.5771 51.9067 24.3243 51.6999 24.1277L51.7951 23.5547C52.2015 23.4989 52.7455 23.5421 53.1853 24.0045C53.9983 24.8559 54.0475 25.6015 53.9847 25.9182C53.9419 26.1148 53.8486 26.2969 53.714 26.4466ZM51.6215 27.0117C51.6215 27.0117 51.4764 26.7303 51.1124 26.9605C51.0089 27.0228 50.9223 27.1095 50.8603 27.2132C50.7984 27.3168 50.7629 27.4341 50.757 27.5548C50.757 27.5548 51.0182 28.107 51.0523 28.5513C51.0864 28.9955 51.0219 29.2804 51.0219 29.2804C51.0219 29.2804 51.7945 28.3484 51.8401 27.8765C51.8857 27.4046 51.6215 27.0117 51.6215 27.0117ZM50.0023 26.6716C50.0523 26.9754 50.127 27.2747 50.2258 27.5663C50.2258 27.5663 50.5477 26.6173 50.8989 26.4295C51.25 26.2417 51.6402 26.551 51.6402 26.551C51.6402 26.551 52.4261 25.8096 51.542 24.8162C51.3037 25.511 50.8158 26.1489 50.2165 26.5417C50.1485 26.5843 50.0752 26.6278 50.0023 26.6716ZM49.0364 27.1118L48.762 28.1588C48.762 28.1588 49.1264 28.5662 49.2702 28.8605C49.358 29.0533 49.3989 29.2643 49.3894 29.476C49.3894 29.476 49.8231 28.3623 49.6726 27.8388C49.5729 27.4922 49.3466 27.2047 49.2057 27.0513C49.1499 27.0721 49.0927 27.0932 49.0364 27.1118Z" fill="#414196"/>
<path d="M45.7687 27.3115L45.9493 27.3027L45.7704 27.3047L45.7687 27.3115ZM47.6116 27.2871L48.3399 28.0739C48.3631 27.8006 48.4048 27.5291 48.4648 27.2614C48.4292 27.2677 48.3938 27.2744 48.358 27.2796L47.6116 27.2871ZM49.3905 29.3728C49.3915 29.3692 49.5388 28.754 49.2754 28.2731C49.1038 27.9603 48.9782 27.7203 48.9115 27.5903L48.7627 28.1576C48.7627 28.1576 49.1271 28.5651 49.2709 28.8593C49.3459 29.0203 49.3866 29.1952 49.3905 29.3728ZM54.6561 28.1625C54.6561 28.1625 54.9707 27.4987 54.9952 27.0437C55.0104 26.7681 55.0211 26.5187 55.0282 26.3688C54.8491 26.5495 54.479 26.9583 54.5302 27.1847C54.5973 27.4788 54.6561 28.1625 54.6561 28.1625ZM55.7909 25.7827C55.6457 25.6407 55.4508 25.4691 55.2699 25.379C54.9304 25.2113 54.8835 25.4148 54.8835 25.4148C54.8835 25.4148 54.5939 24.4125 54.2144 24.0287C53.835 23.6448 53.5264 23.5201 53.5264 23.5201C53.5264 23.5201 54.0435 24.1137 54.2717 24.8609C54.4999 25.6082 54.384 26.7691 54.384 26.7691C54.384 26.7691 54.977 25.7915 55.1111 25.8361C55.2452 25.8807 55.6048 26.2671 55.6048 26.2671C55.6984 26.1197 55.7614 25.955 55.7902 25.7828L55.7909 25.7827ZM53.192 28.7024L53.1718 28.5127C53.181 28.5814 53.1833 28.6509 53.1784 28.7201L53.192 28.7024ZM53.1713 28.5106C53.1713 28.5106 53.4438 27.8583 53.3757 27.4733C53.3249 27.182 53.2584 26.9215 53.2287 26.8112C52.9043 26.9129 52.7181 27.2106 52.7181 27.2106C52.7181 27.2106 53.078 27.9678 53.1365 28.2817C53.1526 28.3753 53.1634 28.4513 53.1696 28.5128L53.1713 28.5106ZM53.8604 26.243C53.8379 26.0435 53.7677 25.8154 53.5717 25.7352C53.198 25.5812 53.0414 25.6995 53.0414 25.6995C53.0414 25.6995 53.0517 25.0196 52.5528 24.4791C52.317 24.2229 52.0029 24.0394 51.7363 23.9165L51.7019 24.1241C51.9087 24.3206 52.134 24.5731 52.2727 24.8489C52.5886 25.4718 52.4525 27.0085 52.4525 27.0085C52.4525 27.0085 53.0232 26.2964 53.3147 26.2092C53.6061 26.122 53.716 26.4429 53.716 26.4429C53.771 26.3827 53.8189 26.3164 53.8588 26.2453L53.8604 26.243ZM51.0322 29.2295C51.0322 29.2295 51.4087 28.2359 51.3629 27.8341C51.3293 27.5483 51.1982 27.1554 51.1243 26.9522L51.1134 26.9593C51.0099 27.0215 50.9234 27.1083 50.8614 27.2119C50.7994 27.3156 50.7639 27.4329 50.758 27.5535C50.758 27.5535 51.0192 28.1057 51.0533 28.55C51.0727 28.7766 51.0656 29.0046 51.0322 29.2295ZM51.8147 26.3163L51.8103 26.2977C51.8103 26.2977 51.4095 25.7382 50.8744 26.009L50.7958 26.0489C50.623 26.2343 50.4288 26.3986 50.2174 26.5383C50.1484 26.583 50.0769 26.6264 50.0023 26.6706C50.0524 26.9744 50.1273 27.2736 50.2261 27.5653C50.2261 27.5653 50.5481 26.6163 50.8992 26.4284C51.2504 26.2406 51.6406 26.55 51.6406 26.55C51.7088 26.4805 51.7672 26.4019 51.814 26.3165L51.8147 26.3163Z" fill="#24247A"/>
<path d="M5.49853 31.5203L5.74658 31.9853L16.0335 30.9834L7.93172 30.9296L5.49853 31.5203Z" fill="#30BDEF"/>
</svg>
