<svg width="16" height="16" viewBox="0 0 16 16" fill="none" xmlns="http://www.w3.org/2000/svg">
<path d="M1.3245 2.23404C0.945912 5.67014 5.2935 13.3956 8.36001 15.6776H8.51581C8.51581 15.6776 9.96186 14.8697 11.1716 13.4883C12.0789 12.794 12.5782 12.2578 12.8395 11.882C13.1878 11.2955 13.395 10.5661 13.6368 9.73754C15.098 6.05322 15.0135 5.23026 15.0135 5.05592C14.4269 4.02974 6.72873 0.822193 1.3245 2.23404Z" fill="#2697FF"/>
<path d="M3.84391 0.402149C3.78371 0.402682 3.72529 0.404216 3.67019 0.407558C3.61167 0.410922 3.55571 0.415173 3.50367 0.421155C3.42502 0.430254 3.34135 0.44821 3.25772 0.466339L3.25373 0.467204C3.20338 0.478007 3.15311 0.488789 3.10899 0.49685L3.09182 0.500055L3.08362 0.498485L2.7062 0.590783L2.95615 1.17239C3.0404 1.36786 3.17796 1.57764 3.3377 1.77197C3.51058 1.98266 3.70875 2.17485 3.89365 2.31313L4.02341 2.40987L4.03022 2.41458C4.07893 2.44863 4.12614 2.48123 4.16601 2.50812L4.33333 2.62114L10.8325 2.99413L9.97691 2.19854C9.88155 2.1232 9.7585 2.05095 9.64649 1.98529L9.60556 1.9611C9.5852 1.94905 9.56401 1.93676 9.54249 1.9243L9.54133 1.92363C9.52585 1.91464 9.5102 1.90556 9.49458 1.8964C9.41696 1.85173 9.33933 1.80663 9.26295 1.7586L8.55759 1.34869L8.60147 1.51453L8.42708 1.4405C8.34475 1.40557 8.26325 1.37291 8.18511 1.34264C8.14154 1.32576 8.09684 1.3088 8.05145 1.29178C8.01544 1.27829 7.97901 1.26479 7.9424 1.2513C7.75928 1.18415 7.57048 1.12349 7.37831 1.06814C7.18415 1.01202 6.99178 0.963207 6.80262 0.920133C6.75145 0.908384 6.70457 0.895658 6.65818 0.883066L6.65741 0.882857C6.61078 0.870195 6.56386 0.857458 6.52072 0.847331C6.37593 0.814284 6.23529 0.776913 6.09479 0.739578L6.08426 0.736778L6.076 0.734574C5.94152 0.69866 5.807 0.662735 5.66769 0.630461C5.61065 0.61747 5.5677 0.606635 5.5245 0.595566L5.50194 0.589842C5.45848 0.578819 5.41629 0.56812 5.38343 0.560853C5.28875 0.538934 5.18931 0.512983 5.08993 0.486466L4.96976 0.455008C4.9448 0.448617 4.92008 0.442391 4.89518 0.436061C4.87191 0.430142 4.8485 0.424184 4.82461 0.417975C4.77515 0.40512 4.72661 0.392741 4.68031 0.381435L4.6459 0.372668C4.59437 0.359504 4.53242 0.343675 4.48971 0.342066L3.98626 0.322449L4.06194 0.399909L3.84391 0.402149Z" fill="#2697FF"/>
<path d="M3.86223 10.3751C3.77105 10.4747 3.7328 10.5627 3.7328 10.5627L3.63553 10.7229C3.62414 10.7417 3.61181 10.7624 3.60105 10.7827C3.59029 10.8029 3.58057 10.8215 3.57253 10.8386L3.57033 10.8432C3.56781 10.8477 3.56442 10.8536 3.56078 10.86L3.55539 10.8694L3.55294 10.8737C3.54502 10.8874 3.53732 10.9006 3.53209 10.9126C3.52489 10.9284 3.52057 10.938 3.5178 10.9442L3.51599 10.9483C3.51402 10.9527 3.51317 10.9546 3.51228 10.9563L3.50712 10.9676C3.49089 11.0027 3.47475 11.0377 3.46103 11.0735C3.43837 11.1309 3.41886 11.1885 3.40182 11.2465C3.38423 11.3067 3.36894 11.3665 3.35639 11.4253C3.32701 11.5673 3.3127 11.7121 3.3137 11.8571C3.31375 12.0052 3.32786 12.1521 3.35686 12.278C3.37907 12.3735 3.40753 12.4673 3.44208 12.559C3.47668 12.6516 3.51518 12.7404 3.55716 12.8339C3.57382 12.8708 3.59094 12.9093 3.60755 12.9493C3.62416 12.9893 3.64001 13.0292 3.65393 13.0696L3.73963 13.3158L3.95602 13.1695C3.99899 13.1404 4.03856 13.0908 4.07608 13.0434C4.09007 13.0257 4.10387 13.0084 4.11568 12.9943C4.15043 12.9532 4.17631 12.9217 4.2023 12.8904C4.2304 12.8566 4.2584 12.8224 4.27378 12.8042C4.29155 12.7829 4.29609 12.7776 4.301 12.7716C4.34744 12.7152 4.39968 12.6521 4.45221 12.6033C4.62455 12.4436 4.84624 12.3253 5.07671 12.2854C5.28693 12.249 5.50466 12.2768 5.70147 12.3948C5.80192 12.4552 5.91452 12.5539 6.01366 12.6408L6.01384 12.641L6.02376 12.6497C6.04749 12.6705 6.07085 12.6909 6.09452 12.711L6.14182 12.7514L6.14211 12.794C6.14187 12.8454 6.14965 12.8966 6.16519 12.9457C6.18341 13.0007 6.20887 13.0531 6.2409 13.1015C6.27594 13.1542 6.31761 13.2023 6.3649 13.2444C6.41613 13.2905 6.47248 13.3306 6.53281 13.3639C6.62828 13.4147 6.72838 13.4564 6.83173 13.4883C6.93746 13.5214 7.04499 13.5484 7.15378 13.5693C7.19827 13.5784 7.23412 13.5843 7.27012 13.5902L7.27317 13.5907C7.27225 13.5906 7.26916 13.5902 7.3118 13.5974C7.31432 13.5981 7.3227 13.5993 7.33404 13.6009L7.35772 13.6041L7.38291 13.6069L3.86223 10.3751Z" fill="#2697FF"/>
<path d="M13.7602 6.43587C13.9973 6.39871 15.3501 6.18907 15.5509 6.21273C15.7712 6.23872 16 6.40702 16 6.40702C16 6.40702 15.7365 8.1902 15.5596 8.55277C15.3826 8.91534 15.1666 8.94577 15.1666 8.94577L12.5209 9.3343L2.78908 10.7204L1.43334 11.1434L1.51958 10.9404L0.384365 11.3589L0.74248 8.78138L0 8.06465C0 8.06465 1.07305 7.92088 1.65739 7.84374C1.66852 7.84227 1.67946 7.84084 1.69022 7.8394L13.7602 6.43587Z" fill="#2697FF"/>
<path d="M1.55789 2.40962C1.43355 6.03787 5.51261 13.2525 8.49649 15.4748C8.49649 15.4748 11.9996 13.2409 13.4214 9.65296C14.8431 6.06499 14.8601 5.08385 14.8601 5.08385C11.4232 2.6127 5.69163 1.56939 1.55789 2.40962Z" fill="#151630"/>
<path d="M13.6817 6.63092L15.0333 6.43037C15.2177 6.4029 15.3937 6.40561 15.539 6.44781C15.7195 6.50013 15.8201 6.60555 15.7899 6.74916L15.4557 8.34539C15.4271 8.48176 15.2901 8.60863 15.1001 8.70699C14.9407 8.7893 14.7634 8.84267 14.5815 8.86961L13.4161 9.04261C13.3353 9.05493 13.2537 9.06105 13.172 9.06092L13.1682 9.0795L11.3429 9.35033C11.1585 9.3778 10.982 9.37649 10.836 9.33376C10.6975 9.294 10.6063 9.22232 10.5846 9.12641L8.89611 9.69912L8.89314 9.7142L8.81955 9.7251L8.26768 9.91249L8.2907 9.80375L7.06872 9.98512C6.88561 10.0123 6.70982 10.0106 6.5642 9.96934C6.55976 9.97178 6.55548 9.97405 6.5506 9.97649C6.39121 10.0588 6.21376 10.112 6.03204 10.1391L4.86666 10.3122C4.66916 10.3416 4.48299 10.3357 4.34042 10.2781C4.23021 10.2338 4.14981 10.1695 4.11676 10.0853L1.78983 10.8745L1.8398 10.635L0.624185 11.0477L1.13359 8.61404L0.513184 8.27737L5.19879 7.58137L5.12982 7.91106C5.19175 7.89513 5.25447 7.88244 5.31773 7.87304L6.48311 7.69996C6.48377 7.69983 6.48445 7.69983 6.48512 7.69996L13.6817 6.63092Z" fill="#151630"/>
<path d="M2.57316 8.45328L3.20085 8.37064L3.13448 8.94166L2.8834 8.97471C2.75703 8.99135 2.66328 8.97191 2.60215 8.91638C2.55222 8.87093 2.53179 8.80922 2.54085 8.73124L2.57316 8.45328ZM2.05783 10.2067C1.92225 10.2246 1.80758 10.1901 1.71383 10.1034C1.63126 10.0267 1.57219 9.9181 1.53662 9.77746C1.50386 9.64802 1.49524 9.51663 1.51073 9.38331C1.53403 9.18291 1.60411 8.99823 1.721 8.82927C1.80417 8.70933 1.90571 8.61918 2.02563 8.5588C2.08685 8.52845 2.15344 8.50854 2.22542 8.49906L2.32208 8.48633L2.12311 10.1981L2.05783 10.2067ZM2.40189 9.37374L3.09486 9.28251L3.05919 9.5894C3.03833 9.76884 2.97716 9.90156 2.87569 9.98758C2.77318 10.0754 2.61397 10.1335 2.39804 10.1619L2.30891 10.1737L2.40189 9.37374Z" fill="white"/>
<path d="M4.60984 8.18515L4.70776 8.17225C5.01825 8.13138 5.20717 8.24315 5.2745 8.50758C5.30142 8.61633 5.30625 8.74491 5.289 8.89333C5.25996 9.1432 5.18791 9.35538 5.07285 9.52988C4.93701 9.73437 4.74898 9.85242 4.50879 9.88405L4.41087 9.89694L4.60984 8.18515ZM4.10832 9.93677C3.7995 9.97743 3.6131 9.84757 3.54912 9.54719C3.52292 9.42514 3.51913 9.28404 3.53775 9.12388C3.57566 8.79771 3.6928 8.55564 3.88917 8.39768C4.00472 8.30403 4.14409 8.24646 4.30729 8.22498L4.40521 8.21209L4.20624 9.92388L4.10832 9.93677Z" fill="white"/>
<path d="M6.67037 7.91387L6.77582 7.89999C7.13068 7.85327 7.3234 7.98189 7.354 8.28583C7.36391 8.37783 7.36151 8.48713 7.34679 8.61374C7.33208 8.74036 7.30465 8.86286 7.26452 8.98126C7.22522 9.09955 7.17364 9.20294 7.10979 9.29144C6.97712 9.47569 6.79947 9.58247 6.57685 9.61178L6.4714 9.62566L6.67037 7.91387ZM5.78658 8.03022L6.46198 7.94131L6.2633 9.65058L5.5879 9.7395L5.78658 8.03022Z" fill="white"/>
<path d="M7.92495 7.7487L8.60034 7.65979L8.40166 9.36906L7.72627 9.45798L7.92495 7.7487ZM8.63148 9.22115C8.65165 9.04758 8.76578 8.91655 8.97385 8.82806C9.05358 8.79444 9.15412 8.76965 9.27547 8.75367L9.37464 8.74061L9.31529 9.25126L8.6173 9.34315L8.63148 9.22115Z" fill="white"/>
<path d="M10.0621 7.46735L10.7375 7.37843L10.5385 9.09022L9.86309 9.17914L10.0621 7.46735Z" fill="white"/>
<path d="M11.2539 7.31044L11.9293 7.22153L11.7306 8.9308L11.0552 9.01972L11.2539 7.31044ZM12.0836 7.65946C12.1051 7.47415 12.1664 7.34346 12.2676 7.2674C12.3632 7.19618 12.5336 7.14443 12.7789 7.11215L12.9057 7.09546L12.878 7.33317C12.856 7.52267 12.7922 7.66401 12.6866 7.75717C12.5793 7.85056 12.406 7.91301 12.1666 7.94452L12.0486 7.96006L12.0836 7.65946ZM12.0334 8.09086L12.1514 8.07533C12.3874 8.04426 12.5506 8.06901 12.641 8.14959C12.7268 8.22664 12.7584 8.36201 12.7359 8.5557L12.707 8.80473L12.5802 8.82143C12.34 8.85305 12.1772 8.83898 12.0919 8.77921C12.0066 8.7186 11.9749 8.59396 11.9969 8.4053L12.0334 8.09086Z" fill="white"/>
<path d="M14.2836 6.91158L14.9803 6.81985L14.925 7.29528L14.7945 7.31247C14.5677 7.34233 14.417 7.32707 14.3424 7.26671C14.2814 7.21694 14.2586 7.12665 14.2738 6.99585L14.2836 6.91158ZM13.391 7.02909L14.0664 6.94017L13.9863 7.62941L14.4897 7.56314L14.4515 7.89141L13.9481 7.95769L13.8677 8.64945L13.1923 8.73836L13.391 7.02909ZM14.0975 8.50153C14.1177 8.32796 14.2318 8.19693 14.4399 8.10844C14.5196 8.07483 14.6201 8.05003 14.7415 8.03405L14.8407 8.021L14.7813 8.53164L14.0833 8.62353L14.0975 8.50153Z" fill="white"/>
<mask id="mask0_40_2860" style="mask-type:alpha" maskUnits="userSpaceOnUse" x="0" y="7" width="16" height="5">
<path d="M0.798584 9.49396L14.8124 7.78489L15.0879 10.044L1.07409 11.7531L0.798584 9.49396Z" fill="#C4C4C4"/>
</mask>
<g mask="url(#mask0_40_2860)">
<path d="M2.54783 8.43027L3.15991 8.34969L3.09519 8.9065L2.85036 8.93873C2.72713 8.95496 2.63571 8.936 2.57611 8.88185C2.52741 8.83754 2.50749 8.77736 2.51633 8.70132L2.54783 8.43027ZM2.04532 10.1401C1.91312 10.1575 1.8013 10.1239 1.70987 10.0393C1.62936 9.96459 1.57176 9.85865 1.53707 9.72152C1.50513 9.59529 1.49672 9.46718 1.51183 9.33717C1.53455 9.14175 1.60289 8.96167 1.71687 8.79691C1.79797 8.67995 1.89698 8.59204 2.01392 8.53317C2.07362 8.50357 2.13856 8.48415 2.20874 8.47491L2.303 8.4625L2.10898 10.1317L2.04532 10.1401ZM2.38082 9.32784L3.05656 9.23887L3.02177 9.53813C3.00143 9.71311 2.94179 9.84253 2.84284 9.92641C2.74288 10.012 2.58763 10.0687 2.37707 10.0964L2.29016 10.1079L2.38082 9.32784Z" fill="#C1C1E8"/>
<path d="M4.584 8.1622L4.67948 8.14963C4.98225 8.10977 5.16647 8.21877 5.23213 8.47662C5.25838 8.58266 5.26309 8.70805 5.24627 8.85277C5.21795 9.09643 5.14769 9.30333 5.0355 9.4735C4.90303 9.67289 4.71968 9.78801 4.48546 9.81885L4.38998 9.83142L4.584 8.1622ZM4.09495 9.87026C3.79381 9.90991 3.61205 9.78328 3.54966 9.49037C3.52411 9.37135 3.52042 9.23376 3.53857 9.07759C3.57554 8.75953 3.68977 8.52348 3.88125 8.36945C3.99393 8.27813 4.12983 8.22199 4.28897 8.20104L4.38446 8.18847L4.19044 9.85769L4.09495 9.87026Z" fill="#C1C1E8"/>
<path d="M6.64342 7.89108L6.74625 7.87754C7.09228 7.83198 7.28021 7.9574 7.31005 8.25378C7.31971 8.34349 7.31737 8.45007 7.30302 8.57354C7.28867 8.697 7.26192 8.81646 7.22279 8.93192C7.18447 9.04726 7.13418 9.14809 7.07191 9.23438C6.94254 9.41405 6.76931 9.51817 6.55223 9.54675L6.4494 9.56029L6.64342 7.89108ZM5.78161 8.00453L6.44021 7.91783L6.24647 9.58459L5.58788 9.6713L5.78161 8.00453Z" fill="#C1C1E8"/>
<path d="M7.91693 7.72341L8.57553 7.63671L8.38179 9.30347L7.7232 9.39018L7.91693 7.72341ZM8.60589 9.15924C8.62556 8.98998 8.73685 8.86221 8.93975 8.77592C9.01749 8.74314 9.11553 8.71896 9.23386 8.70338L9.33057 8.69065L9.27269 9.1886L8.59206 9.2782L8.60589 9.15924Z" fill="#C1C1E8"/>
<path d="M10.051 7.44245L10.7096 7.35575L10.5156 9.02496L9.85701 9.11167L10.051 7.44245Z" fill="#C1C1E8"/>
<path d="M11.2633 7.28285L11.9219 7.19615L11.7282 8.86291L11.0696 8.94961L11.2633 7.28285ZM12.0724 7.62318C12.0934 7.44248 12.1532 7.31505 12.2518 7.24087C12.3451 7.17143 12.5113 7.12097 12.7504 7.08949L12.874 7.07321L12.8471 7.30501C12.8256 7.4898 12.7634 7.62762 12.6604 7.71847C12.5558 7.80953 12.3868 7.87043 12.1534 7.90116L12.0383 7.91631L12.0724 7.62318ZM12.0235 8.04386L12.1386 8.02871C12.3687 7.99841 12.5278 8.02255 12.6159 8.10113C12.6996 8.17626 12.7305 8.30826 12.7085 8.49714L12.6803 8.73998L12.5567 8.75625C12.3224 8.78709 12.1637 8.77337 12.0805 8.71508C11.9974 8.65598 11.9665 8.53445 11.9879 8.35048L12.0235 8.04386Z" fill="#C1C1E8"/>
<path d="M14.2678 6.88731L14.9472 6.79786L14.8933 7.26146L14.766 7.27822C14.5449 7.30734 14.3979 7.29247 14.3252 7.2336C14.2657 7.18507 14.2434 7.09703 14.2583 6.96948L14.2678 6.88731ZM13.3974 7.00189L14.056 6.91519L13.9779 7.58729L14.4688 7.52266L14.4316 7.84277L13.9407 7.90739L13.8623 8.58195L13.2037 8.66865L13.3974 7.00189ZM14.0864 8.43771C14.1061 8.26846 14.2173 8.14069 14.4202 8.0544C14.498 8.02162 14.596 7.99744 14.7144 7.98186L14.8111 7.96913L14.7532 8.46708L14.0726 8.55668L14.0864 8.43771Z" fill="#C1C1E8"/>
</g>
<path d="M6.44531 3.64477C8.72629 3.46311 11.0699 3.67101 12.9951 4.32812C12.995 4.46973 12.9912 4.6114 12.9862 4.75167C12.974 5.0753 12.954 5.40135 12.9273 5.72829C12.792 5.71028 12.6428 5.69724 12.5071 5.69925C12.131 5.70493 11.9522 5.64704 11.9522 5.64704L7.06157 3.94705L6.44531 3.64477ZM11.1522 12.2131C11.0629 12.3643 10.9709 12.5135 10.8763 12.6604C10.5873 13.1112 10.2736 13.5457 9.93671 13.962C9.26173 13.5863 8.60166 13.0988 8.02965 12.6387C7.93644 12.5635 7.84352 12.4875 7.75089 12.4106C8.92282 12.2899 10.6101 12.1375 10.7786 12.2408C10.818 12.2647 10.9526 12.252 11.1522 12.2131Z" fill="#414196"/>
<path d="M9.4791 10.739C9.28685 10.7281 9.11141 10.6694 8.95753 10.5595C8.7088 10.382 8.47078 10.1919 8.21752 10.0194C7.85835 9.77529 7.49758 9.60165 7.07136 9.45722C6.69566 9.32984 6.2839 9.26677 5.875 9.31491C5.38194 9.37325 4.95056 9.66079 4.51875 9.8836L4.67999 10.0346C4.52019 10.1422 4.36921 10.2623 4.22847 10.3938C3.7973 10.7957 3.5521 11.2875 3.5313 11.829C3.52299 12.0493 3.5549 12.3301 3.64109 12.5369L3.8536 13.0478L4.23299 12.5955C4.30833 12.5057 4.4426 12.4019 4.54385 12.3375C4.78475 12.1846 5.05643 12.0997 5.34951 12.122C5.58168 12.1394 5.74858 12.2197 5.91995 12.3487C6.07876 12.4682 6.2171 12.6034 6.37189 12.7267C6.30493 12.9107 6.41365 13.0944 6.57548 13.2055C6.87666 13.4123 7.45351 13.484 7.827 13.5187C8.25193 13.5577 8.67979 13.5518 9.10348 13.501L9.42686 13.6099C9.65498 13.6867 9.98058 13.6625 10.2157 13.6119C10.8802 13.468 11.4878 13.0366 11.9557 12.6074C12.1258 12.4505 12.2815 12.2787 12.4211 12.0942C12.8782 11.4939 13.1731 10.7783 13.358 10.0849C13.4153 9.86961 13.4688 9.63775 13.5071 9.40845L12.598 9.47209C12.3704 9.7744 12.0656 10.023 11.6771 10.1544C11.2742 10.2891 10.8513 10.3545 10.4265 10.3479C10.2604 10.3454 10.0495 10.3326 9.88841 10.2968L9.7026 10.2543L9.55969 10.3749C9.4475 10.4699 9.42263 10.605 9.47345 10.7262C9.47521 10.7302 9.47724 10.7346 9.4791 10.739Z" fill="#151630"/>
<path d="M13.0073 9.44306C12.7992 9.77525 12.4176 10.2199 11.7884 10.4326C10.7127 10.7961 9.79084 10.586 9.79084 10.586C9.79084 10.586 9.76781 10.6055 9.88422 10.736C9.95115 10.8122 10.027 10.88 10.1101 10.9381C10.1101 10.9381 9.36486 11.2428 8.73681 10.7947C8.10877 10.3466 7.80152 10.0295 6.93782 9.73706C6.07412 9.44462 5.52045 9.70782 5.52045 9.70782C5.52045 9.70782 5.81803 9.69808 6.02871 9.76689C6.23939 9.83569 6.26136 9.8428 6.26136 9.8428C6.26136 9.8428 5.38862 9.73992 4.47211 10.5945C3.55561 11.4491 3.96172 12.4244 3.96172 12.4244C3.96172 12.4244 4.52072 11.7581 5.39248 11.8239C6.68069 11.9211 6.17311 13.1228 8.03247 12.5238C8.03247 12.5238 7.9401 12.4882 7.79501 12.3428C7.64992 12.1974 7.64878 12.0316 7.40513 11.7547C7.16148 11.4778 7.12371 11.2822 7.12371 11.2822C7.12371 11.2822 7.48555 11.4038 8.00061 11.3366C8.51568 11.2694 8.5997 11.0766 8.5997 11.0766C8.5997 11.0766 8.44821 11.3569 8.00137 11.4491C7.55454 11.5414 7.36976 11.4669 7.36976 11.4669C7.36976 11.4669 7.56211 11.6176 7.83883 12.112C8.11554 12.6064 8.43518 12.5296 8.43518 12.5296C8.43518 12.5296 8.09799 12.757 7.53021 12.8482C7.53021 12.8482 7.37661 12.8924 7.07347 12.88C6.82602 12.87 6.73319 12.8238 6.707 12.8069L6.69858 12.8013C6.69292 12.8151 6.58952 13.1019 7.87614 13.2209C9.1946 13.3426 10.1439 12.9559 10.1439 12.9559C10.1439 12.9559 9.9597 13.1389 9.79757 13.2197C9.63544 13.3005 9.55985 13.3297 9.55985 13.3297C9.55985 13.3297 10.3986 13.6121 11.714 12.4048C12.6784 11.5195 13.0357 10.118 13.1578 9.43268L13.0073 9.44306Z" fill="#414196"/>
<path d="M13.0066 9.44426C12.7985 9.77626 12.4172 10.22 11.7885 10.4326C10.7127 10.7961 9.7909 10.586 9.7909 10.586C9.7909 10.586 9.76786 10.6055 9.88428 10.736C9.88704 10.7389 9.88961 10.7422 9.89227 10.745C10.1827 10.7871 10.7559 10.8268 11.4969 10.6616C12.584 10.419 13.0527 9.43994 13.0527 9.43994L13.0066 9.44426ZM10.1101 10.9382C10.1101 10.9382 9.36491 11.2428 8.73687 10.7947C8.10882 10.3466 7.80158 10.0295 6.93788 9.73708C6.07418 9.44464 5.5205 9.70784 5.5205 9.70784C6.93093 9.49163 7.37524 10.149 8.51939 10.8155C9.67484 11.4884 10.1101 10.9382 10.1101 10.9382ZM6.2613 9.84232C6.2613 9.84232 5.38856 9.73943 4.47205 10.594C4.12664 10.9156 3.96917 11.2547 3.90698 11.5522C3.99456 11.3424 4.15932 11.0614 4.46864 10.7326C5.15878 9.99942 6.2613 9.84232 6.2613 9.84232Z" fill="#30BDEF"/>
<path d="M3.96167 12.424C3.96167 12.424 4.52067 11.7577 5.39243 11.8235C6.68064 11.9207 6.17306 13.1223 8.03242 12.5234C8.03242 12.5234 7.94006 12.4878 7.79496 12.3424C7.64987 12.197 7.64873 12.0312 7.40508 11.7543C7.16143 11.4774 7.12366 11.2818 7.12366 11.2818C7.12366 11.2818 7.4855 11.4034 8.00056 11.3362C8.26536 11.3018 8.41636 11.2341 8.50029 11.1765C8.53051 11.1529 8.55088 11.1361 8.55303 11.1346C8.55056 11.1359 8.27758 11.275 7.75093 11.2631C7.22176 11.2515 7.03304 11.1246 7.03304 11.1246C7.03304 11.1246 6.92593 11.2184 7.06991 11.5969C7.21388 11.9754 7.43084 12.2057 7.43084 12.2057L7.30067 12.1458C7.30067 12.1458 7.3112 12.31 7.47628 12.4932C7.52418 12.5464 7.56765 12.5902 7.60505 12.6254C7.32368 12.5404 7.16069 12.4172 6.86914 12.0717C6.43099 11.5524 6.01686 11.4843 6.01686 11.4843C6.01686 11.4843 6.18402 11.468 6.44062 11.5473C6.69721 11.6266 6.82916 11.7392 6.82916 11.7392C6.82916 11.7392 6.57457 11.3788 5.9094 11.3085C5.24423 11.2382 4.88431 11.461 4.88431 11.461C4.88431 11.461 4.94259 11.4452 5.17548 11.4222C5.40838 11.3991 5.62944 11.4596 5.62944 11.4596C5.62944 11.4596 5.19452 11.4159 4.61359 11.6889C4.03267 11.9618 3.96167 12.424 3.96167 12.424ZM10.9022 11.9029C10.9022 11.9029 10.8066 12.0056 10.6238 12.0509C10.4411 12.0961 10.2745 11.9995 10.2745 11.9995C10.2745 11.9995 10.4649 12.0166 10.6401 11.9849C10.8152 11.9532 10.9022 11.9029 10.9022 11.9029ZM10.9642 12.0453C10.9642 12.0453 10.8977 12.2351 10.532 12.3557C10.1664 12.4764 9.86438 12.3384 9.86438 12.3384C9.86438 12.3384 10.1846 12.3852 10.4636 12.306C10.7425 12.2269 10.9642 12.0453 10.9642 12.0453ZM8.02309 12.7226C7.86289 12.7792 7.69789 12.8212 7.53012 12.848C7.53012 12.848 7.37652 12.8921 7.07338 12.8798C6.82593 12.8697 6.7331 12.8235 6.70691 12.8067L6.69849 12.8011C6.69283 12.8149 6.58943 13.1016 7.87605 13.2206C9.19451 13.3423 10.1438 12.9556 10.1438 12.9556C10.1438 12.9556 9.95961 13.1387 9.79748 13.2195C9.63534 13.3003 9.55976 13.3295 9.55976 13.3295C9.55976 13.3295 10.3985 13.6119 11.7139 12.4046C12.6785 11.5195 13.0358 10.118 13.1579 9.43268L13.1109 9.43604C12.9629 9.98201 12.6741 10.9362 12.3541 11.4034C11.8907 12.0801 11.5381 12.2604 11.5381 12.2604C11.5381 12.2604 11.7523 12.02 11.8362 11.8537C11.9201 11.6875 11.9093 11.6558 11.9093 11.6558C11.9093 11.6558 11.4901 12.1956 11.2761 12.3439C11.0621 12.4922 10.7145 12.573 10.7145 12.573C10.7145 12.573 10.7201 12.609 10.9504 12.5691C11.1808 12.5292 11.2054 12.5183 11.2054 12.5183C11.2054 12.5183 11.0297 12.6663 10.7269 12.8146C10.4241 12.9628 10.3225 12.9866 10.3225 12.9866C10.3225 12.9866 10.397 12.9718 10.5095 12.8208C10.622 12.6698 10.6218 12.6559 10.6218 12.6559C10.6218 12.6559 9.93991 12.849 9.3387 12.908C8.73749 12.967 8.52969 12.9279 8.52969 12.9279C8.52969 12.9279 8.75429 12.8904 9.00804 12.8313C9.26178 12.7721 9.30882 12.7364 9.30882 12.7364C9.30882 12.7364 8.84736 12.8908 8.15114 12.7492C8.10632 12.7395 8.06372 12.7309 8.02309 12.7226Z" fill="#24247A"/>
<path d="M8.81649 10.8472C8.78969 10.8307 8.76357 10.8134 8.73681 10.7945C8.10843 10.3461 7.80152 10.0293 6.93782 9.73689C6.07412 9.44445 5.52045 9.70765 5.52045 9.70765C5.52045 9.70765 5.81803 9.69791 6.02871 9.76672C6.23939 9.83552 6.26136 9.84263 6.26136 9.84263C6.26136 9.84263 5.38862 9.73975 4.47211 10.5944C3.55561 11.449 3.96172 12.4242 3.96172 12.4242C3.96172 12.4242 4.52072 11.7579 5.39248 11.8237C6.68069 11.9209 6.17311 13.1226 8.03247 12.5236C8.03247 12.5236 7.9401 12.488 7.79501 12.3426C7.64992 12.1972 7.64878 12.0315 7.40513 11.7545C7.16148 11.4776 7.12371 11.2821 7.12371 11.2821C7.12371 11.2821 7.48555 11.4036 8.00061 11.3364C8.51568 11.2692 8.5997 11.0764 8.5997 11.0764C8.5832 11.1042 8.56396 11.1303 8.54229 11.1542C8.64949 11.0672 8.74206 10.9635 8.81649 10.8472Z" fill="white"/>
<path d="M8.81646 10.8474C8.78966 10.8309 8.76355 10.8136 8.73679 10.7947C8.10841 10.3463 7.8015 10.0295 6.9378 9.73708C6.0741 9.44465 5.52043 9.70785 5.52043 9.70785C6.93086 9.49164 7.37516 10.149 8.51932 10.8155C8.60027 10.8627 8.67773 10.9038 8.75195 10.9397C8.78055 10.9022 8.80211 10.8702 8.81646 10.8474ZM6.26126 9.84249C6.26126 9.84249 5.38852 9.73961 4.47201 10.5942C4.12661 10.9158 3.96913 11.2549 3.90695 11.5524C3.99452 11.3426 4.15929 11.0616 4.4686 10.7327C5.15872 9.99951 6.26126 9.84249 6.26126 9.84249Z" fill="#30BDEF"/>
<path d="M3.96164 12.4241C3.96164 12.4241 4.52064 11.7578 5.39239 11.8236C6.68061 11.9208 6.17303 13.1225 8.03238 12.5235C8.03238 12.5235 7.94002 12.4879 7.79493 12.3425C7.64983 12.1971 7.6487 12.0313 7.40505 11.7544C7.1614 11.4775 7.12363 11.282 7.12363 11.282C7.12363 11.282 7.48547 11.4035 8.00053 11.3363C8.26532 11.302 8.41633 11.2343 8.50025 11.1766C8.53048 11.153 8.55084 11.1362 8.553 11.1347C8.55053 11.136 8.27754 11.2751 7.75089 11.2632C7.22172 11.2517 7.03301 11.1248 7.03301 11.1248C7.03301 11.1248 6.9259 11.2186 7.06987 11.5971C7.21385 11.9756 7.43081 12.2058 7.43081 12.2058L7.30064 12.146C7.30064 12.146 7.31116 12.3101 7.47625 12.4933C7.52415 12.5466 7.56762 12.5903 7.60502 12.6256C7.32365 12.5405 7.16065 12.4174 6.86911 12.0718C6.43095 11.5525 6.01683 11.4845 6.01683 11.4845C6.01683 11.4845 6.18399 11.4681 6.44058 11.5474C6.69718 11.6268 6.82913 11.7394 6.82913 11.7394C6.82913 11.7394 6.57453 11.3789 5.90937 11.3086C5.2442 11.2384 4.88428 11.4611 4.88428 11.4611C4.88428 11.4611 4.94256 11.4453 5.17545 11.4223C5.40834 11.3993 5.62941 11.4598 5.62941 11.4598C5.62941 11.4598 5.19448 11.4161 4.61356 11.689C4.03263 11.962 3.96164 12.4241 3.96164 12.4241ZM5.99388 11.1033C5.47961 11.0352 4.79311 11.1676 4.43699 11.5357C4.42255 11.5503 4.55265 11.2185 5.10742 11.0801C5.66219 10.9417 5.91288 10.9691 5.95558 11.0242C5.99828 11.0793 5.99388 11.1033 5.99388 11.1033ZM6.25036 11.0769C6.25036 11.0769 6.23543 11.192 6.15847 11.1507C6.08152 11.1094 6.06103 11.0261 6.12463 11.0094C6.18822 10.9926 6.25034 11.0768 6.25034 11.0768L6.25036 11.0769Z" fill="#C1C1E8"/>
<path d="M10.7282 6.93912L11.6999 6.92326C11.8535 6.90047 12.0208 6.82734 12.1408 6.74597C12.309 6.632 12.4237 6.43193 12.4326 6.2278L12.4417 6.01777L12.3736 5.58319L11.264 4.50114C11.3351 4.34156 11.3328 4.13975 11.2928 3.9588C11.2888 3.92417 11.2804 3.89021 11.2675 3.85779C11.2442 3.79758 11.207 3.7429 11.1664 3.69013C11.024 3.50367 10.8371 3.31224 10.6731 3.14107C10.436 2.893 10.0409 2.49644 9.73679 2.31433L8.93662 1.83597L8.97482 1.97342C8.8724 1.91492 8.77139 1.86226 8.67587 1.81681C8.21615 1.598 7.66535 1.39464 7.17468 1.26788L5.78594 0.909994C5.71287 0.889413 5.6396 0.870466 5.56611 0.853152L4.54033 0.588135L4.75588 0.709123C4.49754 0.674282 4.23733 0.655202 3.97667 0.651989C3.81267 0.650819 3.60989 0.655437 3.45191 0.68842L3.051 0.771409L3.21512 1.15128C3.36908 1.50785 3.725 1.90725 4.03235 2.16227C4.26957 2.35913 4.60314 2.57308 4.92371 2.70201C4.68142 2.77607 4.44116 2.8552 4.20346 2.9357C3.7267 3.09737 3.26157 3.32852 2.89533 3.64619C2.76179 3.76254 2.59942 3.92694 2.51443 4.08277L2.02319 4.98196L3.04737 4.62834C3.11891 4.60359 3.20623 4.58295 3.28189 4.56457C3.49305 4.51329 3.70889 4.46995 3.92547 4.43083C3.73792 4.59229 3.53858 4.78958 3.42864 4.97039L2.63297 6.27951L2.68217 6.25168L2.58441 6.80803L3.26463 6.77231C3.3273 6.7573 3.39924 6.7477 3.46254 6.73756C3.73347 6.69403 4.00704 6.65624 4.27973 6.61892C4.47516 6.59222 4.68372 6.57277 4.89804 6.56054L3.42888 7.85375L3.56598 7.84029L4.85012 7.35126C4.84781 7.3892 4.84691 7.42699 4.84568 7.46342C4.84289 7.54612 4.84204 7.62944 4.84266 7.71295L7.03982 7.49317C7.4768 7.34999 7.93102 7.22267 8.39121 7.13634C8.52965 7.11054 8.69414 7.08004 8.83785 7.07208L9.12792 7.05642L9.28354 7.14469C9.50624 7.27006 9.82006 7.28844 10.0532 7.26059C10.3013 7.23024 10.5555 7.10742 10.7282 6.93912Z" fill="#151630"/>
<path d="M12.0176 5.6504C12.0176 5.6504 11.2524 5.61375 11.1296 5.53664C11.0527 5.48764 10.982 5.42947 10.9191 5.36342C10.9191 5.36342 11.009 5.50329 11.0605 5.60276C11.112 5.70224 11.2648 5.96227 11.4452 6.07131C11.6256 6.18036 11.7504 6.21073 11.7504 6.21073C11.7504 6.21073 11.5655 6.62917 11.0811 6.57863C10.5968 6.5281 9.8989 5.82647 9.45562 5.55647C9.01233 5.28648 8.19129 5.06622 8.19129 5.06622C8.19129 5.06622 8.30344 4.96468 8.5438 4.9335C8.78415 4.90231 8.83983 4.91426 8.83983 4.91426C8.83983 4.91426 8.49594 4.85045 7.94932 4.87535C7.4027 4.90025 6.80077 5.31505 6.80077 5.31505C6.80077 5.31505 6.93553 5.02779 7.23155 4.78235C7.52757 4.5369 7.6281 4.51077 7.6281 4.51077C7.6281 4.51077 6.60148 4.53699 5.37368 4.75466C4.14589 4.97233 3.77916 5.17938 3.77916 5.17938C3.77916 5.17938 3.93264 4.92691 4.39134 4.56774C4.85004 4.20856 5.61363 3.90577 5.61363 3.90577C5.61363 3.90577 4.91071 3.8804 4.05045 4.02513C3.1902 4.16987 2.87207 4.27957 2.87207 4.27957C2.87207 4.27957 3.19696 3.68434 4.37633 3.28424C5.5557 2.88414 6.00236 2.81288 6.00236 2.81288L5.62423 2.51241C5.75694 2.49484 5.89121 2.49235 6.02449 2.50498C6.24603 2.5259 6.5074 2.61431 6.5074 2.61431C6.5074 2.61431 6.07299 2.09715 5.36664 1.73279C4.66029 1.36843 4.24152 1.35285 4.24152 1.35285C4.24152 1.35285 4.24448 1.51837 4.6222 1.90063C4.99992 2.28289 5.24901 2.4327 5.24901 2.4327C5.24901 2.4327 4.78707 2.32372 4.27574 1.89948C3.76442 1.47524 3.58045 1.04955 3.58045 1.04955C3.58045 1.04955 4.14657 0.931939 5.38251 1.18232C6.61846 1.43271 7.71491 2.23814 7.71491 2.23814C7.71491 2.23814 7.63994 2.14706 7.40734 1.90284C7.17474 1.65861 7.1119 1.62309 7.1119 1.62309C7.1119 1.62309 7.83065 1.80892 8.53021 2.14156C9.22977 2.47419 9.63292 2.91097 9.63292 2.91097L9.55164 2.61832C9.55164 2.61832 9.8379 2.78972 10.3913 3.36769C10.9448 3.94566 10.8973 3.95827 10.8973 3.95827C10.8973 3.95827 11.0006 4.35217 10.8027 4.41022C10.6048 4.46827 10.5575 4.36474 10.514 4.22694C10.4706 4.08914 10.4463 3.99794 10.4463 3.99794C10.4463 3.99794 10.42 4.40197 10.0932 4.45008C9.76647 4.49819 9.63179 4.34538 9.63179 4.34538C9.63179 4.34538 9.72079 4.11417 9.49058 3.85969C9.26037 3.60521 8.93784 3.38233 8.93784 3.38233C8.93784 3.38233 9.40857 3.79953 9.46826 3.98069C9.52796 4.16186 9.40343 4.26153 9.40343 4.26153C9.40343 4.26153 8.71839 3.49145 8.0889 3.09685C7.45941 2.70225 6.96699 2.55959 6.96699 2.55959C6.96699 2.55959 7.09866 2.6137 7.53119 2.93128C7.96372 3.24885 8.10392 3.38277 8.10392 3.38277C8.10392 3.38277 8.04482 3.76319 8.13953 4.08687C8.23425 4.41056 8.35519 4.52022 8.35519 4.52022C8.35519 4.52022 8.33198 4.48283 8.2972 4.36939C8.26242 4.25596 8.27348 4.18347 8.27348 4.18347C8.27348 4.18347 8.35905 4.46334 8.69899 4.58369C9.03893 4.70404 9.64067 4.61465 9.64067 4.61465C9.64067 4.61465 9.7158 4.66328 9.96302 4.88993C10.2102 5.11658 10.3243 5.24923 10.3243 5.24923C10.3243 5.24923 10.3202 5.17705 10.1383 4.94282C9.95645 4.7086 9.9526 4.69141 9.9526 4.69141C9.9526 4.69141 10.1861 4.69314 10.317 4.64657C10.3942 4.61984 10.4584 4.56494 10.4968 4.49287C10.4968 4.49287 10.5423 4.54376 10.6481 4.57384C10.7539 4.60391 10.8284 4.58581 10.8284 4.58581L12.0176 5.6504ZM11.8625 6.21824L12.0832 6.19229C12.0832 6.19229 12.0757 6.36255 11.9307 6.46084C11.8429 6.52011 11.744 6.56091 11.64 6.58076C11.64 6.58076 11.7907 6.4438 11.8342 6.34542C11.8777 6.24704 11.8625 6.21824 11.8625 6.21824ZM8.76875 6.70326C8.76875 6.70326 8.09313 6.74021 6.83363 7.15466C6.18127 7.36931 5.77722 7.53393 5.53914 7.64275L5.23934 7.67284C5.24012 7.51584 5.2467 7.26393 5.28028 7.24468C5.32969 7.21662 5.70846 6.93594 6.72087 6.75971C7.73327 6.58348 8.76841 6.70334 8.76841 6.70334L8.76875 6.70326ZM10.4764 6.61376C10.4764 6.61376 10.283 6.85428 9.95797 6.89292C9.63296 6.93155 9.45775 6.83336 9.45775 6.83336C9.45775 6.83336 9.67486 6.81106 9.78693 6.75787C9.899 6.70467 9.93362 6.6564 9.93362 6.6564C9.93362 6.6564 9.89368 6.6847 9.78614 6.71636C9.72081 6.73561 9.65336 6.7467 9.58531 6.74938C9.58531 6.74938 9.06034 6.50406 7.68035 6.44337C6.30037 6.38267 5.25866 6.77949 5.25866 6.77949C5.25866 6.77949 5.3947 6.65977 5.71263 6.46314C6.03056 6.26652 6.22755 6.20438 6.22755 6.20438C6.22755 6.20438 5.15622 6.1191 4.1782 6.25284C3.20019 6.38659 3.10511 6.41823 3.10511 6.41823C3.10511 6.41823 3.66255 5.93786 4.75167 5.44021C5.8408 4.94256 6.58018 4.90002 6.58018 4.90002C6.58018 4.90002 6.2623 5.11896 5.98314 5.43183C5.70398 5.7447 5.69173 5.77408 5.69173 5.77408C5.69173 5.77408 6.33609 5.63424 6.9511 5.57369C7.56612 5.51314 7.85893 5.54264 7.85893 5.54264C7.85893 5.54264 7.60445 5.69198 7.42533 5.84748C7.24621 6.00298 7.22264 6.021 7.22264 6.021C7.22264 6.021 7.80539 6.02376 8.76719 6.20242C9.729 6.38108 10.4764 6.61376 10.4764 6.61376Z" fill="#414196"/>
<path d="M12.0176 5.6504C12.0176 5.6504 11.9656 5.64806 11.8867 5.64285C11.6002 5.36454 10.739 4.59064 10.739 4.59064C10.7689 4.59349 10.799 4.59201 10.8285 4.58625L12.0176 5.6504ZM3.60086 1.09211C3.5868 1.06446 3.58012 1.04929 3.58012 1.04929C3.58012 1.04929 4.14623 0.931678 5.38218 1.18206C6.61813 1.43245 7.71491 2.23814 7.71491 2.23814C7.71491 2.23814 6.27885 1.43809 5.11243 1.21033C4.47386 1.08564 3.9472 1.0759 3.60111 1.09205L3.60086 1.09211ZM7.27737 1.77007C7.15033 1.64466 7.1119 1.62309 7.1119 1.62309C7.1119 1.62309 7.83065 1.80892 8.53021 2.14156C9.22977 2.47419 9.63292 2.91097 9.63292 2.91097C9.63292 2.91097 8.89715 2.40501 8.11011 2.07288C7.71223 1.9049 7.44485 1.81649 7.27737 1.77007ZM9.58045 2.72181L9.55164 2.61832C9.55164 2.61832 9.8379 2.78972 10.3913 3.36769C10.9448 3.94566 10.8973 3.95827 10.8973 3.95827C10.8973 3.95827 11.0006 4.35217 10.8027 4.41022L10.8003 4.41081C10.8188 4.29816 10.8152 4.13602 10.7276 3.93742C10.5866 3.61845 9.86886 2.97294 9.58045 2.72181Z" fill="#30BDEF"/>
<path d="M5.27835 5.50545C5.27835 5.50545 5.14932 5.54397 4.92333 5.66362C4.69734 5.78327 4.573 5.92978 4.573 5.92978C4.573 5.92978 4.71126 5.90806 4.98623 5.88625C5.2612 5.86444 5.31141 5.86219 5.31141 5.86219C5.31141 5.86219 5.2524 5.84045 5.0837 5.81889C4.91499 5.79732 4.88535 5.79823 4.88535 5.79823C4.88535 5.79823 4.93673 5.71322 5.13518 5.6111C5.33362 5.50898 5.36298 5.50016 5.36298 5.50016L5.27835 5.50545ZM10.9191 5.36342C10.9191 5.36342 11.009 5.50329 11.0605 5.60276C11.112 5.70224 11.2623 5.95794 11.4412 6.06851L11.4418 6.06881L11.4433 6.06972L11.4512 6.07445L11.4517 6.07433L11.4594 6.07887L11.4674 6.08358L11.4712 6.08571L11.4752 6.0878L11.4758 6.08819L11.4829 6.09206L11.483 6.09257L11.4902 6.09668L11.491 6.09703L11.498 6.10091L11.4989 6.10123L11.5018 6.10304L11.5056 6.10517L11.5065 6.10577L11.5132 6.1092L11.5144 6.10972L11.517 6.11142C11.5208 6.1133 11.5246 6.11543 11.5284 6.11765L11.5293 6.11816L11.532 6.11958L11.5357 6.12146L11.5368 6.122L11.5392 6.1234L11.543 6.12511L11.5441 6.12582L11.5465 6.12705L11.5499 6.12873L11.5514 6.12946L11.5536 6.13063L11.5571 6.1324L11.5586 6.13303L11.5605 6.13408L11.5641 6.13583L11.5655 6.13648L11.5675 6.13751L11.5707 6.139L11.5724 6.13993L11.5775 6.1422L11.579 6.14311L11.5808 6.14403L11.5842 6.14546L11.5859 6.1463L11.5873 6.14704L11.5907 6.14847L11.5924 6.14931L11.5939 6.15004L11.597 6.15153L11.5987 6.15238L11.6002 6.15309L11.6033 6.15432L11.6051 6.15525L11.6065 6.1559L11.6096 6.15722L11.6113 6.15806L11.6125 6.1585L11.6156 6.15982L11.6175 6.1606L11.6184 6.1612L11.6215 6.16244L11.6235 6.16322L11.6244 6.1638L11.6272 6.16518L11.63 6.16622L11.6329 6.16758L11.6348 6.16839L11.6357 6.16871L11.6385 6.16984L11.6405 6.17088L11.6413 6.17069L11.6438 6.1718L11.6467 6.1729L11.6492 6.17409L11.6514 6.17481L11.652 6.17522L11.6545 6.17613L11.6571 6.17732L11.6596 6.17824C11.6879 6.18998 11.7169 6.19992 11.7465 6.20799C11.7465 6.20799 11.3763 6.49667 10.8923 6.44578C10.4083 6.39489 9.89503 5.82381 9.4513 5.55347C9.00758 5.28314 8.18698 5.06323 8.18698 5.06323C8.18698 5.06323 8.29913 4.96169 8.53948 4.9305C8.71794 4.90741 8.79458 4.90807 8.82218 4.90989L8.45409 5.05468C8.45409 5.05468 9.11208 5.27435 9.31069 5.37698C9.50929 5.47961 9.51727 5.50621 9.51727 5.50621C9.51727 5.50621 9.48232 5.42913 9.36953 5.36136C9.25674 5.2936 9.20908 5.26457 9.20908 5.26457C9.20908 5.26457 9.3782 5.28299 9.63988 5.49102C9.90156 5.69905 9.92795 5.74635 9.92795 5.74635L9.70228 5.59022C9.70228 5.59022 9.80911 5.76566 10.1449 5.98446C10.4807 6.20326 10.7192 6.37595 11.0082 6.36953C11.2972 6.3631 11.5862 6.24307 11.5862 6.24307C11.5862 6.24307 11.4815 6.1964 11.3545 6.12245L11.3686 6.11269C11.3088 6.07264 11.2518 6.02853 11.198 5.98069C11.0415 5.83882 10.9383 5.53485 10.9383 5.53485L10.579 5.05538L10.9191 5.36342ZM8.81932 4.91102C8.73874 4.89803 8.4186 4.854 7.94872 4.8755C7.40193 4.90044 6.80077 5.31505 6.80077 5.31505C6.80077 5.31505 6.88671 5.13175 7.07237 4.93281C7.24918 4.88151 7.56618 4.80642 7.9083 4.80107C8.38957 4.7938 8.76562 4.89572 8.81932 4.91102ZM7.47145 4.59912C7.55347 4.54361 7.59862 4.52213 7.61744 4.51458L7.47145 4.59912ZM7.62674 4.5111C7.58859 4.51207 6.57802 4.54163 5.37363 4.75522C4.37649 4.93227 3.94718 5.10186 3.82119 5.15946C3.97673 5.08412 4.53798 4.82035 5.05398 4.6717C5.66075 4.49693 6.02406 4.47934 6.02406 4.47934L5.4935 4.47286C5.4935 4.47286 5.71465 4.38539 6.38523 4.31315C7.05582 4.24091 7.82623 4.43168 7.82623 4.43168L7.62674 4.5111ZM5.61383 3.90626C5.61383 3.90626 4.91091 3.8809 4.05065 4.02563C3.19039 4.17036 2.87227 4.28006 2.87227 4.28006C2.87227 4.28006 3.07982 4.18823 3.6107 4.01485C4.14159 3.84148 4.46318 3.75937 4.46318 3.75937L4.0465 3.80758C4.0465 3.80758 4.19754 3.74748 4.63854 3.60764C5.07955 3.4678 5.18152 3.46867 5.18152 3.46867C5.18152 3.46867 4.97492 3.55059 4.84069 3.62469C4.70645 3.69879 4.6925 3.70868 4.6925 3.70868C4.6925 3.70868 4.70329 3.67283 5.14424 3.64024C5.58519 3.60765 6.01701 3.66125 6.01701 3.66125L5.61383 3.90626ZM5.98071 2.79628L5.62423 2.51241L5.63547 2.51071C5.65779 2.51146 5.72389 2.52128 5.92016 2.57443C6.21446 2.65397 6.33875 2.76041 6.33875 2.76041L5.98071 2.79628ZM6.5072 2.61428C6.5072 2.61428 6.07279 2.09711 5.36644 1.73275C4.66009 1.36839 4.24132 1.35281 4.24132 1.35281C4.24132 1.35281 4.24428 1.51834 4.622 1.90059C4.99973 2.28285 5.24881 2.43266 5.24881 2.43266C5.24881 2.43266 4.78687 2.32368 4.27554 1.89944C3.93118 1.61383 3.73515 1.32759 3.64387 1.17102C3.64387 1.17102 4.15226 1.17258 4.70008 1.31335C5.24791 1.45413 5.79917 1.79538 5.79917 1.79538C5.79917 1.79538 5.86459 1.79899 5.65421 1.65802C5.44382 1.51706 5.37704 1.47405 5.37704 1.47405C5.37704 1.47405 5.74023 1.57467 6.09057 1.86279C6.44091 2.15091 6.45833 2.16637 6.45833 2.16637L6.14216 2.02734C6.14216 2.02734 6.44954 2.26558 6.54232 2.42915C6.6351 2.59271 6.64917 2.61328 6.64917 2.61328L6.5072 2.61428ZM10.9069 4.29787C10.8898 4.35099 10.8581 4.39391 10.8023 4.41031C10.6047 4.46802 10.5572 4.36483 10.5137 4.22703C10.4702 4.08923 10.4459 3.99802 10.4459 3.99802C10.4459 3.99802 10.2257 4.3921 9.94773 4.34604C9.79401 4.3208 9.70047 4.28249 9.64761 4.25346C9.64647 4.28462 9.64094 4.31546 9.63117 4.34508C9.63117 4.34508 9.7656 4.49796 10.0926 4.44978C10.4197 4.40161 10.4457 3.99764 10.4457 3.99764C10.4457 3.99764 10.562 4.30396 10.7296 4.33224C10.7922 4.34334 10.8541 4.32502 10.9069 4.29787ZM8.94542 3.38895C9.0081 3.44514 9.4127 3.81307 9.46792 3.98006C9.52754 4.16125 9.40368 4.26183 9.40368 4.26183C9.40368 4.26183 8.71863 3.49176 8.08914 3.09716C7.49616 2.72547 7.02484 2.57731 6.97182 2.56105C7.0132 2.56539 7.69081 2.63708 8.49918 3.2564C9.33364 3.89557 9.26684 3.98167 9.25052 3.86257C9.23419 3.74346 8.94536 3.3887 8.94536 3.3887L8.94542 3.38895ZM6.96964 2.56094C6.99128 2.57082 7.1351 2.64084 7.53119 2.93128C7.96425 3.24846 8.10392 3.38277 8.10392 3.38277C8.10392 3.38277 8.04482 3.76319 8.13953 4.08687C8.23425 4.41056 8.35519 4.52022 8.35519 4.52022C8.35519 4.52022 8.33198 4.48283 8.2972 4.36939C8.26242 4.25596 8.27348 4.18347 8.27348 4.18347C8.27348 4.18347 8.35905 4.46334 8.69899 4.58369C9.03893 4.70404 9.64067 4.61465 9.64067 4.61465C9.64067 4.61465 9.7158 4.66328 9.96302 4.88993C10.1949 5.10285 10.3097 5.23247 10.3231 5.24783L10.3243 5.24923L9.60366 4.68476C9.60366 4.68476 9.52771 4.74993 9.0493 4.75374C8.57088 4.75756 8.41773 4.55528 8.41773 4.55528C8.41773 4.55528 8.43924 4.59496 8.49765 4.66929C8.55607 4.74362 8.663 4.81539 8.663 4.81539C8.663 4.81539 8.25765 4.77723 7.99367 4.47193C7.72968 4.16663 7.75443 3.68057 7.75443 3.68057C7.75443 3.68057 7.75466 3.74632 7.81822 3.93428C7.88178 4.12223 7.94934 4.15833 7.94934 4.15833C7.94934 4.15833 7.93407 4.12002 7.89102 3.88708C7.84798 3.65413 7.86831 3.37203 7.86831 3.37203L6.96964 2.56094ZM12.0656 6.27809C12.0123 6.29516 11.9848 6.30535 11.9498 6.31319C11.9148 6.32102 11.8999 6.3236 11.8999 6.3236C11.89 6.39918 11.8582 6.4702 11.8084 6.52796C11.7546 6.55248 11.6979 6.57024 11.6396 6.58085C11.6396 6.58085 11.7904 6.44388 11.8339 6.34551C11.8774 6.24713 11.8621 6.21807 11.8621 6.21807L12.0828 6.19212C12.0807 6.22138 12.0749 6.25025 12.0656 6.27809ZM6.32501 5.10081C5.93059 5.1922 5.21252 5.38627 4.46375 5.72775C3.74963 6.05295 3.35981 6.28149 3.17077 6.40494C3.14871 6.40848 3.12686 6.4132 3.1053 6.41909C3.1053 6.41909 3.66275 5.93872 4.75187 5.44107C5.84099 4.94341 6.58038 4.90087 6.58038 4.90087C6.58038 4.90087 6.47139 4.97556 6.32495 5.10056L6.32501 5.10081ZM4.53618 6.21412C4.70364 6.16945 5.02871 6.09924 5.49789 6.07074C6.2092 6.02775 6.90983 6.10836 6.90983 6.10836L6.37538 6.30805C6.37538 6.30805 7.17929 6.24442 7.72122 6.28493C8.26315 6.32544 8.66311 6.41223 8.66311 6.41223L8.34507 6.29722C8.34507 6.29722 8.26093 6.25998 8.85339 6.39509C9.44585 6.5302 9.67625 6.64764 9.67625 6.64764C9.67625 6.64764 9.82948 6.61992 9.93446 6.59218C10.0395 6.56444 10.0427 6.55731 10.0427 6.55731C10.0427 6.55731 10.0404 6.5904 9.96307 6.70378C9.88576 6.81715 9.81927 6.82894 9.81927 6.82894C9.81927 6.82894 10.107 6.84209 10.2917 6.7282C10.3763 6.67594 10.4334 6.64246 10.4703 6.62142C10.4351 6.66159 10.2497 6.85849 9.95788 6.89331C9.63247 6.93213 9.45765 6.83375 9.45765 6.83375C9.45765 6.83375 9.67476 6.81145 9.78684 6.75825C9.89891 6.70506 9.93352 6.65678 9.93352 6.65678C9.93352 6.65678 9.89359 6.68508 9.78604 6.71675C9.72072 6.736 9.65326 6.74709 9.58522 6.74977C9.58522 6.74977 9.06024 6.50445 7.68026 6.44375C6.30027 6.38306 5.25856 6.77988 5.25856 6.77988C5.25856 6.77988 5.3946 6.66016 5.71253 6.46353C6.03047 6.2669 6.22746 6.20476 6.22746 6.20476C6.22746 6.20476 5.40039 6.1391 4.53612 6.21387L4.53618 6.21412ZM7.76662 6.88421C7.27661 6.90774 6.54901 6.96656 5.97824 7.11416C5.72925 7.17988 5.48584 7.26514 5.25027 7.36915C5.25633 7.30233 5.26575 7.25256 5.28009 7.24428C5.3295 7.21622 5.70827 6.93554 6.72067 6.75931C7.73307 6.58309 8.76839 6.7029 8.76839 6.7029C8.76839 6.7029 8.42321 6.72243 7.76662 6.88421Z" fill="#24247A"/>
<path d="M11.4452 6.07131C11.5456 6.13192 11.7502 6.21079 11.7502 6.21079C11.7502 6.21079 11.5652 6.62923 11.0809 6.5787C10.5965 6.52816 9.72695 5.72203 9.45537 5.55654C9.18379 5.39104 9.23595 5.43701 9.11088 5.38312C8.83676 5.26468 8.53641 5.16812 8.35598 5.11368L8.34316 5.10993L8.30676 5.0991L8.29638 5.09621L8.2955 5.09588L8.28491 5.09286L8.28268 5.09214L8.27481 5.08999L8.26983 5.08831L8.26526 5.08716L8.26463 5.08678L8.25593 5.08455L8.24744 5.08202L8.24664 5.08167L8.23925 5.07967L8.2366 5.07905L8.23194 5.07757L8.22736 5.07642L8.22512 5.0757L8.21918 5.07408L8.21346 5.07267L8.21209 5.07219L8.20823 5.07105L8.20583 5.07037L8.20397 5.0701L8.20068 5.06909L8.20017 5.06921L8.19719 5.0684L8.19511 5.06791L8.19422 5.06759L8.19329 5.06781L8.1924 5.06749C8.1924 5.06749 8.30455 4.96595 8.54491 4.93476C8.77013 4.90549 8.83324 4.91405 8.84037 4.91539C8.82367 4.91231 8.48351 4.85245 7.95043 4.87661C7.40194 4.90043 6.80077 5.31505 6.80077 5.31505L6.80129 5.31493L6.80104 5.31392L6.80137 5.31303L6.80125 5.31252L6.80344 5.30895L6.80377 5.30806L6.80448 5.30691L6.80544 5.30417L6.80638 5.30287L6.80687 5.30194L6.80755 5.30026L6.80826 5.2991L6.80994 5.29565L6.81084 5.29418L6.81177 5.29243L6.81248 5.29127L6.81281 5.29039L6.8139 5.2886L6.81483 5.28686L6.81586 5.28481L6.81709 5.28282L6.81742 5.28193L6.81832 5.28046L6.81955 5.2781L6.82084 5.276L6.82209 5.27373L6.82349 5.27133L6.82474 5.26906L6.82693 5.26549L6.82764 5.26397L6.83054 5.25924L6.83042 5.25873L6.83371 5.25337L6.83422 5.25325L6.83536 5.25092L6.83814 5.2464L6.83859 5.2453L6.84048 5.24234L6.84227 5.23931L6.84407 5.23637L6.8459 5.23315L6.84771 5.23021L6.84969 5.22686L6.85119 5.22453L6.85169 5.22361L6.85377 5.22033L6.85977 5.21055L6.86091 5.20894L6.86175 5.20721L6.86394 5.20364L6.866 5.20063L6.8668 5.19946L6.87064 5.19342C6.96858 5.04108 7.0891 4.90451 7.22807 4.78838C7.52392 4.54298 7.62462 4.5168 7.62462 4.5168C7.62462 4.5168 6.598 4.54303 5.3702 4.7607C4.1424 4.97837 3.77568 5.18542 3.77568 5.18542C3.77568 5.18542 4.79047 4.39677 5.6821 4.22579C6.57373 4.05481 7.08706 4.21442 7.08706 4.21442L6.67404 4.00756C6.67404 4.00756 6.96826 3.95828 8.02029 4.21235C8.07888 4.2266 8.13628 4.24166 8.19251 4.25755C8.27269 4.45462 8.35107 4.52587 8.35107 4.52587C8.35107 4.52587 8.32787 4.48848 8.29308 4.37504C8.28358 4.34421 8.27662 4.31265 8.27228 4.28068C8.28873 4.28571 8.30518 4.29074 8.32162 4.29577C8.37878 4.38806 8.49125 4.51741 8.69496 4.58968C8.8358 4.63979 9.0218 4.65345 9.19113 4.65253C9.58373 4.85388 9.81895 5.03193 9.81895 5.03193C9.84137 5.04791 9.86285 5.06437 9.88341 5.08133C10.2319 5.37123 10.5587 5.66732 10.5587 5.66732C10.5404 5.60018 10.5272 5.53171 10.5194 5.46254C10.5057 5.3453 10.4526 5.2378 10.4526 5.2378C10.4526 5.2378 10.6768 5.39929 10.8619 5.55151C11.047 5.70373 11.2669 5.96381 11.4452 6.07131ZM7.85904 5.54307C7.85904 5.54307 7.13459 5.63412 6.80353 5.79166C6.47248 5.9492 6.45557 5.99844 6.45557 5.99844L6.82261 5.98704C6.61369 6.04757 6.40832 6.11974 6.20746 6.20319L6.22764 6.20472C6.22764 6.20472 6.03078 6.26665 5.71272 6.46349C5.39466 6.66032 5.25874 6.77984 5.25874 6.77984C5.25874 6.77984 6.30057 6.38272 7.68044 6.44371C9.06032 6.5047 9.5854 6.74973 9.5854 6.74973C9.65345 6.74704 9.7209 6.73595 9.78623 6.71671C9.89377 6.68504 9.93371 6.65674 9.93371 6.65674C9.93371 6.65674 9.89898 6.70495 9.78702 6.75821C9.67505 6.81147 9.45784 6.83371 9.45784 6.83371C9.45784 6.83371 9.63261 6.93191 9.95806 6.89326C10.2835 6.85461 10.4764 6.61376 10.4764 6.61376C10.4764 6.61376 9.729 6.38108 8.76719 6.20242C7.80539 6.02376 7.22264 6.021 7.22264 6.021C7.22264 6.021 7.24621 6.00298 7.42533 5.84748C7.60437 5.692 7.85904 5.54307 7.85904 5.54307ZM11.8625 6.21824L12.0832 6.19229C12.0832 6.19229 12.0757 6.36255 11.9307 6.46084C11.8429 6.52011 11.744 6.56091 11.64 6.58076C11.64 6.58076 11.7907 6.4438 11.8342 6.34542C11.8777 6.24704 11.8625 6.21824 11.8625 6.21824ZM8.76875 6.70326C8.76875 6.70326 8.09313 6.74021 6.83363 7.15466C6.18127 7.36931 5.77722 7.53393 5.53914 7.64275L5.23934 7.67284C5.24012 7.51584 5.2467 7.26393 5.28028 7.24468C5.32969 7.21662 5.70846 6.93594 6.72087 6.75971C7.73327 6.58348 8.76841 6.70334 8.76841 6.70334L8.76875 6.70326Z" fill="white"/>
<path d="M11.4452 6.07131L11.4497 6.07383L11.4536 6.07622L11.4547 6.07667L11.4553 6.07706L11.4595 6.07956L11.4642 6.08201L11.4648 6.08242L11.4653 6.0823L11.4697 6.08482L11.4715 6.08566C11.4744 6.08719 11.4773 6.08883 11.4805 6.09057L11.4812 6.09096L11.4846 6.09264L11.4864 6.09357L11.4878 6.09447L11.4913 6.09616L11.4922 6.09674L11.498 6.09967L11.5017 6.10155L11.5038 6.10258L11.5052 6.10323L11.5086 6.105L11.5116 6.10653L11.5117 6.10704L11.5154 6.10866L11.5189 6.11035L11.5216 6.11177L11.5227 6.11231L11.5261 6.114L11.5278 6.11458L11.5299 6.11587L11.5336 6.11758L11.537 6.1191L11.5399 6.12065L11.5407 6.12099L11.5462 6.12354L11.5482 6.12458L11.5519 6.1262L11.5525 6.12659L11.5556 6.12783L11.5588 6.1294L11.5594 6.1297L11.563 6.13143L11.5653 6.13241L11.5667 6.13305L11.5705 6.13476L11.5716 6.1352L11.5742 6.13664L11.5779 6.13826L11.5819 6.13983L11.5842 6.14107L11.5855 6.14155L11.5892 6.14318L11.5907 6.14383L11.593 6.1448L11.5967 6.14651L11.6001 6.14794L11.6029 6.14932L11.6037 6.14914L11.6074 6.15085L11.6091 6.15143L11.611 6.15249L11.6147 6.15394L11.6209 6.15658L11.6214 6.15646L11.6251 6.15792L11.6285 6.1596L11.6322 6.16105L11.6328 6.16089L11.6355 6.16206L11.6386 6.16338L11.6422 6.16475L11.6442 6.16578L11.6456 6.16626L11.649 6.16769L11.6501 6.16823L11.6524 6.16921L11.6558 6.17064L11.6589 6.17196L11.6612 6.17293L11.6623 6.17339L11.6654 6.17471C11.7128 6.19439 11.7473 6.20774 11.7473 6.20774C11.7473 6.20774 11.5623 6.62617 11.078 6.57564C10.5936 6.5251 9.72404 5.71897 9.45246 5.55348C9.18089 5.38798 9.23305 5.43395 9.10798 5.38006C8.83386 5.26162 8.53351 5.16506 8.35307 5.11062L8.34025 5.10688L8.30386 5.09605L8.29348 5.09315L8.2926 5.09282L8.28201 5.0898L8.27977 5.08908L8.27191 5.08693L8.26693 5.08525L8.26235 5.0841L8.26172 5.08372L8.25303 5.08149L8.24453 5.07896L8.24373 5.07861L8.23635 5.07661L8.23369 5.07599L8.22903 5.07451L8.22446 5.07336L8.22222 5.07264L8.21627 5.07102L8.21056 5.06961L8.20919 5.06913L8.20533 5.06799L8.20292 5.06731L8.20106 5.06704L8.19777 5.06603L8.19727 5.06616L8.19429 5.06534L8.1922 5.06486L8.19132 5.06453L8.19039 5.06475L8.1895 5.06443C8.1895 5.06443 8.30165 4.96289 8.54201 4.9317C8.72047 4.90861 8.7971 4.90927 8.82471 4.91109L8.45662 5.05588C8.45662 5.05588 9.1146 5.27555 9.31321 5.37818C9.51182 5.48081 9.5198 5.50741 9.5198 5.50741C9.5198 5.50741 9.48485 5.43033 9.37206 5.36256C9.25926 5.2948 9.21161 5.26577 9.21161 5.26577C9.21161 5.26577 9.38073 5.28419 9.6424 5.49222C9.90408 5.70025 9.93047 5.74755 9.93047 5.74755L9.7048 5.59142C9.7048 5.59142 9.81163 5.76686 10.1474 5.98566C10.4832 6.20446 10.9068 6.50653 11.1953 6.50073C11.4839 6.49494 11.5884 6.24424 11.5884 6.24424L11.5726 6.23638C11.5019 6.20022 11.4332 6.16031 11.3668 6.11683L11.371 6.11412C11.3111 6.07407 11.2541 6.02996 11.2003 5.98212C11.1078 5.89854 11.0342 5.75837 10.9891 5.65727C11.1435 5.80635 11.3058 5.98732 11.4452 6.07131ZM9.28334 5.09016C9.22665 5.06007 9.06706 5.06574 9.00801 5.08238C9.08366 4.99165 9.18502 5.02216 9.28334 5.09016ZM9.68106 5.41025C9.64768 5.38318 9.56313 5.30229 9.38725 5.24066C9.21137 5.17903 9.08757 5.18438 9.08757 5.18438C9.08757 5.18438 9.10614 5.11511 9.30007 5.17313C9.494 5.23115 9.68106 5.41025 9.68106 5.41025ZM8.81932 4.91102C8.7388 4.89829 8.41897 4.85445 7.94872 4.8755C7.40193 4.90044 6.80077 5.31505 6.80077 5.31505L6.80129 5.31493L6.80104 5.31392L6.80137 5.31303L6.80125 5.31252L6.80344 5.30895L6.80377 5.30806L6.80448 5.30691L6.80544 5.30417L6.80638 5.30287L6.80687 5.30194L6.80755 5.30026L6.80826 5.2991L6.80994 5.29565L6.81084 5.29418L6.81177 5.29243L6.81248 5.29127L6.81281 5.29039L6.8139 5.2886L6.81483 5.28686L6.81586 5.28481L6.81709 5.28282L6.81742 5.28193L6.81832 5.28046L6.81955 5.2781L6.82084 5.276L6.82209 5.27373L6.82349 5.27133L6.82474 5.26906L6.82693 5.26549L6.82764 5.26397L6.83054 5.25924L6.83042 5.25873L6.83371 5.25337L6.83422 5.25325L6.83536 5.25092L6.83814 5.2464L6.83859 5.2453L6.84048 5.24234L6.84227 5.23931L6.84407 5.23637L6.8459 5.23315L6.84771 5.23021L6.84969 5.22686L6.85119 5.22453L6.85169 5.22361L6.85377 5.22033L6.85977 5.21055L6.86091 5.20894L6.86175 5.20721L6.86394 5.20364L6.866 5.20063L6.8668 5.19946L6.87064 5.19342C6.92903 5.10284 6.99536 5.01765 7.06888 4.93886C7.2457 4.88756 7.56269 4.81246 7.90482 4.80712C8.38957 4.79381 8.76562 4.89572 8.81932 4.91102ZM7.47145 4.59912C7.55347 4.54361 7.59862 4.52213 7.61744 4.51458L7.47145 4.59912ZM7.62674 4.5111C7.58859 4.51207 6.57802 4.54163 5.37363 4.75522C4.37649 4.93227 3.94718 5.10186 3.82119 5.15946C3.97673 5.08412 4.53798 4.82035 5.05398 4.6717C5.66075 4.49693 6.02406 4.47934 6.02406 4.47934L5.4935 4.47286C5.4935 4.47286 5.71465 4.38539 6.38523 4.31315C7.05582 4.24091 7.82623 4.43168 7.82623 4.43168L7.62674 4.5111ZM7.82318 4.15985C7.88685 4.17411 7.95365 4.18985 8.02406 4.2068C8.08264 4.22105 8.14004 4.23611 8.19627 4.252C8.27645 4.44907 8.35484 4.52032 8.35484 4.52032C8.35484 4.52032 8.33163 4.48293 8.29685 4.36949C8.28734 4.33866 8.28039 4.3071 8.27605 4.27513C8.29249 4.28016 8.30894 4.28519 8.32539 4.29021C8.38254 4.38251 8.49501 4.51186 8.69872 4.58413C8.83957 4.63424 9.02556 4.6479 9.1949 4.64698C9.25625 4.67856 9.31347 4.70933 9.36685 4.73905C9.28812 4.74723 9.18498 4.7531 9.04895 4.75419C8.57052 4.75792 8.41738 4.55573 8.41738 4.55573C8.41738 4.55573 8.4389 4.59541 8.49731 4.66974C8.55572 4.74407 8.663 4.81539 8.663 4.81539C8.663 4.81539 8.25765 4.77723 7.99367 4.47193C7.91254 4.37838 7.85876 4.26799 7.82318 4.15985ZM12.0656 6.27809C12.0123 6.29516 11.9848 6.30535 11.9498 6.31319C11.9148 6.32102 11.8999 6.3236 11.8999 6.3236C11.89 6.39918 11.8582 6.4702 11.8084 6.52796C11.7546 6.55248 11.6979 6.57024 11.6396 6.58085C11.6396 6.58085 11.7904 6.44388 11.8339 6.34551C11.8774 6.24713 11.8621 6.21807 11.8621 6.21807L12.0828 6.19212C12.0807 6.22138 12.0749 6.25025 12.0656 6.27809ZM6.53935 6.07765C6.76455 6.09178 6.90983 6.10836 6.90983 6.10836L6.37538 6.30805C6.37538 6.30805 7.17929 6.24442 7.72122 6.28493C8.26315 6.32544 8.66311 6.41223 8.66311 6.41223L8.34507 6.29722C8.34507 6.29722 8.26093 6.25998 8.85339 6.39509C9.44585 6.5302 9.67625 6.64764 9.67625 6.64764C9.67625 6.64764 9.82948 6.61992 9.93446 6.59218C10.0395 6.56444 10.0427 6.55731 10.0427 6.55731C10.0427 6.55731 10.0404 6.5904 9.96307 6.70378C9.88576 6.81715 9.81927 6.82894 9.81927 6.82894C9.81927 6.82894 10.107 6.84209 10.2917 6.7282C10.3763 6.67594 10.4334 6.64246 10.4703 6.62142C10.4351 6.66159 10.2497 6.85849 9.95788 6.89331C9.63247 6.93213 9.45765 6.83375 9.45765 6.83375C9.45765 6.83375 9.67476 6.81145 9.78684 6.75825C9.89891 6.70506 9.93352 6.65678 9.93352 6.65678C9.93352 6.65678 9.89359 6.68508 9.78604 6.71675C9.72072 6.736 9.65326 6.74709 9.58522 6.74977C9.58522 6.74977 9.06024 6.50445 7.68026 6.44375C6.30027 6.38306 5.25856 6.77988 5.25856 6.77988C5.25856 6.77988 5.3946 6.66016 5.71253 6.46353C6.03047 6.2669 6.22746 6.20476 6.22746 6.20476L6.20727 6.20324C6.32907 6.15283 6.44327 6.11078 6.5392 6.07706L6.53935 6.07765ZM7.76662 6.88421C7.27661 6.90774 6.54901 6.96656 5.97824 7.11416C5.72925 7.17988 5.48584 7.26514 5.25027 7.36915C5.25633 7.30233 5.26575 7.25256 5.28009 7.24428C5.3295 7.21622 5.70827 6.93554 6.72067 6.75931C7.73307 6.58309 8.76839 6.7029 8.76839 6.7029C8.76839 6.7029 8.42321 6.72243 7.76662 6.88421Z" fill="#C1C1E8"/>
<path d="M10.2072 6.35959C10.2072 6.35959 9.58889 5.82477 9.01309 5.54096C8.4373 5.25714 8.22917 5.2252 8.22917 5.2252C8.19674 5.30639 8.1843 5.39418 8.1929 5.48117C8.20625 5.62942 8.2793 5.82927 8.2793 5.82927L8.38978 5.46685L8.49643 5.6947L8.64391 5.55386L8.71503 5.73408C8.71503 5.73408 8.82825 5.75754 9.09714 5.86953C9.36604 5.98151 9.5019 6.05576 9.5019 6.05576C9.5019 6.05576 9.37835 6.00707 9.05727 5.9213C8.73619 5.83553 8.65431 5.82949 8.65431 5.82949L8.60777 5.71L8.45512 5.84948L8.38779 5.68511L8.28638 5.90979L8.21389 5.75679C8.21389 5.75679 8.17858 5.89283 8.20173 5.95767C8.22488 6.02251 8.31871 6.01933 8.31871 6.01933C8.31871 6.01933 8.45997 6.02029 9.16625 6.11398C9.87253 6.20768 10.2072 6.35959 10.2072 6.35959Z" fill="white"/>
<path d="M10.2072 6.35959C10.2072 6.35959 9.58889 5.82477 9.01309 5.54096C8.4373 5.25714 8.22917 5.2252 8.22917 5.2252C8.19674 5.30639 8.1843 5.39418 8.1929 5.48117C8.20625 5.62942 8.2793 5.82927 8.2793 5.82927L8.39011 5.45888L8.56192 5.63195L8.49643 5.6947L8.38936 5.46695L8.27887 5.82937C8.27359 5.78008 8.26535 5.73115 8.25419 5.68285C8.23297 5.58375 8.26394 5.38652 8.26394 5.38652C8.26394 5.38652 8.69972 5.49001 9.30898 5.81208C9.76585 6.05345 10.0708 6.26483 10.1953 6.35545L10.2072 6.35959ZM8.64201 5.55566L8.64391 5.55386L8.71503 5.73408C8.75309 5.74298 8.7906 5.75376 8.82748 5.76669L8.64498 5.54786L8.64201 5.55566ZM9.47011 6.04392C9.41539 6.02474 9.28679 5.98228 9.05765 5.92103C8.73666 5.83524 8.6547 5.82922 8.6547 5.82922L8.60816 5.70973L8.54726 5.76546L8.60806 5.86962L9.47041 6.04367L9.47011 6.04392ZM8.45411 5.84488L8.38779 5.68511L8.34194 5.78683L8.43134 5.88198L8.45411 5.84488ZM8.28638 5.90979L8.21389 5.75679C8.21389 5.75679 8.17858 5.89283 8.20173 5.95767C8.21621 5.99904 8.25901 6.01228 8.28863 6.01693L8.28638 5.90979Z" fill="#C1C1E8"/>
<path d="M9.09581 4.29304L8.44562 3.65243C8.44562 3.65243 8.48942 4.10424 8.63666 4.19792C8.78389 4.2916 9.09581 4.29304 9.09581 4.29304Z" fill="white"/>
<path d="M8.69159 3.162C8.69159 3.162 8.47846 2.95561 8.07255 2.74212C7.66665 2.52863 7.31052 2.45188 7.31052 2.45188C7.31052 2.45188 7.43444 2.29767 7.97975 2.56762C8.52506 2.83758 8.69159 3.162 8.69159 3.162ZM7.26192 2.34328C7.24042 2.36117 7.21483 2.37345 7.18743 2.37904C7.16003 2.38463 7.13167 2.38336 7.10488 2.37532C7.01238 2.34771 6.91839 2.30341 6.96275 2.28912C7.00712 2.27482 7.03982 2.24475 7.10887 2.26991C7.16152 2.29082 7.21265 2.31533 7.26192 2.34328Z" fill="#24247A"/>
<path d="M7.49189 3.28464C7.49189 3.28464 7.42645 3.35625 7.4498 3.56235C7.46423 3.68655 7.50949 3.80516 7.58146 3.90741C7.58146 3.90741 7.3618 3.7015 7.34411 3.48903C7.32641 3.27656 7.49189 3.28464 7.49189 3.28464Z" fill="#24247A"/>
<path d="M7.23236 3.27175C7.23236 3.27175 7.15196 3.31718 7.14898 3.43203C7.14599 3.54689 7.25722 3.66766 7.25722 3.66766C7.25722 3.66766 7.0645 3.57725 7.0783 3.42555C7.0921 3.27386 7.23236 3.27175 7.23236 3.27175Z" fill="#24247A"/>
<path d="M4.57501 2.67946L4.87516 2.68157L5.12664 2.77997C5.12664 2.77997 3.90213 3.05818 3.18748 3.61555C2.47282 4.17292 2.34307 4.39828 2.34307 4.39828C2.34307 4.39828 2.60024 3.88051 3.13554 3.46005C3.67084 3.03959 4.57501 2.67946 4.57501 2.67946Z" fill="#30BDEF"/>
<path d="M7.12088 13.5835L7.05025 13.3978C7.84762 13.5874 8.43373 13.5851 9.22952 13.407C8.57496 13.7282 7.86649 13.7542 7.15858 13.6309L7.12088 13.5835Z" fill="#30BDEF"/>
<path d="M7.05025 13.3978L7.12088 13.5835L7.15858 13.6309C6.58765 13.3804 6.00957 12.9409 5.7919 12.7525L5.52613 12.1568C5.65077 12.4354 6.59415 13.1002 7.05025 13.3978Z" fill="#30BDEF"/>
<path d="M3.43547 7.93839L3.75784 7.92397L3.86556 8.04056C3.90842 8.08689 3.96522 8.11799 4.02735 8.12914C4.0379 8.14273 4.04735 8.15713 4.0556 8.17223C4.05659 8.17405 4.05708 8.17609 4.05702 8.17816C4.0521 8.24092 4.0677 8.30359 4.10147 8.35672C4.13523 8.40985 4.18535 8.45058 4.24426 8.47277C4.30317 8.49496 4.3677 8.49742 4.42813 8.47977C4.48856 8.46211 4.54163 8.42531 4.57933 8.3749C4.61549 8.40487 4.65845 8.42549 4.70445 8.43496C4.75619 8.44571 4.80989 8.44212 4.85974 8.42459C4.9096 8.40706 4.95372 8.37625 4.98736 8.33549L4.98799 8.33587C4.9885 8.33575 5.03575 8.27844 5.09109 8.19651C5.11943 8.22996 5.15498 8.25657 5.19506 8.27435C5.23514 8.29213 5.27872 8.30061 5.32255 8.29916C5.36637 8.29771 5.4093 8.28638 5.44812 8.266C5.48694 8.24562 5.52065 8.21672 5.54673 8.18147L5.54905 8.17841C5.55342 8.17198 5.56449 8.15678 5.5793 8.13476C5.622 8.15265 5.66839 8.16 5.71453 8.15618C5.78075 8.15069 5.84311 8.12276 5.8913 8.077C5.92556 8.04594 6.04945 7.92751 6.10787 7.79257C6.13856 7.71896 6.15693 7.6408 6.16223 7.56123C6.16549 7.55686 6.16864 7.55279 6.17166 7.54857L6.1746 7.54401C6.1795 7.53674 6.18408 7.52928 6.18811 7.52177C6.23764 7.43468 6.36945 7.14337 6.17031 6.78085C5.92778 6.33897 5.37868 6.39136 5.37692 6.39151C5.33453 6.39515 5.29345 6.40805 5.25659 6.42929C5.02008 6.34999 4.79027 6.42635 4.71243 6.45772C4.66991 6.47267 4.63142 6.49722 4.59996 6.52948C4.27513 6.47635 3.99198 6.61157 3.99118 6.61194C3.94506 6.63343 3.90542 6.6667 3.87628 6.7084C3.67274 6.74692 3.54625 6.80769 3.4538 6.89115C3.35151 6.98297 3.31127 7.07366 3.26545 7.18299C3.19391 7.35416 3.14088 7.5798 3.1406 7.5805C3.12273 7.65545 3.13535 7.73444 3.1757 7.80008C3.21605 7.86573 3.28082 7.91267 3.35577 7.93057C3.38184 7.93689 3.40866 7.93953 3.43547 7.93839Z" fill="#151630"/>
<path d="M3.42277 7.64775L3.77651 7.63138L3.83563 7.4379L3.85825 7.60356L4.07885 7.84223C4.07885 7.84223 4.09958 7.57528 4.164 7.5092C4.22843 7.44311 4.31679 7.4849 4.31679 7.4849C4.31679 7.4849 4.22335 6.93846 3.93285 6.99277C3.64235 7.04708 3.59649 7.14503 3.5333 7.29528C3.47011 7.44553 3.42277 7.64775 3.42277 7.64775ZM5.62105 7.50903C5.62105 7.50903 5.7724 7.26002 5.80621 7.27129C5.84002 7.28257 5.93243 7.3813 5.93243 7.3813C5.93243 7.3813 6.06569 7.19491 5.9148 6.92045C5.76391 6.64599 5.40218 6.68069 5.40218 6.68069C5.40218 6.68069 5.53408 6.83237 5.59225 7.02252C5.65042 7.21266 5.62109 7.5092 5.62109 7.5092L5.62105 7.50903ZM5.87379 7.48052L5.80892 7.38371C5.80892 7.38371 5.64109 7.53956 5.65808 7.61502C5.67507 7.69048 5.69023 7.86501 5.69023 7.86501C5.69023 7.86501 5.80082 7.76967 5.84151 7.67636C5.8822 7.58305 5.87383 7.48069 5.87383 7.48069L5.87379 7.48052ZM5.44535 7.59046C5.44535 7.59046 5.43738 7.49652 5.34347 7.51622C5.24956 7.53593 5.19561 7.62254 5.19561 7.62254C5.19561 7.62254 5.28759 7.81571 5.30249 7.89589C5.31738 7.97606 5.313 8.00796 5.313 8.00796C5.313 8.00796 5.46343 7.80266 5.47448 7.7342C5.48552 7.66575 5.44539 7.59063 5.44539 7.59063L5.44535 7.59046ZM5.45022 7.42691C5.45022 7.42691 5.42246 7.34506 5.34798 7.36729C5.27351 7.38951 5.12784 7.57126 5.12784 7.57126C5.12784 7.57126 5.16235 7.17951 5.08208 7.0203C5.00182 6.8611 4.80951 6.7323 4.80951 6.7323C4.80951 6.7323 5.10784 6.58636 5.31507 6.80367C5.5223 7.02097 5.53527 7.21145 5.51924 7.29203C5.50843 7.3423 5.48464 7.38886 5.45026 7.42708L5.45022 7.42691ZM4.91634 7.57097C4.91634 7.57097 4.87916 7.49918 4.78649 7.55812C4.76002 7.57393 4.73788 7.59604 4.72205 7.62249C4.70621 7.64894 4.69717 7.67889 4.69573 7.70969C4.69573 7.70969 4.76244 7.85053 4.77108 7.96412C4.77972 8.07772 4.76322 8.14999 4.76322 8.14999C4.76322 8.14999 4.96046 7.91215 4.97207 7.79173C4.98368 7.67132 4.91639 7.57114 4.91639 7.57114L4.91634 7.57097ZM4.11495 6.8752C4.11495 6.8752 4.32315 6.96881 4.37611 7.05744C4.42907 7.14608 4.45625 7.25398 4.45625 7.25398C4.45625 7.25398 4.51262 7.16248 4.57242 7.14C4.60658 7.12673 4.64281 7.1196 4.67945 7.11895C4.67945 7.11895 4.53406 7.2176 4.50274 7.33843C4.47142 7.45926 4.55998 7.71233 4.55998 7.71233C4.55998 7.71233 4.64228 7.47 4.73169 7.42214C4.8211 7.37428 4.92116 7.45326 4.92116 7.45326C4.92116 7.45326 5.15097 7.23612 4.84175 6.95609C4.53253 6.67605 4.11497 6.87528 4.11497 6.87528L4.11495 6.8752ZM4.2689 7.54998L4.18671 7.86393C4.18671 7.86393 4.2797 7.96773 4.31643 8.04285C4.33889 8.092 4.34925 8.14581 4.34665 8.19979C4.34665 8.19979 4.45735 7.91578 4.41898 7.78213C4.38062 7.64849 4.26892 7.55007 4.26892 7.55007L4.2689 7.54998Z" fill="#414196"/>
<path d="M3.42274 7.6479L3.77648 7.63153L3.8356 7.43805L3.85823 7.60371L4.07882 7.84238C4.07882 7.84238 4.09955 7.57543 4.16397 7.50934C4.2284 7.44326 4.31676 7.48504 4.31676 7.48504C4.31676 7.48504 4.31357 7.46644 4.30663 7.43636C4.29068 7.39293 4.25072 7.34404 4.15003 7.39684C3.99073 7.48044 3.96375 7.59243 3.96375 7.59243L3.90075 7.49409L3.87882 7.28792C3.87882 7.28792 3.72617 7.3806 3.68041 7.39541C3.64951 7.40532 3.56297 7.37601 3.50949 7.35564C3.47559 7.45151 3.44664 7.54906 3.42274 7.6479ZM4.34667 8.17392C4.34649 8.17316 4.38439 8.01614 4.31705 7.89329C4.2733 7.81357 4.24122 7.75257 4.22412 7.71936L4.18632 7.86407C4.18632 7.86407 4.27932 7.96787 4.31604 8.043C4.33516 8.08411 4.34571 8.12869 4.34705 8.17401L4.34667 8.17392ZM5.6902 7.86515C5.6902 7.86515 5.77033 7.69578 5.77686 7.57963C5.78057 7.50935 5.78327 7.44612 5.78509 7.40731C5.7395 7.45355 5.64494 7.55742 5.65809 7.61533C5.67542 7.69071 5.69058 7.86524 5.69058 7.86524L5.6902 7.86515ZM5.97966 7.25788C5.94279 7.22188 5.89288 7.17779 5.84676 7.15521C5.76003 7.1124 5.74807 7.16431 5.74807 7.16431C5.74807 7.16431 5.67442 6.90875 5.57724 6.8107C5.48007 6.71266 5.40175 6.68066 5.40175 6.68066C5.40175 6.68066 5.53365 6.83235 5.59182 7.02249C5.64999 7.21263 5.62072 7.50942 5.62072 7.50942C5.62072 7.50942 5.77207 7.26042 5.80588 7.27169C5.83969 7.28296 5.93211 7.3817 5.93211 7.3817C5.93211 7.3817 5.96504 7.33651 5.98002 7.25788L5.97966 7.25788ZM5.31621 8.00365L5.31092 7.95534C5.31334 7.97287 5.31392 7.99061 5.31265 8.00827L5.31621 8.00365ZM5.31073 7.95457C5.31073 7.95457 5.38047 7.78823 5.36303 7.68992C5.35007 7.61556 5.3332 7.54921 5.32563 7.52099C5.24221 7.54706 5.19527 7.62286 5.19527 7.62286C5.19527 7.62286 5.28724 7.81602 5.30214 7.8962C5.30689 7.91981 5.30968 7.93895 5.31109 7.95458L5.31073 7.95457ZM5.48688 7.37586C5.48111 7.32515 5.46306 7.26698 5.41295 7.24643C5.31757 7.20722 5.27755 7.23743 5.27755 7.23743C5.27755 7.23743 5.28083 7.06386 5.15319 6.92586C5.02556 6.78786 4.80916 6.73226 4.80916 6.73226C4.80916 6.73226 5.0014 6.86107 5.08174 7.02026C5.16209 7.17945 5.12781 7.5714 5.12781 7.5714C5.12781 7.5714 5.2732 7.39 5.34803 7.36777C5.42287 7.34555 5.45027 7.4274 5.45027 7.4274C5.46446 7.41164 5.47686 7.39436 5.48724 7.37587L5.48688 7.37586ZM4.76545 8.13749C4.76545 8.13749 4.86193 7.88396 4.85001 7.78137C4.84149 7.70837 4.80802 7.60789 4.78929 7.55625L4.78644 7.55819C4.75997 7.57399 4.73783 7.59611 4.722 7.62255C4.70616 7.649 4.69712 7.67895 4.69568 7.70975C4.69568 7.70975 4.76239 7.85059 4.77103 7.96419C4.77596 8.02196 4.77421 8.08012 4.76581 8.13749L4.76545 8.13749ZM4.96512 7.39409L4.96396 7.38926C4.96396 7.38926 4.86171 7.24679 4.72551 7.31571C4.58932 7.38464 4.58361 7.38887 4.58361 7.38887C4.58361 7.38887 4.54243 7.33445 4.63067 7.23603C4.71892 7.13761 4.80284 7.13124 4.80284 7.13124C4.80284 7.13124 4.71034 7.02427 4.63832 7.02717C4.5663 7.03007 4.56103 7.03429 4.56103 7.03429C4.56103 7.03429 4.4259 6.89458 4.30215 6.81922C4.23758 6.83027 4.17459 6.84912 4.11457 6.87534C4.11457 6.87534 4.32276 6.96895 4.37572 7.05759C4.42868 7.14622 4.45586 7.25412 4.45586 7.25412C4.45586 7.25412 4.51223 7.16262 4.57203 7.14015C4.60619 7.12687 4.64242 7.11974 4.67907 7.11909C4.67907 7.11909 4.53367 7.21774 4.50235 7.33857C4.47103 7.4594 4.5596 7.71247 4.5596 7.71247C4.5596 7.71247 4.64189 7.47014 4.7313 7.42228C4.82071 7.37442 4.92077 7.4534 4.92077 7.4534C4.93831 7.43576 4.95335 7.41581 4.96548 7.3941L4.96512 7.39409Z" fill="#24247A"/>
<path d="M11.7287 6.84389L11.6726 6.83043L11.6676 6.85017L11.5521 6.85139L11.5242 6.82121L11.4912 6.85199L11.3537 6.85315L11.7567 7.28881L11.7629 7.20662C11.7968 7.24604 11.8356 7.29681 11.8556 7.33768C11.8637 7.35494 11.8695 7.3732 11.8729 7.39199C11.8753 7.40518 11.8768 7.41854 11.8771 7.43194L11.8775 7.44083C11.8773 7.44364 11.8772 7.44618 11.8771 7.44882L11.9315 7.60614L12.0061 7.51404L12.0189 7.48158C12.0638 7.36681 12.1239 7.1583 12.0897 7.03863C12.0661 6.95704 12.0173 6.88058 11.9603 6.81857L11.9265 6.78182L11.88 6.79961C11.8674 6.80441 11.8545 6.80902 11.8416 6.81337L11.8244 6.81927L11.8121 6.79531L11.8027 6.83092L11.7287 6.84389ZM12.2181 7.02816C12.2457 7.08843 12.2747 7.17222 12.2797 7.23658C12.2796 7.23676 12.2797 7.23694 12.2798 7.23709C12.2808 7.24975 12.2817 7.26408 12.282 7.27897C12.283 7.31376 12.2807 7.34857 12.2753 7.38296L12.2746 7.38851C12.2744 7.38929 12.2743 7.39012 12.2739 7.39092L12.3092 7.49133L12.4023 7.45378C12.4753 7.36566 12.6057 7.18747 12.6164 7.07464C12.6166 7.07253 12.6167 7.07054 12.617 7.06841L12.7007 6.96373C12.7176 7.00038 12.7336 7.0377 12.7489 7.07492C12.7614 7.10601 12.7784 7.14721 12.7844 7.17976C12.7873 7.19584 12.7898 7.21208 12.7917 7.22813L12.7921 7.22983C12.7937 7.24103 12.7942 7.25236 12.7938 7.26366L12.8771 7.38331L12.9264 7.3153C12.9308 7.3094 12.9356 7.3027 12.9409 7.29533L12.9461 7.28826C12.9858 7.23248 13.0438 7.14643 13.0739 7.07996L13.1339 6.98167C13.1352 6.99149 13.1365 7.00113 13.1375 7.01057C13.143 7.05472 13.1478 7.09929 13.1514 7.1437L13.1592 7.23383L13.2845 7.1825C13.3418 7.13094 13.4058 7.05563 13.435 6.98757C13.4619 6.92186 13.4744 6.85118 13.4718 6.78025L13.5137 6.72145C13.543 6.68062 13.5633 6.61884 13.572 6.5703C13.5726 6.56631 13.5734 6.56226 13.574 6.55835L13.5778 6.53682L13.5765 6.5356C13.5881 6.42075 13.5571 6.30794 13.5015 6.2064C13.4281 6.07281 13.3039 5.99368 13.1578 5.95883C13.0938 5.94373 13.0281 5.93732 12.9624 5.93979L12.6926 5.82974L12.8717 6.03397C12.7726 5.9571 12.6506 5.93116 12.5225 5.94911L12.469 5.95633L12.4611 6.00306L12.4304 6.18677L12.4389 6.19496L12.4019 6.30245C12.3674 6.40165 12.3129 6.4927 12.2418 6.56996L12.2372 6.57493C12.1994 6.61557 12.1568 6.65153 12.1104 6.68203C12.0946 6.69245 12.0784 6.7023 12.0618 6.7116L12.0187 6.73661L12.0262 6.78567C12.0381 6.86398 12.0573 6.94099 12.0836 7.01571L12.1544 7.21619L12.218 7.02782L12.2181 7.02816ZM13.0514 6.77072C13.0665 6.75441 13.0799 6.73649 13.0911 6.71727C13.0898 6.74368 13.0881 6.76902 13.0857 6.792L13.0761 6.88602C13.0722 6.87503 13.0678 6.86416 13.0632 6.85407C13.0587 6.83268 13.0504 6.81228 13.0386 6.79386C13.0373 6.79184 13.0359 6.78994 13.0346 6.78792L13.0495 6.77269L13.0514 6.77072Z" fill="#151630"/>
<path d="M11.0744 6.93112L11.1181 6.929L11.0744 6.93112ZM11.5203 6.92522L11.6965 7.11561C11.7021 7.04947 11.7122 6.98379 11.7267 6.91901L11.5203 6.92522ZM11.0748 6.9295L11.0744 6.93112L11.0748 6.9295ZM13.1587 6.79959C13.1587 6.79959 13.3025 6.56335 13.3349 6.57414C13.3673 6.58493 13.4544 6.67841 13.4544 6.67841C13.4544 6.67841 13.5808 6.50155 13.4377 6.24145C13.2946 5.98134 12.9511 6.01383 12.9511 6.01383C12.9511 6.01383 13.0763 6.15745 13.1315 6.33826C13.1867 6.51907 13.1587 6.79959 13.1587 6.79959ZM13.3985 6.77239L13.3372 6.68082C13.3372 6.68082 13.178 6.82823 13.1943 6.90011C13.2105 6.97199 13.2248 7.13703 13.2248 7.13703C13.2248 7.13703 13.3297 7.04654 13.3683 6.95806C13.4068 6.86957 13.3985 6.77239 13.3985 6.77239ZM12.9925 6.87669C12.9925 6.87669 12.9847 6.78783 12.8957 6.80634C12.8068 6.82484 12.7555 6.90726 12.7555 6.90726C12.7555 6.90726 12.8426 7.09048 12.8567 7.16644C12.8709 7.2424 12.8669 7.2725 12.8669 7.2725C12.8669 7.2725 13.0094 7.07805 13.0199 7.01296C13.0304 6.94786 12.9925 6.87669 12.9925 6.87669ZM12.9969 6.72158C12.9969 6.72158 12.9706 6.64406 12.8998 6.66504C12.8291 6.68601 12.6912 6.85844 12.6912 6.85844C12.6912 6.85844 12.7242 6.48662 12.6477 6.33591C12.6138 6.26925 12.5596 6.20807 12.5096 6.16052L12.5326 6.02186C12.631 6.00835 12.7626 6.0188 12.869 6.13068C13.0657 6.3367 13.0776 6.51711 13.0625 6.59373C13.0521 6.64131 13.0295 6.68537 12.9969 6.72158ZM12.4906 6.85832C12.4906 6.85832 12.4555 6.79025 12.3674 6.84595C12.3424 6.86101 12.3215 6.882 12.3065 6.90708C12.2915 6.93216 12.2829 6.96054 12.2815 6.98973C12.2815 6.98973 12.3446 7.12335 12.3529 7.23085C12.3612 7.33835 12.3456 7.40726 12.3456 7.40726C12.3456 7.40726 12.5325 7.18175 12.5435 7.06757C12.5546 6.95339 12.4906 6.85832 12.4906 6.85832ZM12.0988 6.77603C12.1109 6.84955 12.129 6.92196 12.1529 6.99253C12.1529 6.99253 12.2308 6.7629 12.3158 6.71746C12.4008 6.67201 12.4952 6.74687 12.4952 6.74687C12.4952 6.74687 12.6853 6.56747 12.4714 6.32711C12.4137 6.49522 12.2957 6.64956 12.1507 6.74461C12.1342 6.75492 12.1165 6.76544 12.0988 6.77603ZM11.8651 6.88256L11.7987 7.13588C11.7987 7.13588 11.8869 7.23447 11.9217 7.30567C11.943 7.35233 11.9528 7.40337 11.9505 7.45459C11.9505 7.45459 12.0555 7.18514 12.0191 7.05847C11.9949 6.97458 11.9402 6.90503 11.9061 6.86791C11.8926 6.87293 11.8788 6.87804 11.8651 6.88256Z" fill="#414196"/>
<path d="M11.0744 6.93088L11.1181 6.92876L11.0749 6.92926L11.0744 6.93088ZM11.5204 6.92499L11.6966 7.11538C11.7022 7.04924 11.7123 6.98355 11.7268 6.91878C11.7182 6.9203 11.7096 6.92191 11.7009 6.92317L11.5204 6.92499ZM11.9508 7.42966C11.951 7.42879 11.9867 7.27994 11.9229 7.16357C11.8814 7.08789 11.851 7.0298 11.8349 6.99834L11.7989 7.13562C11.7989 7.13562 11.887 7.23421 11.9218 7.30541C11.94 7.34437 11.9499 7.38668 11.9508 7.42966ZM13.2249 7.1368C13.2249 7.1368 13.301 6.97619 13.3069 6.8661C13.3106 6.79941 13.3132 6.73907 13.3149 6.7028C13.2716 6.74653 13.182 6.84544 13.1944 6.90021C13.2106 6.97137 13.2249 7.1368 13.2249 7.1368ZM13.4994 6.56097C13.4643 6.52661 13.4172 6.48509 13.3734 6.4633C13.2912 6.42271 13.2799 6.47196 13.2799 6.47196C13.2799 6.47196 13.2098 6.22944 13.118 6.13657C13.0262 6.0437 12.9515 6.01351 12.9515 6.01351C12.9515 6.01351 13.0767 6.15714 13.1319 6.33794C13.1871 6.51875 13.159 6.79965 13.159 6.79965C13.159 6.79965 13.3025 6.56311 13.335 6.5739C13.3674 6.5847 13.4544 6.67818 13.4544 6.67818C13.4771 6.64251 13.4923 6.60267 13.4993 6.56101L13.4994 6.56097ZM12.8706 7.26743L12.8657 7.22153C12.868 7.23816 12.8685 7.25498 12.8673 7.27172L12.8706 7.26743ZM12.8656 7.22102C12.8656 7.22102 12.9315 7.06321 12.9151 6.97005C12.9028 6.89957 12.8867 6.83653 12.8795 6.80983C12.801 6.83445 12.7559 6.90648 12.7559 6.90648C12.7559 6.90648 12.843 7.08969 12.8572 7.16566C12.8611 7.1883 12.8637 7.20669 12.8652 7.22157L12.8656 7.22102ZM13.0323 6.67236C13.0269 6.62409 13.0099 6.56888 12.9625 6.54948C12.8721 6.51223 12.8342 6.54084 12.8342 6.54084C12.8342 6.54084 12.8367 6.37635 12.716 6.24556C12.6589 6.18355 12.5829 6.13916 12.5184 6.10942L12.5101 6.15965C12.5601 6.20721 12.6146 6.2683 12.6482 6.33505C12.7246 6.48576 12.6917 6.85757 12.6917 6.85757C12.6917 6.85757 12.8298 6.68527 12.9003 6.66417C12.9708 6.64307 12.9974 6.72072 12.9974 6.72072C13.0107 6.70617 13.0223 6.69012 13.0319 6.67291L13.0323 6.67236ZM12.348 7.39498C12.348 7.39498 12.4391 7.15457 12.428 7.05734C12.4199 6.98819 12.3882 6.89312 12.3703 6.84396L12.3677 6.84567C12.3426 6.86073 12.3217 6.88173 12.3067 6.9068C12.2917 6.93188 12.2831 6.96027 12.2817 6.98945C12.2817 6.98945 12.3449 7.12307 12.3531 7.23057C12.3578 7.28539 12.3561 7.34056 12.348 7.39498ZM12.5374 6.6901L12.5363 6.6856C12.5363 6.6856 12.4393 6.55021 12.3098 6.61573L12.2908 6.62539C12.249 6.67025 12.202 6.71 12.1509 6.74381C12.1342 6.75462 12.1169 6.76513 12.0988 6.77582C12.1109 6.84933 12.1291 6.92173 12.153 6.99229C12.153 6.99229 12.2309 6.76267 12.3158 6.71722C12.4008 6.67177 12.4952 6.74663 12.4952 6.74663C12.5117 6.72981 12.5259 6.7108 12.5372 6.69014L12.5374 6.6901Z" fill="#24247A"/>
<path d="M1.33042 7.94924L1.39044 8.06174L3.8795 7.81932L1.91917 7.80631L1.33042 7.94924Z" fill="#30BDEF"/>
</svg>
