<svg viewBox="0 0 20 24"  xmlns="http://www.w3.org/2000/svg" style="display:none">

	<symbol viewBox="0 0 18 18" id="search">
		<path d="M17.425 16.3951L13.141 11.9395C14.2425 10.6301 14.846 8.98262 14.846 7.26749C14.846 3.26026 11.5858 0 7.57853 0C3.5713 0 0.311035 3.26026 0.311035 7.26749C0.311035 11.2747 3.5713 14.535 7.57853 14.535C9.0829 14.535 10.5165 14.0812 11.7422 13.2199L16.0587 17.7093C16.2392 17.8967 16.4818 18 16.7419 18C16.988 18 17.2215 17.9062 17.3988 17.7355C17.7755 17.3731 17.7875 16.7721 17.425 16.3951ZM7.57853 1.89587C10.5405 1.89587 12.9502 4.30552 12.9502 7.26749C12.9502 10.2295 10.5405 12.6391 7.57853 12.6391C4.61655 12.6391 2.2069 10.2295 2.2069 7.26749C2.2069 4.30552 4.61655 1.89587 7.57853 1.89587Z" fill="white"/>
	</symbol>

	<symbol viewBox="0 0 24 24" id="game-controller">
		<path d="M21.75 10.275C21.225 6.975 18.375 4.5 15.075 4.5H9C5.625 4.5 2.775 6.975 2.25 10.275C1.725 13.8 1.5 15.375 1.5 15.975C1.5 19.65 6.525 20.85 8.175 17.55L9.45 15H14.55L15.825 17.55C17.475 20.85 22.5 19.65 22.5 15.975C22.5 15.45 22.5 16.125 21.75 10.275ZM21 15.975C21 18.075 18.075 18.825 17.175 16.875L15.675 13.875C15.525 13.65 15.3 13.5 15 13.5H9C8.7 13.5 8.475 13.65 8.325 13.95L6.825 16.95C5.925 18.825 3 18.075 3 15.975L3.75 10.5C4.125 7.95 6.375 6 8.925 6H15C17.625 6 19.8 7.95 20.175 10.5C20.25 10.575 21.075 16.35 21 15.975Z" fill="white"/>
		<path d="M10.5 9.75C10.5 10.2 10.2 10.5 9.75 10.5H9V11.25C9 11.7 8.7 12 8.25 12C7.8 12 7.5 11.7 7.5 11.25V10.5H6.75C6.3 10.5 6 10.2 6 9.75C6 9.3 6.3 9 6.75 9H7.5V8.25C7.5 7.8 7.8 7.5 8.25 7.5C8.7 7.5 9 7.8 9 8.25V9H9.75C10.2 9 10.5 9.3 10.5 9.75Z" fill="white"/>
		<path d="M15 9.75C15 10.2 14.7 10.5 14.25 10.5C13.8 10.5 13.5 10.2 13.5 9.75C13.5 9.3 13.8 9 14.25 9C14.7 9 15 9.3 15 9.75Z" fill="white"/>
		<path d="M16.5 11.25C16.5 11.7 16.2 12 15.75 12C15.3 12 15 11.7 15 11.25C15 10.8 15.3 10.5 15.75 10.5C16.2 10.5 16.5 10.8 16.5 11.25Z" fill="white"/>
		<path d="M18 9.75C18 10.2 17.7 10.5 17.25 10.5C16.8 10.5 16.5 10.2 16.5 9.75C16.5 9.3 16.8 9 17.25 9C17.7 9 18 9.3 18 9.75Z" fill="white"/>
		<path d="M15 8.25C15 7.8 15.3 7.5 15.75 7.5C16.2 7.5 16.5 7.8 16.5 8.25C16.5 8.7 16.2 9 15.75 9C15.3 9 15 8.7 15 8.25Z" fill="white"/>
	</symbol>

	<symbol viewBox="0 0 24 24" id="credit-card">
		<path d="M23.8597 10.0434C24.1472 9.28983 23.9884 8.40352 23.3821 7.79724L16.2023 0.61735C15.3798 -0.205118 14.0415 -0.205025 13.2191 0.61735L5.1472 8.68932H2.10938C0.946266 8.68932 0 9.63558 0 10.7987V21.8901C0 23.0532 0.946266 23.9995 2.10938 23.9995H21.8906C23.0537 23.9995 24 23.0532 24 21.8901V10.7987C24 10.5326 23.95 10.2781 23.8597 10.0434V10.0434ZM22.3325 8.73624C22.1899 8.70573 22.0422 8.68932 21.8906 8.68932H20.367L21.3263 7.73007L22.3325 8.73624ZM20.3319 6.73571L18.3783 8.68932H16.3895L19.3375 5.7413L20.3319 6.73571ZM14.2135 1.61171C14.3506 1.47465 14.5307 1.40607 14.7107 1.40607C14.8908 1.40607 15.0708 1.47465 15.2079 1.61171L18.3432 4.74699L14.4008 8.68937H7.13587L14.2135 1.61171ZM22.5938 21.8901C22.5938 22.2778 22.2783 22.5932 21.8906 22.5932H2.10938C1.72167 22.5932 1.40625 22.2778 1.40625 21.8901V10.7987C1.40625 10.411 1.72167 10.0956 2.10938 10.0956H21.8906C22.2783 10.0956 22.5938 10.411 22.5938 10.7987V21.8901Z"/>
		<path d="M2.76562 19.0587H6.04233V20.4649H2.76562V19.0587Z"/>
		<path d="M7.82959 19.0587H11.1062V20.4649H7.82959V19.0587Z"/>
		<path d="M12.8936 19.0587H16.1702V20.4649H12.8936V19.0587Z"/>
		<path d="M17.9575 19.0587H21.2342V20.4649H17.9575V19.0587Z"/>
		<path d="M6.38752 11.9706H3.98438C3.3382 11.9706 2.8125 12.4963 2.8125 13.1425V15.0175C2.8125 15.6636 3.3382 16.1893 3.98438 16.1893H6.38752C7.03369 16.1893 7.55939 15.6636 7.55939 15.0175V13.1425C7.55939 12.4963 7.03369 11.9706 6.38752 11.9706ZM6.15314 14.7831H4.21875V13.3768H6.15314V14.7831Z"/>
	</symbol>
		
	<symbol viewBox="0 0 24 24" id="drop-down">
		<path d="M6 9L12 15L18 9" stroke="white" stroke-width="2" stroke-linecap="round" stroke-linejoin="round"/>
	</symbol>

	<symbol viewBox="0 0 18 18" id="close">
		<path d="M9.81,8.75l7.47-7.47A.75.75,0,0,0,16.22.22L8.75,7.69,1.28.22A.75.75,0,0,0,.22,1.28L7.69,8.75.22,16.22a.75.75,0,0,0,0,1.06.75.75,0,0,0,1.06,0L8.75,9.81l7.47,7.47a.75.75,0,0,0,1.06,0,.75.75,0,0,0,0-1.06Z"></path>	
	</symbol>

	<symbol viewBox="0 0 20 19" id="user">
		<path d="M19.59,17.63a11.23,11.23,0,0,0-4.12-4.12,10.61,10.61,0,0,0-2.22-.95,6.74,6.74,0,1,0-6.82,0,10.2,10.2,0,0,0-2.21.94A11.23,11.23,0,0,0,.1,17.63a.75.75,0,0,0,.27,1,.76.76,0,0,0,1-.27A9.7,9.7,0,0,1,5,14.81a9.91,9.91,0,0,1,9.75,0,9.7,9.7,0,0,1,3.57,3.57.75.75,0,0,0,.65.37.71.71,0,0,0,.37-.1A.75.75,0,0,0,19.59,17.63ZM4.59,6.75A5.25,5.25,0,1,1,9.84,12,5.26,5.26,0,0,1,4.59,6.75Z"></path>	
	</symbol>

	<symbol viewBox="0 0 18 18" id="discord">
		<path d="M15.7706 4.52C14.5321 3.56 13.0459 3.08 11.4771 3L11.2294 3.24C12.633 3.56 13.8716 4.2 15.0275 5.08C13.6239 4.36 12.055 3.88 10.4037 3.72C9.90826 3.64 9.49541 3.64 9 3.64C8.50459 3.64 8.09174 3.64 7.59633 3.72C5.94495 3.88 4.37615 4.36 2.97248 5.08C4.12844 4.2 5.36697 3.56 6.77064 3.24L6.52294 3C4.95413 3.08 3.46789 3.56 2.22936 4.52C0.825688 7.08 0.0825688 9.96 0 12.92C1.23853 14.2 2.97248 15 4.78899 15C4.78899 15 5.36697 14.36 5.77982 13.8C4.70642 13.56 3.7156 13 3.05505 12.12C3.63303 12.44 4.21101 12.76 4.78899 13C5.53211 13.32 6.27523 13.48 7.01835 13.64C7.6789 13.72 8.33945 13.8 9 13.8C9.66055 13.8 10.3211 13.72 10.9817 13.64C11.7248 13.48 12.4679 13.32 13.211 13C13.789 12.76 14.367 12.44 14.945 12.12C14.2844 13 13.2936 13.56 12.2202 13.8C12.633 14.36 13.211 15 13.211 15C15.0275 15 16.7615 14.2 18 12.92C17.9174 9.96 17.1743 7.08 15.7706 4.52ZM6.27523 11.48C5.44954 11.48 4.70642 10.76 4.70642 9.88C4.70642 9 5.44954 8.28 6.27523 8.28C7.10092 8.28 7.84404 9 7.84404 9.88C7.84404 10.76 7.10092 11.48 6.27523 11.48ZM11.7248 11.48C10.8991 11.48 10.156 10.76 10.156 9.88C10.156 9 10.8991 8.28 11.7248 8.28C12.5505 8.28 13.2936 9 13.2936 9.88C13.2936 10.76 12.5505 11.48 11.7248 11.48Z"></path>
	</symbol>
	
	<symbol viewBox="0 0 18 19" id="facebook">
		<path d="M10.4646 18.2475V10.0369H13.3593L13.7927 6.83703H10.4646V4.79404C10.4646 3.86763 10.7348 3.23623 12.1303 3.23623L13.91 3.23545V0.373568C13.602 0.334715 12.5457 0.24762 11.3166 0.24762C8.75069 0.24762 6.99399 1.73875 6.99399 4.47729V6.83712H4.0918V10.037H6.9939V18.2476L10.4646 18.2475Z"></path>
	</symbol>

	<symbol viewBox="0 0 18 18" id="instagram">
		<path d="M6.00072 9C6.00072 7.34321 7.3435 5.99976 9.00036 5.99976C10.6572 5.99976 12.0007 7.34321 12.0007 9C12.0007 10.6568 10.6572 12.0002 9.00036 12.0002C7.3435 12.0002 6.00072 10.6568 6.00072 9ZM4.37878 9C4.37878 11.5524 6.44786 13.6214 9.00036 13.6214C11.5529 13.6214 13.6219 11.5524 13.6219 9C13.6219 6.4476 11.5529 4.37861 9.00036 4.37861C6.44786 4.37861 4.37878 6.4476 4.37878 9ZM12.7249 4.19537C12.7248 4.40897 12.788 4.6178 12.9066 4.79546C13.0252 4.97311 13.1939 5.1116 13.3912 5.19342C13.5885 5.27525 13.8057 5.29672 14.0152 5.25513C14.2247 5.21354 14.4172 5.11076 14.5683 4.95978C14.7194 4.8088 14.8223 4.6164 14.8641 4.40692C14.9059 4.19744 14.8846 3.98028 14.8029 3.7829C14.7212 3.58552 14.5829 3.4168 14.4053 3.29805C14.2277 3.17931 14.0189 3.11589 13.8053 3.1158C13.519 3.11593 13.244 3.2297 13.0415 3.43212C12.839 3.63454 12.7251 3.90905 12.7249 4.19537ZM5.36421 16.3258C4.48672 16.2858 4.00977 16.1397 3.69281 16.0162C3.2726 15.8526 2.97278 15.6578 2.65755 15.343C2.34233 15.0282 2.1472 14.7287 1.98433 14.3085C1.86077 13.9917 1.7146 13.5146 1.67472 12.6372C1.63108 11.6885 1.62237 11.4035 1.62237 9.00007C1.62237 6.59664 1.6318 6.31246 1.67472 5.36299C1.71468 4.48553 1.86192 4.00939 1.98433 3.69166C2.14792 3.27146 2.34276 2.97166 2.65755 2.65644C2.97235 2.34122 3.27188 2.1461 3.69281 1.98324C4.00962 1.85969 4.48672 1.71353 5.36421 1.67364C6.31292 1.63001 6.59791 1.6213 9.00036 1.6213C11.4028 1.6213 11.6881 1.63073 12.6376 1.67364C13.5151 1.7136 13.9912 1.86084 14.309 1.98324C14.7292 2.1461 15.029 2.34166 15.3442 2.65644C15.6595 2.97122 15.8539 3.27146 16.0175 3.69166C16.141 4.00846 16.2872 4.48553 16.3271 5.36299C16.3707 6.31246 16.3794 6.59664 16.3794 9.00007C16.3794 11.4035 16.3707 11.6877 16.3271 12.6372C16.2871 13.5146 16.1402 13.9915 16.0175 14.3085C15.8539 14.7287 15.659 15.0285 15.3442 15.343C15.0295 15.6575 14.7292 15.8526 14.309 16.0162C13.9922 16.1397 13.5151 16.2859 12.6376 16.3258C11.6889 16.3694 11.4039 16.3781 9.00036 16.3781C6.59683 16.3781 6.31264 16.3694 5.36421 16.3258ZM5.28969 0.054504C4.33155 0.098136 3.67683 0.250056 3.10505 0.472536C2.5129 0.702288 2.01162 1.01052 1.51069 1.51063C1.00977 2.01074 0.702316 2.5128 0.472555 3.10493C0.250066 3.67704 0.0981399 4.33138 0.0545062 5.28948C0.0101524 6.2491 0 6.55589 0 9C0 11.4441 0.0101524 11.7509 0.0545062 12.7105C0.0981399 13.6687 0.250066 14.323 0.472555 14.8951C0.702316 15.4868 1.00984 15.9895 1.51069 16.4894C2.01154 16.9893 2.5129 17.2971 3.10505 17.5275C3.67791 17.7499 4.33155 17.9019 5.28969 17.9455C6.24985 17.9891 6.55615 18 9.00036 18C11.4446 18 11.7514 17.9898 12.711 17.9455C13.6692 17.9019 14.3235 17.7499 14.8957 17.5275C15.4875 17.2971 15.9891 16.9895 16.49 16.4894C16.991 15.9893 17.2978 15.4868 17.5282 14.8951C17.7507 14.323 17.9033 13.6686 17.9462 12.7105C17.9898 11.7502 18 11.4441 18 9C18 6.55589 17.9898 6.2491 17.9462 5.28948C17.9026 4.3313 17.7507 3.67668 17.5282 3.10493C17.2978 2.51316 16.9902 2.01154 16.49 1.51063C15.9899 1.00973 15.4875 0.702288 14.8964 0.472536C14.3235 0.250056 13.6692 0.097416 12.7117 0.054504C11.7521 0.010872 11.4453 0 9.00108 0C6.55687 0 6.24985 0.010152 5.28969 0.054504Z"></path>
	</symbol>

	<symbol viewBox="0 0 16 16" id="tiktok">
		<path d="M9 0h1.98c.144.715.54 1.617 1.235 2.512C12.895 3.389 13.797 4 15 4v2c-1.753 0-3.07-.814-4-1.829V11a5 5 0 1 1-5-5v2a3 3 0 1 0 3 3V0Z" fill="white"></path>
	</symbol>

	<symbol viewBox="0 0 16 16" id="youtube">
		<path d="M8.051 1.999h.089c.822.003 4.987.033 6.11.335a2.01 2.01 0 0 1 1.415 1.42c.101.38.172.883.22 1.402l.01.104.022.26.008.104c.065.914.073 1.77.074 1.957v.075c-.001.194-.01 1.108-.082 2.06l-.008.105-.009.104c-.05.572-.124 1.14-.235 1.558a2.007 2.007 0 0 1-1.415 1.42c-1.16.312-5.569.334-6.18.335h-.142c-.309 0-1.587-.006-2.927-.052l-.17-.006-.087-.004-.171-.007-.171-.007c-1.11-.049-2.167-.128-2.654-.26a2.007 2.007 0 0 1-1.415-1.419c-.111-.417-.185-.986-.235-1.558L.09 9.82l-.008-.104A31.4 31.4 0 0 1 0 7.68v-.123c.002-.215.01-.958.064-1.778l.007-.103.003-.052.008-.104.022-.26.01-.104c.048-.519.119-1.023.22-1.402a2.007 2.007 0 0 1 1.415-1.42c.487-.13 1.544-.21 2.654-.26l.17-.007.172-.006.086-.003.171-.007A99.788 99.788 0 0 1 7.858 2h.193zM6.4 5.209v4.818l4.157-2.408L6.4 5.209z" fill="white"></path>
	</symbol>

	<symbol viewBox="0 0 12 12" id="heart">
		<path d="M11.048 1.70105C10.4268 1.02731 9.57449 0.65625 8.6478 0.65625C7.95511 0.65625 7.32074 0.875244 6.76227 1.3071C6.48047 1.52509 6.22513 1.79178 6 2.10306C5.77496 1.79187 5.51953 1.52509 5.23764 1.3071C4.67926 0.875244 4.04489 0.65625 3.3522 0.65625C2.42551 0.65625 1.57306 1.02731 0.951874 1.70105C0.338104 2.36691 0 3.27658 0 4.2626C0 5.27747 0.378204 6.20645 1.19019 7.18625C1.91656 8.06268 2.96054 8.95239 4.16949 9.98264C4.58231 10.3345 5.05023 10.7333 5.5361 11.1581C5.66446 11.2705 5.82916 11.3324 6 11.3324C6.17075 11.3324 6.33554 11.2705 6.46371 11.1583C6.94958 10.7334 7.41779 10.3344 7.83078 9.98236C9.03955 8.9523 10.0835 8.06268 10.8099 7.18616C11.6219 6.20645 12 5.27747 12 4.26251C12 3.27658 11.6619 2.36691 11.048 1.70105Z"/>
	</symbol>

	<symbol viewBox="0 0 25 11" id="views">
		<path d="M24.2676 1.78466H22.5361C21.618 0.914642 20.3789 0.380219 19.0172 0.380219C17.4148 0.380219 15.9823 1.12036 15.0428 2.27651C14.3267 1.70932 13.4385 1.3957 12.5 1.3957C11.5614 1.3957 10.6732 1.70932 9.95713 2.27651C9.01763 1.12036 7.58511 0.380219 5.98271 0.380219C4.62105 0.380219 3.38193 0.914691 2.46382 1.78466H0.732422C0.32793 1.78466 0 2.11259 0 2.51708C0 2.92158 0.32793 3.24951 0.732422 3.24951H1.38496C1.05098 3.92914 0.862988 4.69296 0.862988 5.49999C0.862988 8.32304 3.15972 10.6198 5.98276 10.6198C8.80581 10.6198 11.1025 8.32304 11.1025 5.49999C11.1025 4.81098 10.9654 4.15346 10.7175 3.55287C11.2006 3.10893 11.8303 2.86049 12.5 2.86049C13.1698 2.86049 13.7995 3.10893 14.2826 3.55287C14.0347 4.15346 13.8976 4.81098 13.8976 5.49999C13.8976 8.32304 16.1943 10.6198 19.0173 10.6198C21.8404 10.6198 24.1371 8.32304 24.1371 5.49999C24.1371 4.69296 23.9492 3.92914 23.6151 3.24951H24.2676C24.6721 3.24951 25 2.92158 25 2.51708C25 2.11259 24.6721 1.78466 24.2676 1.78466Z" fill="#D9D9D9"/>
	</symbol>

	<symbol viewBox="0 0 17 17" id="eye">
		<path d="M8.50006 11.1186C9.94548 11.1186 11.1172 9.94689 11.1172 8.50146C11.1172 7.05603 9.94548 5.88428 8.50006 5.88428C7.05463 5.88428 5.88287 7.05603 5.88287 8.50146C5.88287 9.94689 7.05463 11.1186 8.50006 11.1186Z" fill="#D9D9D9"/>
		<path d="M16.7393 7.77649C14.7275 5.34546 11.6823 3.00537 8.50006 3.00537C5.31724 3.00537 2.27127 5.34709 0.260849 7.77649C-0.086909 8.19655 -0.086909 8.80635 0.260849 9.22641C0.766292 9.8372 1.82592 11.0162 3.24116 12.0464C6.80541 14.6411 10.1869 14.6468 13.759 12.0464C15.1742 11.0162 16.2338 9.8372 16.7393 9.22641C17.086 8.80717 17.0878 8.19792 16.7393 7.77649ZM8.50006 4.8374C10.5205 4.8374 12.1641 6.48099 12.1641 8.50145C12.1641 10.5219 10.5205 12.1655 8.50006 12.1655C6.4796 12.1655 4.83601 10.5219 4.83601 8.50145C4.83601 6.48099 6.4796 4.8374 8.50006 4.8374Z" fill="#D9D9D9"/>
	</symbol>
		
	<symbol viewBox="0 0 22 22" id="star">
		<path d="M21.4334 9.31255L16.7616 13.8666L17.8649 20.2986C17.9129 20.5798 17.7974 20.864 17.5664 21.0321C17.4359 21.1273 17.2806 21.1753 17.1254 21.1753C17.0061 21.1753 16.8861 21.1468 16.7766 21.0891L11.0001 18.0523L5.22437 21.0883C4.97237 21.2218 4.66562 21.2001 4.43462 21.0313C4.20362 20.8633 4.08812 20.5791 4.13612 20.2978L5.23937 13.8658L0.566868 9.31255C0.362868 9.11305 0.288618 8.81455 0.377118 8.5438C0.465618 8.27305 0.700368 8.0743 0.983118 8.03305L7.43987 7.09555L10.3274 1.24405C10.5801 0.731801 11.4201 0.731801 11.6729 1.24405L14.5604 7.09555L21.0171 8.03305C21.2999 8.0743 21.5346 8.2723 21.6231 8.5438C21.7116 8.8153 21.6374 9.1123 21.4334 9.31255Z"/>
	</symbol>

	<symbol viewBox="0 0 13 13" id="calendar">
		<path d="M10.2917 2.16675H2.70833C2.11002 2.16675 1.625 2.65177 1.625 3.25008V10.8334C1.625 11.4317 2.11002 11.9167 2.70833 11.9167H10.2917C10.89 11.9167 11.375 11.4317 11.375 10.8334V3.25008C11.375 2.65177 10.89 2.16675 10.2917 2.16675Z" stroke="#007CEE" stroke-linecap="round" stroke-linejoin="round"/>
		<path d="M8.6665 1.08325V3.24992" stroke="#007CEE" stroke-linecap="round" stroke-linejoin="round"/>
		<path d="M4.3335 1.08325V3.24992" stroke="#007CEE" stroke-linecap="round" stroke-linejoin="round"/>
		<path d="M1.625 5.41675H11.375" stroke="#007CEE" stroke-linecap="round" stroke-linejoin="round"/>
	</symbol>
	
	<symbol viewBox="0 0 12 12" id="comment">
		<path d="M6 0.468752C2.94518 0.468752 0.46875 2.94518 0.46875 6C0.46875 7.07543 0.775992 8.07895 1.30702 8.92821L0.46875 11.5312L3.07179 10.693C3.92105 11.224 4.92457 11.5312 6 11.5312C9.05482 11.5312 11.5312 9.05482 11.5312 6C11.5312 2.94518 9.05482 0.468752 6 0.468752Z" stroke="#007CEE" stroke-miterlimit="10" stroke-linecap="round" stroke-linejoin="round"/>
	</symbol>

	<symbol viewBox="0 0 30 24" id="comment-2">
		<path d="M0 24H6H18C24.6172 24 30 18.6172 30 12C30 5.38284 24.6172 0 18 0C11.3828 0 6 5.38284 6 12C6 14.698 6.90622 17.3047 8.56249 19.4128C8.24089 20.5364 1.21484 24 0 24Z" fill="#DF4860"/>
	</symbol>

	<symbol viewBox="0 0 10 16" id="next-arrow">
		<path d="M1 13.5L7 7.5L0.999999 1.5" stroke="white" stroke-width="2"/>
	</symbol>

	<symbol viewBox="0 0 9 15" id="prev-arrow">
		<path d="M9 15L2 8L9 1" stroke="white" stroke-width="2"/>
	</symbol>

	<symbol viewBox="0 0 15 8" id="top-arrow">
		<path d="M1.23193 6.89296L7.49979 1.32153L13.7676 6.89296" stroke="white" stroke-width="1.6" stroke-linecap="round" stroke-linejoin="round"/>
	</symbol>

	<symbol viewBox="0 0 22 22" id="document">
		<path d="M4.55469 22H17.4453C18.5115 22 19.3789 21.1326 19.3789 20.0664V6.44531H14.8672C13.801 6.44531 12.9336 5.57795 12.9336 4.51172V0H4.55469C3.48846 0 2.62109 0.867367 2.62109 1.93359V20.0664C2.62109 21.1326 3.48846 22 4.55469 22ZM7.13281 9.06641H14.8672C15.2234 9.06641 15.5117 9.35468 15.5117 9.71094C15.5117 10.0672 15.2234 10.3555 14.8672 10.3555H7.13281C6.77656 10.3555 6.48828 10.0672 6.48828 9.71094C6.48828 9.35468 6.77656 9.06641 7.13281 9.06641ZM7.13281 11.6445H14.8672C15.2234 11.6445 15.5117 11.9328 15.5117 12.2891C15.5117 12.6453 15.2234 12.9336 14.8672 12.9336H7.13281C6.77656 12.9336 6.48828 12.6453 6.48828 12.2891C6.48828 11.9328 6.77656 11.6445 7.13281 11.6445ZM7.13281 14.2227H14.8672C15.2234 14.2227 15.5117 14.5109 15.5117 14.8672C15.5117 15.2234 15.2234 15.5117 14.8672 15.5117H7.13281C6.77656 15.5117 6.48828 15.2234 6.48828 14.8672C6.48828 14.5109 6.77656 14.2227 7.13281 14.2227ZM7.13281 16.8008H12.2891C12.6453 16.8008 12.9336 17.0891 12.9336 17.4453C12.9336 17.8016 12.6453 18.0898 12.2891 18.0898H7.13281C6.77656 18.0898 6.48828 17.8016 6.48828 17.4453C6.48828 17.0891 6.77656 16.8008 7.13281 16.8008Z" fill="#007CEE"/>
		<path d="M14.8672 5.15622H19.0013L14.2227 0.377625V4.51169C14.2227 4.8673 14.5116 5.15622 14.8672 5.15622Z" fill="#007CEE"/>
	</symbol>
	
	<symbol viewBox="0 0 18 18" id="like">
		<path d="M15.0578 6.64116H11.0933L11.961 4.47216C12.0851 4.16315 12.1157 3.8245 12.049 3.49824C11.9824 3.17199 11.8214 2.87249 11.586 2.63691C11.4536 2.50468 11.2941 2.40283 11.1184 2.33846C10.9427 2.27409 10.7551 2.24873 10.5686 2.26415C10.3821 2.27956 10.2013 2.33538 10.0385 2.42773C9.8758 2.52007 9.73511 2.64673 9.62625 2.79891L7.308 6.04266C6.962 6.52589 6.57723 6.98014 6.1575 7.40091L5.415 8.14341C5.38119 8.17718 5.35438 8.21728 5.33611 8.26142C5.31783 8.30557 5.30845 8.35289 5.3085 8.40066V13.9814C5.30845 14.0781 5.34675 14.1709 5.415 14.2394L6.24675 15.0749C6.45863 15.2879 6.71064 15.4567 6.98819 15.5717C7.26574 15.6867 7.56333 15.7455 7.86375 15.7447H12.3833C12.7401 15.7444 13.0892 15.6407 13.3884 15.4463C13.6876 15.2518 13.9241 14.9749 14.0693 14.6489L16.2863 9.66066C16.4281 9.34254 16.501 8.99798 16.5 8.64966V8.08416C16.4996 7.70171 16.3476 7.33502 16.0772 7.06451C15.8068 6.794 15.4402 6.64176 15.0578 6.64116Z"/>
		<path d="M2.81025 7.65527C2.46275 7.65527 2.12948 7.79332 1.88376 8.03904C1.63804 8.28476 1.5 8.61802 1.5 8.96552V13.8923C1.5 14.2398 1.63804 14.573 1.88376 14.8188C2.12948 15.0645 2.46275 15.2025 2.81025 15.2025C3.15775 15.2025 3.49102 15.0645 3.73674 14.8188C3.98246 14.573 4.1205 14.2398 4.1205 13.8923V8.96552C4.1205 8.61802 3.98246 8.28476 3.73674 8.03904C3.49102 7.79332 3.15775 7.65527 2.81025 7.65527Z"/>
	</symbol>

	<symbol viewBox="0 0 18 18" id="dislike">
		<path d="M15.0578 11.3588H11.0933L11.961 13.5278C12.0851 13.8369 12.1157 14.1755 12.049 14.5018C11.9824 14.828 11.8214 15.1275 11.586 15.3631C11.4536 15.4953 11.2941 15.5972 11.1184 15.6615C10.9427 15.7259 10.7551 15.7513 10.5686 15.7359C10.3821 15.7204 10.2013 15.6646 10.0385 15.5723C9.8758 15.4799 9.73511 15.3533 9.62625 15.2011L7.308 11.9573C6.962 11.4741 6.57723 11.0199 6.1575 10.5991L5.415 9.85659C5.38119 9.82282 5.35438 9.78272 5.33611 9.73858C5.31783 9.69443 5.30845 9.64711 5.3085 9.59934V4.01859C5.30845 3.92188 5.34675 3.82909 5.415 3.76059L6.24675 2.92509C6.45863 2.71211 6.71064 2.54326 6.98819 2.4283C7.26574 2.31334 7.56333 2.25455 7.86375 2.25534H12.3833C12.7401 2.25562 13.0892 2.35925 13.3884 2.55371C13.6876 2.74816 13.9241 3.02511 14.0693 3.35109L16.2863 8.33934C16.4281 8.65746 16.501 9.00202 16.5 9.35034V9.91584C16.4996 10.2983 16.3476 10.665 16.0772 10.9355C15.8068 11.206 15.4402 11.3582 15.0578 11.3588Z"/>
		<path d="M2.81025 10.3447C2.46275 10.3447 2.12948 10.2067 1.88376 9.96096C1.63804 9.71524 1.5 9.38198 1.5 9.03448V4.10773C1.5 3.76023 1.63804 3.42696 1.88376 3.18124C2.12948 2.93552 2.46275 2.79748 2.81025 2.79748C3.15775 2.79748 3.49102 2.93552 3.73674 3.18124C3.98246 3.42696 4.1205 3.76023 4.1205 4.10773V9.03448C4.1205 9.38198 3.98246 9.71524 3.73674 9.96096C3.49102 10.2067 3.15775 10.3447 2.81025 10.3447Z"/>
	</symbol>

	<symbol viewBox="0 0 10 10" id="send">
		<path d="M0.136781 9.54363C0.0546099 9.92122 0.344519 10.0811 0.613521 9.96047L9.70509 5.29864H9.70601C9.81445 5.23748 9.87742 5.12726 9.87742 5.00011C9.87742 4.87288 9.81445 4.76259 9.70601 4.70145H9.70509L0.613521 0.0395498C0.344519 -0.0810748 0.0546099 0.0788189 0.136781 0.456435C0.142341 0.482013 0.679826 2.87619 0.972058 4.1783L5.71801 5.00008L0.972058 5.82177C0.679826 7.1238 0.142317 9.51803 0.136781 9.54363Z"/>
	</symbol>

	<symbol viewBox="0 0 51 51" id="chat">
		<path d="M22.313 0.00183105C10.0099 0.00183105 0.00176353 8.15181 0.00176353 18.1696C0.00176353 23.2438 2.55162 28.0024 7.05211 31.4256C5.56364 33.7492 3.6385 36.1014 1.20976 36.7006C0.441614 36.8919 -0.0715448 37.6186 0.00813817 38.4058C0.0878212 39.1963 0.734847 39.8051 1.52849 39.8401C1.56355 39.8401 1.7006 39.8465 1.93009 39.8465C3.57794 39.8465 9.93983 39.582 17.1591 35.8369C18.8133 36.1715 20.544 36.3373 22.313 36.3373C34.6129 36.3373 44.6242 28.1873 44.6242 18.1696C44.6242 8.15181 34.6129 0.00183105 22.313 0.00183105Z" fill="#C45BFE"/>
		<path d="M49.788 47.738C47.7576 47.2376 46.2213 45.7523 45.1472 44.2798C48.8859 41.3506 50.9991 37.3219 50.9991 33.0286C50.9991 29.4333 49.4883 26.128 46.9799 23.4857C44.1464 32.6939 34.1796 39.5243 22.3133 39.5243C20.7292 39.5243 19.1642 39.4032 17.6438 39.1641C16.7386 39.6008 15.8526 39.9865 14.9824 40.3307C18.1984 45.271 24.5603 48.6464 31.8752 48.6464C33.3701 48.6464 34.8203 48.5094 36.1972 48.2416C40.771 50.5716 44.9432 51.0018 47.3975 50.9987C48.7425 50.9987 49.5712 50.8712 49.6636 50.8552C50.4095 50.7341 50.9673 50.103 50.9991 49.3476C51.0278 48.5922 50.5242 47.9165 49.788 47.738Z" fill="#C45BFE"/>
	</symbol>

</svg>