<svg width="186" height="64" viewBox="0 0 186 64" fill="none" xmlns="http://www.w3.org/2000/svg">
<path d="M93.7251 20.1209V21.4396C93.7251 23.7399 93.0146 25.5788 91.5936 26.956C90.1871 28.3187 88.3964 29 86.2214 29C83.8579 29 81.8932 28.2308 80.3272 26.6923C78.7757 25.1538 78 23.2637 78 21.022C78 18.7802 78.7685 16.8828 80.3055 15.3297C81.857 13.7766 83.7492 13 85.9822 13C87.4032 13 88.7009 13.3223 89.8754 13.967C91.0644 14.6117 91.9851 15.4615 92.6376 16.5165L89.6796 18.2308C89.3461 17.7033 88.8459 17.2711 88.1789 16.9341C87.5264 16.5971 86.7869 16.4286 85.9604 16.4286C84.6699 16.4286 83.5969 16.8608 82.7415 17.7253C81.9005 18.5897 81.48 19.696 81.48 21.044C81.48 22.3773 81.915 23.4689 82.785 24.3187C83.6549 25.1538 84.8149 25.5714 86.2649 25.5714C88.2804 25.5714 89.5781 24.7802 90.1581 23.1978H86.0909V20.1209H93.7251Z" fill="white"/>
<path d="M108.563 26.6923C107.026 28.2308 105.155 29 102.951 29C100.747 29 98.877 28.2308 97.34 26.6923C95.803 25.1538 95.0345 23.2564 95.0345 21C95.0345 18.7436 95.803 16.8462 97.34 15.3077C98.877 13.7692 100.747 13 102.951 13C105.155 13 107.026 13.7692 108.563 15.3077C110.1 16.8462 110.868 18.7436 110.868 21C110.868 23.2564 110.1 25.1538 108.563 26.6923ZM99.776 24.2967C100.631 25.1465 101.69 25.5714 102.951 25.5714C104.213 25.5714 105.264 25.1465 106.105 24.2967C106.961 23.4469 107.388 22.348 107.388 21C107.388 19.652 106.961 18.5531 106.105 17.7033C105.264 16.8535 104.213 16.4286 102.951 16.4286C101.69 16.4286 100.631 16.8535 99.776 17.7033C98.935 18.5531 98.5145 19.652 98.5145 21C98.5145 22.348 98.935 23.4469 99.776 24.2967Z" fill="white"/>
<path d="M118.918 13.3077C121.02 13.3077 122.775 14.0476 124.181 15.5275C125.602 16.9927 126.313 18.8168 126.313 21C126.313 23.1831 125.602 25.0147 124.181 26.4945C122.775 27.9597 121.02 28.6923 118.918 28.6923H112.828V13.3077H118.918ZM118.918 25.3077C120.121 25.3077 121.093 24.9194 121.832 24.1429C122.586 23.3516 122.963 22.304 122.963 21C122.963 19.696 122.586 18.6557 121.832 17.8791C121.093 17.0879 120.121 16.6923 118.918 16.6923H116.308V25.3077H118.918Z" fill="white"/>
<path d="M131.749 25.3077H137.187V28.6923H128.269V13.3077H131.749V25.3077Z" fill="white"/>
<path d="M138.719 13.3077H142.199V28.6923H138.719V13.3077Z" fill="white"/>
<path d="M157.126 28.6923H153.167L148.295 21.5714V28.6923H144.815V13.3077H148.295V19.989L152.95 13.3077H156.908L151.775 20.8022L157.126 28.6923Z" fill="white"/>
<path d="M161.91 25.3077H168V28.6923H158.43V13.3077H167.891V16.6923H161.91V19.2418H167.348V22.5824H161.91V25.3077Z" fill="white"/>
<rect x="174" y="7" width="12" height="4" fill="#0058B5"/>
<rect x="174" y="11" width="12" height="4" fill="#F7CE00"/>
<path d="M82.071 36.803H83.237V42.05C83.237 42.886 82.962 43.5276 82.412 43.975C81.862 44.4223 81.1947 44.646 80.41 44.646C79.1413 44.646 78.2723 44.2023 77.803 43.315L78.826 42.721C79.112 43.2856 79.6473 43.568 80.432 43.568C80.9453 43.568 81.345 43.4323 81.631 43.161C81.9243 42.897 82.071 42.5266 82.071 42.05V41.379C81.6237 42.017 80.9857 42.336 80.157 42.336C79.3797 42.336 78.7233 42.061 78.188 41.511C77.6527 40.9536 77.385 40.2826 77.385 39.498C77.385 38.7133 77.6527 38.046 78.188 37.496C78.7233 36.9386 79.3797 36.66 80.157 36.66C80.9857 36.66 81.6237 36.979 82.071 37.617V36.803ZM79.068 40.73C79.4053 41.06 79.8233 41.225 80.322 41.225C80.8207 41.225 81.235 41.06 81.565 40.73C81.9023 40.4 82.071 39.9893 82.071 39.498C82.071 39.0066 81.9023 38.596 81.565 38.266C81.235 37.936 80.8207 37.771 80.322 37.771C79.8233 37.771 79.4053 37.936 79.068 38.266C78.738 38.596 78.573 39.0066 78.573 39.498C78.573 39.9893 78.738 40.4 79.068 40.73ZM88.9777 36.803H90.1657V42.303H88.9777V41.511C88.5304 42.1343 87.8887 42.446 87.0527 42.446C86.2974 42.446 85.652 42.1673 85.1167 41.61C84.5814 41.0453 84.3137 40.3596 84.3137 39.553C84.3137 38.739 84.5814 38.0533 85.1167 37.496C85.652 36.9386 86.2974 36.66 87.0527 36.66C87.8887 36.66 88.5304 36.968 88.9777 37.584V36.803ZM85.9967 40.818C86.3267 41.148 86.741 41.313 87.2397 41.313C87.7384 41.313 88.1527 41.148 88.4827 40.818C88.8127 40.4806 88.9777 40.059 88.9777 39.553C88.9777 39.047 88.8127 38.629 88.4827 38.299C88.1527 37.9616 87.7384 37.793 87.2397 37.793C86.741 37.793 86.3267 37.9616 85.9967 38.299C85.6667 38.629 85.5017 39.047 85.5017 39.553C85.5017 40.059 85.6667 40.4806 85.9967 40.818ZM97.5564 36.66C98.1798 36.66 98.6821 36.8616 99.0634 37.265C99.4448 37.6683 99.6354 38.211 99.6354 38.893V42.303H98.4474V38.97C98.4474 38.5886 98.3521 38.2953 98.1614 38.09C97.9708 37.8773 97.7104 37.771 97.3804 37.771C97.0138 37.771 96.7204 37.892 96.5004 38.134C96.2878 38.376 96.1814 38.739 96.1814 39.223V42.303H94.9934V38.97C94.9934 38.5886 94.9018 38.2953 94.7184 38.09C94.5424 37.8773 94.2894 37.771 93.9594 37.771C93.6001 37.771 93.3068 37.8956 93.0794 38.145C92.8521 38.387 92.7384 38.7463 92.7384 39.223V42.303H91.5504V36.803H92.7384V37.463C93.0904 36.9276 93.6148 36.66 94.3114 36.66C95.0154 36.66 95.5361 36.9496 95.8734 37.529C96.2401 36.9496 96.8011 36.66 97.5564 36.66ZM101.842 40.059C101.93 40.477 102.132 40.7996 102.447 41.027C102.762 41.247 103.147 41.357 103.602 41.357C104.233 41.357 104.706 41.1296 105.021 40.675L106 41.247C105.457 42.0463 104.654 42.446 103.591 42.446C102.696 42.446 101.974 42.1746 101.424 41.632C100.874 41.082 100.599 40.389 100.599 39.553C100.599 38.7316 100.87 38.046 101.413 37.496C101.956 36.9386 102.652 36.66 103.503 36.66C104.31 36.66 104.97 36.9423 105.483 37.507C106.004 38.0716 106.264 38.7573 106.264 39.564C106.264 39.6886 106.249 39.8536 106.22 40.059H101.842ZM101.831 39.091H105.065C104.984 38.6436 104.797 38.3063 104.504 38.079C104.218 37.8516 103.881 37.738 103.492 37.738C103.052 37.738 102.685 37.859 102.392 38.101C102.099 38.343 101.912 38.673 101.831 39.091ZM111.126 38.321C111.126 38.5043 111.225 38.651 111.423 38.761C111.629 38.8636 111.874 38.9553 112.16 39.036C112.454 39.1093 112.747 39.1973 113.04 39.3C113.334 39.4026 113.579 39.5786 113.777 39.828C113.983 40.07 114.085 40.378 114.085 40.752C114.085 41.28 113.88 41.6943 113.469 41.995C113.066 42.2956 112.556 42.446 111.94 42.446C111.398 42.446 110.932 42.3323 110.543 42.105C110.155 41.8776 109.872 41.5623 109.696 41.159L110.719 40.565C110.91 41.093 111.317 41.357 111.94 41.357C112.564 41.357 112.875 41.1516 112.875 40.741C112.875 40.565 112.773 40.422 112.567 40.312C112.369 40.202 112.124 40.1103 111.83 40.037C111.544 39.9563 111.255 39.8646 110.961 39.762C110.668 39.6593 110.419 39.4906 110.213 39.256C110.015 39.014 109.916 38.7096 109.916 38.343C109.916 37.837 110.107 37.43 110.488 37.122C110.877 36.814 111.357 36.66 111.929 36.66C112.384 36.66 112.787 36.7626 113.139 36.968C113.499 37.166 113.774 37.4446 113.964 37.804L112.963 38.365C112.773 37.947 112.428 37.738 111.929 37.738C111.702 37.738 111.511 37.7893 111.357 37.892C111.203 37.9873 111.126 38.1303 111.126 38.321ZM115.925 40.059C116.013 40.477 116.215 40.7996 116.53 41.027C116.845 41.247 117.23 41.357 117.685 41.357C118.316 41.357 118.789 41.1296 119.104 40.675L120.083 41.247C119.54 42.0463 118.737 42.446 117.674 42.446C116.779 42.446 116.057 42.1746 115.507 41.632C114.957 41.082 114.682 40.389 114.682 39.553C114.682 38.7316 114.953 38.046 115.496 37.496C116.039 36.9386 116.735 36.66 117.586 36.66C118.393 36.66 119.053 36.9423 119.566 37.507C120.087 38.0716 120.347 38.7573 120.347 39.564C120.347 39.6886 120.332 39.8536 120.303 40.059H115.925ZM115.914 39.091H119.148C119.067 38.6436 118.88 38.3063 118.587 38.079C118.301 37.8516 117.964 37.738 117.575 37.738C117.135 37.738 116.768 37.859 116.475 38.101C116.182 38.343 115.995 38.673 115.914 39.091ZM122.58 37.727C122.881 37.045 123.446 36.704 124.274 36.704V37.991C123.82 37.9616 123.424 38.0716 123.086 38.321C122.749 38.563 122.58 38.9663 122.58 39.531V42.303H121.392V36.803H122.58V37.727ZM128.881 36.803H130.179L128.034 42.303H126.659L124.514 36.803H125.812L127.352 40.983L128.881 36.803ZM131.651 40.059C131.739 40.477 131.941 40.7996 132.256 41.027C132.572 41.247 132.957 41.357 133.411 41.357C134.042 41.357 134.515 41.1296 134.83 40.675L135.809 41.247C135.267 42.0463 134.464 42.446 133.4 42.446C132.506 42.446 131.783 42.1746 131.233 41.632C130.683 41.082 130.408 40.389 130.408 39.553C130.408 38.7316 130.68 38.046 131.222 37.496C131.765 36.9386 132.462 36.66 133.312 36.66C134.119 36.66 134.779 36.9423 135.292 37.507C135.813 38.0716 136.073 38.7573 136.073 39.564C136.073 39.6886 136.059 39.8536 136.029 40.059H131.651ZM131.64 39.091H134.874C134.794 38.6436 134.607 38.3063 134.313 38.079C134.027 37.8516 133.69 37.738 133.301 37.738C132.861 37.738 132.495 37.859 132.201 38.101C131.908 38.343 131.721 38.673 131.64 39.091ZM138.307 37.727C138.607 37.045 139.172 36.704 140.001 36.704V37.991C139.546 37.9616 139.15 38.0716 138.813 38.321C138.475 38.563 138.307 38.9663 138.307 39.531V42.303H137.119V36.803H138.307V37.727ZM80.586 48.66C81.2167 48.66 81.7263 48.8616 82.115 49.265C82.5037 49.6683 82.698 50.222 82.698 50.926V54.303H81.51V51.047C81.51 50.6363 81.4 50.321 81.18 50.101C80.96 49.881 80.6593 49.771 80.278 49.771C79.86 49.771 79.5227 49.903 79.266 50.167C79.0093 50.4236 78.881 50.8196 78.881 51.355V54.303H77.693V46.603H78.881V49.507C79.2403 48.9423 79.8087 48.66 80.586 48.66ZM86.5732 54.446C85.7665 54.446 85.0808 54.1673 84.5162 53.61C83.9515 53.0526 83.6692 52.367 83.6692 51.553C83.6692 50.739 83.9515 50.0533 84.5162 49.496C85.0808 48.9386 85.7665 48.66 86.5732 48.66C87.3872 48.66 88.0728 48.9386 88.6302 49.496C89.1948 50.0533 89.4772 50.739 89.4772 51.553C89.4772 52.367 89.1948 53.0526 88.6302 53.61C88.0728 54.1673 87.3872 54.446 86.5732 54.446ZM85.3522 52.796C85.6822 53.126 86.0892 53.291 86.5732 53.291C87.0572 53.291 87.4642 53.126 87.7942 52.796C88.1242 52.466 88.2892 52.0516 88.2892 51.553C88.2892 51.0543 88.1242 50.64 87.7942 50.31C87.4642 49.98 87.0572 49.815 86.5732 49.815C86.0892 49.815 85.6822 49.98 85.3522 50.31C85.0222 50.64 84.8572 51.0543 84.8572 51.553C84.8572 52.0516 85.0222 52.466 85.3522 52.796ZM91.511 50.321C91.511 50.5043 91.61 50.651 91.808 50.761C92.0133 50.8636 92.259 50.9553 92.545 51.036C92.8383 51.1093 93.1316 51.1973 93.425 51.3C93.7183 51.4026 93.964 51.5786 94.162 51.828C94.3673 52.07 94.47 52.378 94.47 52.752C94.47 53.28 94.2646 53.6943 93.854 53.995C93.4506 54.2956 92.941 54.446 92.325 54.446C91.7823 54.446 91.3166 54.3323 90.928 54.105C90.5393 53.8776 90.257 53.5623 90.081 53.159L91.104 52.565C91.2946 53.093 91.7016 53.357 92.325 53.357C92.9483 53.357 93.26 53.1516 93.26 52.741C93.26 52.565 93.1573 52.422 92.952 52.312C92.754 52.202 92.5083 52.1103 92.215 52.037C91.929 51.9563 91.6393 51.8646 91.346 51.762C91.0526 51.6593 90.8033 51.4906 90.598 51.256C90.4 51.014 90.301 50.7096 90.301 50.343C90.301 49.837 90.4916 49.43 90.873 49.122C91.2616 48.814 91.742 48.66 92.314 48.66C92.7686 48.66 93.172 48.7626 93.524 48.968C93.8833 49.166 94.1583 49.4446 94.349 49.804L93.348 50.365C93.1573 49.947 92.8126 49.738 92.314 49.738C92.0866 49.738 91.896 49.7893 91.742 49.892C91.588 49.9873 91.511 50.1303 91.511 50.321ZM98.3684 49.947H97.0044V52.587C97.0044 52.8143 97.0558 52.9793 97.1584 53.082C97.2611 53.1773 97.4114 53.2323 97.6094 53.247C97.8148 53.2543 98.0678 53.2506 98.3684 53.236V54.303C97.4591 54.413 96.8064 54.336 96.4104 54.072C96.0144 53.8006 95.8164 53.3056 95.8164 52.587V49.947H94.8044V48.803H95.8164V47.615L97.0044 47.263V48.803H98.3684V49.947ZM100.568 47.758C100.421 47.9046 100.245 47.978 100.04 47.978C99.8346 47.978 99.6549 47.9046 99.5009 47.758C99.3543 47.604 99.2809 47.4243 99.2809 47.219C99.2809 47.0136 99.3543 46.8376 99.5009 46.691C99.6476 46.537 99.8273 46.46 100.04 46.46C100.253 46.46 100.432 46.537 100.579 46.691C100.726 46.8376 100.799 47.0136 100.799 47.219C100.799 47.4243 100.722 47.604 100.568 47.758ZM99.4459 54.303V48.803H100.634V54.303H99.4459ZM104.906 48.66C105.537 48.66 106.047 48.8616 106.435 49.265C106.824 49.6683 107.018 50.222 107.018 50.926V54.303H105.83V51.047C105.83 50.6363 105.72 50.321 105.5 50.101C105.28 49.881 104.98 49.771 104.598 49.771C104.18 49.771 103.843 49.903 103.586 50.167C103.33 50.4236 103.201 50.8196 103.201 51.355V54.303H102.013V48.803H103.201V49.507C103.561 48.9423 104.129 48.66 104.906 48.66ZM112.675 48.803H113.841V54.05C113.841 54.886 113.566 55.5276 113.016 55.975C112.466 56.4223 111.799 56.646 111.014 56.646C109.746 56.646 108.877 56.2023 108.407 55.315L109.43 54.721C109.716 55.2856 110.252 55.568 111.036 55.568C111.55 55.568 111.949 55.4323 112.235 55.161C112.529 54.897 112.675 54.5266 112.675 54.05V53.379C112.228 54.017 111.59 54.336 110.761 54.336C109.984 54.336 109.328 54.061 108.792 53.511C108.257 52.9536 107.989 52.2826 107.989 51.498C107.989 50.7133 108.257 50.046 108.792 49.496C109.328 48.9386 109.984 48.66 110.761 48.66C111.59 48.66 112.228 48.979 112.675 49.617V48.803ZM109.672 52.73C110.01 53.06 110.428 53.225 110.926 53.225C111.425 53.225 111.839 53.06 112.169 52.73C112.507 52.4 112.675 51.9893 112.675 51.498C112.675 51.0066 112.507 50.596 112.169 50.266C111.839 49.936 111.425 49.771 110.926 49.771C110.428 49.771 110.01 49.936 109.672 50.266C109.342 50.596 109.177 51.0066 109.177 51.498C109.177 51.9893 109.342 52.4 109.672 52.73Z" fill="#007CEE"/>
<path d="M5.47397 7.90034C3.90931 22.1012 21.8772 54.0295 34.5507 63.4606H35.1946C35.1946 63.4606 41.1709 60.1215 46.1704 54.4125C49.9201 51.5431 51.9837 49.327 53.0638 47.7741C54.5031 45.35 55.3595 42.3356 56.359 38.9112C62.3976 23.6844 62.0485 20.2833 62.0485 19.5627C59.6244 15.3217 27.8089 2.06537 5.47397 7.90034Z" fill="#2697FF"/>
<path d="M15.8863 0.32939C15.6375 0.331592 15.3961 0.337933 15.1683 0.351744C14.9265 0.365645 14.6952 0.383216 14.4801 0.407938C14.1551 0.445544 13.8093 0.519752 13.4637 0.594678L13.4472 0.598254C13.2391 0.642901 13.0313 0.687461 12.849 0.720775L12.778 0.73402L12.7442 0.72753L11.1843 1.10898L12.2173 3.51268C12.5655 4.32054 13.1341 5.18752 13.7942 5.99066C14.5087 6.8614 15.3277 7.65571 16.0919 8.2272L16.6281 8.62701L16.6563 8.64648C16.8576 8.78717 17.0527 8.92193 17.2175 9.03303L17.909 9.50014L44.769 11.0416L41.2331 7.75361C40.839 7.44225 40.3304 7.14365 39.8675 6.87227L39.6983 6.77229C39.6142 6.7225 39.5266 6.67172 39.4377 6.62021L39.4329 6.61743C39.3689 6.5803 39.3042 6.54276 39.2397 6.5049C38.9189 6.3203 38.598 6.1339 38.2824 5.93541L35.3673 4.24132L35.5486 4.92669L34.8279 4.62073C34.4876 4.47639 34.1508 4.34141 33.8279 4.21628C33.6478 4.14654 33.463 4.07643 33.2754 4.00609C33.1266 3.95033 32.9761 3.89454 32.8247 3.83879C32.0679 3.56129 31.2876 3.31057 30.4934 3.08182C29.691 2.8499 28.896 2.64816 28.1142 2.47014C27.9027 2.42158 27.709 2.36899 27.5173 2.31695L27.5141 2.31609C27.3214 2.26375 27.1274 2.21111 26.9492 2.16926C26.3508 2.03268 25.7695 1.87823 25.1889 1.72394L25.1453 1.71236L25.1112 1.70325C24.5554 1.55482 23.9995 1.40635 23.4237 1.27297C23.188 1.21928 23.0105 1.1745 22.8319 1.12875L22.7387 1.1051C22.5591 1.05954 22.3847 1.01532 22.2489 0.98529C21.8576 0.894701 21.4467 0.787449 21.0359 0.677858L20.5393 0.547846C20.4361 0.521435 20.334 0.495702 20.231 0.469543C20.1349 0.445078 20.0381 0.420458 19.9394 0.394796C19.735 0.341669 19.5344 0.290509 19.343 0.243783L19.2008 0.207549C18.9879 0.153143 18.7318 0.0877254 18.5553 0.0810749L16.4746 0L16.7874 0.320131L15.8863 0.32939Z" fill="#2697FF"/>
<path d="M15.962 41.5461C15.5852 41.9576 15.4271 42.3213 15.4271 42.3213L15.0251 42.9835C14.978 43.0611 14.9271 43.1469 14.8826 43.2306C14.8381 43.3142 14.798 43.3912 14.7647 43.4616L14.7556 43.4806C14.7452 43.4992 14.7312 43.5238 14.7162 43.5501L14.6939 43.5892L14.6838 43.6067C14.651 43.6632 14.6192 43.718 14.5976 43.7673C14.5678 43.8328 14.55 43.8727 14.5386 43.8982L14.5311 43.915C14.5229 43.9332 14.5194 43.941 14.5157 43.9483L14.4944 43.9947C14.4273 44.1399 14.3606 44.2843 14.3039 44.4324C14.2103 44.6697 14.1297 44.9076 14.0592 45.1475C13.9865 45.3963 13.9233 45.6433 13.8715 45.8863C13.75 46.4733 13.6909 47.0715 13.695 47.6709C13.6952 48.283 13.7535 48.8902 13.8734 49.4106C13.9652 49.805 14.0828 50.1928 14.2256 50.5717C14.3686 50.9546 14.5277 51.3215 14.7012 51.7079C14.7701 51.8606 14.8408 52.0195 14.9095 52.1849C14.9781 52.3502 15.0436 52.515 15.1011 52.6819L15.4553 53.6994L16.3496 53.0949C16.5272 52.9747 16.6908 52.7696 16.8458 52.5739C16.9036 52.5008 16.9607 52.429 17.0095 52.3707C17.1531 52.201 17.2601 52.0709 17.3675 51.9414C17.4836 51.8018 17.5993 51.6606 17.6629 51.5854C17.7363 51.4974 17.7551 51.4753 17.7754 51.4506C17.9673 51.2174 18.1832 50.9566 18.4003 50.7551C19.1126 50.0949 20.0288 49.606 20.9813 49.4413C21.8501 49.2908 22.7499 49.4054 23.5633 49.8931C23.9784 50.1428 24.4438 50.5508 24.8536 50.9101L24.8543 50.9107L24.8953 50.9466C24.9934 51.0325 25.0899 51.1171 25.1878 51.2002L25.3832 51.3669L25.3844 51.5431C25.3834 51.7557 25.4156 51.9671 25.4798 52.1699C25.5551 52.3974 25.6603 52.6139 25.7927 52.8138C25.9375 53.0318 26.1097 53.2303 26.3052 53.4045C26.5169 53.595 26.7498 53.7607 26.9991 53.8984C27.3937 54.1085 27.8074 54.2807 28.2345 54.4125C28.6715 54.5492 29.1159 54.661 29.5655 54.7474C29.7494 54.7847 29.8975 54.8094 30.0463 54.8338L30.0589 54.8359C30.0551 54.8353 30.0423 54.8335 30.2186 54.8633C30.229 54.8663 30.2636 54.8713 30.3105 54.8779L30.4083 54.8912L30.5125 54.9027L15.962 41.5461Z" fill="#2697FF"/>
<path d="M56.8689 25.2659C57.8489 25.1123 63.4397 24.2459 64.2697 24.3437C65.18 24.4511 66.1256 25.1466 66.1256 25.1466C66.1256 25.1466 65.0366 32.5162 64.3054 34.0147C63.5742 35.5131 62.6812 35.6389 62.6812 35.6389L51.7468 37.2446L11.5269 42.9732L5.92377 44.7212L6.28018 43.8823L1.58852 45.6122L3.06856 34.9595L0 31.9974C0 31.9974 4.43474 31.4032 6.84976 31.0844C6.89574 31.0783 6.94097 31.0724 6.98543 31.0665L56.8689 25.2659Z" fill="#2697FF"/>
<path d="M6.43896 8.62573C5.92507 23.6208 22.7832 53.4379 35.1151 62.6223C35.1151 62.6223 49.5931 53.39 55.4689 38.5614C61.3448 23.7328 61.415 19.678 61.415 19.678C47.211 9.46503 23.5231 5.15319 6.43896 8.62573Z" fill="#151630"/>
<path d="M56.5447 26.072L62.1305 25.2432C62.8927 25.1296 63.6199 25.1408 64.2206 25.3152C64.9666 25.5315 65.3821 25.9671 65.2574 26.5607L63.8765 33.1576C63.7579 33.7213 63.1918 34.2456 62.4065 34.6521C61.7478 34.9923 61.0151 35.2128 60.2634 35.3242L55.447 36.0392C55.1131 36.0901 54.7758 36.1154 54.438 36.1148L54.4225 36.1916L46.8788 37.3109C46.1167 37.4244 45.3873 37.419 44.7836 37.2424C44.2114 37.0781 43.8344 36.7819 43.7447 36.3855L36.7665 38.7524L36.7542 38.8147L36.4501 38.8598L34.1693 39.6342L34.2644 39.1848L29.2142 39.9344C28.4574 40.0468 27.7309 40.0396 27.1291 39.8692C27.1107 39.8793 27.093 39.8886 27.0728 39.8987C26.4141 40.2389 25.6807 40.4587 24.9297 40.5708L20.1134 41.2862C19.2971 41.4076 18.5277 41.3831 17.9385 41.1453C17.483 40.9622 17.1507 40.6966 17.0142 40.3485L7.39729 43.6102L7.60378 42.6203L2.57985 44.3259L4.68514 34.2679L2.12109 32.8765L21.486 30.0001L21.201 31.3626C21.4569 31.2968 21.7161 31.2444 21.9776 31.2055L26.7939 30.4902C26.7967 30.4896 26.7995 30.4896 26.8022 30.4902L56.5447 26.072Z" fill="#151630"/>
<path d="M10.634 33.6035L13.2282 33.262L12.9539 35.6219L11.9162 35.7586C11.3939 35.8273 11.0065 35.7469 10.7539 35.5175C10.5475 35.3296 10.463 35.0746 10.5005 34.7523L10.634 33.6035ZM8.50427 40.8503C7.94393 40.924 7.47002 40.7817 7.08254 40.4232C6.7413 40.1064 6.49718 39.6574 6.35016 39.0762C6.2148 38.5412 6.17914 37.9982 6.24319 37.4472C6.33945 36.619 6.62912 35.8557 7.11219 35.1574C7.4559 34.6618 7.87557 34.2892 8.37118 34.0397C8.62418 33.9142 8.89941 33.8319 9.19687 33.7927L9.59637 33.7402L8.77406 40.8147L8.50427 40.8503ZM9.9262 37.4077L12.7901 37.0306L12.6427 38.299C12.5565 39.0405 12.3037 39.5891 11.8843 39.9446C11.4607 40.3075 10.8027 40.5477 9.9103 40.6651L9.54193 40.7136L9.9262 37.4077Z" fill="white"/>
<path d="M19.0513 32.4954L19.456 32.4421C20.7393 32.2732 21.52 32.7351 21.7983 33.828C21.9095 34.2774 21.9295 34.8088 21.8582 35.4222C21.7382 36.4549 21.4404 37.3318 20.9649 38.053C20.4035 38.8981 19.6264 39.386 18.6337 39.5167L18.229 39.57L19.0513 32.4954ZM16.9786 39.7346C15.7023 39.9026 14.9319 39.3659 14.6675 38.1245C14.5593 37.6201 14.5436 37.0369 14.6205 36.375C14.7772 35.027 15.2613 34.0266 16.0729 33.3738C16.5505 32.9867 17.1265 32.7488 17.8009 32.66L18.2056 32.6067L17.3833 39.6813L16.9786 39.7346Z" fill="white"/>
<path d="M27.5672 31.3742L28.003 31.3169C29.4696 31.1238 30.2661 31.6553 30.3925 32.9115C30.4335 33.2917 30.4236 33.7434 30.3628 34.2667C30.3019 34.79 30.1886 35.2963 30.0227 35.7856C29.8603 36.2745 29.6472 36.7018 29.3833 37.0675C28.8349 37.829 28.1008 38.2703 27.1807 38.3915L26.7449 38.4488L27.5672 31.3742ZM23.9146 31.8551L26.7059 31.4876L25.8848 38.5518L23.0935 38.9193L23.9146 31.8551Z" fill="white"/>
<path d="M32.7522 30.6916L35.5435 30.3242L34.7224 37.3883L31.9311 37.7558L32.7522 30.6916ZM35.6722 36.777C35.7555 36.0597 36.2272 35.5182 37.0871 35.1524C37.4166 35.0135 37.8321 34.911 38.3337 34.845L38.7436 34.791L38.4983 36.9015L35.6136 37.2812L35.6722 36.777Z" fill="white"/>
<path d="M41.5845 29.5288L44.3758 29.1613L43.5535 36.2359L40.7622 36.6034L41.5845 29.5288Z" fill="white"/>
<path d="M46.5101 28.8804L49.3014 28.5129L48.4803 35.5771L45.689 35.9446L46.5101 28.8804ZM49.9391 30.3228C50.0281 29.5569 50.2816 29.0168 50.6996 28.7025C51.0949 28.4081 51.7992 28.1943 52.8127 28.0609L53.3367 27.9919L53.2225 28.9743C53.1315 29.7575 52.8677 30.3416 52.4313 30.7266C51.9879 31.1126 51.2716 31.3707 50.2824 31.5009L49.7947 31.5651L49.9391 30.3228ZM49.7319 32.1057L50.2196 32.0415C51.195 31.9131 51.8694 32.0154 52.2428 32.3484C52.5975 32.6669 52.7283 33.2263 52.6352 34.0268L52.5156 35.0561L51.9916 35.125C50.9989 35.2557 50.3262 35.1976 49.9734 34.9505C49.6211 34.7001 49.4902 34.185 49.5808 33.4052L49.7319 32.1057Z" fill="white"/>
<path d="M59.0313 27.2319L61.9108 26.8528L61.6825 28.8177L61.1429 28.8887C60.2055 29.0121 59.5827 28.9491 59.2746 28.6996C59.0226 28.4939 58.928 28.1208 58.9909 27.5802L59.0313 27.2319ZM55.3425 27.7176L58.1338 27.3501L57.8027 30.1986L59.8832 29.9247L59.7255 31.2814L57.645 31.5553L57.3127 34.4143L54.5214 34.7817L55.3425 27.7176ZM58.2624 33.803C58.3458 33.0856 58.8175 32.5441 59.6774 32.1784C60.0069 32.0394 60.4224 31.937 60.924 31.8709L61.3338 31.817L61.0885 33.9274L58.2038 34.3072L58.2624 33.803Z" fill="white"/>
<mask id="mask0_210_232" style="mask-type:alpha" maskUnits="userSpaceOnUse" x="3" y="30" width="60" height="18">
<path d="M3.30005 37.9048L61.2169 30.8415L62.3556 40.178L4.43869 47.2413L3.30005 37.9048Z" fill="#C4C4C4"/>
</mask>
<g mask="url(#mask0_210_232)">
<path d="M10.5303 33.5085L13.0599 33.1755L12.7924 35.4767L11.7806 35.6099C11.2713 35.677 10.8934 35.5986 10.6471 35.3748C10.4459 35.1917 10.3635 34.943 10.4001 34.6287L10.5303 33.5085ZM8.45347 40.575C7.90707 40.6469 7.44495 40.5081 7.0671 40.1585C6.73435 39.8496 6.4963 39.4118 6.35294 38.845C6.22094 38.3234 6.18617 37.7939 6.24862 37.2566C6.3425 36.449 6.62496 35.7047 7.09601 35.0238C7.43118 34.5404 7.8404 34.1771 8.32369 33.9338C8.5704 33.8114 8.83878 33.7312 9.12884 33.693L9.51841 33.6417L8.71655 40.5403L8.45347 40.575ZM9.84003 37.218L12.6327 36.8503L12.489 38.0871C12.4049 38.8103 12.1584 39.3452 11.7495 39.6918C11.3364 40.0457 10.6947 40.2799 9.82453 40.3945L9.46532 40.4418L9.84003 37.218Z" fill="#C1C1E8"/>
<path d="M18.9454 32.4006L19.34 32.3487C20.5914 32.1839 21.3527 32.6344 21.6241 33.7001C21.7325 34.1383 21.752 34.6565 21.6825 35.2546C21.5655 36.2616 21.2751 37.1168 20.8114 37.82C20.2639 38.6441 19.5062 39.1199 18.5382 39.2473L18.1436 39.2992L18.9454 32.4006ZM16.9243 39.4598C15.6797 39.6236 14.9285 39.1003 14.6707 37.8897C14.5651 37.3979 14.5498 36.8292 14.6248 36.1838C14.7776 34.8693 15.2497 33.8937 16.0411 33.2572C16.5068 32.8797 17.0684 32.6477 17.7261 32.5611L18.1208 32.5092L17.3189 39.4078L16.9243 39.4598Z" fill="#C1C1E8"/>
<path d="M27.4567 31.2801L27.8817 31.2241C29.3118 31.0359 30.0885 31.5542 30.2118 32.7791C30.2517 33.1499 30.242 33.5904 30.1827 34.1006C30.1234 34.6109 30.0129 35.1046 29.8512 35.5817C29.6928 36.0585 29.4849 36.4751 29.2276 36.8318C28.6929 37.5743 27.977 38.0046 27.0798 38.1228L26.6549 38.1787L27.4567 31.2801ZM23.895 31.749L26.6169 31.3907L25.8162 38.2791L23.0943 38.6375L23.895 31.749Z" fill="#C1C1E8"/>
<path d="M32.72 30.5872L35.4418 30.2288L34.6412 37.1173L31.9193 37.4757L32.72 30.5872ZM35.5673 36.5212C35.6486 35.8217 36.1085 35.2937 36.9471 34.937C37.2684 34.8016 37.6736 34.7016 38.1626 34.6372L38.5623 34.5846L38.3231 36.6426L35.5102 37.0129L35.5673 36.5212Z" fill="#C1C1E8"/>
<path d="M41.5399 29.426L44.2617 29.0677L43.4599 35.9663L40.738 36.3246L41.5399 29.426Z" fill="#C1C1E8"/>
<path d="M46.5501 28.7664L49.272 28.4081L48.4713 35.2965L45.7495 35.6549L46.5501 28.7664ZM49.8939 30.1729C49.9807 29.4261 50.2279 28.8995 50.6355 28.5929C51.0209 28.3059 51.7077 28.0974 52.696 27.9673L53.2069 27.9L53.0956 28.858C53.0068 29.6217 52.7496 30.1913 52.3241 30.5667C51.8917 30.9431 51.1933 31.1948 50.2286 31.3218L49.7531 31.3844L49.8939 30.1729ZM49.6918 31.9115L50.1674 31.8489C51.1185 31.7237 51.7761 31.8235 52.1402 32.1482C52.4861 32.4587 52.6137 33.0043 52.5229 33.7849L52.4063 34.7885L51.8953 34.8557C50.9273 34.9832 50.2713 34.9265 49.9273 34.6856C49.5837 34.4413 49.4561 33.939 49.5445 33.1787L49.6918 31.9115Z" fill="#C1C1E8"/>
<path d="M58.9672 27.1317L61.7751 26.762L61.5524 28.678L61.0262 28.7473C60.1122 28.8676 59.5049 28.8061 59.2043 28.5629C58.9586 28.3623 58.8664 27.9984 58.9277 27.4713L58.9672 27.1317ZM55.37 27.6052L58.0919 27.2469L57.7691 30.0246L59.7978 29.7575L59.644 31.0804L57.6153 31.3475L57.2912 34.1354L54.5694 34.4937L55.37 27.6052ZM58.2174 33.5393C58.2987 32.8398 58.7586 32.3117 59.5972 31.9551C59.9185 31.8196 60.3237 31.7197 60.8127 31.6553L61.2124 31.6027L60.9732 33.6606L58.1603 34.0309L58.2174 33.5393Z" fill="#C1C1E8"/>
</g>
<path d="M26.6377 13.7307C36.0646 12.9799 45.7503 13.8392 53.7072 16.5549C53.7065 17.1402 53.691 17.7257 53.6701 18.3054C53.6198 19.6429 53.5371 20.9904 53.4267 22.3416C52.8678 22.2672 52.2509 22.2133 51.69 22.2216C50.1356 22.2451 49.3969 22.0058 49.3969 22.0058L29.1846 14.98L26.6377 13.7307ZM46.0907 49.1425C45.7216 49.7674 45.3415 50.3837 44.9503 50.9911C43.7559 52.8542 42.4595 54.65 41.0671 56.3702C38.2775 54.8177 35.5496 52.8029 33.1855 50.9013C32.8003 50.5904 32.4163 50.2762 32.0335 49.9588C36.8769 49.4598 43.85 48.83 44.5466 49.2569C44.7092 49.3555 45.2659 49.3033 46.0907 49.1425Z" fill="#414196"/>
<path d="M39.1765 43.05C38.3819 43.005 37.6569 42.7624 37.0209 42.3085C35.9929 41.5748 35.0092 40.7891 33.9626 40.0763C32.4781 39.0673 30.9871 38.3497 29.2256 37.7528C27.6729 37.2263 25.9712 36.9657 24.2813 37.1646C22.2435 37.4057 20.4607 38.5941 18.6761 39.5149L19.3425 40.1391C18.682 40.5836 18.058 41.08 17.4764 41.6235C15.6944 43.2844 14.6811 45.3169 14.5951 47.5549C14.5608 48.4654 14.6926 49.6259 15.0489 50.4807L15.9271 52.592L17.4951 50.7228C17.8064 50.3518 18.3614 49.9225 18.7798 49.6567C19.7754 49.0248 20.8982 48.6737 22.1095 48.7661C23.069 48.838 23.7588 49.1698 24.467 49.7027C25.1233 50.1967 25.6951 50.7553 26.3348 51.2651C26.0581 52.0254 26.5074 52.7845 27.1762 53.244C28.4209 54.0984 30.805 54.395 32.3486 54.5383C34.1048 54.6994 35.873 54.6749 37.6241 54.4651L38.9606 54.9151C39.9033 55.2326 41.249 55.1327 42.2209 54.9234C44.967 54.3289 47.4783 52.5459 49.4118 50.7719C50.1147 50.1234 50.7585 49.4136 51.3355 48.6509C53.2243 46.1702 54.443 43.2126 55.2072 40.3468C55.4441 39.4571 55.6652 38.4989 55.8237 37.5512L52.0663 37.8142C51.1259 39.0636 49.866 40.0912 48.2607 40.6341C46.5953 41.1908 44.8477 41.4612 43.092 41.4337C42.4055 41.4235 41.5339 41.3706 40.8681 41.2224L40.1001 41.0469L39.5095 41.5455C39.0459 41.9381 38.9431 42.4964 39.1531 42.9975C39.1604 43.0139 39.1688 43.0319 39.1765 43.05Z" fill="#151630"/>
<path d="M53.7574 37.6943C52.897 39.0672 51.32 40.9047 48.7198 41.7837C44.2738 43.2862 40.4641 42.4179 40.4641 42.4179C40.4641 42.4179 40.3689 42.4985 40.85 43.0377C41.1266 43.3525 41.44 43.633 41.7834 43.8733C41.7834 43.8733 38.7036 45.1324 36.1079 43.2804C33.5123 41.4284 32.2425 40.1179 28.673 38.9093C25.1034 37.7007 22.8152 38.7885 22.8152 38.7885C22.8152 38.7885 24.0451 38.7482 24.9158 39.0326C25.7865 39.317 25.8773 39.3464 25.8773 39.3464C25.8773 39.3464 22.2704 38.9212 18.4826 42.4531C14.6948 45.985 16.3732 50.0158 16.3732 50.0158C16.3732 50.0158 18.6835 47.2619 22.2863 47.5339C27.6103 47.9356 25.5125 52.9019 33.197 50.4266C33.197 50.4266 32.8153 50.2793 32.2156 49.6784C31.616 49.0776 31.6113 48.3924 30.6043 47.248C29.5973 46.1036 29.4412 45.2954 29.4412 45.2954C29.4412 45.2954 30.9367 45.7977 33.0653 45.52C35.194 45.2423 35.5413 44.4455 35.5413 44.4455C35.5413 44.4455 34.9152 45.6037 33.0685 45.9851C31.2218 46.3665 30.4581 46.0587 30.4581 46.0587C30.4581 46.0587 31.2531 46.6813 32.3967 48.7246C33.5403 50.7679 34.8613 50.4505 34.8613 50.4505C34.8613 50.4505 33.4678 51.3904 31.1212 51.7673C31.1212 51.7673 30.4864 51.9497 29.2336 51.8987C28.2109 51.8572 27.8273 51.6663 27.719 51.5966L27.6842 51.5734C27.6608 51.6305 27.2335 52.8156 32.5509 53.3074C37.9999 53.8103 41.9231 52.2122 41.9231 52.2122C41.9231 52.2122 41.162 52.9688 40.4919 53.3026C39.8218 53.6365 39.5095 53.7572 39.5095 53.7572C39.5095 53.7572 42.9757 54.9242 48.4121 49.9348C52.3981 46.2757 53.8746 40.4836 54.3793 37.6514L53.7574 37.6943Z" fill="#414196"/>
<path d="M53.7541 37.699C52.8939 39.0711 51.3183 40.905 48.7198 41.7836C44.2738 43.2861 40.4641 42.4177 40.4641 42.4177C40.4641 42.4177 40.3689 42.4983 40.85 43.0375C40.8614 43.0496 40.872 43.063 40.883 43.0748C42.0834 43.2488 44.4523 43.4127 47.5146 42.7299C52.0077 41.7275 53.9448 37.6812 53.9448 37.6812L53.7541 37.699ZM41.7834 43.8731C41.7834 43.8731 38.7035 45.1323 36.1079 43.2803C33.5123 41.4283 32.2425 40.1178 28.673 38.9092C25.1034 37.7006 22.8152 38.7883 22.8152 38.7883C28.6443 37.8948 30.4805 40.6115 35.2091 43.3661C39.9844 46.147 41.7834 43.8731 41.7834 43.8731ZM25.8768 39.3441C25.8768 39.3441 22.2699 38.9189 18.4821 42.4508C17.0546 43.7798 16.4037 45.1814 16.1467 46.411C16.5087 45.5439 17.1896 44.3826 18.468 43.0234C21.3202 39.9934 25.8768 39.3441 25.8768 39.3441Z" fill="#30BDEF"/>
<path d="M16.373 50.014C16.373 50.014 18.6833 47.2601 22.2862 47.5322C27.6101 47.9338 25.5124 52.9002 33.1968 50.4248C33.1968 50.4248 32.8151 50.2776 32.2155 49.6767C31.6158 49.0758 31.6111 48.3907 30.6041 47.2463C29.5972 46.1018 29.4411 45.2936 29.4411 45.2936C29.4411 45.2936 30.9365 45.796 33.0652 45.5183C34.1596 45.3763 34.7836 45.0965 35.1305 44.8581C35.2554 44.7608 35.3396 44.6914 35.3485 44.6852C35.3383 44.6906 34.21 45.2653 32.0335 45.2161C29.8465 45.1684 29.0666 44.644 29.0666 44.644C29.0666 44.644 28.6239 45.0316 29.2189 46.5959C29.814 48.1603 30.7106 49.1117 30.7106 49.1117L30.1726 48.8644C30.1726 48.8644 30.2161 49.5428 30.8984 50.3C31.0964 50.5201 31.276 50.7009 31.4306 50.8466C30.2677 50.4951 29.5941 49.986 28.3892 48.5581C26.5784 46.4118 24.8668 46.1305 24.8668 46.1305C24.8668 46.1305 25.5577 46.0629 26.6182 46.3908C27.6786 46.7187 28.224 47.184 28.224 47.184C28.224 47.184 27.1718 45.6943 24.4227 45.4039C21.6737 45.1134 20.1862 46.0339 20.1862 46.0339C20.1862 46.0339 20.427 45.9689 21.3896 45.8737C22.3521 45.7785 23.2657 46.0285 23.2657 46.0285C23.2657 46.0285 21.4682 45.8478 19.0673 46.9759C16.6665 48.1039 16.373 50.014 16.373 50.014ZM45.0573 47.8604C45.0573 47.8604 44.662 48.2848 43.9067 48.4719C43.1515 48.6591 42.463 48.2596 42.463 48.2596C42.463 48.2596 43.25 48.3305 43.9738 48.1995C44.6976 48.0684 45.0573 47.8604 45.0573 47.8604ZM45.3134 48.449C45.3134 48.449 45.0384 49.2334 43.5273 49.7319C42.0162 50.2304 40.7681 49.6603 40.7681 49.6603C40.7681 49.6603 42.0917 49.8537 43.2443 49.5265C44.397 49.1994 45.3134 48.449 45.3134 48.449ZM33.1583 51.2481C32.4962 51.482 31.8143 51.6555 31.1209 51.7663C31.1209 51.7663 30.4861 51.9487 29.2333 51.8978C28.2106 51.8562 27.8269 51.6653 27.7187 51.5956L27.6839 51.5724C27.6605 51.6296 27.2332 52.8146 32.5506 53.3065C37.9996 53.8094 41.9228 52.2112 41.9228 52.2112C41.9228 52.2112 41.1616 52.9678 40.4916 53.3017C39.8215 53.6355 39.5091 53.7563 39.5091 53.7563C39.5091 53.7563 42.9753 54.9233 48.4118 49.9338C52.3984 46.2757 53.8749 40.4836 54.3796 37.6514L54.1854 37.6653C53.5736 39.9217 52.3801 43.8652 51.0577 45.796C49.1424 48.5928 47.6855 49.3377 47.6855 49.3377C47.6855 49.3377 48.5704 48.3443 48.9173 47.6573C49.2641 46.9702 49.2195 46.8394 49.2195 46.8394C49.2195 46.8394 47.4868 49.0699 46.6024 49.683C45.7179 50.2961 44.2815 50.63 44.2815 50.63C44.2815 50.63 44.3045 50.7787 45.2566 50.6137C46.2087 50.4487 46.3102 50.4037 46.3102 50.4037C46.3102 50.4037 45.5841 51.0155 44.3327 51.6283C43.0813 52.241 42.6616 52.3393 42.6616 52.3393C42.6616 52.3393 42.9694 52.2782 43.4343 51.654C43.8992 51.0298 43.8985 50.9726 43.8985 50.9726C43.8985 50.9726 41.0802 51.7704 38.5955 52.0144C36.1108 52.2584 35.252 52.0964 35.252 52.0964C35.252 52.0964 36.1802 51.9416 37.2289 51.6972C38.2776 51.4528 38.472 51.3051 38.472 51.3051C38.472 51.3051 36.5649 51.9433 33.6875 51.3582C33.5023 51.3181 33.3262 51.2824 33.1583 51.2481Z" fill="#24247A"/>
<path d="M36.437 43.4972C36.3262 43.4292 36.2183 43.3576 36.1077 43.2796C33.5107 41.4265 32.2423 40.1171 28.6727 38.9085C25.1032 37.6999 22.8149 38.7877 22.8149 38.7877C22.8149 38.7877 24.0448 38.7474 24.9155 39.0318C25.7862 39.3162 25.877 39.3455 25.877 39.3455C25.877 39.3455 22.2701 38.9204 18.4823 42.4523C14.6945 45.9842 16.3729 50.015 16.3729 50.015C16.3729 50.015 18.6832 47.2611 22.2861 47.5331C27.61 47.9348 25.5123 52.9011 33.1967 50.4257C33.1967 50.4257 32.815 50.2785 32.2154 49.6776C31.6157 49.0768 31.611 48.3916 30.604 47.2472C29.5971 46.1028 29.441 45.2945 29.441 45.2945C29.441 45.2945 30.9364 45.7969 33.0651 45.5192C35.1938 45.2415 35.541 44.4447 35.541 44.4447C35.4728 44.5594 35.3933 44.6671 35.3038 44.7661C35.7468 44.4063 36.1294 43.9779 36.437 43.4972Z" fill="white"/>
<path d="M36.4371 43.4983C36.3264 43.4303 36.2184 43.3587 36.1079 43.2807C33.5109 41.4276 32.2424 40.1182 28.6729 38.9096C25.1033 37.701 22.8151 38.7888 22.8151 38.7888C28.6442 37.8952 30.4804 40.612 35.2091 43.3666C35.5436 43.5614 35.8638 43.7316 36.1705 43.8797C36.2887 43.725 36.3778 43.5926 36.4371 43.4983ZM25.8768 39.3452C25.8768 39.3452 22.2699 38.92 18.4822 42.452C17.0547 43.7809 16.4038 45.1826 16.1468 46.4121C16.5088 45.545 17.1897 44.3837 18.4681 43.0245C21.3202 39.9942 25.8768 39.3452 25.8768 39.3452Z" fill="#30BDEF"/>
<path d="M16.3729 50.0143C16.3729 50.0143 18.6832 47.2604 22.286 47.5324C27.61 47.9341 25.5123 52.9004 33.1967 50.425C33.1967 50.425 32.815 50.2778 32.2153 49.6769C31.6157 49.076 31.611 48.3909 30.604 47.2465C29.597 46.1021 29.4409 45.2938 29.4409 45.2938C29.4409 45.2938 30.9364 45.7962 33.0651 45.5185C34.1594 45.3766 34.7835 45.0967 35.1303 44.8584C35.2553 44.761 35.3394 44.6916 35.3483 44.6854C35.3381 44.6908 34.2099 45.2655 32.0333 45.2164C29.8464 45.1686 29.0664 44.6442 29.0664 44.6442C29.0664 44.6442 28.6238 45.0319 29.2188 46.5962C29.8138 48.1605 30.7105 49.1119 30.7105 49.1119L30.1725 48.8646C30.1725 48.8646 30.216 49.5431 30.8983 50.3002C31.0962 50.5203 31.2759 50.7011 31.4305 50.8468C30.2676 50.4953 29.594 49.9862 28.3891 48.5583C26.5782 46.4121 24.8667 46.1308 24.8667 46.1308C24.8667 46.1308 25.5576 46.0632 26.618 46.391C27.6785 46.7189 28.2238 47.1842 28.2238 47.1842C28.2238 47.1842 27.1716 45.6945 24.4226 45.4041C21.6736 45.1137 20.1861 46.0342 20.1861 46.0342C20.1861 46.0342 20.4269 45.9691 21.3894 45.8739C22.3519 45.7787 23.2656 46.0287 23.2656 46.0287C23.2656 46.0287 21.4681 45.848 19.0672 46.9761C16.6663 48.1042 16.3729 50.0143 16.3729 50.0143ZM24.7719 44.5553C22.6465 44.2741 19.8093 44.8211 18.3375 46.3426C18.2778 46.4029 18.8155 45.0317 21.1083 44.4597C23.4011 43.8878 24.4371 44.0006 24.6136 44.2285C24.7901 44.4564 24.7719 44.5553 24.7719 44.5553ZM25.8319 44.4464C25.8319 44.4464 25.7701 44.9221 25.4521 44.7515C25.1341 44.5808 25.0494 44.2365 25.3122 44.1672C25.5751 44.098 25.8318 44.446 25.8318 44.446L25.8319 44.4464Z" fill="#C1C1E8"/>
<path d="M44.3382 27.3458L48.3542 27.2803C48.989 27.1861 49.6803 26.8838 50.1764 26.5475C50.8714 26.0765 51.3456 25.2497 51.3823 24.406L51.4201 23.538L51.1383 21.742L46.5529 17.27C46.8467 16.6105 46.8371 15.7764 46.6717 15.0286C46.6554 14.8855 46.6203 14.7451 46.5673 14.6112C46.4707 14.3623 46.3173 14.1363 46.1494 13.9182C45.5607 13.1476 44.7884 12.3565 44.1106 11.6491C43.1307 10.6238 41.4976 8.98488 40.241 8.23227L36.934 6.25527L37.0918 6.82333C36.6686 6.58153 36.2511 6.36392 35.8563 6.17608C33.9564 5.27178 31.68 4.4313 29.6521 3.90743L23.9127 2.42834C23.6107 2.34328 23.3079 2.26498 23.0042 2.19342L18.7648 1.09814L19.6556 1.59817C18.5879 1.45418 17.5125 1.37533 16.4353 1.36204C15.7575 1.35721 14.9194 1.37629 14.2665 1.51261L12.6096 1.85559L13.2879 3.42554C13.9242 4.89919 15.3951 6.54986 16.6654 7.60382C17.6458 8.41739 19.0244 9.30163 20.3492 9.83448C19.3479 10.1406 18.3549 10.4676 17.3725 10.8003C15.4022 11.4684 13.4798 12.4238 11.9662 13.7366C11.4143 14.2175 10.7433 14.8969 10.392 15.5409L8.36182 19.2572L12.5946 17.7957C12.8902 17.6934 13.2511 17.6081 13.5638 17.5321C14.4365 17.3202 15.3286 17.1411 16.2236 16.9794C15.4485 17.6467 14.6247 18.4621 14.1703 19.2093L10.882 24.6197L11.0853 24.5047L10.6812 26.8041L13.4925 26.6564C13.7515 26.5944 14.0488 26.5547 14.3104 26.5128C15.4301 26.3329 16.5607 26.1767 17.6877 26.0225C18.4954 25.9121 19.3574 25.8317 20.2431 25.7812L14.1713 31.1258L14.7379 31.0702L20.0451 29.0491C20.0356 29.2059 20.0318 29.3621 20.0267 29.5127C20.0152 29.8545 20.0117 30.1988 20.0143 30.5439L29.0948 29.6356C30.9008 29.0439 32.778 28.5177 34.6799 28.1609C35.252 28.0543 35.9318 27.9282 36.5258 27.8953L37.7246 27.8306L38.3678 28.1954C39.2881 28.7136 40.5851 28.7895 41.5488 28.6744C42.5741 28.549 43.6247 28.0414 44.3382 27.3458Z" fill="#151630"/>
<path d="M49.6671 22.0197C49.6671 22.0197 46.5048 21.8683 45.9972 21.5496C45.6793 21.3471 45.3872 21.1067 45.1273 20.8337C45.1273 20.8337 45.4988 21.4118 45.7117 21.8229C45.9247 22.234 46.5559 23.3086 47.3015 23.7593C48.0471 24.21 48.563 24.3355 48.563 24.3355C48.563 24.3355 47.7987 26.0648 45.7969 25.856C43.7952 25.6471 40.9109 22.7474 39.0789 21.6315C37.2469 20.5157 33.8536 19.6054 33.8536 19.6054C33.8536 19.6054 34.3171 19.1858 35.3105 19.0569C36.3039 18.928 36.5339 18.9774 36.5339 18.9774C36.5339 18.9774 35.1127 18.7137 32.8536 18.8166C30.5945 18.9195 28.1068 20.6338 28.1068 20.6338C28.1068 20.6338 28.6638 19.4466 29.8872 18.4322C31.1106 17.4178 31.5261 17.3098 31.5261 17.3098C31.5261 17.3098 27.2832 17.4182 22.2089 18.3178C17.1346 19.2174 15.619 20.0731 15.619 20.0731C15.619 20.0731 16.2533 19.0297 18.149 17.5452C20.0447 16.0608 23.2006 14.8094 23.2006 14.8094C23.2006 14.8094 20.2955 14.7046 16.7402 15.3027C13.1849 15.9009 11.8701 16.3543 11.8701 16.3543C11.8701 16.3543 13.2128 13.8943 18.087 12.2408C22.9611 10.5872 24.8071 10.2927 24.8071 10.2927L23.2443 9.05087C23.7928 8.97827 24.3478 8.96797 24.8986 9.02017C25.8142 9.10666 26.8944 9.47204 26.8944 9.47204C26.8944 9.47204 25.099 7.33469 22.1798 5.82883C19.2605 4.32297 17.5298 4.2586 17.5298 4.2586C17.5298 4.2586 17.5421 4.94268 19.1031 6.52249C20.6642 8.1023 21.6936 8.72144 21.6936 8.72144C21.6936 8.72144 19.7845 8.27105 17.6713 6.51773C15.558 4.76442 14.7977 3.00511 14.7977 3.00511C14.7977 3.00511 17.1374 2.51904 22.2454 3.55384C27.3534 4.58863 31.8848 7.91737 31.8848 7.91737C31.8848 7.91737 31.575 7.54096 30.6137 6.53161C29.6524 5.52226 29.3927 5.37545 29.3927 5.37545C29.3927 5.37545 32.3632 6.14349 35.2543 7.51822C38.1455 8.89295 39.8117 10.6981 39.8117 10.6981L39.4758 9.48861C39.4758 9.48861 40.6589 10.197 42.9461 12.5856C45.2333 14.9743 45.0372 15.0264 45.0372 15.0264C45.0372 15.0264 45.464 16.6544 44.6462 16.8943C43.8284 17.1342 43.6329 16.7063 43.4532 16.1368C43.2735 15.5673 43.1732 15.1903 43.1732 15.1903C43.1732 15.1903 43.0646 16.8601 41.7141 17.059C40.3636 17.2578 39.807 16.6263 39.807 16.6263C39.807 16.6263 40.1748 15.6707 39.2234 14.619C38.272 13.5673 36.939 12.6462 36.939 12.6462C36.939 12.6462 38.8845 14.3703 39.1312 15.1191C39.3779 15.8678 38.8632 16.2797 38.8632 16.2797C38.8632 16.2797 36.032 13.0971 33.4305 11.4663C30.8289 9.83547 28.7938 9.2459 28.7938 9.2459C28.7938 9.2459 29.338 9.46949 31.1255 10.782C32.9131 12.0945 33.4925 12.648 33.4925 12.648C33.4925 12.648 33.2483 14.2202 33.6397 15.5579C34.0312 16.8957 34.531 17.3489 34.531 17.3489C34.531 17.3489 34.4351 17.1943 34.2913 16.7255C34.1476 16.2567 34.1933 15.9571 34.1933 15.9571C34.1933 15.9571 34.547 17.1138 35.9519 17.6112C37.3568 18.1086 39.8437 17.7391 39.8437 17.7391C39.8437 17.7391 40.1542 17.9401 41.1759 18.8768C42.1976 19.8135 42.6691 20.3617 42.6691 20.3617C42.6691 20.3617 42.6521 20.0634 41.9004 19.0954C41.1488 18.1274 41.1329 18.0564 41.1329 18.0564C41.1329 18.0564 42.0981 18.0635 42.6389 17.871C42.9579 17.7606 43.2233 17.5337 43.3821 17.2358C43.3821 17.2358 43.5699 17.4462 44.0073 17.5705C44.4447 17.6947 44.7525 17.6199 44.7525 17.6199L49.6671 22.0197ZM49.0262 24.3665L49.9384 24.2593C49.9384 24.2593 49.9075 24.9629 49.3081 25.3692C48.9453 25.6141 48.5365 25.7827 48.1065 25.8648C48.1065 25.8648 48.7295 25.2987 48.9093 24.8922C49.0892 24.4856 49.0262 24.3665 49.0262 24.3665ZM36.2402 26.371C36.2402 26.371 33.4479 26.5238 28.2426 28.2366C25.5465 29.1237 23.8767 29.8041 22.8927 30.2538L21.6537 30.3782C21.6569 29.7293 21.6841 28.6882 21.8229 28.6087C22.0271 28.4927 23.5925 27.3327 27.7766 26.6043C31.9607 25.876 36.2388 26.3714 36.2388 26.3714L36.2402 26.371ZM43.2978 26.0011C43.2978 26.0011 42.4983 26.9952 41.1551 27.1549C39.8119 27.3146 39.0877 26.9088 39.0877 26.9088C39.0877 26.9088 39.985 26.8166 40.4482 26.5967C40.9114 26.3769 41.0544 26.1774 41.0544 26.1774C41.0544 26.1774 40.8894 26.2943 40.4449 26.4252C40.1749 26.5047 39.8962 26.5506 39.6149 26.5617C39.6149 26.5617 37.4453 25.5478 31.742 25.2969C26.0387 25.0461 21.7335 26.6861 21.7335 26.6861C21.7335 26.6861 22.2957 26.1913 23.6097 25.3787C24.9237 24.5661 25.7378 24.3092 25.7378 24.3092C25.7378 24.3092 21.3101 23.9568 17.2682 24.5095C13.2262 25.0623 12.8332 25.1931 12.8332 25.1931C12.8332 25.1931 15.137 23.2078 19.6382 21.151C24.1394 19.0943 27.1952 18.9185 27.1952 18.9185C27.1952 18.9185 25.8814 19.8234 24.7277 21.1164C23.5739 22.4095 23.5233 22.5309 23.5233 22.5309C23.5233 22.5309 26.1864 21.9529 28.7281 21.7027C31.2699 21.4524 32.4801 21.5744 32.4801 21.5744C32.4801 21.5744 31.4283 22.1916 30.6881 22.8342C29.9478 23.4769 29.8504 23.5514 29.8504 23.5514C29.8504 23.5514 32.2588 23.5628 36.2338 24.3012C40.2087 25.0395 43.2978 26.0011 43.2978 26.0011Z" fill="#414196"/>
<path d="M49.6671 22.0197C49.6671 22.0197 49.4525 22.0101 49.126 21.9885C47.942 20.8383 44.383 17.6399 44.383 17.6399C44.5065 17.6517 44.6311 17.6456 44.7529 17.6218L49.6671 22.0197ZM14.8821 3.18101C14.824 3.06672 14.7963 3.00403 14.7963 3.00403C14.7963 3.00403 17.136 2.51796 22.244 3.55276C27.352 4.58755 31.8848 7.91737 31.8848 7.91737C31.8848 7.91737 25.9498 4.61089 21.1292 3.6696C18.4901 3.15424 16.3134 3.114 14.8831 3.18076L14.8821 3.18101ZM30.0765 5.98291C29.5515 5.4646 29.3927 5.37545 29.3927 5.37545C29.3927 5.37545 32.3632 6.14349 35.2543 7.51822C38.1455 8.89295 39.8117 10.6981 39.8117 10.6981C39.8117 10.6981 36.7708 8.60704 33.5181 7.23438C31.8738 6.54014 30.7687 6.17477 30.0765 5.98291ZM39.5948 9.91633L39.4758 9.48861C39.4758 9.48861 40.6589 10.197 42.9461 12.5856C45.2333 14.9743 45.0372 15.0264 45.0372 15.0264C45.0372 15.0264 45.464 16.6544 44.6462 16.8943L44.6364 16.8967C44.7128 16.4311 44.698 15.761 44.3358 14.9402C43.753 13.622 40.7868 10.9542 39.5948 9.91633Z" fill="#30BDEF"/>
<path d="M21.8149 21.4207C21.8149 21.4207 21.2816 21.5799 20.3476 22.0744C19.4137 22.5689 18.8998 23.1744 18.8998 23.1744C18.8998 23.1744 19.4712 23.0846 20.6076 22.9945C21.744 22.9043 21.9515 22.895 21.9515 22.895C21.9515 22.895 21.7077 22.8052 21.0104 22.7161C20.3132 22.627 20.1907 22.6307 20.1907 22.6307C20.1907 22.6307 20.403 22.2794 21.2232 21.8573C22.0433 21.4353 22.1647 21.3988 22.1647 21.3988L21.8149 21.4207ZM45.1273 20.8337C45.1273 20.8337 45.4988 21.4118 45.7117 21.8229C45.9247 22.234 46.5456 23.2907 47.285 23.7477L47.2875 23.749L47.2936 23.7527L47.3264 23.7723L47.3285 23.7718L47.3601 23.7905L47.3933 23.81L47.4091 23.8188L47.4256 23.8274L47.4282 23.829L47.4572 23.8451L47.4578 23.8472L47.4874 23.8642L47.4907 23.8656L47.5197 23.8816L47.5234 23.883L47.5355 23.8904L47.5514 23.8992L47.5549 23.9017L47.5824 23.9159L47.5874 23.918L47.5983 23.9251C47.6139 23.9328 47.6297 23.9416 47.6456 23.9508L47.6491 23.9529L47.6601 23.9588L47.6757 23.9666L47.6803 23.9688L47.6902 23.9746L47.7056 23.9816L47.7104 23.9846L47.7201 23.9896L47.7344 23.9966L47.7403 23.9996L47.7496 24.0044L47.764 24.0118L47.7701 24.0144L47.7782 24.0187L47.7929 24.0259L47.7988 24.0286L47.8072 24.0329L47.8202 24.0391L47.8274 24.0429L47.8485 24.0523L47.8546 24.056L47.8618 24.0598L47.8758 24.0658L47.883 24.0692L47.8889 24.0723L47.9029 24.0782L47.91 24.0817L47.9159 24.0847L47.9289 24.0908L47.936 24.0943L47.9423 24.0973L47.955 24.1024L47.9622 24.1062L47.968 24.1089L47.9808 24.1143L47.988 24.1178L47.9929 24.1196L48.0056 24.1251L48.0138 24.1283L48.0174 24.1308L48.0301 24.1359L48.0383 24.1391L48.0422 24.1415L48.0539 24.1472L48.0653 24.1516L48.0774 24.1572L48.0853 24.1605L48.0889 24.1618L48.1004 24.1665L48.1089 24.1708L48.112 24.17L48.1224 24.1746L48.1342 24.1792L48.1446 24.1841L48.1539 24.187L48.1561 24.1887L48.1667 24.1925L48.1771 24.1974L48.1877 24.2012C48.3047 24.2498 48.4247 24.2908 48.5469 24.3242C48.5469 24.3242 47.0168 25.5172 45.0166 25.3069C43.0164 25.0966 40.8949 22.7364 39.0611 21.6192C37.2272 20.5019 33.8358 19.593 33.8358 19.593C33.8358 19.593 34.2993 19.1734 35.2927 19.0445C36.0302 18.9491 36.3469 18.9518 36.461 18.9593L34.9398 19.5577C34.9398 19.5577 37.6591 20.4656 38.4799 20.8897C39.3007 21.3139 39.3337 21.4238 39.3337 21.4238C39.3337 21.4238 39.1893 21.1053 38.7231 20.8252C38.257 20.5451 38.06 20.4252 38.06 20.4252C38.06 20.4252 38.759 20.5013 39.8404 21.361C40.9219 22.2208 41.031 22.4163 41.031 22.4163L40.0983 21.771C40.0983 21.771 40.5398 22.4961 41.9277 23.4003C43.3155 24.3046 44.3012 25.0183 45.4955 24.9918C46.6897 24.9652 47.8842 24.4691 47.8842 24.4691C47.8842 24.4691 47.4515 24.2763 46.9267 23.9706L46.9852 23.9303C46.7379 23.7648 46.5022 23.5825 46.2798 23.3848C45.6333 22.7984 45.2065 21.5422 45.2065 21.5422L43.7215 19.5606L45.1273 20.8337ZM36.4492 18.964C36.1162 18.9103 34.7931 18.7283 32.8511 18.8172C30.5913 18.9202 28.1068 20.6338 28.1068 20.6338C28.1068 20.6338 28.462 19.8762 29.2293 19.054C29.9601 18.842 31.2702 18.5317 32.6841 18.5096C34.6731 18.4795 36.2273 18.9008 36.4492 18.964ZM30.8786 17.6749C31.2176 17.4456 31.4042 17.3568 31.482 17.3256L30.8786 17.6749ZM31.5204 17.3112C31.3628 17.3152 27.1862 17.4373 22.2087 18.3201C18.0876 19.0518 16.3134 19.7527 15.7927 19.9908C16.4355 19.6794 18.7551 18.5893 20.8876 17.9749C23.3953 17.2526 24.8968 17.1799 24.8968 17.1799L22.7041 17.1531C22.7041 17.1531 23.618 16.7917 26.3895 16.4931C29.1609 16.1945 32.3449 16.983 32.3449 16.983L31.5204 17.3112ZM23.2014 14.8115C23.2014 14.8115 20.2963 14.7066 16.741 15.3048C13.1857 15.903 11.8709 16.3563 11.8709 16.3563C11.8709 16.3563 12.7287 15.9768 14.9228 15.2603C17.1168 14.5437 18.4459 14.2044 18.4459 14.2044L16.7238 14.4036C16.7238 14.4036 17.3481 14.1552 19.1707 13.5773C20.9933 12.9994 21.4147 13.003 21.4147 13.003C21.4147 13.003 20.5609 13.3415 20.0061 13.6478C19.4513 13.954 19.3937 13.9949 19.3937 13.9949C19.3937 13.9949 19.4382 13.8467 21.2606 13.712C23.083 13.5773 24.8677 13.7989 24.8677 13.7989L23.2014 14.8115ZM24.7177 10.2241L23.2443 9.05087L23.2908 9.04385C23.3831 9.04695 23.6562 9.08753 24.4674 9.30723C25.6837 9.63595 26.1974 10.0758 26.1974 10.0758L24.7177 10.2241ZM26.8936 9.47189C26.8936 9.47189 25.0982 7.33453 22.179 5.82867C19.2597 4.32282 17.529 4.25844 17.529 4.25844C17.529 4.25844 17.5412 4.94252 19.1023 6.52233C20.6634 8.10214 21.6928 8.72129 21.6928 8.72129C21.6928 8.72129 19.7837 8.27089 17.6704 6.51758C16.2473 5.3372 15.4371 4.15419 15.0598 3.50711C15.0598 3.50711 17.1609 3.51356 19.425 4.09537C21.6891 4.67718 23.9674 6.08749 23.9674 6.08749C23.9674 6.08749 24.2377 6.10242 23.3682 5.51984C22.4988 4.93725 22.2228 4.75951 22.2228 4.75951C22.2228 4.75951 23.7238 5.17533 25.1717 6.36609C26.6196 7.55686 26.6916 7.62077 26.6916 7.62077L25.3849 7.04615C25.3849 7.04615 26.6552 8.03079 27.0387 8.70677C27.4221 9.38276 27.4803 9.46777 27.4803 9.46777L26.8936 9.47189ZM45.0767 16.4299C45.0063 16.6495 44.8753 16.8268 44.6447 16.8946C43.8281 17.1332 43.6315 16.7067 43.4518 16.1371C43.2721 15.5676 43.1718 15.1907 43.1718 15.1907C43.1718 15.1907 42.2615 16.8194 41.1127 16.629C40.4775 16.5247 40.0909 16.3664 39.8724 16.2464C39.8677 16.3752 39.8448 16.5026 39.8045 16.625C39.8045 16.625 40.36 17.2569 41.7116 17.0578C43.0631 16.8587 43.1707 15.1891 43.1707 15.1891C43.1707 15.1891 43.6513 16.4551 44.3441 16.572C44.6029 16.6178 44.8587 16.5422 45.0767 16.4299ZM36.9704 12.6735C37.2294 12.9057 38.9015 14.4263 39.1298 15.1165C39.3761 15.8653 38.8643 16.281 38.8643 16.281C38.8643 16.281 36.0331 13.0984 33.4315 11.4676C30.9808 9.93142 29.0329 9.31911 28.8137 9.25189C28.9848 9.26986 31.7852 9.56612 35.1261 12.1257C38.5748 14.7673 38.2987 15.1231 38.2313 14.6309C38.1638 14.1386 36.9701 12.6725 36.9701 12.6725L36.9704 12.6735ZM28.8047 9.25145C28.8942 9.29229 29.4886 9.58165 31.1255 10.782C32.9153 12.0929 33.4925 12.648 33.4925 12.648C33.4925 12.648 33.2483 14.2202 33.6397 15.5579C34.0312 16.8957 34.531 17.3489 34.531 17.3489C34.531 17.3489 34.4351 17.1943 34.2913 16.7255C34.1476 16.2567 34.1933 15.9571 34.1933 15.9571C34.1933 15.9571 34.547 17.1138 35.9519 17.6112C37.3568 18.1086 39.8437 17.7391 39.8437 17.7391C39.8437 17.7391 40.1542 17.9401 41.1759 18.8768C42.1344 19.7568 42.6087 20.2925 42.6639 20.356L42.6691 20.3617L39.6907 18.0289C39.6907 18.0289 39.3769 18.2982 37.3997 18.314C35.4224 18.3297 34.7895 17.4938 34.7895 17.4938C34.7895 17.4938 34.8784 17.6578 35.1198 17.965C35.3612 18.2721 35.8032 18.5688 35.8032 18.5688C35.8032 18.5688 34.1279 18.4111 33.0369 17.1493C31.9459 15.8875 32.0482 13.8787 32.0482 13.8787C32.0482 13.8787 32.0491 14.1505 32.3118 14.9273C32.5745 15.704 32.8537 15.8532 32.8537 15.8532C32.8537 15.8532 32.7906 15.6949 32.6127 14.7322C32.4348 13.7695 32.5188 12.6036 32.5188 12.6036L28.8047 9.25145ZM49.8658 24.6139C49.6455 24.6844 49.5315 24.7265 49.3869 24.7589C49.2424 24.7913 49.1808 24.802 49.1808 24.802C49.1397 25.1143 49.0083 25.4079 48.8027 25.6466C48.5801 25.7479 48.3457 25.8213 48.1051 25.8651C48.1051 25.8651 48.7281 25.2991 48.9079 24.8925C49.0877 24.4859 49.0245 24.3658 49.0245 24.3658L49.9367 24.2586C49.9278 24.3795 49.904 24.4988 49.8658 24.6139ZM26.1406 19.7484C24.5105 20.126 21.5428 20.9281 18.4483 22.3394C15.4969 23.6834 13.8859 24.6279 13.1046 25.1381C13.0134 25.1528 12.9231 25.1723 12.834 25.1966C12.834 25.1966 15.1378 23.2113 19.639 21.1546C24.1402 19.0979 27.196 18.922 27.196 18.922C27.196 18.922 26.7455 19.2307 26.1403 19.7473L26.1406 19.7484ZM18.7476 24.3495C19.4397 24.1649 20.7832 23.8747 22.7222 23.7569C25.6619 23.5793 28.5576 23.9124 28.5576 23.9124L26.3488 24.7377C26.3488 24.7377 29.6712 24.4747 31.9109 24.6422C34.1506 24.8096 35.8036 25.1683 35.8036 25.1683L34.4892 24.693C34.4892 24.693 34.1414 24.5391 36.59 25.0974C39.0386 25.6558 39.9907 26.1412 39.9907 26.1412C39.9907 26.1412 40.624 26.0266 41.0579 25.912C41.4918 25.7973 41.5051 25.7678 41.5051 25.7678C41.5051 25.7678 41.4956 25.9046 41.1761 26.3732C40.8566 26.8417 40.5818 26.8905 40.5818 26.8905C40.5818 26.8905 41.771 26.9448 42.5343 26.4741C42.8839 26.2581 43.1198 26.1198 43.2724 26.0328C43.1269 26.1989 42.3608 27.0126 41.1547 27.1565C39.8098 27.3169 39.0873 26.9104 39.0873 26.9104C39.0873 26.9104 39.9846 26.8182 40.4478 26.5983C40.911 26.3785 41.054 26.179 41.054 26.179C41.054 26.179 40.889 26.2959 40.4445 26.4268C40.1745 26.5063 39.8958 26.5522 39.6145 26.5633C39.6145 26.5633 37.4449 25.5494 31.7416 25.2986C26.0384 25.0477 21.7331 26.6877 21.7331 26.6877C21.7331 26.6877 22.2953 26.1929 23.6093 25.3803C24.9233 24.5677 25.7374 24.3108 25.7374 24.3108C25.7374 24.3108 22.3193 24.0394 18.7474 24.3485L18.7476 24.3495ZM32.0985 27.1189C30.0734 27.2161 27.0663 27.4592 24.7074 28.0692C23.6784 28.3408 22.6724 28.6932 21.6988 29.1231C21.7239 28.8469 21.7628 28.6412 21.8221 28.607C22.0263 28.4911 23.5917 27.331 27.7758 26.6027C31.9599 25.8744 36.2387 26.3696 36.2387 26.3696C36.2387 26.3696 34.8121 26.4503 32.0985 27.1189Z" fill="#24247A"/>
<path d="M47.3015 23.7593C47.7165 24.0098 48.562 24.3358 48.562 24.3358C48.562 24.3358 47.7976 26.0651 45.7959 25.8562C43.7942 25.6474 40.2003 22.3158 39.0779 21.6318C37.9555 20.9478 38.1711 21.1378 37.6542 20.9151C36.5213 20.4256 35.28 20.0265 34.5343 19.8015L34.4813 19.7861L34.3309 19.7413L34.288 19.7293L34.2843 19.728L34.2406 19.7155L34.2313 19.7125L34.1988 19.7036L34.1783 19.6967L34.1593 19.692L34.1567 19.6904L34.1208 19.6812L34.0857 19.6707L34.0824 19.6693L34.0519 19.661L34.0409 19.6584L34.0216 19.6523L34.0027 19.6476L33.9935 19.6446L33.9689 19.6379L33.9453 19.632L33.9396 19.6301L33.9236 19.6254L33.9137 19.6226L33.906 19.6214L33.8924 19.6173L33.8903 19.6178L33.878 19.6144L33.8694 19.6124L33.8658 19.6111L33.8619 19.612L33.8582 19.6106C33.8582 19.6106 34.3217 19.191 35.3151 19.0621C36.2459 18.9411 36.5067 18.9765 36.5362 18.9821C36.4672 18.9693 35.0613 18.7219 32.8582 18.8218C30.5914 18.9202 28.1068 20.6338 28.1068 20.6338L28.109 20.6333L28.108 20.6291L28.1093 20.6254L28.1088 20.6233L28.1179 20.6086L28.1192 20.6049L28.1222 20.6001L28.1261 20.5888L28.13 20.5834L28.1321 20.5796L28.1348 20.5726L28.1378 20.5679L28.1447 20.5536L28.1485 20.5475L28.1523 20.5403L28.1552 20.5355L28.1566 20.5319L28.1611 20.5245L28.1649 20.5173L28.1692 20.5088L28.1743 20.5006L28.1756 20.4969L28.1794 20.4908L28.1844 20.4811L28.1898 20.4724L28.1949 20.463L28.2007 20.4531L28.2059 20.4437L28.2149 20.429L28.2179 20.4227L28.2299 20.4031L28.2294 20.401L28.243 20.3789L28.2451 20.3784L28.2498 20.3687L28.2613 20.35L28.2631 20.3455L28.271 20.3333L28.2783 20.3208L28.2858 20.3086L28.2934 20.2953L28.3008 20.2831L28.309 20.2693L28.3152 20.2597L28.3173 20.2559L28.3259 20.2423L28.3507 20.2019L28.3554 20.1952L28.3589 20.1881L28.3679 20.1733L28.3764 20.1609L28.3797 20.156L28.3956 20.1311C28.8004 19.5015 29.2984 18.9371 29.8728 18.4571C31.0955 17.4429 31.5117 17.3348 31.5117 17.3348C31.5117 17.3348 27.2688 17.4431 22.1945 18.3427C17.1202 19.2423 15.6046 20.098 15.6046 20.098C15.6046 20.098 19.7986 16.8387 23.4835 16.132C27.1685 15.4254 29.29 16.085 29.29 16.085L27.5831 15.2301C27.5831 15.2301 28.799 15.0265 33.1469 16.0765C33.3891 16.1354 33.6263 16.1976 33.8587 16.2633C34.19 17.0777 34.514 17.3722 34.514 17.3722C34.514 17.3722 34.4181 17.2177 34.2743 16.7489C34.2351 16.6215 34.2063 16.491 34.1884 16.3589C34.2563 16.3797 34.3243 16.4004 34.3923 16.4212C34.6285 16.8027 35.0933 17.3373 35.9352 17.6359C36.5173 17.843 37.286 17.8995 37.9858 17.8957C39.6084 18.7278 40.5805 19.4637 40.5805 19.4637C40.6732 19.5297 40.762 19.5978 40.8469 19.6678C42.2873 20.866 43.6379 22.0897 43.6379 22.0897C43.562 21.8122 43.5076 21.5292 43.4753 21.2433C43.4189 20.7588 43.1992 20.3145 43.1992 20.3145C43.1992 20.3145 44.126 20.9819 44.891 21.611C45.656 22.2401 46.5648 23.315 47.3015 23.7593ZM32.4805 21.5761C32.4805 21.5761 29.4865 21.9525 28.1183 22.6036C26.75 23.2546 26.6802 23.4581 26.6802 23.4581L28.1971 23.411C27.3337 23.6612 26.4849 23.9594 25.6548 24.3043L25.7382 24.3107C25.7382 24.3107 24.9246 24.5666 23.6101 25.3801C22.2956 26.1936 21.7339 26.6875 21.7339 26.6875C21.7339 26.6875 26.0396 25.0463 31.7424 25.2984C37.4452 25.5504 39.6153 26.5631 39.6153 26.5631C39.8965 26.552 40.1753 26.5062 40.4453 26.4266C40.8897 26.2957 41.0548 26.1788 41.0548 26.1788C41.0548 26.1788 40.9113 26.378 40.4485 26.5981C39.9858 26.8183 39.0881 26.9102 39.0881 26.9102C39.0881 26.9102 39.8104 27.316 41.1554 27.1563C42.5005 26.9966 43.2978 26.0011 43.2978 26.0011C43.2978 26.0011 40.2087 25.0395 36.2338 24.3012C32.2588 23.5628 29.8504 23.5514 29.8504 23.5514C29.8504 23.5514 29.9478 23.4769 30.6881 22.8342C31.428 22.1916 32.4805 21.5761 32.4805 21.5761ZM49.0262 24.3665L49.9384 24.2593C49.9384 24.2593 49.9075 24.9629 49.3081 25.3692C48.9453 25.6141 48.5365 25.7827 48.1065 25.8648C48.1065 25.8648 48.7295 25.2987 48.9093 24.8922C49.0892 24.4856 49.0262 24.3665 49.0262 24.3665ZM36.2402 26.371C36.2402 26.371 33.4479 26.5238 28.2426 28.2366C25.5465 29.1237 23.8767 29.8041 22.8927 30.2538L21.6537 30.3782C21.6569 29.7293 21.6841 28.6882 21.8229 28.6087C22.0271 28.4927 23.5925 27.3327 27.7766 26.6043C31.9607 25.876 36.2388 26.3714 36.2388 26.3714L36.2402 26.371Z" fill="white"/>
<path d="M47.3015 23.7593L47.3202 23.7697L47.3363 23.7796L47.3408 23.7815L47.3434 23.7831L47.3607 23.7934L47.3802 23.8035L47.3825 23.8052L47.3846 23.8047L47.403 23.8151L47.4101 23.8186C47.4224 23.8249 47.4344 23.8317 47.4476 23.8389L47.4502 23.8405L47.4645 23.8475L47.4717 23.8513L47.4778 23.855L47.492 23.862L47.4959 23.8644L47.5196 23.8765L47.5352 23.8843L47.5436 23.8885L47.5494 23.8912L47.5638 23.8985L47.576 23.9049L47.5765 23.907L47.5919 23.9137L47.6061 23.9206L47.6172 23.9265L47.6218 23.9287L47.636 23.9357L47.6429 23.9381L47.6516 23.9435L47.667 23.9505L47.6811 23.9568L47.693 23.9632L47.6963 23.9646L47.7189 23.9752L47.7273 23.9794L47.7426 23.9862L47.7452 23.9878L47.7579 23.9929L47.771 23.9994L47.7735 24.0006L47.7886 24.0078L47.798 24.0118L47.8039 24.0145L47.8193 24.0215L47.8241 24.0233L47.8348 24.0293L47.8502 24.036L47.8665 24.0425L47.8759 24.0476L47.8816 24.0496L47.8969 24.0563L47.9027 24.059L47.9122 24.063L47.9276 24.0701L47.9416 24.076L47.9534 24.0817L47.9565 24.0809L47.9719 24.088L47.9788 24.0904L47.9869 24.0948L48.002 24.1008L48.0276 24.1117L48.0297 24.1112L48.0449 24.1172L48.0591 24.1242L48.0743 24.1302L48.0771 24.1295L48.0879 24.1343L48.1007 24.1398L48.1157 24.1455L48.1242 24.1497L48.1298 24.1517L48.1439 24.1576L48.1485 24.1599L48.158 24.1639L48.172 24.1698L48.1848 24.1753L48.1942 24.1793L48.1988 24.1812L48.2116 24.1866C48.4074 24.2679 48.55 24.3231 48.55 24.3231C48.55 24.3231 47.7856 26.0525 45.7839 25.8436C43.7822 25.6348 40.1883 22.3031 39.0659 21.6192C37.9435 20.9352 38.1591 21.1252 37.6422 20.9025C36.5093 20.413 35.268 20.0139 34.5223 19.7889L34.4693 19.7734L34.3189 19.7287L34.276 19.7167L34.2723 19.7154L34.2286 19.7029L34.2193 19.6999L34.1868 19.691L34.1663 19.6841L34.1473 19.6793L34.1447 19.6777L34.1088 19.6685L34.0737 19.658L34.0704 19.6566L34.0399 19.6484L34.0289 19.6458L34.0096 19.6397L33.9907 19.6349L33.9815 19.632L33.9569 19.6252L33.9333 19.6194L33.9276 19.6174L33.9117 19.6127L33.9017 19.6099L33.894 19.6088L33.8804 19.6046L33.8783 19.6051L33.866 19.6018L33.8574 19.5998L33.8538 19.5984L33.8499 19.5993L33.8462 19.598C33.8462 19.598 34.3098 19.1783 35.3031 19.0495C36.0406 18.954 36.3574 18.9567 36.4715 18.9643L34.9502 19.5627C34.9502 19.5627 37.6696 20.4705 38.4904 20.8947C39.3112 21.3188 39.3442 21.4288 39.3442 21.4288C39.3442 21.4288 39.1997 21.1102 38.7336 20.8301C38.2674 20.5501 38.0705 20.4301 38.0705 20.4301C38.0705 20.4301 38.7694 20.5062 39.8509 21.366C40.9324 22.2258 41.0414 22.4213 41.0414 22.4213L40.1088 21.776C40.1088 21.776 40.5503 22.501 41.9381 23.4053C43.3259 24.3096 45.0763 25.558 46.269 25.534C47.4616 25.5101 47.8935 24.474 47.8935 24.474L47.8279 24.4415C47.5358 24.292 47.2519 24.1271 46.9774 23.9474L46.9947 23.9362C46.7474 23.7707 46.5118 23.5884 46.2894 23.3907C45.9073 23.0453 45.6029 22.466 45.4165 22.0481C46.0547 22.6642 46.7255 23.4122 47.3015 23.7593ZM38.3669 19.7044C38.1326 19.58 37.4731 19.6034 37.229 19.6722C37.5417 19.2972 37.9606 19.4233 38.3669 19.7044ZM40.0106 21.0272C39.8727 20.9154 39.5232 20.581 38.7964 20.3263C38.0695 20.0716 37.5579 20.0937 37.5579 20.0937C37.5579 20.0937 37.6346 19.8074 38.4361 20.0472C39.2376 20.287 40.0106 21.0272 40.0106 21.0272ZM36.4492 18.964C36.1164 18.9114 34.7946 18.7302 32.8511 18.8172C30.5913 18.9202 28.1068 20.6338 28.1068 20.6338L28.109 20.6333L28.108 20.6291L28.1093 20.6254L28.1088 20.6233L28.1179 20.6086L28.1192 20.6049L28.1222 20.6001L28.1261 20.5888L28.13 20.5834L28.1321 20.5796L28.1348 20.5726L28.1378 20.5679L28.1447 20.5536L28.1485 20.5475L28.1523 20.5403L28.1552 20.5355L28.1566 20.5319L28.1611 20.5245L28.1649 20.5173L28.1692 20.5088L28.1743 20.5006L28.1756 20.4969L28.1794 20.4908L28.1844 20.4811L28.1898 20.4724L28.1949 20.463L28.2007 20.4531L28.2059 20.4437L28.2149 20.429L28.2179 20.4227L28.2299 20.4031L28.2294 20.401L28.243 20.3789L28.2451 20.3784L28.2498 20.3687L28.2613 20.35L28.2631 20.3455L28.271 20.3333L28.2783 20.3208L28.2858 20.3086L28.2934 20.2953L28.3008 20.2831L28.309 20.2693L28.3152 20.2597L28.3173 20.2559L28.3259 20.2423L28.3507 20.2019L28.3554 20.1952L28.3589 20.1881L28.3679 20.1733L28.3764 20.1609L28.3797 20.156L28.3956 20.1311C28.6369 19.7567 28.911 19.4047 29.2149 19.079C29.9456 18.867 31.2557 18.5567 32.6697 18.5346C34.6731 18.4796 36.2273 18.9008 36.4492 18.964ZM30.8786 17.6749C31.2176 17.4456 31.4042 17.3568 31.482 17.3256L30.8786 17.6749ZM31.5204 17.3112C31.3628 17.3152 27.1862 17.4373 22.2087 18.3201C18.0876 19.0518 16.3134 19.7527 15.7927 19.9908C16.4355 19.6794 18.7551 18.5893 20.8876 17.9749C23.3953 17.2526 24.8968 17.1799 24.8968 17.1799L22.7041 17.1531C22.7041 17.1531 23.618 16.7917 26.3895 16.4931C29.1609 16.1945 32.3449 16.983 32.3449 16.983L31.5204 17.3112ZM32.3323 15.8595C32.5954 15.9184 32.8715 15.9835 33.1625 16.0535C33.4046 16.1124 33.6418 16.1747 33.8742 16.2404C34.2056 17.0548 34.5296 17.3493 34.5296 17.3493C34.5296 17.3493 34.4336 17.1947 34.2899 16.7259C34.2506 16.5985 34.2219 16.4681 34.2039 16.3359C34.2719 16.3567 34.3399 16.3775 34.4078 16.3983C34.6441 16.7797 35.1089 17.3143 35.9508 17.613C36.5329 17.8201 37.3016 17.8765 38.0014 17.8728C38.255 18.0033 38.4915 18.1304 38.7121 18.2533C38.3867 18.2871 37.9604 18.3113 37.3982 18.3158C35.4209 18.3313 34.788 17.4956 34.788 17.4956C34.788 17.4956 34.877 17.6596 35.1184 17.9668C35.3598 18.274 35.8032 18.5688 35.8032 18.5688C35.8032 18.5688 34.1279 18.4111 33.0369 17.1493C32.7016 16.7627 32.4793 16.3064 32.3323 15.8595ZM49.8658 24.6139C49.6455 24.6844 49.5315 24.7265 49.3869 24.7589C49.2424 24.7913 49.1808 24.802 49.1808 24.802C49.1397 25.1143 49.0083 25.4079 48.8027 25.6466C48.5801 25.7479 48.3457 25.8213 48.1051 25.8651C48.1051 25.8651 48.7281 25.2991 48.9079 24.8925C49.0877 24.4859 49.0245 24.3658 49.0245 24.3658L49.9367 24.2586C49.9278 24.3795 49.904 24.4988 49.8658 24.6139ZM27.0264 23.7855C27.9571 23.8439 28.5576 23.9124 28.5576 23.9124L26.3488 24.7377C26.3488 24.7377 29.6712 24.4747 31.9109 24.6422C34.1506 24.8096 35.8036 25.1683 35.8036 25.1683L34.4892 24.693C34.4892 24.693 34.1414 24.5391 36.59 25.0974C39.0386 25.6558 39.9907 26.1412 39.9907 26.1412C39.9907 26.1412 40.624 26.0266 41.0579 25.912C41.4918 25.7973 41.5051 25.7678 41.5051 25.7678C41.5051 25.7678 41.4956 25.9046 41.1761 26.3732C40.8566 26.8417 40.5818 26.8905 40.5818 26.8905C40.5818 26.8905 41.771 26.9448 42.5343 26.4741C42.8839 26.2581 43.1198 26.1198 43.2724 26.0328C43.1269 26.1989 42.3608 27.0126 41.1547 27.1565C39.8098 27.3169 39.0873 26.9104 39.0873 26.9104C39.0873 26.9104 39.9846 26.8182 40.4478 26.5983C40.911 26.3785 41.054 26.179 41.054 26.179C41.054 26.179 40.889 26.2959 40.4445 26.4268C40.1745 26.5063 39.8958 26.5522 39.6145 26.5633C39.6145 26.5633 37.4449 25.5494 31.7416 25.2986C26.0384 25.0477 21.7331 26.6877 21.7331 26.6877C21.7331 26.6877 22.2953 26.1929 23.6093 25.3803C24.9233 24.5677 25.7374 24.3108 25.7374 24.3108L25.654 24.3046C26.1574 24.0962 26.6293 23.9224 27.0258 23.783L27.0264 23.7855ZM32.0985 27.1189C30.0734 27.2161 27.0663 27.4592 24.7074 28.0692C23.6784 28.3408 22.6724 28.6932 21.6988 29.1231C21.7239 28.8469 21.7628 28.6412 21.8221 28.607C22.0263 28.4911 23.5917 27.331 27.7758 26.6027C31.9599 25.8744 36.2387 26.3696 36.2387 26.3696C36.2387 26.3696 34.8121 26.4503 32.0985 27.1189Z" fill="#C1C1E8"/>
<path d="M42.1851 24.9507C42.1851 24.9507 39.6297 22.7404 37.25 21.5674C34.8704 20.3945 34.0102 20.2625 34.0102 20.2625C33.8762 20.598 33.8248 20.9608 33.8603 21.3203C33.9155 21.933 34.2174 22.759 34.2174 22.759L34.674 21.2612L35.1147 22.2028L35.7242 21.6207L36.0182 22.3656C36.0182 22.3656 36.4861 22.4625 37.5974 22.9253C38.7087 23.3882 39.2702 23.695 39.2702 23.695C39.2702 23.695 38.7596 23.4938 37.4326 23.1393C36.1056 22.7849 35.7673 22.7599 35.7673 22.7599L35.5749 22.2661L34.944 22.8425L34.6658 22.1632L34.2466 23.0917L33.947 22.4594C33.947 22.4594 33.8011 23.0217 33.8968 23.2896C33.9925 23.5576 34.3802 23.5445 34.3802 23.5445C34.3802 23.5445 34.9641 23.5484 37.883 23.9357C40.802 24.3229 42.1851 24.9507 42.1851 24.9507Z" fill="white"/>
<path d="M42.1851 24.9507C42.1851 24.9507 39.6297 22.7404 37.25 21.5674C34.8704 20.3945 34.0102 20.2625 34.0102 20.2625C33.8762 20.598 33.8248 20.9608 33.8603 21.3203C33.9155 21.933 34.2174 22.759 34.2174 22.759L34.6753 21.2282L35.3854 21.9435L35.1147 22.2028L34.6722 21.2616L34.2156 22.7594C34.1938 22.5557 34.1597 22.3535 34.1136 22.1539C34.0259 21.7443 34.1539 20.9292 34.1539 20.9292C34.1539 20.9292 35.9549 21.3569 38.4729 22.6879C40.3611 23.6855 41.6215 24.5591 42.1358 24.9336L42.1851 24.9507ZM35.7164 21.6282L35.7242 21.6207L36.0182 22.3656C36.1755 22.4024 36.3305 22.4469 36.4829 22.5004L35.7287 21.596L35.7164 21.6282ZM39.1388 23.6461C38.9127 23.5668 38.3812 23.3914 37.4342 23.1382C36.1076 22.7837 35.7688 22.7588 35.7688 22.7588L35.5765 22.2649L35.3248 22.4953L35.5761 22.9257L39.14 23.6451L39.1388 23.6461ZM34.9398 22.8235L34.6658 22.1632L34.4763 22.5836L34.8457 22.9768L34.9398 22.8235ZM34.2466 23.0917L33.947 22.4594C33.947 22.4594 33.8011 23.0217 33.8968 23.2896C33.9566 23.4606 34.1335 23.5153 34.256 23.5346L34.2466 23.0917Z" fill="#C1C1E8"/>
<path d="M37.5919 16.41L34.9047 13.7624C34.9047 13.7624 35.0858 15.6297 35.6943 16.0168C36.3028 16.404 37.5919 16.41 37.5919 16.41Z" fill="white"/>
<path d="M35.9213 11.7355C35.9213 11.7355 35.0405 10.8826 33.3629 10.0002C31.6854 9.11792 30.2135 8.80073 30.2135 8.80073C30.2135 8.80073 30.7257 8.16339 32.9794 9.27907C35.2331 10.3948 35.9213 11.7355 35.9213 11.7355ZM30.0127 8.3519C29.9238 8.42582 29.8181 8.4766 29.7048 8.4997C29.5916 8.52281 29.4744 8.51752 29.3637 8.48432C28.9814 8.3702 28.5929 8.18714 28.7763 8.12804C28.9596 8.06895 29.0948 7.94469 29.3802 8.04867C29.5977 8.13507 29.8091 8.23639 30.0127 8.3519Z" fill="#24247A"/>
<path d="M30.9631 12.2424C30.9631 12.2424 30.6927 12.5384 30.7892 13.3901C30.8488 13.9034 31.0359 14.3936 31.3333 14.8162C31.3333 14.8162 30.4255 13.9652 30.3524 13.0871C30.2792 12.209 30.9631 12.2424 30.9631 12.2424Z" fill="#24247A"/>
<path d="M29.8905 12.1891C29.8905 12.1891 29.5583 12.3769 29.5459 12.8516C29.5336 13.3262 29.9933 13.8254 29.9933 13.8254C29.9933 13.8254 29.1968 13.4517 29.2538 12.8248C29.3108 12.1979 29.8905 12.1891 29.8905 12.1891Z" fill="#24247A"/>
<path d="M18.9076 9.7413L20.1481 9.75L21.1874 10.1567C21.1874 10.1567 16.1267 11.3065 13.1731 13.61C10.2196 15.9135 9.68329 16.8449 9.68329 16.8449C9.68329 16.8449 10.7462 14.705 12.9585 12.9673C15.1708 11.2296 18.9076 9.7413 18.9076 9.7413Z" fill="#30BDEF"/>
<path d="M29.4298 54.8058L29.1379 54.0386C32.4333 54.8219 34.8556 54.8125 38.1445 54.0766C35.4393 55.4039 32.5113 55.5113 29.5856 55.0016L29.4298 54.8058Z" fill="#30BDEF"/>
<path d="M29.1379 54.0386L29.4298 54.8058L29.5856 55.0016C27.226 53.9667 24.8369 52.1502 23.9373 51.3714L22.8389 48.9094C23.354 50.0608 27.2529 52.8086 29.1379 54.0386Z" fill="#30BDEF"/>
<path d="M14.1984 31.4756L15.5307 31.416L15.9759 31.8978C16.153 32.0893 16.3878 32.2178 16.6446 32.2639C16.6882 32.3201 16.7272 32.3796 16.7613 32.442C16.7654 32.4495 16.7674 32.458 16.7672 32.4665C16.7468 32.7259 16.8113 32.9849 16.9509 33.2045C17.0904 33.4241 17.2975 33.5924 17.541 33.6841C17.7845 33.7758 18.0512 33.786 18.3009 33.713C18.5507 33.6401 18.77 33.488 18.9258 33.2796C19.0752 33.4035 19.2528 33.4887 19.4429 33.5279C19.6567 33.5723 19.8787 33.5574 20.0847 33.485C20.2908 33.4125 20.4731 33.2852 20.6121 33.1167L20.6147 33.1183C20.6168 33.1178 20.8121 32.881 21.0408 32.5424C21.158 32.6806 21.3049 32.7906 21.4705 32.8641C21.6362 32.9375 21.8163 32.9726 21.9974 32.9666C22.1785 32.9606 22.3559 32.9138 22.5164 32.8295C22.6768 32.7453 22.8161 32.6259 22.9239 32.4802L22.9335 32.4675C22.9516 32.441 22.9973 32.3782 23.0585 32.2872C23.235 32.3611 23.4267 32.3915 23.6174 32.3757C23.8911 32.353 24.1488 32.2376 24.348 32.0485C24.4896 31.9201 25.0016 31.4306 25.2431 30.8729C25.3699 30.5687 25.4458 30.2457 25.4677 29.9168C25.4812 29.8988 25.4942 29.882 25.5067 29.8645L25.5188 29.8457C25.5391 29.8156 25.558 29.7848 25.5746 29.7538C25.7794 29.3938 26.3241 28.1899 25.5011 26.6917C24.4987 24.8654 22.2294 25.082 22.2221 25.0826C22.0469 25.0976 21.8772 25.1509 21.7248 25.2387C20.7474 24.911 19.7976 25.2266 19.4759 25.3562C19.3002 25.418 19.1411 25.5195 19.0111 25.6528C17.6686 25.4332 16.4984 25.9921 16.495 25.9936C16.3044 26.0824 16.1406 26.2199 16.0202 26.3922C15.179 26.5514 14.6562 26.8026 14.2741 27.1475C13.8514 27.527 13.6851 27.9018 13.4957 28.3537C13.2001 29.0611 12.9809 29.9936 12.9797 29.9965C12.9059 30.3063 12.9581 30.6327 13.1248 30.904C13.2916 31.1753 13.5593 31.3693 13.869 31.4433C13.9767 31.4694 14.0876 31.4803 14.1984 31.4756Z" fill="#151630"/>
<path d="M14.145 30.2747L15.607 30.207L15.8513 29.4074L15.9448 30.092L16.8565 31.0784C16.8565 31.0784 16.9422 29.9751 17.2084 29.702C17.4747 29.4289 17.8399 29.6016 17.8399 29.6016C17.8399 29.6016 17.4537 27.3433 16.2531 27.5677C15.0525 27.7922 14.863 28.197 14.6018 28.8179C14.3407 29.4389 14.145 30.2747 14.145 30.2747ZM23.2302 29.7013C23.2302 29.7013 23.8557 28.6722 23.9954 28.7188C24.1352 28.7654 24.5171 29.1735 24.5171 29.1735C24.5171 29.1735 25.0678 28.4031 24.4442 27.2688C23.8206 26.1345 22.3256 26.2779 22.3256 26.2779C22.3256 26.2779 22.8707 26.9048 23.1111 27.6907C23.3515 28.4765 23.2303 29.702 23.2303 29.702L23.2302 29.7013ZM24.2747 29.5835L24.0066 29.1834C24.0066 29.1834 23.313 29.8275 23.3832 30.1394C23.4534 30.4512 23.5161 31.1725 23.5161 31.1725C23.5161 31.1725 23.9731 30.7785 24.1413 30.3929C24.3095 30.0073 24.2749 29.5842 24.2749 29.5842L24.2747 29.5835ZM22.504 30.0379C22.504 30.0379 22.4711 29.6496 22.083 29.7311C21.6949 29.8125 21.4719 30.1705 21.4719 30.1705C21.4719 30.1705 21.852 30.9688 21.9136 31.3002C21.9751 31.6315 21.957 31.7633 21.957 31.7633C21.957 31.7633 22.5788 30.9149 22.6244 30.6319C22.6701 30.349 22.5042 30.0386 22.5042 30.0386L22.504 30.0379ZM22.5241 29.362C22.5241 29.362 22.4094 29.0237 22.1016 29.1155C21.7938 29.2074 21.1918 29.9585 21.1918 29.9585C21.1918 29.9585 21.3344 28.3395 21.0027 27.6815C20.671 27.0235 19.8762 26.4912 19.8762 26.4912C19.8762 26.4912 21.1091 25.8881 21.9656 26.7862C22.8221 27.6843 22.8757 28.4715 22.8094 28.8045C22.7647 29.0123 22.6664 29.2047 22.5243 29.3627L22.5241 29.362ZM20.3177 29.9573C20.3177 29.9573 20.1641 29.6606 19.7811 29.9042C19.6717 29.9696 19.5802 30.061 19.5147 30.1703C19.4493 30.2796 19.4119 30.4034 19.406 30.5306C19.406 30.5306 19.6817 31.1127 19.7174 31.5822C19.7531 32.0516 19.6849 32.3503 19.6849 32.3503C19.6849 32.3503 20.5001 31.3674 20.548 30.8697C20.596 30.372 20.3179 29.958 20.3179 29.958L20.3177 29.9573ZM17.0057 27.0818C17.0057 27.0818 17.8661 27.4687 18.085 27.835C18.3039 28.2013 18.4162 28.6473 18.4162 28.6473C18.4162 28.6473 18.6492 28.2691 18.8963 28.1762C19.0375 28.1213 19.1873 28.0919 19.3387 28.0892C19.3387 28.0892 18.7378 28.4969 18.6084 28.9963C18.4789 29.4957 18.845 30.5415 18.845 30.5415C18.845 30.5415 19.1851 29.54 19.5546 29.3422C19.9241 29.1444 20.3376 29.4708 20.3376 29.4708C20.3376 29.4708 21.2874 28.5735 20.0094 27.4161C18.7315 26.2588 17.0058 27.0822 17.0058 27.0822L17.0057 27.0818ZM17.6419 29.8706L17.3023 31.1681C17.3023 31.1681 17.6866 31.5971 17.8384 31.9076C17.9312 32.1107 17.974 32.3331 17.9633 32.5561C17.9633 32.5561 18.4208 31.3824 18.2622 30.83C18.1037 30.2777 17.642 29.8709 17.642 29.8709L17.6419 29.8706Z" fill="#414196"/>
<path d="M14.1454 30.2749L15.6073 30.2072L15.8516 29.4076L15.9452 30.0922L16.8569 31.0786C16.8569 31.0786 16.9425 29.9753 17.2088 29.7022C17.475 29.4291 17.8402 29.6018 17.8402 29.6018C17.8402 29.6018 17.827 29.5249 17.7984 29.4006C17.7324 29.2211 17.5673 29.019 17.1512 29.2373C16.4928 29.5828 16.3813 30.0456 16.3813 30.0456L16.1209 29.6392L16.0303 28.7871C16.0303 28.7871 15.3994 29.1701 15.2103 29.2314C15.0826 29.2723 14.7249 29.1512 14.5039 29.067C14.3638 29.4632 14.2441 29.8664 14.1454 30.2749ZM17.9638 32.4488C17.9631 32.4457 18.1197 31.7968 17.8414 31.289C17.6606 30.9595 17.528 30.7074 17.4573 30.5702L17.3011 31.1683C17.3011 31.1683 17.6855 31.5972 17.8372 31.9077C17.9162 32.0777 17.9599 32.2619 17.9654 32.4492L17.9638 32.4488ZM23.5164 31.1727C23.5164 31.1727 23.8476 30.4728 23.8746 29.9927C23.8899 29.7023 23.9011 29.4409 23.9086 29.2805C23.7202 29.4716 23.3294 29.9009 23.3837 30.1403C23.4554 30.4518 23.518 31.1731 23.518 31.1731L23.5164 31.1727ZM24.7127 28.663C24.5604 28.5142 24.3541 28.332 24.1635 28.2386C23.805 28.0617 23.7556 28.2763 23.7556 28.2763C23.7556 28.2763 23.4512 27.2201 23.0496 26.8149C22.648 26.4096 22.3243 26.2774 22.3243 26.2774C22.3243 26.2774 22.8694 26.9043 23.1098 27.6901C23.3502 28.476 23.2293 29.7026 23.2293 29.7026C23.2293 29.7026 23.8548 28.6735 23.9945 28.7201C24.1343 28.7666 24.5162 29.1747 24.5162 29.1747C24.5162 29.1747 24.6523 28.988 24.7142 28.663L24.7127 28.663ZM21.9708 31.7451L21.9489 31.5455C21.9589 31.6179 21.9613 31.6912 21.9561 31.7642L21.9708 31.7451ZM21.9482 31.5423C21.9482 31.5423 22.2364 30.8548 22.1643 30.4485C22.1107 30.1412 22.041 29.867 22.0097 29.7504C21.665 29.8581 21.4709 30.1714 21.4709 30.1714C21.4709 30.1714 21.8511 30.9697 21.9126 31.3011C21.9323 31.3986 21.9438 31.4778 21.9496 31.5423L21.9482 31.5423ZM22.6762 29.1506C22.6523 28.941 22.5777 28.7006 22.3706 28.6157C21.9764 28.4536 21.811 28.5784 21.811 28.5784C21.811 28.5784 21.8246 27.8611 21.2971 27.2908C20.7696 26.7204 19.8752 26.4906 19.8752 26.4906C19.8752 26.4906 20.6697 27.023 21.0018 27.6809C21.3338 28.3388 21.1921 29.9587 21.1921 29.9587C21.1921 29.9587 21.793 29.209 22.1023 29.1172C22.4116 29.0253 22.5248 29.3636 22.5248 29.3636C22.5835 29.2985 22.6347 29.227 22.6776 29.1506L22.6762 29.1506ZM19.6946 32.2983C19.6946 32.2983 20.0933 31.2505 20.044 30.8265C20.0089 30.5248 19.8705 30.1095 19.7931 29.8961L19.7813 29.9041C19.6719 29.9694 19.5804 30.0608 19.515 30.1701C19.4495 30.2794 19.4122 30.4032 19.4062 30.5305C19.4062 30.5305 19.6819 31.1126 19.7176 31.582C19.738 31.8208 19.7308 32.0612 19.6961 32.2983L19.6946 32.2983ZM20.5198 29.2259L20.515 29.2059C20.515 29.2059 20.0924 28.6172 19.5295 28.902C18.9667 29.1868 18.9431 29.2043 18.9431 29.2043C18.9431 29.2043 18.7729 28.9794 19.1376 28.5727C19.5023 28.1659 19.8491 28.1396 19.8491 28.1396C19.8491 28.1396 19.4668 27.6975 19.1692 27.7095C18.8715 27.7215 18.8497 27.7389 18.8497 27.7389C18.8497 27.7389 18.2913 27.1615 17.7798 26.8501C17.513 26.8957 17.2527 26.9736 17.0046 27.082C17.0046 27.082 17.865 27.4689 18.0839 27.8352C18.3028 28.2015 18.4151 28.6474 18.4151 28.6474C18.4151 28.6474 18.648 28.2693 18.8952 28.1764C19.0364 28.1215 19.1861 28.0921 19.3376 28.0894C19.3376 28.0894 18.7367 28.4971 18.6072 28.9965C18.4778 29.4958 18.8438 30.5417 18.8438 30.5417C18.8438 30.5417 19.1839 29.5402 19.5535 29.3424C19.923 29.1446 20.3365 29.471 20.3365 29.471C20.409 29.3981 20.4711 29.3157 20.5213 29.2259L20.5198 29.2259Z" fill="#24247A"/>
<path d="M48.4735 26.9523L48.2415 26.8967L48.2211 26.9783L47.7435 26.9833L47.6284 26.8586L47.4917 26.9858L46.9237 26.9906L48.5891 28.7911L48.6149 28.4514C48.7547 28.6144 48.9154 28.8242 48.9977 28.9931C49.0313 29.0644 49.0554 29.1399 49.0692 29.2176C49.0794 29.2721 49.0853 29.3273 49.0869 29.3827L49.0883 29.4194C49.0877 29.431 49.0873 29.4415 49.0865 29.4524L49.3115 30.1026L49.6198 29.722L49.6726 29.5878C49.8584 29.1135 50.1068 28.2517 49.9654 27.7572C49.868 27.4199 49.6663 27.104 49.4304 26.8477L49.291 26.6958L49.0985 26.7693C49.0466 26.7892 48.9933 26.8082 48.9398 26.8262L48.869 26.8506L48.8182 26.7516L48.7793 26.8987L48.4735 26.9523ZM50.496 27.7139C50.6101 27.963 50.7301 28.3093 50.7504 28.5753C50.7504 28.576 50.7506 28.5767 50.7509 28.5774C50.7553 28.6297 50.7587 28.6889 50.7601 28.7504C50.7641 28.8942 50.7549 29.0381 50.7326 29.1802L50.7296 29.2032C50.7285 29.2064 50.7282 29.2098 50.7268 29.2131L50.8724 29.6281L51.2574 29.4729C51.5589 29.1087 52.0981 28.3723 52.1421 27.906C52.1429 27.8972 52.1432 27.889 52.1444 27.8802L52.4903 27.4476C52.5603 27.5991 52.6265 27.7533 52.6897 27.9072C52.7412 28.0356 52.8116 28.2059 52.8364 28.3404C52.8482 28.4069 52.8587 28.474 52.8665 28.5403L52.8681 28.5474C52.8747 28.5937 52.8771 28.6405 52.8753 28.6872L53.2198 29.1817L53.4233 28.9006C53.4416 28.8762 53.4613 28.8485 53.4832 28.8181L53.5048 28.7888C53.669 28.5583 53.9084 28.2027 54.0327 27.928L54.2808 27.5217C54.2861 27.5623 54.2916 27.6022 54.2957 27.6412C54.3183 27.8237 54.3383 28.0079 54.3533 28.1914L54.3855 28.5639L54.9031 28.3518C55.14 28.1387 55.4045 27.8274 55.5254 27.5461C55.6364 27.2746 55.6883 26.9825 55.6775 26.6893L55.8505 26.4463C55.9717 26.2776 56.0555 26.0222 56.0916 25.8216C56.0939 25.8051 56.0973 25.7884 56.0997 25.7722L56.1155 25.6832L56.1102 25.6782C56.1581 25.2035 56.0298 24.7373 55.8 24.3177C55.4966 23.7656 54.9837 23.4385 54.3796 23.2945C54.1153 23.2321 53.8437 23.2056 53.5722 23.2158L52.4569 22.761L53.1971 23.6051C52.7875 23.2873 52.2834 23.1801 51.7539 23.2543L51.5331 23.2842L51.5004 23.4773L51.3736 24.2366L51.4087 24.2704L51.2557 24.7146C51.1132 25.1246 50.888 25.5009 50.594 25.8202L50.5748 25.8407C50.4185 26.0087 50.2426 26.1573 50.0509 26.2834C49.9856 26.3264 49.9186 26.3672 49.85 26.4056L49.6721 26.509L49.7028 26.7117C49.752 27.0353 49.8315 27.3536 49.9401 27.6624L50.2326 28.491L50.4957 27.7125L50.496 27.7139ZM53.9398 26.6499C54.0025 26.5825 54.0575 26.5085 54.1041 26.429C54.0987 26.5382 54.0915 26.6429 54.0817 26.7379L54.042 27.1265C54.026 27.081 54.0078 27.0361 53.9886 26.9944C53.9701 26.906 53.9357 26.8217 53.8871 26.7456C53.8818 26.7372 53.8758 26.7294 53.8705 26.721L53.9321 26.6581L53.9398 26.6499Z" fill="#151630"/>
<path d="M45.7686 27.3125L45.9492 27.3037L45.7686 27.3125ZM47.6115 27.2881L48.3398 28.075C48.363 27.8016 48.4047 27.5302 48.4647 27.2625L47.6115 27.2881ZM45.7703 27.3058L45.7686 27.3125L45.7703 27.3058ZM54.3829 26.7689C54.3829 26.7689 54.9769 25.7925 55.111 25.8371C55.2451 25.8818 55.6047 26.2681 55.6047 26.2681C55.6047 26.2681 56.1271 25.5372 55.5359 24.4622C54.9446 23.3872 53.5249 23.5215 53.5249 23.5215C53.5249 23.5215 54.042 24.1151 54.2702 24.8623C54.4984 25.6095 54.3829 26.7689 54.3829 26.7689ZM55.3739 26.6565L55.1206 26.278C55.1206 26.278 54.4627 26.8873 54.5297 27.1843C54.5968 27.4814 54.656 28.1635 54.656 28.1635C54.656 28.1635 55.0897 27.7895 55.2489 27.4238C55.4081 27.0581 55.3739 26.6565 55.3739 26.6565ZM53.6958 27.0876C53.6958 27.0876 53.6635 26.7203 53.296 26.7968C52.9286 26.8733 52.7163 27.2139 52.7163 27.2139C52.7163 27.2139 53.0762 27.9711 53.1347 28.285C53.1932 28.599 53.1766 28.7234 53.1766 28.7234C53.1766 28.7234 53.7657 27.9198 53.8091 27.6507C53.8526 27.3817 53.6958 27.0876 53.6958 27.0876ZM53.7143 26.4465C53.7143 26.4465 53.6053 26.1261 53.3129 26.2128C53.0206 26.2995 52.4508 27.0121 52.4508 27.0121C52.4508 27.0121 52.5869 25.4755 52.271 24.8526C52.1309 24.5771 51.9069 24.3243 51.7002 24.1277L51.7953 23.5547C52.2018 23.4988 52.7457 23.542 53.1855 24.0044C53.9985 24.8558 54.0478 25.6015 53.985 25.9181C53.9421 26.1148 53.8488 26.2969 53.7143 26.4465ZM51.6218 27.0116C51.6218 27.0116 51.4766 26.7303 51.1126 26.9605C51.0091 27.0227 50.9226 27.1095 50.8606 27.2131C50.7986 27.3168 50.7631 27.4341 50.7572 27.5547C50.7572 27.5547 51.0184 28.1069 51.0525 28.5512C51.0866 28.9955 51.0222 29.2803 51.0222 29.2803C51.0222 29.2803 51.7947 28.3483 51.8403 27.8764C51.8859 27.4045 51.6218 27.0116 51.6218 27.0116ZM50.0025 26.6715C50.0525 26.9754 50.1273 27.2746 50.226 27.5663C50.226 27.5663 50.548 26.6173 50.8991 26.4295C51.2503 26.2416 51.6404 26.551 51.6404 26.551C51.6404 26.551 52.4264 25.8096 51.5423 24.8162C51.304 25.511 50.816 26.1488 50.2168 26.5417C50.1488 26.5843 50.0754 26.6278 50.0025 26.6715ZM49.0367 27.1118L48.7623 28.1587C48.7623 28.1587 49.1266 28.5662 49.2704 28.8604C49.3583 29.0533 49.3991 29.2642 49.3896 29.4759C49.3896 29.4759 49.8234 28.3623 49.6728 27.8388C49.5731 27.4921 49.3468 27.2047 49.206 27.0513C49.1502 27.072 49.093 27.0931 49.0367 27.1118Z" fill="#414196"/>
<path d="M45.7687 27.3113L45.9493 27.3025L45.7704 27.3046L45.7687 27.3113ZM47.6116 27.287L48.3399 28.0738C48.3631 27.8005 48.4048 27.529 48.4648 27.2613C48.4292 27.2676 48.3938 27.2742 48.358 27.2795L47.6116 27.287ZM49.3905 29.3727C49.3915 29.3691 49.5388 28.7539 49.2754 28.273C49.1038 27.9602 48.9782 27.7201 48.9115 27.5901L48.7627 28.1575C48.7627 28.1575 49.1271 28.5649 49.2709 28.8592C49.3459 29.0202 49.3866 29.1951 49.3905 29.3727ZM54.6561 28.1623C54.6561 28.1623 54.9707 27.4985 54.9952 27.0436C55.0104 26.768 55.0211 26.5186 55.0282 26.3687C54.8491 26.5494 54.479 26.9582 54.5302 27.1846C54.5973 27.4787 54.6561 28.1623 54.6561 28.1623ZM55.7909 25.7825C55.6457 25.6405 55.4508 25.4689 55.2699 25.3788C54.9304 25.2111 54.8835 25.4147 54.8835 25.4147C54.8835 25.4147 54.5939 24.4124 54.2144 24.0285C53.835 23.6447 53.5264 23.52 53.5264 23.52C53.5264 23.52 54.0435 24.1135 54.2717 24.8608C54.4999 25.608 54.384 26.769 54.384 26.769C54.384 26.769 54.977 25.7914 55.1111 25.836C55.2452 25.8806 55.6048 26.2669 55.6048 26.2669C55.6984 26.1195 55.7614 25.9549 55.7902 25.7827L55.7909 25.7825ZM53.192 28.7022L53.1718 28.5125C53.181 28.5813 53.1833 28.6508 53.1784 28.7199L53.192 28.7022ZM53.1713 28.5104C53.1713 28.5104 53.4438 27.8582 53.3757 27.4732C53.3249 27.1819 53.2584 26.9214 53.2287 26.811C52.9043 26.9128 52.7181 27.2105 52.7181 27.2105C52.7181 27.2105 53.078 27.9677 53.1365 28.2816C53.1526 28.3752 53.1634 28.4512 53.1696 28.5127L53.1713 28.5104ZM53.8604 26.2429C53.8379 26.0434 53.7677 25.8152 53.5717 25.7351C53.198 25.5811 53.0414 25.6993 53.0414 25.6993C53.0414 25.6993 53.0517 25.0195 52.5528 24.479C52.317 24.2227 52.0029 24.0393 51.7363 23.9163L51.7019 24.1239C51.9087 24.3205 52.134 24.573 52.2727 24.8488C52.5886 25.4717 52.4525 27.0083 52.4525 27.0083C52.4525 27.0083 53.0232 26.2962 53.3147 26.209C53.6061 26.1218 53.716 26.4427 53.716 26.4427C53.771 26.3826 53.8189 26.3163 53.8588 26.2451L53.8604 26.2429ZM51.0322 29.2293C51.0322 29.2293 51.4087 28.2358 51.3629 27.834C51.3293 27.5482 51.1982 27.1553 51.1243 26.9521L51.1134 26.9591C51.0099 27.0214 50.9234 27.1082 50.8614 27.2118C50.7994 27.3154 50.7639 27.4328 50.758 27.5534C50.758 27.5534 51.0192 28.1056 51.0533 28.5499C51.0727 28.7764 51.0656 29.0044 51.0322 29.2293ZM51.8147 26.3162L51.8103 26.2976C51.8103 26.2976 51.4095 25.738 50.8744 26.0088L50.7958 26.0488C50.623 26.2342 50.4288 26.3984 50.2174 26.5382C50.1484 26.5828 50.0769 26.6263 50.0023 26.6705C50.0524 26.9743 50.1273 27.2735 50.2261 27.5651C50.2261 27.5651 50.5481 26.6161 50.8992 26.4283C51.2504 26.2405 51.6406 26.5498 51.6406 26.5498C51.7088 26.4803 51.7672 26.4018 51.814 26.3163L51.8147 26.3162Z" fill="#24247A"/>
<path d="M5.49853 31.5203L5.74658 31.9853L16.0335 30.9834L7.93172 30.9296L5.49853 31.5203Z" fill="#30BDEF"/>
</svg>
