<svg width="28" height="29" viewBox="0 0 28 29" fill="none" xmlns="http://www.w3.org/2000/svg">
<path d="M16.625 12.1154H20.125" stroke="white" stroke-width="1.5" stroke-linecap="round" stroke-linejoin="round"/>
<path d="M7.875 12.1154H11.375" stroke="white" stroke-width="1.5" stroke-linecap="round" stroke-linejoin="round"/>
<path d="M9.625 10.3654V13.8654" stroke="white" stroke-width="1.5" stroke-linecap="round" stroke-linejoin="round"/>
<path d="M18.8124 6.39505L9.18743 6.42786C7.85059 6.43041 6.55719 6.90288 5.53348 7.76263C4.50978 8.62239 3.82093 9.81469 3.58743 11.131V11.131L1.79368 20.3294C1.67851 20.9718 1.77154 21.6341 2.0592 22.2199C2.34687 22.8057 2.81414 23.2842 3.39287 23.5858C3.9716 23.8874 4.63154 23.9962 5.27646 23.8964C5.92137 23.7966 6.51755 23.4934 6.97806 23.031V23.031L11.7031 17.8029L18.8124 17.7701C20.3208 17.7701 21.7675 17.1708 22.8341 16.1042C23.9007 15.0376 24.4999 13.591 24.4999 12.0825C24.4999 10.5741 23.9007 9.12749 22.8341 8.06088C21.7675 6.99427 20.3208 6.39505 18.8124 6.39505V6.39505Z" stroke="white" stroke-width="1.5" stroke-linecap="round" stroke-linejoin="round"/>
<path d="M24.4125 11.0982L26.2063 20.3294C26.3214 20.9718 26.2284 21.6341 25.9407 22.2199C25.6531 22.8057 25.1858 23.2842 24.6071 23.5858C24.0283 23.8874 23.3684 23.9962 22.7235 23.8964C22.0786 23.7966 21.4824 23.4934 21.0219 23.031V23.031L16.2969 17.781" stroke="white" stroke-width="1.5" stroke-linecap="round" stroke-linejoin="round"/>
</svg>
