<svg width="66" height="66" viewBox="0 0 66 66" fill="none" xmlns="http://www.w3.org/2000/svg">
<path fill-rule="evenodd" clip-rule="evenodd" d="M36.1213 15.8125C34.9965 15.8125 33.9433 15.2625 33.2998 14.3413L30.833 10.802C29.4195 8.7725 27.1013 7.5625 24.629 7.5625C21.1833 7.5625 15.3258 7.5625 11 7.5625C6.82275 7.5625 3.4375 10.9478 3.4375 15.125V50.875C3.4375 52.8798 4.235 54.8048 5.65125 56.2238C7.07025 57.64 8.99525 58.4375 11 58.4375H55C57.0048 58.4375 58.9298 57.64 60.3488 56.2238C61.765 54.8048 62.5625 52.8798 62.5625 50.875V23.375C62.5625 21.3703 61.765 19.4453 60.3488 18.0263C58.9298 16.61 57.0048 15.8125 55 15.8125H36.1213ZM29.0428 40.5625L29.645 39.9575C30.4508 39.1545 30.4508 37.8455 29.645 37.0425C28.842 36.2368 27.533 36.2368 26.73 37.0425L22.605 41.1675C22.3575 41.415 22.1843 41.7093 22.0908 42.0228L22.088 42.0283C22.0358 42.2015 22.0055 42.3858 22 42.5755V42.6663V42.6745C22.0055 42.8643 22.0358 43.0485 22.088 43.2218L22.0908 43.2273C22.1843 43.5408 22.3575 43.835 22.605 44.0825L26.73 48.2075C27.533 49.0133 28.842 49.0133 29.645 48.2075C30.4508 47.4045 30.4508 46.0955 29.645 45.2925L29.0428 44.6875H37.8125C38.951 44.6875 39.875 43.7635 39.875 42.625C39.875 41.4865 38.951 40.5625 37.8125 40.5625H29.0428ZM43.9093 31.0228C43.8158 30.7093 43.6425 30.415 43.395 30.1675L39.27 26.0425C38.467 25.2368 37.158 25.2368 36.355 26.0425C35.5493 26.8455 35.5493 28.1545 36.355 28.9575L36.9573 29.5625H28.1875C27.049 29.5625 26.125 30.4865 26.125 31.625C26.125 32.7635 27.049 33.6875 28.1875 33.6875H36.9573L36.355 34.2925C35.5493 35.0955 35.5493 36.4045 36.355 37.2075C37.158 38.0133 38.467 38.0133 39.27 37.2075L43.395 33.0825C43.6425 32.835 43.8158 32.5408 43.9093 32.2273L43.912 32.2218C43.9643 32.0485 43.9945 31.8643 44 31.6745V31.5838V31.5755C43.9945 31.3858 43.9643 31.2015 43.912 31.0283L43.9093 31.0228Z" fill="#1E68E4"/>
</svg>
