<svg width="63" height="63" viewBox="0 0 63 63" fill="none" xmlns="http://www.w3.org/2000/svg">
<path d="M2.67356 40.7285H18.5801C28.7567 40.7285 37.0371 32.4481 37.0371 22.2715C37.0371 12.0949 28.7567 3.81445 18.5801 3.81445C8.40349 3.81445 0 12.0949 0 22.2715C0 27.1363 2.04086 31.7794 5.4276 35.2202L2.67356 40.7285ZM20.4258 33.3457H16.7344V29.6543H20.4258V33.3457ZM18.5801 11.1973C22.6518 11.1973 25.9629 14.5083 25.9629 18.5801C25.9629 21.3378 24.4434 23.8469 21.9975 25.1247C21.0278 25.633 20.4258 26.7163 20.4258 27.8086H16.7344C16.7344 25.2455 18.0953 22.9997 20.2851 21.8551C21.5108 21.2134 22.2715 19.9589 22.2715 18.5801C22.2715 16.5451 20.615 14.8887 18.5801 14.8887C16.5451 14.8887 14.8887 16.5451 14.8887 18.5801H11.1973C11.1973 14.5083 14.5083 11.1973 18.5801 11.1973Z" fill="#1E68E4"/>
<path d="M40.7094 22.6583C40.5463 32.0236 34.5473 39.9697 26.1973 43.0422C27.3503 52.1186 35.036 59.1855 44.4204 59.1855H60.3269L57.5727 53.6772C60.9596 50.2365 63.0005 45.5933 63.0005 40.7285C63.0005 30.5351 54.6138 22.2715 44.4204 22.2715C43.1503 22.2715 41.9094 22.4055 40.7094 22.6583ZM53.6489 46.2656H38.8833V42.5742H53.6489V46.2656ZM53.6489 38.8828H38.8833V35.1914H53.6489V38.8828Z" fill="#1E68E4"/>
</svg>
