<svg width="60" height="60" viewBox="0 0 60 60" fill="none" xmlns="http://www.w3.org/2000/svg">
<path d="M47.5 2.5H12.5C11.9009 2.5069 11.3243 2.72869 10.875 3.125C12.6578 3.75225 14.2264 4.8719 15.399 6.35417C16.5715 7.83644 17.3 9.62064 17.5 11.5C17.5382 11.8322 17.5382 12.1678 17.5 12.5V55C17.4988 55.4782 17.6348 55.9466 17.8918 56.3499C18.1488 56.7531 18.5161 57.0742 18.95 57.275C19.385 57.4752 19.8683 57.5464 20.3425 57.4799C20.8167 57.4134 21.2619 57.2121 21.625 56.9L28.75 50.8L35.875 56.9C36.3278 57.2873 36.9041 57.5002 37.5 57.5002C38.0959 57.5002 38.6722 57.2873 39.125 56.9L46.25 50.8L53.375 56.9C53.8279 57.2873 54.4041 57.5 55 57.5C55.3617 57.4974 55.719 57.4209 56.05 57.275C56.484 57.0742 56.8512 56.7531 57.1082 56.3499C57.3652 55.9466 57.5012 55.4782 57.5 55V12.5C57.5 9.84784 56.4464 7.3043 54.5711 5.42893C52.6957 3.55357 50.1522 2.5 47.5 2.5ZM45 37.5H30C29.337 37.5 28.7011 37.2366 28.2322 36.7678C27.7634 36.2989 27.5 35.663 27.5 35C27.5 34.337 27.7634 33.7011 28.2322 33.2322C28.7011 32.7634 29.337 32.5 30 32.5H45C45.663 32.5 46.2989 32.7634 46.7678 33.2322C47.2366 33.7011 47.5 34.337 47.5 35C47.5 35.663 47.2366 36.2989 46.7678 36.7678C46.2989 37.2366 45.663 37.5 45 37.5ZM45 27.5H30C29.337 27.5 28.7011 27.2366 28.2322 26.7678C27.7634 26.2989 27.5 25.663 27.5 25C27.5 24.337 27.7634 23.7011 28.2322 23.2322C28.7011 22.7634 29.337 22.5 30 22.5H45C45.663 22.5 46.2989 22.7634 46.7678 23.2322C47.2366 23.7011 47.5 24.337 47.5 25C47.5 25.663 47.2366 26.2989 46.7678 26.7678C46.2989 27.2366 45.663 27.5 45 27.5ZM45 17.5H30C29.337 17.5 28.7011 17.2366 28.2322 16.7678C27.7634 16.2989 27.5 15.663 27.5 15C27.5 14.337 27.7634 13.7011 28.2322 13.2322C28.7011 12.7634 29.337 12.5 30 12.5H45C45.663 12.5 46.2989 12.7634 46.7678 13.2322C47.2366 13.7011 47.5 14.337 47.5 15C47.5 15.663 47.2366 16.2989 46.7678 16.7678C46.2989 17.2366 45.663 17.5 45 17.5ZM12.5 12.5V32.5H5C4.33696 32.5 3.70107 32.2366 3.23223 31.7678C2.76339 31.2989 2.5 30.663 2.5 30V12.5C2.5 12.15 2.5 11.825 2.5 11.5C2.63261 10.1739 3.28657 8.95483 4.31802 8.11091C5.34947 7.267 6.67392 6.86739 8 7C9.32608 7.13261 10.5452 7.78657 11.3891 8.81802C12.233 9.84947 12.6326 11.1739 12.5 12.5Z" fill="#1E68E4"/>
</svg>
