<svg width="71" height="71" viewBox="0 0 71 71" fill="none" xmlns="http://www.w3.org/2000/svg">
<path d="M61.486 34.1638C60.7358 34.1638 60.1465 34.7531 60.1465 35.4896C60.1465 36.2398 60.7358 36.8291 61.486 36.8291C62.2231 36.8291 62.8254 36.2398 62.8254 35.4896C62.8254 34.7531 62.2231 34.1638 61.486 34.1638Z" fill="#1E68E4"/>
<path d="M61.486 38.2627C60.7358 38.2627 60.1465 38.852 60.1465 39.5884C60.1465 40.3386 60.7358 40.9279 61.486 40.9279C62.2231 40.9279 62.8254 40.3386 62.8254 39.5884C62.8254 38.852 62.2231 38.2627 61.486 38.2627Z" fill="#1E68E4"/>
<path d="M61.486 30.0511C60.7358 30.0511 60.1465 30.6542 60.1465 31.4044C60.1465 32.1408 60.7358 32.7438 61.486 32.7438C62.2231 32.7438 62.8254 32.1408 62.8254 31.4044C62.8254 30.6542 62.2231 30.0511 61.486 30.0511Z" fill="#1E68E4"/>
<path d="M51.9757 52.4607C51.306 52.7956 51.0378 53.5863 51.359 54.2561C51.6818 54.8825 52.4427 55.2155 53.1543 54.8584C53.824 54.5373 54.0916 53.7335 53.7567 53.0637C53.4355 52.4071 52.6317 52.1396 51.9757 52.4607Z" fill="#1E68E4"/>
<path d="M43.8053 56.4929C43.1487 56.814 42.8674 57.6178 43.2023 58.2745C43.5249 58.9577 44.3253 59.2035 44.997 58.8906C45.6537 58.5557 45.9349 57.765 45.6 57.0953C45.2789 56.4255 44.4751 56.158 43.8053 56.4929Z" fill="#1E68E4"/>
<path d="M47.8902 54.4699C47.2205 54.8048 46.953 55.6086 47.2741 56.2653C47.6303 56.9565 48.4449 57.1934 49.0688 56.8814C49.7386 56.5465 50.0067 55.7427 49.6849 55.086C49.3501 54.4163 48.5469 54.1488 47.8902 54.4699Z" fill="#1E68E4"/>
<path d="M23.0963 54.4699C22.4266 54.135 21.6227 54.4163 21.3009 55.0729C20.9661 55.7427 21.2473 56.5465 21.904 56.8676C22.6614 57.2229 23.4032 56.8732 23.6987 56.2652C24.0335 55.5955 23.7523 54.7917 23.0963 54.4699Z" fill="#1E68E4"/>
<path d="M27.1816 56.4792C26.5119 56.1581 25.708 56.4256 25.3869 57.0953C25.052 57.752 25.3333 58.5558 25.9893 58.8907C26.6895 59.2158 27.4773 58.9254 27.7846 58.2746C28.1195 57.6179 27.8383 56.8141 27.1816 56.4792Z" fill="#1E68E4"/>
<path d="M19.0107 52.4476C18.3409 52.1258 17.5371 52.394 17.216 53.0637C16.8811 53.7197 17.1624 54.5236 17.819 54.8584C18.5024 55.179 19.3009 54.9049 19.6137 54.2423C19.9486 53.5863 19.6673 52.7825 19.0107 52.4476Z" fill="#1E68E4"/>
<path d="M9.51429 40.9417C10.2507 40.9417 10.8538 40.3387 10.8538 39.6022C10.8538 38.8521 10.2507 38.249 9.51429 38.249C8.7641 38.249 8.1748 38.8521 8.1748 39.6022C8.1748 40.3387 8.7641 40.9417 9.51429 40.9417Z" fill="#1E68E4"/>
<path d="M9.51429 36.8291C10.2507 36.8291 10.8538 36.2398 10.8538 35.5033C10.8538 34.7531 10.2507 34.1638 9.51429 34.1638C8.7641 34.1638 8.1748 34.7531 8.1748 35.5033C8.1748 36.2398 8.7641 36.8291 9.51429 36.8291Z" fill="#1E68E4"/>
<path d="M9.51429 32.7438C10.2507 32.7438 10.8538 32.1408 10.8538 31.4044C10.8538 30.6542 10.2507 30.0511 9.51429 30.0511C8.7641 30.0511 8.1748 30.6542 8.1748 31.4044C8.1748 32.1408 8.7641 32.7438 9.51429 32.7438Z" fill="#1E68E4"/>
<path d="M27.1816 14.5131C27.8383 14.1782 28.1195 13.375 27.7846 12.7184C27.4628 12.0486 26.659 11.7811 25.9893 12.1022C25.3333 12.4371 25.052 13.2409 25.3869 13.8969C25.718 14.5991 26.5706 14.8196 27.1816 14.5131Z" fill="#1E68E4"/>
<path d="M23.0963 16.5223C23.7523 16.2011 24.0335 15.3973 23.6987 14.7276C23.3775 14.0716 22.5737 13.7903 21.904 14.1252C21.2473 14.4463 20.9661 15.2501 21.3009 15.9199C21.5993 16.5328 22.3756 16.8839 23.0963 16.5223Z" fill="#1E68E4"/>
<path d="M19.0107 18.5452C19.6673 18.2103 19.9486 17.4065 19.6137 16.7505C19.2919 16.0808 18.4888 15.8126 17.819 16.1344C17.1624 16.4693 16.8811 17.2724 17.216 17.9291C17.5457 18.6274 18.3942 18.8534 19.0107 18.5452Z" fill="#1E68E4"/>
<path d="M43.8053 14.5C44.5248 14.8597 45.3017 14.5117 45.6 13.8969C45.9349 13.2272 45.6537 12.4371 44.997 12.1022C44.3273 11.7811 43.5241 12.0486 43.2023 12.7184C42.8674 13.375 43.1487 14.1782 43.8053 14.5Z" fill="#1E68E4"/>
<path d="M47.8902 16.5222C48.4952 16.8258 49.3289 16.6202 49.6849 15.9061C50.0067 15.2501 49.7386 14.4463 49.0688 14.1114C48.4128 13.7903 47.609 14.0578 47.2741 14.7275C46.953 15.3842 47.2205 16.1873 47.8902 16.5222Z" fill="#1E68E4"/>
<path d="M51.9757 18.5315C52.5866 18.8391 53.4225 18.6179 53.7567 17.9292C54.0916 17.2594 53.824 16.4556 53.1543 16.1345C52.4976 15.7996 51.6938 16.0808 51.359 16.7368C51.0378 17.4066 51.306 18.2104 51.9757 18.5315Z" fill="#1E68E4"/>
<path d="M67.6477 24.5061V18.9473C67.6477 18.4651 67.3798 18.023 66.978 17.7819L62.1425 14.9958C61.7272 14.7547 61.2182 14.7547 60.803 14.9958L55.9809 17.7819C55.5656 18.023 55.3111 18.4651 55.3111 18.9473V22.363L43.805 28.7255L36.8396 24.8276V16.6032C36.9754 16.5248 41.2548 14.0538 40.9921 14.2055C41.2332 14.0581 41.4073 13.8573 41.5278 13.6028C41.5278 13.5755 41.6618 13.3317 41.6618 13.0535V7.48131C41.6618 6.99904 41.4073 6.55707 40.9921 6.31597L36.1699 3.52982C35.7546 3.28872 35.2322 3.28872 34.8304 3.52982L29.9949 6.31597C29.5796 6.55707 29.3251 6.99904 29.3251 7.48131V13.0401C29.3251 13.2218 29.3941 13.4729 29.4591 13.6028C29.5796 13.8439 29.7538 14.0581 29.9949 14.2055L34.1607 16.6032V24.8276L27.182 28.7255L15.6758 22.3764V18.9473C15.6758 18.4651 15.4213 18.023 15.0061 17.7819L10.184 14.9958C9.76872 14.7547 9.25971 14.7547 8.84447 14.9958L4.02228 17.7819C3.60704 18.023 3.35254 18.4651 3.35254 18.9473V24.5061C3.35254 24.9884 3.60704 25.4303 4.02228 25.6714L8.84447 28.4576C9.07437 28.5729 9.39256 28.6451 9.51421 28.6451C9.84262 28.6451 10.0851 28.4905 10.184 28.4576C10.3197 28.3791 15.1419 25.593 15.0061 25.6714C15.1668 25.5777 15.3007 25.4438 15.4079 25.283L25.8425 31.0428V39.9504L15.4079 45.7101C15.3007 45.5628 15.1668 45.4288 15.0061 45.3217L12.6084 43.942C12.6084 43.942 12.6084 43.9286 12.595 43.9286C12.5816 43.9286 12.5816 43.9286 12.5682 43.9153L10.184 42.5356C9.94367 42.4155 9.84549 42.417 9.56776 42.3614C9.16283 42.3614 8.98452 42.4885 8.84447 42.5356L4.02228 45.3217C3.60704 45.5628 3.35254 46.0049 3.35254 46.4871V52.0459C3.35254 52.5281 3.60704 52.9701 4.02228 53.2112L8.84447 55.9974C9.04534 56.118 9.28644 56.1715 9.51421 56.1715C9.7419 56.1715 9.96959 56.118 10.184 55.9974L15.0061 53.2112C15.4213 52.9701 15.6758 52.5281 15.6758 52.0459V48.6168L27.182 42.2811L34.1607 46.1656V54.39L29.9949 56.8011C29.7404 56.935 29.5662 57.1627 29.4456 57.4306C29.4456 57.444 29.4323 57.4574 29.4323 57.4708C29.3653 57.6182 29.3251 57.7789 29.3251 57.953V63.5253C29.3251 63.9941 29.5796 64.4361 29.9949 64.6773L34.8304 67.4633C35.0314 67.5839 35.259 67.6509 35.5001 67.6509C35.7278 67.6509 35.9556 67.5839 36.1699 67.4633L40.9921 64.6773C41.4073 64.4361 41.6618 63.9941 41.6618 63.5253V57.953C41.6618 57.7709 41.5965 57.5412 41.5278 57.4038C41.4206 57.1627 41.2332 56.935 40.9921 56.8011L36.8396 54.39V46.1656L43.805 42.2811L55.3111 48.6302V52.0459C55.3111 52.5281 55.5656 52.9701 55.9809 53.2112L60.803 55.9974C61.0173 56.118 61.2451 56.1715 61.4727 56.1715C61.7138 56.1715 61.9415 56.118 62.1425 55.9974L66.978 53.2112C67.3798 52.9701 67.6477 52.5281 67.6477 52.0459V46.4871C67.6477 46.0049 67.3798 45.5628 66.978 45.3217L62.1425 42.5356C62.0514 42.4445 61.6603 42.3748 61.5263 42.3748C61.2626 42.322 60.8353 42.5356 60.803 42.5356C55.7647 45.451 55.8443 45.3913 55.6996 45.536C55.646 45.5762 55.6058 45.6432 55.5522 45.6967L45.1444 39.9504V31.0428L55.5522 25.2964C55.6643 25.4085 55.6584 25.4568 55.9809 25.6714C56.1151 25.7489 61.1215 28.6416 60.803 28.4576C61.0053 28.5587 61.3862 28.6451 61.4861 28.6451C61.5802 28.6451 61.9218 28.5679 62.1425 28.4576L66.978 25.6714C67.3798 25.4303 67.6477 24.9884 67.6477 24.5061ZM34.1607 43.0981L28.5215 39.9638V32.5297L34.1607 35.6774V43.0981ZM35.5001 33.3467L29.9413 30.2525L35.5001 27.1583L41.0456 30.2525L35.5001 33.3467ZM42.4655 39.9638L36.8396 43.0981V35.6774L42.4655 32.5297V39.9638Z" fill="#1E68E4"/>
</svg>
