<svg width="65" height="65" viewBox="0 0 65 65" fill="none" xmlns="http://www.w3.org/2000/svg">
<g clip-path="url(#clip0_41_6148)">
<path d="M4.26735 23.8151C4.60902 24.9866 5.08318 26.1162 5.68285 27.1761L3.97449 29.3307C3.41666 30.035 3.47941 31.0391 4.10697 31.6736L7.04954 34.6162C7.68408 35.2507 8.68818 35.3064 9.39244 34.7486L11.5331 33.0542C12.6348 33.6888 13.8063 34.1838 15.0266 34.5324L15.3473 37.2867C15.4519 38.1793 16.205 38.8487 17.0975 38.8487H21.2603C22.1529 38.8487 22.9059 38.1792 23.0105 37.2867L23.3173 34.6301C24.6282 34.2884 25.8834 33.7794 27.0618 33.1169L29.1327 34.7556C29.837 35.3134 30.8411 35.2506 31.4756 34.6231L34.4182 31.6805C35.0527 31.046 35.1085 30.0419 34.5507 29.3376L32.94 27.2946C33.6094 26.137 34.1323 24.9029 34.481 23.6129L36.9633 23.327C37.8559 23.2224 38.5253 22.4693 38.5253 21.5768V17.4139C38.5253 16.5214 37.8559 15.7683 36.9633 15.6637L34.5158 15.3779C34.1811 14.1018 33.6791 12.8816 33.0376 11.738L34.5438 9.8344C35.1016 9.13013 35.0389 8.12603 34.4113 7.4915L31.4757 4.5559C30.8412 3.92137 29.8371 3.86559 29.1328 4.42342L27.285 5.88773C26.0857 5.18347 24.8026 4.64655 23.4569 4.28396L23.178 1.89225C23.0734 0.999721 22.3203 0.330322 21.4278 0.330322H17.2649C16.3724 0.330322 15.6193 0.999721 15.5147 1.89225L15.2358 4.28396C13.8552 4.65353 12.5373 5.21136 11.3101 5.94351L9.39251 4.42342C8.68824 3.86559 7.68415 3.92834 7.04961 4.5559L4.10704 7.49847C3.47251 8.13301 3.41673 9.13711 3.97456 9.84137L5.57833 11.8705C4.93682 13.028 4.44872 14.2622 4.12796 15.5452L1.56193 15.8381C0.669399 15.9427 0 16.6957 0 17.5883V21.7511C0 22.6436 0.669399 23.3967 1.56193 23.5013L4.26735 23.8151ZM19.3498 12.5539C23.143 12.5539 26.232 15.6429 26.232 19.4362C26.232 23.2294 23.143 26.3184 19.3498 26.3184C15.5566 26.3184 12.4675 23.2294 12.4675 19.4362C12.4675 15.6429 15.5565 12.5539 19.3498 12.5539Z" fill="#1E68E4"/>
<path d="M60.5041 24.8402L58.3076 22.9854C57.6313 22.4136 56.6341 22.4415 55.9927 23.0481L54.7794 24.1847C53.7544 23.6896 52.6667 23.341 51.5439 23.1388L51.2024 21.4653C51.0281 20.6006 50.2262 20.001 49.3475 20.0707L46.4816 20.3147C45.603 20.3914 44.9127 21.1097 44.8848 21.9952L44.8291 23.6966C43.7273 24.0941 42.6883 24.6379 41.74 25.3213L40.2897 24.359C39.5505 23.8709 38.5674 24.0104 37.9956 24.6868L36.1409 26.8972C35.569 27.5735 35.5969 28.5707 36.2035 29.2122L37.4726 30.5649C37.0332 31.555 36.7195 32.594 36.5382 33.6608L34.7253 34.0304C33.8606 34.2047 33.261 35.0066 33.3307 35.8853L33.5748 38.7511C33.6515 39.6297 34.3697 40.32 35.2552 40.3479L37.2146 40.4106C37.5704 41.345 38.0375 42.2306 38.6022 43.0603L37.5075 44.7129C37.0194 45.452 37.1589 46.4352 37.8352 47.007L40.0317 48.8618C40.7081 49.4335 41.7052 49.4057 42.3467 48.799L43.7832 47.4532C44.7245 47.8925 45.7146 48.2203 46.7326 48.4155L47.1302 50.3819C47.3045 51.2465 48.1064 51.8462 48.985 51.7764L51.8508 51.5324C52.7294 51.4557 53.4197 50.7375 53.4476 49.8519L53.5104 47.9273C54.5563 47.5578 55.5464 47.0557 56.4598 46.4352L58.0428 47.4811C58.7819 47.9692 59.765 47.8298 60.3369 47.1534L62.1916 44.9569C62.7634 44.2806 62.7355 43.2834 62.1289 42.6419L60.8528 41.2893C61.32 40.2991 61.6618 39.2532 61.8569 38.1793L63.6001 37.8237C64.4647 37.6493 65.0644 36.8474 64.9947 35.9688L64.7506 33.1029C64.6739 32.2243 63.9557 31.534 63.0702 31.5061L61.32 31.4503C60.9573 30.4323 60.4692 29.4701 59.8626 28.5775L60.8178 27.1411C61.32 26.4021 61.1805 25.4119 60.5041 24.8402ZM49.7032 41.4077C46.6072 41.6728 43.8737 39.3647 43.6157 36.2688C43.3507 33.1728 45.6589 30.4393 48.7547 30.1813C51.8507 29.9164 54.5842 32.2245 54.8421 35.3204C55.1072 38.4164 52.799 41.1498 49.7032 41.4077Z" fill="#1E68E4"/>
<path d="M14.294 49.1199C13.4154 49.2105 12.739 49.9496 12.7321 50.8352L12.7112 52.5994C12.6972 53.4849 13.3527 54.238 14.2313 54.3497L15.5282 54.5169C15.7444 55.3049 16.0512 56.058 16.4486 56.7693L15.6119 57.8012C15.0541 58.4915 15.0959 59.4817 15.7165 60.1162L16.9507 61.3783C17.5713 62.0129 18.5614 62.0826 19.2657 61.5387L20.3046 60.7368C21.0367 61.1692 21.8108 61.5109 22.6196 61.7479L22.759 63.0867C22.8497 63.9653 23.5888 64.6417 24.4744 64.6486L26.2386 64.6696C27.1241 64.6835 27.8772 64.0281 27.9888 63.1495L28.1492 61.8804C29.0278 61.6642 29.8646 61.3365 30.6594 60.9042L31.6356 61.6921C32.326 62.25 33.3162 62.2081 33.9507 61.5875L35.2128 60.3533C35.8473 59.7328 35.9171 58.7426 35.3733 58.0383L34.627 57.069C35.0872 56.302 35.4429 55.4862 35.687 54.6285L36.8445 54.51C37.7231 54.4193 38.3994 53.6802 38.4064 52.7946L38.4272 51.0304C38.4413 50.1449 37.7858 49.3918 36.9072 49.2802L35.7775 49.1338C35.5614 48.2831 35.2407 47.4603 34.8223 46.6933L35.5266 45.8286C36.0844 45.1383 36.0426 44.1481 35.422 43.5136L34.1879 42.2515C33.5673 41.6169 32.577 41.5472 31.8728 42.0911L31.029 42.7396C30.2341 42.2585 29.3834 41.8889 28.4909 41.6379L28.3793 40.5432C28.2886 39.6645 27.5496 38.9882 26.6639 38.9812L24.8998 38.9603C24.0142 38.9464 23.2612 39.6018 23.1495 40.4804L23.0101 41.5682C22.0897 41.8052 21.2042 42.1679 20.3814 42.642L19.5097 41.9308C18.8194 41.3729 17.8292 41.4148 17.1947 42.0354L15.9256 43.2766C15.2911 43.8971 15.2213 44.8873 15.7652 45.5915L16.5113 46.5539C16.079 47.3209 15.7373 48.1367 15.5142 48.9944L14.294 49.1199ZM25.6808 47.1256C28.2119 47.1535 30.241 49.2384 30.2132 51.7696C30.1853 54.3008 28.1003 56.3298 25.5691 56.302C23.038 56.2741 21.0089 54.1892 21.0367 51.658C21.0647 49.1269 23.1496 47.0978 25.6808 47.1256Z" fill="#1E68E4"/>
</g>
<defs>
<clipPath id="clip0_41_6148">
<rect width="65" height="65" fill="white"/>
</clipPath>
</defs>
</svg>
