<svg width="105" height="105" viewBox="0 0 105 105" fill="none" xmlns="http://www.w3.org/2000/svg">
<g clip-path="url(#clip0_41_6129)">
<g filter="url(#filter0_d_41_6129)">
<path d="M92.557 52.5142C92.0881 54.8693 89.9995 56.5849 87.4953 56.6914C86.7067 56.7234 86.0353 57.2988 85.886 58.0767C85.7262 58.8547 86.1205 59.6432 86.8345 59.9736C89.1042 61.0392 90.3723 63.4262 89.8928 65.7812L89.4453 68.0191C88.8592 70.9708 85.5982 72.8144 82.7424 72.1111C81.9432 71.9193 81.1227 71.7701 80.3128 71.6102C79.1193 71.3758 77.9258 71.1307 76.7323 70.8963C75.1551 70.5766 73.5779 70.2676 72.0009 69.948C70.1254 69.575 68.2392 69.1912 66.3637 68.8183C64.2645 68.392 62.1652 67.9765 60.0658 67.5503C57.828 67.1027 55.5795 66.6552 53.3417 66.1969C51.0399 65.7387 48.7382 65.2698 46.4471 64.8116C44.1667 64.3534 41.8969 63.8951 39.6163 63.437C37.4425 63.0001 35.2685 62.5631 33.0948 62.1262C31.102 61.732 29.12 61.327 27.1272 60.9327C25.4009 60.5917 23.6746 60.2401 21.9589 59.8991C20.5843 59.622 19.2096 59.3451 17.8243 59.0679C16.8759 58.8761 15.9274 58.6843 14.9791 58.4925C14.5436 58.4075 14.1083 58.3121 13.673 58.227C13.6699 58.2264 13.6668 58.2262 13.6637 58.226C13.6326 58.2239 13.6104 58.244 13.6165 58.2745C13.8348 59.3656 13.7231 60.5262 13.2207 61.6147C12.1443 63.9378 9.64004 65.1526 7.23182 64.6837C6.51785 64.5452 5.73994 64.8116 5.43091 65.4723L4.47184 67.5503C4.16292 68.2109 4.47184 68.9781 5.03673 69.4363C5.1433 69.5217 81.9539 104.933 82.0816 104.964C82.7956 105.103 83.5735 104.837 83.8826 104.176L84.8416 102.098C85.1507 101.437 84.8416 100.67 84.2768 100.212C82.3587 98.6878 81.6553 95.9918 82.7317 93.6688C83.808 91.3458 86.3122 90.131 88.7205 90.5998C89.4344 90.7384 90.2124 90.472 90.5213 89.8113L91.4804 87.7333C91.7894 87.0726 91.4804 86.3055 90.9156 85.8471C88.9975 84.3233 88.2942 81.6272 89.3704 79.3043C90.4467 76.9813 92.951 75.7664 95.3593 76.2353C96.0732 76.3738 96.8512 76.1074 97.1602 75.4467L98.1193 73.3687C98.4282 72.708 98.1193 71.9408 97.5544 71.4826C95.6362 69.9587 94.9329 67.2627 96.0092 64.9396C97.0856 62.6165 99.5898 61.4018 101.998 61.8706C102.712 62.0091 103.49 61.7427 103.799 61.0821L104.854 58.7803C105.163 58.1196 104.875 57.3417 104.214 57.0327L93.4626 52.0711C93.0885 51.8985 92.6503 52.1129 92.557 52.5142Z" fill="url(#paint0_linear_41_6129)"/>
</g>
<g filter="url(#filter1_d_41_6129)">
<path d="M1.02961 51.7789C1.15748 51.8428 84.0741 68.4772 84.2127 68.4772C84.9374 68.4452 85.6406 67.9976 85.7791 67.2943L86.2267 65.0565C86.3652 64.3425 85.8964 63.6605 85.2357 63.3515C83.0191 62.3072 81.7083 59.8562 82.2093 57.3413C82.7101 54.8265 84.8734 53.0682 87.3243 52.9616C88.0489 52.9296 88.7522 52.4821 88.8908 51.7788L89.2211 50.1377L89.3384 49.5303C89.477 48.8163 89.008 48.1343 88.3474 47.8253C86.1308 46.781 84.8201 44.33 85.321 41.8152C85.8219 39.3003 87.9851 37.542 90.436 37.4354C91.1607 37.4034 91.864 36.9559 92.0025 36.2526L92.4501 34.0147C92.5886 33.3008 92.1196 32.6188 91.4589 32.3097C89.2424 31.2654 87.9317 28.8145 88.4327 26.2996C88.9335 23.7847 91.0967 22.0264 93.5477 21.9199C94.2723 21.8879 94.9755 21.4403 95.1142 20.737L95.6149 18.2541C95.7527 17.5442 95.3005 16.8554 94.5936 16.7114C94.5855 16.7097 94.5889 16.7104 94.5807 16.7088C94.3151 16.6556 11.2596 -0.00012207 11.1745 -0.00012207C10.5564 -0.00012207 10.013 0.436786 9.88509 1.05485L9.38425 3.53776C9.24572 4.25174 9.71459 4.93374 10.3753 5.24277C12.5918 6.28709 13.9025 8.73803 13.4017 11.2529C12.9008 13.7678 10.7376 15.5261 8.28665 15.6326C7.56192 15.6646 6.85871 16.1122 6.72017 16.8155L6.27261 19.0533C6.13408 19.7673 6.60296 20.4493 7.26365 20.7583C9.48015 21.8026 10.791 24.2536 10.29 26.7685C9.78919 29.2834 7.62596 31.0416 5.17501 31.1482C4.45038 31.1802 3.74707 31.6277 3.60854 32.331L3.16097 34.5689C3.02244 35.2828 3.49142 35.9648 4.15201 36.2739C6.36862 37.3182 7.67935 39.7691 7.17839 42.284C6.67755 44.799 4.51432 46.5573 2.06337 46.6639C1.33874 46.6958 0.635429 47.1434 0.496897 47.8467L0.0493329 50.0845C-0.0999618 50.7985 0.368809 51.4698 1.02961 51.7789ZM72.0538 24.4668C72.3415 23.0282 73.7482 22.0905 75.1868 22.3782C76.6254 22.6659 77.5631 24.0725 77.2754 25.5111L73.7588 43.0088L71.5956 53.7929C71.3399 55.061 70.2316 55.9349 68.9848 55.9349C68.8142 55.9349 68.6332 55.9136 68.4627 55.8816C67.0241 55.5939 66.0863 54.1873 66.374 52.7487L68.793 40.7178L72.0538 24.4668ZM24.0152 14.8229C24.303 13.3843 25.7096 12.4465 27.1482 12.7342C28.5868 13.022 29.5245 14.4286 29.2368 15.8672L28.022 21.9093L26.6474 28.7613L25.5392 34.2813L23.5678 44.149C23.3121 45.4171 22.2038 46.291 20.957 46.291C20.7865 46.291 20.6053 46.2697 20.4349 46.2377C20.3603 46.227 20.2857 46.2056 20.2218 46.1844C18.9004 45.8007 18.0798 44.4687 18.357 43.1048L18.7511 41.112L19.7848 35.9544L24.0152 14.8229Z" fill="url(#paint1_linear_41_6129)"/>
</g>
</g>
<defs>
<filter id="filter0_d_41_6129" x="0.349609" y="52.0109" width="108.629" height="60.9891" filterUnits="userSpaceOnUse" color-interpolation-filters="sRGB">
<feFlood flood-opacity="0" result="BackgroundImageFix"/>
<feColorMatrix in="SourceAlpha" type="matrix" values="0 0 0 0 0 0 0 0 0 0 0 0 0 0 0 0 0 0 127 0" result="hardAlpha"/>
<feOffset dy="4"/>
<feGaussianBlur stdDeviation="2"/>
<feColorMatrix type="matrix" values="0 0 0 0 0.0352941 0 0 0 0 0.517647 0 0 0 0 0.890196 0 0 0 0.2 0"/>
<feBlend mode="normal" in2="BackgroundImageFix" result="effect1_dropShadow_41_6129"/>
<feBlend mode="normal" in="SourceGraphic" in2="effect1_dropShadow_41_6129" result="shape"/>
</filter>
<filter id="filter1_d_41_6129" x="-3.97852" y="-0.00012207" width="103.618" height="76.4773" filterUnits="userSpaceOnUse" color-interpolation-filters="sRGB">
<feFlood flood-opacity="0" result="BackgroundImageFix"/>
<feColorMatrix in="SourceAlpha" type="matrix" values="0 0 0 0 0 0 0 0 0 0 0 0 0 0 0 0 0 0 127 0" result="hardAlpha"/>
<feOffset dy="4"/>
<feGaussianBlur stdDeviation="2"/>
<feColorMatrix type="matrix" values="0 0 0 0 0.0352941 0 0 0 0 0.517647 0 0 0 0 0.890196 0 0 0 0.2 0"/>
<feBlend mode="normal" in2="BackgroundImageFix" result="effect1_dropShadow_41_6129"/>
<feBlend mode="normal" in="SourceGraphic" in2="effect1_dropShadow_41_6129" result="shape"/>
</filter>
<linearGradient id="paint0_linear_41_6129" x1="143.042" y1="37.9912" x2="2.10436" y2="48.6331" gradientUnits="userSpaceOnUse">
<stop stop-color="#007CEE"/>
<stop offset="1" stop-color="#5F39CB"/>
</linearGradient>
<linearGradient id="paint1_linear_41_6129" x1="131.808" y1="-17.6717" x2="-2.45734" y2="-10.1786" gradientUnits="userSpaceOnUse">
<stop stop-color="#007CEE"/>
<stop offset="1" stop-color="#5F39CB"/>
</linearGradient>
<clipPath id="clip0_41_6129">
<rect width="105" height="105" fill="white"/>
</clipPath>
</defs>
</svg>
